<svg width="26" height="26" viewBox="0 0 26 26" fill="none" xmlns="http://www.w3.org/2000/svg">
<g clip-path="url(#clip0_2491_40553)">
<path d="M15.75 15C15.75 15.2652 15.6446 15.5196 15.4571 15.7071C15.2696 15.8946 15.0152 16 14.75 16C14.4848 16 14.2304 15.8946 14.0429 15.7071C13.8554 15.5196 13.75 15.2652 13.75 15C13.75 14.7348 13.8554 14.4804 14.0429 14.2929C14.2304 14.1054 14.4848 14 14.75 14C15.0152 14 15.2696 14.1054 15.4571 14.2929C15.6446 14.4804 15.75 14.7348 15.75 15ZM12.25 15C12.25 15.2652 12.1446 15.5196 11.9571 15.7071C11.7696 15.8946 11.5152 16 11.25 16C10.9848 16 10.7304 15.8946 10.5429 15.7071C10.3554 15.5196 10.25 15.2652 10.25 15C10.25 14.7348 10.3554 14.4804 10.5429 14.2929C10.7304 14.1054 10.9848 14 11.25 14C11.5152 14 11.7696 14.1054 11.9571 14.2929C12.1446 14.4804 12.25 14.7348 12.25 15Z" fill="#1D2939"/>
<path fill-rule="evenodd" clip-rule="evenodd" d="M13 10C13.394 10 13.7841 9.9224 14.1481 9.77164C14.512 9.62087 14.8427 9.3999 15.1213 9.12132C15.3999 8.84274 15.6209 8.51203 15.7716 8.14805C15.9224 7.78407 16 7.39397 16 7C16 6.60603 15.9224 6.21593 15.7716 5.85195C15.6209 5.48797 15.3999 5.15726 15.1213 4.87868C14.8427 4.6001 14.512 4.37913 14.1481 4.22836C13.7841 4.0776 13.394 4 13 4C12.2044 4 11.4413 4.31607 10.8787 4.87868C10.3161 5.44129 10 6.20435 10 7C10 7.79565 10.3161 8.55871 10.8787 9.12132C11.4413 9.68393 12.2044 10 13 10ZM13 5C13.5304 5 14.0391 5.21071 14.4142 5.58579C14.7893 5.96086 15 6.46957 15 7C15 7.53043 14.7893 8.03914 14.4142 8.41421C14.0391 8.78929 13.5304 9 13 9C12.4696 9 11.9609 8.78929 11.5858 8.41421C11.2107 8.03914 11 7.53043 11 7C11 6.46957 11.2107 5.96086 11.5858 5.58579C11.9609 5.21071 12.4696 5 13 5ZM13.5 17H12.5C12.1022 17 11.7206 17.158 11.4393 17.4393C11.158 17.7206 11 18.1022 11 18.5V20.5C11 20.8978 11.158 21.2794 11.4393 21.5607C11.7206 21.842 12.1022 22 12.5 22H13.5C13.8978 22 14.2794 21.842 14.5607 21.5607C14.842 21.2794 15 20.8978 15 20.5V18.5C15 18.1022 14.842 17.7206 14.5607 17.4393C14.2794 17.158 13.8978 17 13.5 17ZM12 18.5C12 18.3674 12.0527 18.2402 12.1464 18.1464C12.2402 18.0527 12.3674 18 12.5 18H13.5C13.6326 18 13.7598 18.0527 13.8536 18.1464C13.9473 18.2402 14 18.3674 14 18.5V20.5C14 20.6326 13.9473 20.7598 13.8536 20.8536C13.7598 20.9473 13.6326 21 13.5 21H12.5C12.3674 21 12.2402 20.9473 12.1464 20.8536C12.0527 20.7598 12 20.6326 12 20.5V18.5Z" fill="#1D2939"/>
<path d="M18.5 6.75C18.3011 6.75 18.1103 6.67098 17.9697 6.53033C17.829 6.38968 17.75 6.19891 17.75 6C17.75 5.80109 17.829 5.61032 17.9697 5.46967C18.1103 5.32902 18.3011 5.25 18.5 5.25H20.5C20.6989 5.25 20.8897 5.32902 21.0303 5.46967C21.171 5.61032 21.25 5.80109 21.25 6C21.25 6.19891 21.171 6.38968 21.0303 6.53033C20.8897 6.67098 20.6989 6.75 20.5 6.75H18.5ZM5.5 6.75C5.30109 6.75 5.11032 6.67098 4.96967 6.53033C4.82902 6.38968 4.75 6.19891 4.75 6C4.75 5.80109 4.82902 5.61032 4.96967 5.46967C5.11032 5.32902 5.30109 5.25 5.5 5.25H7.5C7.69891 5.25 7.88968 5.32902 8.03033 5.46967C8.17098 5.61032 8.25 5.80109 8.25 6C8.25 6.19891 8.17098 6.38968 8.03033 6.53033C7.88968 6.67098 7.69891 6.75 7.5 6.75H5.5Z" fill="#1D2939"/>
<path d="M7.10602 6.36404L7.40802 5.39404L11.106 6.13604L10.804 7.10604L7.10602 6.36404ZM14.894 6.13604L15.196 7.10604L18.894 6.36404L18.592 5.39404L14.894 6.13604Z" fill="#1D2939"/>
<path fill-rule="evenodd" clip-rule="evenodd" d="M17.5 13.5C17.5 12.3065 17.0259 11.1619 16.182 10.318C15.3381 9.47411 14.1935 9 13 9C11.8065 9 10.6619 9.47411 9.81802 10.318C8.97411 11.1619 8.5 12.3065 8.5 13.5V16C8.5 16.5304 8.71071 17.0391 9.08579 17.4142C9.46086 17.7893 9.96957 18 10.5 18H15.5C16.0304 18 16.5391 17.7893 16.9142 17.4142C17.2893 17.0391 17.5 16.5304 17.5 16V13.5ZM9.5 13.5C9.5 12.5717 9.86875 11.6815 10.5251 11.0251C11.1815 10.3687 12.0717 10 13 10C13.9283 10 14.8185 10.3687 15.4749 11.0251C16.1313 11.6815 16.5 12.5717 16.5 13.5V16C16.5 16.2652 16.3946 16.5196 16.2071 16.7071C16.0196 16.8946 15.7652 17 15.5 17H10.5C10.2348 17 9.98043 16.8946 9.79289 16.7071C9.60536 16.5196 9.5 16.2652 9.5 16V13.5Z" fill="#1D2939"/>
<path fill-rule="evenodd" clip-rule="evenodd" d="M13 24.5C19.351 24.5 24.5 19.351 24.5 13C24.5 6.649 19.351 1.5 13 1.5C6.649 1.5 1.5 6.649 1.5 13C1.5 19.351 6.649 24.5 13 24.5ZM13 25.5C19.904 25.5 25.5 19.904 25.5 13C25.5 6.096 19.904 0.5 13 0.5C6.096 0.5 0.5 6.096 0.5 13C0.5 19.904 6.096 25.5 13 25.5Z" fill="#1D2939"/>
</g>
<defs>
<clipPath id="clip0_2491_40553">
<rect width="26" height="26" fill="white"/>
</clipPath>
</defs>
</svg>
