<svg width="24" height="24" viewBox="0 0 24 24" fill="none" xmlns="http://www.w3.org/2000/svg">
<path d="M11.7629 3.00326C11.3291 2.20362 10.3107 1.6152 11.2972 0.821321C11.531 0.63319 12.2055 0.657931 12.4366 0.859875C13.3278 1.63855 12.3648 2.19739 11.93 2.98244C16.6506 3.66767 19.4604 6.17648 19.9588 11.0835H3.82106C3.77451 8.83529 4.63964 7.01576 6.16694 5.46355C7.66738 3.93865 9.5891 3.29026 11.7629 3.00326ZM4.97531 9.9917C5.28944 9.85846 5.84417 9.77149 5.88012 9.58476C6.20639 7.89029 6.98923 6.44048 8.09085 5.12817C6.37471 6.19735 5.36916 7.75304 4.97531 9.9917Z" fill="#317FF2" stroke="#263863" stroke-width="0.5" stroke-linecap="round" stroke-linejoin="round"/>
<path d="M1.68595 12.1577H22.3293C22.3475 12.2666 22.3656 12.3754 22.3837 12.4843C21.7745 12.5649 21.1669 12.6911 20.5556 12.7124C20.0272 12.7308 19.6604 12.7823 19.3751 13.3549C19.203 13.7002 18.6262 14.0416 18.2275 14.0461C13.9638 14.0944 9.69927 14.0877 5.43536 14.0513C5.07568 14.0482 4.4999 13.8008 4.40185 13.5303C4.11485 12.7384 3.58226 12.7047 2.90193 12.7083C2.47389 12.7106 2.0449 12.5355 1.61633 12.4399C1.63954 12.3459 1.66274 12.2518 1.68595 12.1577Z" fill="#317FF2" stroke="#263863" stroke-width="0.5" stroke-linecap="round" stroke-linejoin="round"/>
<path d="M4.97534 9.99195C5.36919 7.75329 6.37474 6.1976 8.09088 5.12842C6.98926 6.44073 6.20642 7.89054 5.88015 9.58501C5.8442 9.77174 5.28947 9.85871 4.97534 9.99195Z" fill="white" stroke="#263863" stroke-width="0.5" stroke-linecap="round" stroke-linejoin="round"/>
<path d="M14.8127 16.5076L13.2995 16.2515L13.0251 17.8728L14.5383 18.1289L14.8127 16.5076Z" fill="url(#paint0_linear_2491_29080)"/>
<path d="M16.5371 17.3866C16.9758 17.2251 17.4384 17.1383 17.9058 17.1297C18.2959 17.1234 19.2418 17.1083 19.4888 17.5901C19.5577 17.7246 19.6248 18.0002 19.509 18.111C19.459 18.1588 19.3896 18.162 19.3582 18.163C18.9958 18.1746 18.0217 18.1714 17.9462 18.1715C17.7163 18.1718 17.3809 18.214 16.9688 18.4208C17.7723 18.1415 18.4386 18.1222 18.852 18.1446C19.2291 18.1649 20.0201 18.2166 20.3202 18.6664C20.3628 18.7302 20.5059 18.9447 20.4326 19.1299C20.3871 19.2451 20.2766 19.3012 20.232 19.3238C19.7939 19.546 18.076 19.6368 17.8958 19.6459C18.293 19.6382 19.1989 19.6246 20.0824 19.6518C20.217 19.6559 20.4303 19.6829 20.5598 19.8224C20.7635 20.0417 20.6275 20.4261 20.3753 20.5874C20.1232 20.7487 19.8066 20.7558 19.5079 20.7767C17.7996 20.8966 16.2032 21.6244 14.6147 22.2644C13.0262 22.9044 11.3323 23.4755 9.63325 23.2605C7.9705 23.0501 6.46021 22.082 5.38513 20.7963C4.32628 19.5299 3.66021 17.9742 3.24232 16.3766C3.23591 16.3521 3.22956 16.3275 3.22327 16.303C3.91809 16.5625 4.70941 16.854 5.58353 17.1692C8.17406 18.1034 8.74058 18.2535 9.52794 18.1703C10.693 18.0473 11.5852 17.4935 11.6659 17.4423C11.7651 17.3812 11.8598 17.3132 11.9494 17.2387C12.0433 17.1587 12.111 17.0959 12.1364 17.0712C12.7674 16.4552 13.2007 16.0321 13.3543 15.9271C13.7071 15.6861 14.5184 15.8016 16.5371 17.3866Z" fill="url(#paint1_linear_2491_29080)"/>
<path d="M16.5992 17.6115C17.0444 17.4481 17.5147 17.3636 17.9889 17.3617C18.1638 17.3584 18.3387 17.3641 18.513 17.3788C18.5371 17.3811 18.5612 17.3836 18.5853 17.3863C18.6012 17.3881 18.6475 17.3947 18.6062 17.3886C18.658 17.3962 18.7095 17.4049 18.7607 17.4156C18.8569 17.4349 18.9512 17.4628 19.0424 17.4989C19.0007 17.482 19.0511 17.5038 19.0659 17.5112C19.0855 17.521 19.1049 17.5314 19.1238 17.5425C19.1397 17.5519 19.1547 17.5627 19.1705 17.5721C19.2059 17.5932 19.1741 17.5735 19.1669 17.5678C19.1762 17.5752 19.1854 17.5828 19.1943 17.5907C19.2098 17.6044 19.2235 17.6197 19.2384 17.6338C19.2759 17.6693 19.2308 17.615 19.2513 17.6477C19.2622 17.6651 19.2729 17.6822 19.2832 17.7C19.2877 17.7077 19.2912 17.716 19.2953 17.7239C19.2794 17.6936 19.2912 17.712 19.2985 17.7331C19.3148 17.7795 19.3276 17.827 19.3366 17.8754C19.3298 17.8376 19.3377 17.9042 19.3383 17.9162C19.3387 17.9228 19.3366 17.9693 19.3395 17.9394C19.3421 17.9133 19.3356 17.9541 19.3345 17.9593C19.3277 17.9915 19.3546 17.9316 19.3359 17.9568C19.3191 17.9793 19.3437 17.9461 19.344 17.946C19.3479 17.9438 19.3633 17.9305 19.3647 17.9295C19.3692 17.926 19.4017 17.932 19.3799 17.9284C19.3442 17.9264 19.3084 17.9276 19.2729 17.9318C18.9018 17.94 18.5304 17.9387 18.1593 17.9384C18.0279 17.9383 17.8959 17.9343 17.7649 17.9471C17.4424 17.9785 17.1411 18.0759 16.8511 18.2193C16.616 18.3355 16.7802 18.732 17.0309 18.6457C17.5838 18.4555 18.1134 18.3609 18.6902 18.3719C18.8822 18.3751 19.0738 18.3887 19.2644 18.4126C19.2187 18.4068 19.2814 18.4153 19.2962 18.4176C19.3246 18.4221 19.3529 18.4269 19.3812 18.4321C19.4425 18.4433 19.5034 18.4565 19.5637 18.4721C19.6172 18.486 19.6702 18.5018 19.7225 18.5199C19.7466 18.5284 19.7706 18.5374 19.7944 18.5468C19.7576 18.5322 19.7921 18.5456 19.7988 18.5488C19.8151 18.5564 19.8314 18.5639 19.8475 18.5719C19.895 18.5955 19.9408 18.6223 19.9846 18.6521C19.996 18.66 20.0075 18.668 20.0185 18.6764C19.9854 18.6508 20.0139 18.6734 20.0195 18.6789C20.0418 18.7003 20.0647 18.7202 20.0857 18.7431C20.0949 18.7531 20.1038 18.7634 20.1125 18.7739C20.1353 18.8012 20.0937 18.7457 20.113 18.7756C20.1218 18.7893 20.1312 18.8026 20.1399 18.8163C20.1528 18.8369 20.1652 18.8577 20.1766 18.8791C20.1834 18.8917 20.1898 18.9045 20.1959 18.9174C20.1819 18.8876 20.1986 18.9246 20.2028 18.9371C20.2079 18.9524 20.2119 18.968 20.2161 18.9836C20.2263 19.0216 20.2161 18.9549 20.2189 18.9944C20.2199 19.0067 20.2201 19.0191 20.2196 19.0315C20.2213 18.9995 20.2175 19.0373 20.216 19.0435C20.2211 19.0215 20.2112 19.0529 20.2081 19.0579C20.2241 19.0326 20.2018 19.0639 20.2 19.0668C20.1968 19.0719 20.1648 19.0986 20.1976 19.0727C20.1851 19.0821 20.1719 19.0907 20.1582 19.0985C20.1439 19.107 20.129 19.1144 20.1143 19.1222C20.1085 19.1254 20.1018 19.1277 20.0961 19.1311C20.0678 19.1477 20.119 19.1203 20.1221 19.1205C20.0963 19.1186 20.048 19.1477 20.0227 19.1556C19.8534 19.2044 19.6808 19.2408 19.5062 19.2646C19.4544 19.2726 19.4025 19.2801 19.3506 19.2873C19.4027 19.28 19.3264 19.2903 19.3127 19.2921C19.2857 19.2955 19.2588 19.2989 19.2318 19.3021C19.1235 19.3151 19.0151 19.3269 18.9066 19.3374C18.5704 19.3705 18.2335 19.3955 17.8959 19.4125C17.77 19.4188 17.6625 19.5152 17.6625 19.6458C17.6632 19.7075 17.688 19.7664 17.7316 19.81C17.7753 19.8536 17.8342 19.8784 17.8959 19.8791C18.2142 19.873 18.5327 19.8696 18.8511 19.8689C19.2727 19.8683 19.6983 19.8613 20.1193 19.8867C20.1325 19.8875 20.1457 19.8889 20.159 19.8897C20.2253 19.894 20.1143 19.8777 20.1826 19.8931C20.2166 19.9007 20.2503 19.9075 20.2835 19.9182C20.292 19.9209 20.3372 19.9405 20.3051 19.9252C20.3197 19.9322 20.3331 19.9405 20.3474 19.9479C20.3681 19.9577 20.3858 19.973 20.3986 19.9921C20.3977 19.9906 20.4278 20.0513 20.4155 20.0209C20.4031 19.9902 20.4239 20.0551 20.4233 20.053C20.4359 20.0949 20.4247 20.0653 20.4242 20.0538C20.4251 20.0755 20.4247 20.0966 20.4241 20.1182C20.4239 20.1287 20.4151 20.1605 20.4238 20.1213C20.4198 20.1394 20.4146 20.1572 20.4103 20.1753C20.4081 20.1845 20.3916 20.2304 20.4064 20.1938C20.3974 20.2148 20.387 20.2353 20.3753 20.2549C20.364 20.275 20.3514 20.2943 20.3377 20.3128C20.3449 20.3033 20.361 20.289 20.3309 20.3192C20.3174 20.3327 20.3043 20.3465 20.2907 20.3599C20.2837 20.3668 20.2452 20.395 20.2763 20.3734C20.2083 20.4209 20.1323 20.4556 20.052 20.4759C19.8671 20.5275 19.6881 20.5302 19.4921 20.5445C17.7517 20.6709 16.1498 21.3961 14.5527 22.0393C13.7441 22.365 12.9224 22.6686 12.0718 22.8654C11.255 23.0544 10.3675 23.1397 9.55864 23.0164C8.09839 22.7939 6.79959 21.9976 5.80586 20.9221C4.73624 19.7644 4.04806 18.3022 3.60372 16.8037C3.54839 16.6171 3.49658 16.4295 3.44831 16.2409L3.16129 16.5279C4.52494 17.037 5.8898 17.5514 7.27247 18.007C7.91414 18.2185 8.5912 18.4448 9.27597 18.4217C9.82043 18.4034 10.3651 18.2751 10.8728 18.0818C11.2523 17.9373 11.6343 17.7641 11.9632 17.5221C12.2357 17.3215 12.4686 17.0724 12.7105 16.8373C12.9099 16.6436 13.1087 16.4488 13.3151 16.2625C13.3474 16.2332 13.38 16.2042 13.4132 16.176C13.4267 16.1644 13.4405 16.1531 13.4542 16.1417C13.4596 16.1372 13.4653 16.1331 13.4706 16.1285C13.501 16.1021 13.4219 16.1615 13.4529 16.1423C13.4854 16.1221 13.5206 16.1043 13.5526 16.0838C13.4923 16.1225 13.5162 16.0978 13.5534 16.086C13.575 16.0792 13.597 16.0736 13.6193 16.0692C13.6287 16.0674 13.6383 16.0664 13.6476 16.0643C13.6728 16.0584 13.5715 16.0702 13.6301 16.0672C13.6541 16.066 13.6779 16.064 13.702 16.0638C13.728 16.0637 13.7541 16.0647 13.78 16.0666C13.7939 16.0676 13.8077 16.0692 13.8215 16.0704C13.886 16.0761 13.7665 16.0604 13.8224 16.0706C13.8876 16.0824 13.9519 16.096 14.0157 16.114C14.0936 16.136 14.1702 16.1625 14.2456 16.1918C14.2661 16.1998 14.2863 16.2082 14.3066 16.2163C14.3438 16.2309 14.2973 16.2123 14.2927 16.2103C14.3046 16.2155 14.3165 16.2206 14.3283 16.2258C14.3757 16.2466 14.4228 16.2684 14.4694 16.291C14.9876 16.5419 15.4672 16.8731 15.9292 17.2142C16.0785 17.3244 16.2262 17.4368 16.3722 17.5515C16.4712 17.6291 16.6055 17.6481 16.7021 17.5515C16.7829 17.4707 16.8019 17.2997 16.7021 17.2215C16.1673 16.8022 15.6183 16.3919 15.0255 16.0569C14.6995 15.8727 14.3439 15.691 13.9716 15.6248C13.7329 15.5824 13.4756 15.581 13.261 15.7099C13.1185 15.7956 12.9941 15.9226 12.8732 16.0354C12.6401 16.2526 12.4126 16.4758 12.1845 16.6982C12.0688 16.8111 11.9549 16.9256 11.833 17.0318C11.8039 17.0572 11.7744 17.0821 11.7446 17.1065C11.7378 17.112 11.7109 17.1315 11.745 17.1062C11.7331 17.115 11.7212 17.1238 11.7092 17.1325C11.6542 17.1722 11.5976 17.21 11.54 17.2459C11.422 17.3185 11.3005 17.3851 11.1758 17.4454C11.1247 17.4706 11.0732 17.4949 11.0214 17.5184C10.9962 17.5299 10.9709 17.5411 10.9455 17.5522C10.9487 17.5508 10.8841 17.5786 10.9136 17.5661C10.9333 17.5577 10.8765 17.5814 10.869 17.5845C10.727 17.6422 10.5828 17.6942 10.4365 17.7403C10.1283 17.8398 9.81067 17.907 9.48863 17.9409C9.36978 17.9528 9.25036 17.9579 9.13094 17.9563C9.06762 17.9553 9.00438 17.9521 8.94123 17.9467C8.91163 17.9442 8.88207 17.9413 8.85255 17.938C8.83648 17.9361 8.82044 17.9339 8.80435 17.9321C8.76794 17.9282 8.83434 17.9361 8.8337 17.9361C8.82253 17.9356 8.81143 17.934 8.80056 17.9314C8.44387 17.8762 8.0957 17.7777 7.75149 17.6709C7.16412 17.4886 6.58458 17.2809 6.00572 17.0736C5.25649 16.8052 4.50882 16.5325 3.7627 16.2556C3.60351 16.1965 3.44439 16.1373 3.28534 16.0779C3.11207 16.0133 2.95725 16.2054 2.99831 16.365C3.41805 17.9956 4.09045 19.5808 5.16316 20.8922C6.15063 22.0994 7.52113 23.0523 9.05582 23.3953C10.8551 23.7974 12.6715 23.2759 14.3435 22.6218C15.982 21.9807 17.6188 21.171 19.3967 21.0187C19.8159 20.9827 20.2904 20.995 20.6207 20.6899C20.9021 20.4299 21.0075 19.9415 20.7162 19.6486C20.5703 19.5019 20.3696 19.4439 20.1694 19.4241C19.9639 19.4038 19.7536 19.4095 19.5473 19.4065C19.1351 19.4005 18.7228 19.4004 18.3105 19.406C18.1723 19.4076 18.0341 19.4098 17.8959 19.4125V19.8791C18.2131 19.8631 18.53 19.84 18.8464 19.8099C19.2798 19.7688 19.7357 19.7346 20.1532 19.6036C20.391 19.5289 20.6298 19.3852 20.676 19.1183C20.7253 18.8335 20.5543 18.524 20.3417 18.3423C19.9464 18.0045 19.3887 17.9416 18.8891 17.9132C18.2163 17.8781 17.543 17.9741 16.9068 18.1957L17.0866 18.6222C17.2187 18.5563 17.3571 18.5038 17.4996 18.4653C17.5603 18.4491 17.6216 18.4356 17.6836 18.4248C17.6951 18.4228 17.7065 18.4211 17.718 18.4192C17.7568 18.4128 17.6848 18.4228 17.7224 18.4184C17.7536 18.4148 17.7847 18.4117 17.816 18.4095C17.9379 18.4009 18.061 18.405 18.183 18.4051C18.5721 18.4053 18.963 18.4131 19.3517 18.3964C19.5112 18.3896 19.6623 18.3297 19.7436 18.1842C19.8172 18.0524 19.8127 17.8952 19.7866 17.7513C19.7659 17.6335 19.7215 17.5212 19.6561 17.4212C19.5907 17.3211 19.5056 17.2354 19.406 17.1692C19.0531 16.9282 18.5669 16.8994 18.1532 16.8949C17.5801 16.8886 17.0163 16.9672 16.4751 17.1615C16.3566 17.2041 16.2769 17.3204 16.3121 17.4485C16.3436 17.5631 16.48 17.6543 16.5992 17.6115Z" fill="url(#paint2_linear_2491_29080)"/>
<path d="M14.1459 16.5257C14.2018 16.6843 14.4453 17.318 15.0755 17.5815C15.189 17.629 15.5345 17.7735 15.9081 17.648C15.9447 17.6357 16.3409 17.498 16.3576 17.265C16.3693 17.1017 16.1859 17.0165 15.9746 16.8154C15.3749 16.2448 15.5523 15.6937 14.9559 15.2817C14.8628 15.2174 14.7336 15.1281 14.5543 15.088C13.7401 14.9058 12.8672 15.9537 11.7558 17.3186C11.4384 17.7083 11.0078 18.2634 10.5339 18.9649" fill="url(#paint3_linear_2491_29080)"/>
<path d="M13.9209 16.5879C13.9835 16.7691 14.0683 16.9419 14.1734 17.1022C14.3491 17.3656 14.5815 17.5977 14.8664 17.7412C15.1815 17.9 15.5407 17.9801 15.8898 17.8963C15.9959 17.8691 16.0982 17.829 16.1946 17.7769C16.3246 17.7089 16.4548 17.6121 16.528 17.482C16.5832 17.3843 16.602 17.2702 16.581 17.1599C16.5654 17.0681 16.506 16.9846 16.4436 16.9184C16.3868 16.8624 16.3268 16.8098 16.2639 16.7608C16.1867 16.6971 16.1138 16.6283 16.0457 16.5548C16.0132 16.5191 15.9821 16.4821 15.9526 16.4437L15.9891 16.491C15.8831 16.348 15.7956 16.1921 15.7289 16.0271L15.7524 16.0829C15.6604 15.8637 15.5852 15.6315 15.443 15.4381C15.3989 15.3765 15.3503 15.3182 15.2976 15.2637C15.2392 15.2067 15.1766 15.1542 15.1103 15.1066C15.0034 15.027 14.8869 14.961 14.7637 14.9102C14.5614 14.827 14.34 14.819 14.1274 14.86C13.9424 14.8956 13.764 14.9786 13.6038 15.076C13.4114 15.1969 13.2309 15.3359 13.065 15.4912C12.8791 15.6607 12.7052 15.8431 12.5367 16.0298C12.1586 16.4489 11.8013 16.8881 11.4494 17.3292C11.1072 17.758 10.7799 18.1981 10.4675 18.6496C10.4222 18.7153 10.3771 18.7812 10.3325 18.8473C10.317 18.8738 10.3069 18.903 10.3027 18.9334C10.2985 18.9638 10.3004 18.9947 10.3082 19.0243C10.3159 19.054 10.3295 19.0818 10.348 19.1062C10.3665 19.1306 10.3897 19.1511 10.4162 19.1666C10.5341 19.2289 10.6623 19.1911 10.7354 19.0829C10.957 18.755 11.1868 18.4329 11.4248 18.1165C11.4825 18.0398 11.5407 17.9635 11.5994 17.8875L11.5629 17.9347C11.8125 17.6119 12.0714 17.2962 12.3319 16.9823C12.609 16.6484 12.8906 16.3166 13.1978 16.0098C13.339 15.8667 13.489 15.7326 13.6471 15.6084L13.5999 15.6449C13.743 15.5308 13.9001 15.4353 14.0674 15.3609L14.0116 15.3844C14.1059 15.3439 14.205 15.3158 14.3065 15.3009L14.2445 15.3093C14.324 15.2985 14.4046 15.2984 14.4842 15.3089L14.4222 15.3006C14.4984 15.3115 14.5729 15.3322 14.644 15.362L14.5882 15.3385C14.6974 15.3877 14.8002 15.45 14.8942 15.5243L14.847 15.4878C14.9263 15.5488 14.9976 15.6195 15.0594 15.6982L15.0229 15.651C15.1051 15.7626 15.1726 15.8842 15.2239 16.013L15.2004 15.9572C15.2781 16.1418 15.3454 16.3315 15.4426 16.5071C15.5627 16.7203 15.7199 16.9102 15.9069 17.068C15.9869 17.1363 16.0773 17.1989 16.1428 17.2822L16.1063 17.235C16.1204 17.2532 16.1322 17.2729 16.1415 17.2939L16.118 17.2382C16.1248 17.2548 16.1294 17.2721 16.1318 17.2899L16.1235 17.2279C16.1251 17.2442 16.125 17.2606 16.1231 17.2768L16.1315 17.2148C16.1284 17.2359 16.1227 17.2565 16.1145 17.2761L16.138 17.2203C16.1275 17.2438 16.1143 17.2659 16.0985 17.2862L16.135 17.239C16.1089 17.2714 16.0789 17.3006 16.0458 17.326L16.093 17.2895C16.0232 17.3416 15.947 17.3847 15.8663 17.4176L15.922 17.3941C15.8401 17.4288 15.754 17.4526 15.666 17.4647L15.728 17.4564C15.6345 17.4678 15.5399 17.4673 15.4465 17.4547L15.5085 17.463C15.3778 17.4433 15.2504 17.4064 15.1293 17.3533L15.1851 17.3768C15.0719 17.3281 14.9652 17.2655 14.8675 17.1904L14.9147 17.2268C14.8041 17.1404 14.7048 17.0405 14.619 16.9294L14.6555 16.9766C14.5481 16.8368 14.4592 16.6838 14.3911 16.5212L14.4146 16.5769C14.3989 16.5397 14.3844 16.502 14.3709 16.4639C14.3533 16.4059 14.3152 16.3563 14.2637 16.3244C14.2372 16.309 14.2079 16.2988 14.1776 16.2947C14.1472 16.2905 14.1163 16.2924 14.0867 16.3001C14.057 16.3079 14.0292 16.3215 14.0048 16.34C13.9804 16.3585 13.9599 16.3817 13.9444 16.4081C13.9163 16.4614 13.9001 16.529 13.9209 16.5879Z" fill="url(#paint4_linear_2491_29080)"/>
<path d="M11.3758 17.5229C11.351 17.5337 11.3262 17.5444 11.3014 17.5549L11.3571 17.5314C11.0044 17.6812 10.6381 17.7967 10.2632 17.8761C10.137 17.9025 10.01 17.9243 9.88221 17.9417L9.94424 17.9333C9.49019 17.9946 9.02999 17.995 8.57584 17.9346L8.63786 17.9429C8.13794 17.8744 7.65429 17.7294 7.18468 17.5475C7.0554 17.4974 6.92712 17.4448 6.79937 17.391L6.85511 17.4145C6.52372 17.2746 6.19504 17.1288 5.86165 16.9936C5.52321 16.8564 5.18327 16.7229 4.84471 16.5859C4.62888 16.4986 4.41365 16.4098 4.19903 16.3195L4.25477 16.3431C4.08614 16.2719 3.91805 16.1993 3.75053 16.1256C3.69112 16.0993 3.63596 16.0841 3.57073 16.102C3.51226 16.1187 3.46236 16.157 3.43128 16.2093C3.41568 16.2362 3.40556 16.2659 3.40153 16.2968C3.39749 16.3277 3.39961 16.359 3.40776 16.3891C3.42524 16.4431 3.4607 16.5046 3.51499 16.5285C4.20797 16.8342 4.91244 17.1114 5.61493 17.3941C5.77167 17.4572 5.92817 17.5209 6.08384 17.5866L6.0281 17.563C6.73572 17.862 7.43432 18.1873 8.19238 18.3389C8.99432 18.4979 9.82167 18.4757 10.6139 18.2738C10.9553 18.1853 11.2889 18.069 11.6113 17.9259C11.6612 17.904 11.7047 17.8364 11.7185 17.7864C11.7347 17.7257 11.7262 17.6611 11.695 17.6066C11.6641 17.5542 11.6141 17.5158 11.5555 17.4994C11.4947 17.4864 11.4312 17.4947 11.3758 17.5229Z" fill="url(#paint5_linear_2491_29080)"/>
<path d="M8.04555 21.3786C8.25582 21.2909 8.34802 21.0354 8.33848 20.773C8.32893 20.5106 8.2342 20.2385 8.14074 19.9727C8.11929 19.9118 8.09551 19.8471 8.04831 19.8006C7.98876 19.7419 7.90912 19.7283 7.83692 19.7184C7.40531 19.6594 3.7145 18.3482 3.52796 19.1296C3.47651 19.3451 3.7067 19.6763 4.16704 20.3386C4.3404 20.5881 4.45329 20.7092 4.58987 20.8095C4.80702 20.9689 5.05745 21.0171 5.29511 21.0544C5.68573 21.1157 6.71509 21.1656 8.12277 21.2286" fill="url(#paint6_linear_2491_29080)"/>
<path d="M8.16337 21.5798C8.23547 21.5477 8.29996 21.5007 8.35262 21.4419C8.41836 21.3674 8.4702 21.2816 8.50567 21.1888C8.53342 21.1171 8.55175 21.0421 8.56021 20.9658C8.57193 20.8834 8.57474 20.8 8.56859 20.7171C8.55026 20.5229 8.50932 20.3315 8.44658 20.1468C8.41915 20.062 8.39002 19.9776 8.35986 19.8938C8.32351 19.7927 8.27857 19.687 8.19279 19.6174C8.13764 19.5712 8.07397 19.5363 8.00538 19.5146C7.9719 19.5048 7.93766 19.4978 7.90302 19.4937C7.88989 19.4918 7.87685 19.4897 7.86385 19.4871C7.82914 19.4802 7.79475 19.4717 7.76048 19.4629C7.6551 19.436 7.55054 19.4058 7.44604 19.3757C7.30257 19.3344 7.1593 19.2923 7.01589 19.2507C6.84576 19.2014 6.6754 19.1529 6.50481 19.1052C6.31863 19.0534 6.13195 19.0036 5.94476 18.9556C5.75599 18.9075 5.56655 18.862 5.3762 18.8207C5.19549 18.7814 5.01391 18.7458 4.83124 18.7169C4.65098 18.6884 4.46934 18.664 4.28706 18.6533C4.13579 18.6439 3.98396 18.6496 3.83385 18.6705C3.78193 18.6773 3.73074 18.6888 3.68092 18.7049C3.62065 18.7231 3.56332 18.7498 3.5107 18.7844C3.44734 18.8261 3.39371 18.8811 3.35345 18.9454C3.31242 19.0165 3.28987 19.0967 3.28788 19.1787C3.28735 19.2272 3.29237 19.2756 3.30282 19.323C3.3094 19.3563 3.31874 19.389 3.33074 19.4207C3.36899 19.5222 3.41594 19.6202 3.47109 19.7136C3.61476 19.9611 3.78361 20.1943 3.94674 20.429C4.1206 20.6792 4.30766 20.9281 4.57909 21.0793C4.83117 21.2198 5.11838 21.2676 5.40112 21.302C5.5715 21.3227 5.74286 21.3356 5.91403 21.3476C6.16126 21.3651 6.40873 21.379 6.65623 21.3921C6.97043 21.4087 7.28469 21.424 7.59902 21.438C7.77361 21.446 7.94821 21.4539 8.12282 21.4617C8.24492 21.4672 8.36162 21.3505 8.35615 21.2284C8.35487 21.1669 8.32987 21.1083 8.28639 21.0648C8.24291 21.0213 8.1843 20.9963 8.12282 20.9951C7.65516 20.9741 7.1875 20.9531 6.72001 20.9288C6.38615 20.9114 6.05216 20.8933 5.71893 20.8662C5.59735 20.8564 5.47571 20.8455 5.35477 20.8294L5.4168 20.8377C5.23124 20.8128 5.04341 20.7789 4.86982 20.7067L4.92556 20.7302C4.83917 20.6937 4.75776 20.6464 4.68324 20.5894L4.73047 20.6259C4.62641 20.5426 4.53332 20.4465 4.45342 20.3398L4.4899 20.3871C4.3594 20.2179 4.241 20.0386 4.1209 19.862C4.03074 19.7294 3.94095 19.5959 3.86163 19.4565C3.82845 19.3993 3.79867 19.3402 3.77243 19.2794L3.79596 19.3352C3.77376 19.2848 3.75808 19.2318 3.74929 19.1774L3.75763 19.2394C3.75359 19.211 3.75331 19.1821 3.75681 19.1535L3.74848 19.2156C3.75147 19.1942 3.7572 19.1732 3.76554 19.1533L3.74202 19.209C3.74982 19.191 3.75982 19.1741 3.77179 19.1585L3.7353 19.2057C3.74923 19.1881 3.76528 19.1722 3.78309 19.1585L3.73587 19.195C3.76244 19.1751 3.79142 19.1586 3.82212 19.1459L3.76639 19.1694C3.82948 19.1444 3.89556 19.1278 3.96297 19.1198L3.90094 19.1282C4.07872 19.1045 4.26069 19.1145 4.43854 19.132C4.49874 19.1379 4.55881 19.1451 4.61877 19.1531L4.55674 19.1448C4.81303 19.1793 5.06712 19.2293 5.31947 19.2855C5.58631 19.3449 5.85143 19.4119 6.11546 19.4827C6.3631 19.5491 6.60977 19.6191 6.85605 19.6904C7.05116 19.7468 7.24591 19.8046 7.44137 19.8598C7.55066 19.8907 7.66166 19.9264 7.77432 19.9431C7.82187 19.9483 7.86857 19.9595 7.91329 19.9765L7.85755 19.953C7.87609 19.9614 7.89368 19.9717 7.91003 19.9838L7.86281 19.9473C7.87923 19.9606 7.89403 19.9757 7.90692 19.9923L7.87043 19.9451C7.88775 19.9695 7.90235 19.9957 7.91397 20.0233L7.89045 19.9676C7.93916 20.0841 7.97729 20.207 8.01452 20.3276C8.05385 20.4501 8.08313 20.5756 8.10205 20.7028L8.09372 20.6408C8.10772 20.7382 8.10906 20.837 8.09771 20.9348L8.10605 20.8727C8.09728 20.9399 8.07983 21.0056 8.05416 21.0683L8.07768 21.0126C8.05982 21.0546 8.037 21.0943 8.0097 21.1308L8.04619 21.0836C8.02379 21.1126 7.99798 21.1387 7.96933 21.1616L8.01655 21.1251C7.98924 21.146 7.95944 21.1634 7.92783 21.1769C7.87793 21.1983 7.83428 21.2667 7.8206 21.3163C7.80446 21.377 7.81291 21.4416 7.84412 21.4961C7.87501 21.5485 7.92498 21.587 7.98357 21.6034L8.0456 21.6117C8.08699 21.6118 8.12765 21.6008 8.16337 21.5798Z" fill="#263863"/>
<path d="M3.52551 19.2244C3.18067 19.0134 3.15038 18.2681 3.08982 16.7775C3.08414 16.6377 3.08456 16.4321 3.21802 16.3204C3.43932 16.1353 3.88227 16.3345 4.2516 16.499C6.31879 17.4198 6.11907 17.2704 6.3219 17.4053C7.79026 18.3819 8.0621 19.4279 8.05752 19.5651C8.05353 19.6848 7.99549 19.7246 7.99549 19.7246C7.94517 19.759 7.87715 19.7401 7.85687 19.7347C7.65895 19.6827 5.65086 19.253 4.48089 19.2456C3.84485 19.2416 3.7541 19.3643 3.52551 19.2244Z" fill="url(#paint7_linear_2491_29080)"/>
<path d="M3.64323 19.0228C3.63072 19.015 3.61862 19.0067 3.60697 18.9977L3.65419 19.0342C3.62371 19.0101 3.59635 18.9823 3.57276 18.9515L3.60924 18.9987C3.5735 18.9507 3.5439 18.8983 3.52114 18.843L3.54467 18.8987C3.47374 18.7302 3.44283 18.5458 3.41861 18.3657L3.42695 18.4277C3.36444 17.9581 3.35209 17.4815 3.33256 17.0087C3.3267 16.8668 3.31087 16.7209 3.32845 16.5793L3.32011 16.6413C3.32591 16.5939 3.33786 16.5475 3.35565 16.5032L3.33213 16.5589C3.34394 16.5315 3.35905 16.5056 3.37712 16.4818L3.34064 16.529C3.35608 16.5097 3.37372 16.4923 3.39318 16.4771L3.34596 16.5136C3.36502 16.4994 3.38559 16.4875 3.4073 16.4778L3.35156 16.5014C3.38243 16.4886 3.41482 16.4798 3.44793 16.4753L3.38591 16.4837C3.44008 16.4775 3.49483 16.4782 3.54881 16.4859L3.48678 16.4775C3.65881 16.5011 3.8235 16.5661 3.98255 16.6332L3.92681 16.6097C4.18716 16.72 4.44412 16.8385 4.70303 16.9521C4.89651 17.0371 5.09035 17.1212 5.28454 17.2044C5.5084 17.3002 5.73281 17.3947 5.95863 17.4858C6.00758 17.5055 6.05672 17.5248 6.10536 17.5453L6.04962 17.5218C6.10041 17.5435 6.14906 17.5698 6.19493 17.6006C6.31903 17.6827 6.44002 17.7692 6.55789 17.8602L6.51067 17.8237C6.77012 18.0226 7.00937 18.2464 7.22494 18.4922C7.27533 18.5502 7.32407 18.6096 7.37118 18.6704L7.3347 18.6232C7.47196 18.7986 7.59136 18.9873 7.69111 19.1865C7.71248 19.2299 7.73262 19.2738 7.75153 19.3184L7.72801 19.2626C7.77213 19.3672 7.81455 19.4783 7.82996 19.5915L7.82163 19.5295C7.82465 19.5535 7.82442 19.5779 7.82097 19.6019L7.8293 19.5399C7.8261 19.5616 7.82039 19.5828 7.81229 19.6032L7.83581 19.5475C7.82993 19.5612 7.82251 19.5742 7.81371 19.5862L7.8502 19.539C7.84479 19.5462 7.83855 19.5528 7.8316 19.5585L7.87883 19.5221C7.87151 19.5272 7.86358 19.5314 7.85522 19.5346L7.91096 19.5111C7.90078 19.5145 7.89028 19.517 7.87962 19.5185L7.94165 19.5102C7.92684 19.5115 7.91194 19.5112 7.89717 19.5095L7.9592 19.5179C7.90408 19.5101 7.8489 19.4926 7.79455 19.4805C7.70586 19.4607 7.61695 19.4419 7.52796 19.4236C7.25394 19.3671 6.97909 19.3149 6.7034 19.2669C6.34443 19.2042 5.98421 19.1494 5.62274 19.1026C5.29347 19.0605 4.96236 19.0261 4.63043 19.0151C4.44971 19.0083 4.26873 19.0124 4.0885 19.0274C3.97717 19.0371 3.86497 19.0583 3.753 19.058C3.73265 19.0581 3.71231 19.0568 3.69212 19.0542L3.75415 19.0625C3.72093 19.0579 3.68847 19.0489 3.65757 19.0358L3.7133 19.0594C3.68912 19.0488 3.6657 19.0366 3.64323 19.0228C3.53879 18.9593 3.38217 18.9963 3.32399 19.1065C3.29394 19.1602 3.28588 19.2234 3.30149 19.283C3.3171 19.3425 3.35516 19.3937 3.40769 19.4257C3.5142 19.4916 3.63718 19.5259 3.76239 19.5247C3.88063 19.5231 3.99874 19.5012 4.11648 19.4917C4.46035 19.4638 4.80664 19.4842 5.14949 19.5163C5.34646 19.5348 5.54295 19.5582 5.73902 19.5845L5.677 19.5762C6.01063 19.6211 6.34309 19.6746 6.67448 19.7337C6.93622 19.7804 7.19727 19.8307 7.45765 19.8847C7.53827 19.9016 7.61883 19.9187 7.69917 19.9369C7.72362 19.9424 7.74806 19.948 7.77241 19.9539C7.85009 19.9764 7.93183 19.981 8.01154 19.9674C8.13983 19.9415 8.21729 19.8422 8.26229 19.7273C8.28164 19.6746 8.29132 19.6189 8.29086 19.5627C8.29089 19.5567 8.29054 19.5508 8.29003 19.5448C8.28439 19.4804 8.27269 19.4167 8.25509 19.3545C8.19854 19.1648 8.11974 18.9825 8.02033 18.8113C7.86692 18.5442 7.68331 18.2957 7.47312 18.0706C7.18536 17.7574 6.85314 17.4852 6.50221 17.2459C6.45118 17.2086 6.39774 17.1748 6.34224 17.1447C6.27749 17.1122 6.20915 17.0867 6.14199 17.0596C6.02567 17.0128 5.90961 16.9654 5.79382 16.9173C5.74877 16.8985 5.70376 16.8796 5.6588 16.8606L5.71454 16.8842C5.36059 16.7347 5.00862 16.5807 4.65729 16.4252C4.40415 16.3132 4.153 16.1903 3.89131 16.0993C3.65573 16.0173 3.36539 15.9564 3.13724 16.0925C3.07323 16.1324 3.01775 16.1846 2.974 16.246C2.93025 16.3074 2.89909 16.3769 2.88233 16.4504C2.85817 16.5613 2.8496 16.6749 2.85688 16.7881C2.86739 17.0482 2.87776 17.3083 2.8911 17.5683C2.91073 17.951 2.93015 18.3397 3.00574 18.7164C3.03165 18.8496 3.07301 18.9793 3.12897 19.103C3.14802 19.1455 3.17133 19.1861 3.19854 19.2239C3.23197 19.2733 3.27146 19.3182 3.3161 19.3577C3.34506 19.3824 3.37566 19.4051 3.40769 19.4257C3.51171 19.4899 3.66904 19.4516 3.72694 19.342C3.75694 19.2883 3.76499 19.225 3.74938 19.1655C3.73377 19.106 3.69573 19.0548 3.64323 19.0228Z" fill="#263863"/>
<path d="M9.50883 23.2185C9.06562 22.9921 8.67345 22.5769 8.4571 22.105C8.37008 21.9152 8.29679 21.6991 8.13069 21.5753C8.04844 21.5141 7.9547 21.4854 7.86388 21.4619C7.26133 21.3062 6.67198 21.3177 6.07829 21.27C5.4846 21.2224 4.85615 21.1045 4.29498 20.7314C4.78696 21.6735 5.73715 22.3335 6.66111 22.6585C7.58507 22.9836 8.50863 23.0317 9.42669 23.1329" fill="#FBBD4D"/>
<path d="M9.6266 23.0171C9.51063 22.9572 9.4003 22.8869 9.29694 22.8072L9.34416 22.8437C9.17847 22.7152 9.02977 22.5661 8.90159 22.4001L8.93808 22.4474C8.80657 22.2728 8.69695 22.0828 8.61167 21.8815C8.5137 21.6578 8.389 21.4287 8.15721 21.3198C8.03011 21.2641 7.89696 21.2233 7.76044 21.1982C7.6153 21.1675 7.46863 21.1458 7.3215 21.1272C7.06433 21.0947 6.80538 21.0804 6.54669 21.0663C6.27502 21.0515 6.00318 21.0365 5.73335 21.0003L5.79537 21.0086C5.46141 20.9633 5.13138 20.886 4.82015 20.7548L4.87589 20.7783C4.71426 20.7099 4.55923 20.6268 4.41275 20.5301L4.35701 20.5065C4.32693 20.4969 4.2948 20.4954 4.26397 20.5024C4.21326 20.5077 4.16594 20.5304 4.12999 20.5666C4.09481 20.6038 4.07233 20.6512 4.06577 20.702C4.05922 20.7528 4.06893 20.8044 4.0935 20.8493C4.27071 21.1819 4.49709 21.4858 4.76499 21.7509C5.03177 22.0154 5.32957 22.2466 5.6519 22.4395C5.96601 22.6279 6.29931 22.7823 6.64615 22.9C7.06343 23.0426 7.49607 23.1335 7.93187 23.1972C8.37654 23.2623 8.82394 23.3028 9.27074 23.3496C9.32274 23.3551 9.37472 23.3607 9.42669 23.3664C9.48229 23.3725 9.5538 23.3359 9.59168 23.298C9.63544 23.2543 9.66002 23.1949 9.66002 23.133C9.66002 23.0712 9.63544 23.0118 9.59168 22.9681L9.54446 22.9316C9.50874 22.9106 9.46808 22.8996 9.42669 22.8997C8.99611 22.8523 8.56428 22.8161 8.13485 22.7587L8.19688 22.767C7.71153 22.7016 7.22901 22.6073 6.76498 22.4482C6.66029 22.4123 6.55691 22.3729 6.45484 22.33L6.51058 22.3535C6.21701 22.23 5.93637 22.0778 5.67274 21.899C5.59604 21.8469 5.52099 21.7924 5.44758 21.7357L5.4948 21.7722C5.22653 21.5661 4.9854 21.3269 4.77716 21.0603L4.81364 21.1075C4.69384 20.9524 4.58771 20.7872 4.49646 20.6138L4.17721 20.933C4.52937 21.1662 4.93353 21.3182 5.34595 21.4036C5.7639 21.49 6.19002 21.5133 6.61507 21.5367C6.86521 21.5504 7.1154 21.5662 7.36385 21.5994L7.30182 21.591C7.41577 21.6065 7.52923 21.6254 7.64171 21.6494C7.74731 21.6686 7.85099 21.6972 7.95152 21.7349L7.89579 21.7113C7.93982 21.7297 7.98141 21.7534 8.0196 21.782L7.97238 21.7455C8.01151 21.7766 8.04668 21.8123 8.07709 21.852L8.0406 21.8048C8.11954 21.9088 8.17049 22.0299 8.22256 22.1487C8.27573 22.2724 8.33853 22.3918 8.41037 22.5057C8.56406 22.7487 8.75623 22.9651 8.97935 23.1463C9.10704 23.2512 9.24498 23.3429 9.39106 23.42C9.44585 23.4504 9.51011 23.4588 9.57086 23.4436C9.62933 23.4269 9.67923 23.3886 9.71031 23.3363C9.72578 23.3099 9.73589 23.2806 9.74005 23.2503C9.74422 23.2199 9.74236 23.189 9.73459 23.1594C9.72682 23.1297 9.71328 23.1019 9.69475 23.0775C9.67622 23.0531 9.65306 23.0325 9.6266 23.0171Z" fill="#263863"/>
<defs>
<linearGradient id="paint0_linear_2491_29080" x1="13.5369" y1="18.0901" x2="14.3009" y2="16.2903" gradientUnits="userSpaceOnUse">
<stop stop-color="white"/>
<stop offset="0.04818" stop-color="#FDFDFD"/>
<stop offset="0.41722" stop-color="#F5F5F5"/>
<stop offset="1" stop-color="#F2F2F2"/>
</linearGradient>
<linearGradient id="paint1_linear_2491_29080" x1="9.70189" y1="23.5227" x2="13.3852" y2="14.8457" gradientUnits="userSpaceOnUse">
<stop stop-color="white"/>
<stop offset="0.04818" stop-color="#FDFDFD"/>
<stop offset="0.41722" stop-color="#F5F5F5"/>
<stop offset="1" stop-color="#F2F2F2"/>
</linearGradient>
<linearGradient id="paint2_linear_2491_29080" x1="3.11095" y1="19.5676" x2="20.7364" y2="19.5676" gradientUnits="userSpaceOnUse">
<stop stop-color="#263863"/>
<stop offset="0.39659" stop-color="#23355E"/>
<stop offset="0.88167" stop-color="#1C2D4F"/>
<stop offset="1" stop-color="#1A2A4A"/>
</linearGradient>
<linearGradient id="paint3_linear_2491_29080" x1="12.7012" y1="19.8845" x2="14.7151" y2="15.1403" gradientUnits="userSpaceOnUse">
<stop stop-color="white"/>
<stop offset="0.04818" stop-color="#FDFDFD"/>
<stop offset="0.41722" stop-color="#F5F5F5"/>
<stop offset="1" stop-color="#F2F2F2"/>
</linearGradient>
<linearGradient id="paint4_linear_2491_29080" x1="10.4695" y1="17.0163" x2="16.4359" y2="17.0163" gradientUnits="userSpaceOnUse">
<stop stop-color="#263863"/>
<stop offset="0.39659" stop-color="#23355E"/>
<stop offset="0.88167" stop-color="#1C2D4F"/>
<stop offset="1" stop-color="#1A2A4A"/>
</linearGradient>
<linearGradient id="paint5_linear_2491_29080" x1="3.60136" y1="17.269" x2="11.5247" y2="17.269" gradientUnits="userSpaceOnUse">
<stop stop-color="#263863"/>
<stop offset="0.39659" stop-color="#23355E"/>
<stop offset="0.88167" stop-color="#1C2D4F"/>
<stop offset="1" stop-color="#1A2A4A"/>
</linearGradient>
<linearGradient id="paint6_linear_2491_29080" x1="4.70967" y1="21.0547" x2="7.41946" y2="18.9769" gradientUnits="userSpaceOnUse">
<stop stop-color="#F16E6F"/>
<stop offset="0.26355" stop-color="#F27374"/>
<stop offset="0.58642" stop-color="#F38283"/>
<stop offset="0.939" stop-color="#F59B9C"/>
<stop offset="1" stop-color="#F6A0A1"/>
</linearGradient>
<linearGradient id="paint7_linear_2491_29080" x1="3.6935" y1="19.4894" x2="6.58842" y2="17.2696" gradientUnits="userSpaceOnUse">
<stop stop-color="#B0DABB"/>
<stop offset="0.37093" stop-color="#ABD8BA"/>
<stop offset="0.82455" stop-color="#9CD2B9"/>
<stop offset="1" stop-color="#94CFB8"/>
</linearGradient>
</defs>
</svg>
