<svg width="24" height="24" viewBox="0 0 24 24" fill="none" xmlns="http://www.w3.org/2000/svg">
<g opacity="0.5" clip-path="url(#clip0_1533_70385)">
<path d="M21.1976 0.280518H2.80247C1.4097 0.280518 0.28064 1.40958 0.28064 2.80235V21.1975C0.28064 22.5902 1.4097 23.7193 2.80247 23.7193H21.1976C22.5904 23.7193 23.7194 22.5902 23.7194 21.1975V2.80235C23.7194 1.40958 22.5904 0.280518 21.1976 0.280518Z" fill="#317FF2"/>
<path d="M15.3392 20.4469C14.2622 20.4469 13.1852 20.4531 12.1083 20.4432C11.7698 20.4401 11.4316 20.3956 11.0935 20.3671C10.6056 20.3259 10.1285 20.2239 9.66073 20.0851C9.35398 19.994 9.05239 19.8821 8.75546 19.7623C8.29247 19.5761 7.84857 19.3457 7.42995 19.0741C6.77759 18.6498 6.18126 18.1588 5.66066 17.5766C5.28269 17.1591 4.94563 16.7063 4.65412 16.2244C4.31469 15.662 4.04154 15.0623 3.84012 14.437C3.71159 14.0327 3.59906 13.6232 3.53727 13.2043C3.48348 12.8397 3.45441 12.4702 3.43599 12.1018C3.37556 10.893 3.42178 9.68309 3.41124 8.47369C3.40851 8.16071 3.50361 7.87818 3.74883 7.66682C4.24496 7.23918 5.02929 7.39916 5.29038 8.05588C5.33438 8.16656 5.34067 8.29764 5.34107 8.41937C5.34473 9.56028 5.34276 10.7012 5.34367 11.8421C5.34401 12.2721 5.40357 12.6957 5.4876 13.1166C5.76754 14.4959 6.47352 15.7526 7.50593 16.7092C8.30395 17.4435 9.22491 17.9667 10.2722 18.2555C10.8207 18.4068 11.3785 18.4945 11.9522 18.4916C13.5824 18.4834 15.2127 18.4886 16.843 18.4888C17.4733 18.4889 17.9635 18.2121 18.3377 17.7202C18.5901 17.3883 18.71 17.0114 18.7077 16.5894C18.7014 15.409 18.7031 14.2285 18.7065 13.0481C18.7077 12.4562 18.635 11.8665 18.4902 11.2926C18.2774 10.4334 17.9174 9.61754 17.4262 8.88119C16.982 8.20803 16.4303 7.61237 15.793 7.11796C15.711 7.05469 15.626 6.99422 15.5506 6.9236C15.3442 6.73015 15.2397 6.50028 15.2256 6.20628C15.2039 5.75419 15.5806 5.33059 16.0006 5.25606C16.2779 5.20684 16.5327 5.26221 16.7582 5.42846C17.1277 5.70123 17.4769 6.00058 17.8029 6.32415C18.9336 7.44475 19.7692 8.82794 20.2349 10.3502C20.3879 10.8603 20.5 11.3817 20.5703 11.9096C20.6212 12.3006 20.6447 12.6947 20.6405 13.0889C20.6375 14.8867 20.6417 16.6846 20.6381 18.4824C20.6364 19.3104 20.242 19.8989 19.505 20.2583C19.3153 20.3508 19.1067 20.3936 18.8936 20.421C18.5435 20.466 18.1936 20.4431 17.8439 20.4452C17.009 20.4503 16.1741 20.4469 15.3392 20.4469Z" fill="#B4F2DA"/>
<path d="M7.99533 3.55179C9.2056 3.55179 10.4159 3.54807 11.6261 3.5549C11.8722 3.55909 12.1175 3.58199 12.3601 3.62343C12.7006 3.67782 13.0383 3.75055 13.376 3.82074C13.8239 3.9138 14.1121 4.20295 14.1911 4.65175C14.2383 4.91991 14.1526 5.16313 13.983 5.36919C13.7142 5.69574 13.3738 5.8245 12.9548 5.70627C12.584 5.60164 12.2051 5.54781 11.8222 5.50527C11.2809 5.44511 10.7388 5.44352 10.1971 5.45727C9.67022 5.47063 9.35093 5.75775 9.23622 6.25678C9.22764 6.30539 9.2245 6.35482 9.22686 6.40413C9.22642 8.06848 9.22189 9.73285 9.22993 11.3972C9.23179 11.7832 9.32622 12.1578 9.47265 12.5175C9.63887 12.9312 9.88675 13.3071 10.2015 13.6229C10.583 14.0044 11.0285 14.2938 11.5483 14.4556C11.6986 14.5024 11.8534 14.5348 12.0062 14.5734C12.4133 14.6761 12.6575 14.946 12.7348 15.3459C12.807 15.7198 12.6716 16.0374 12.3709 16.2742C12.1554 16.444 11.911 16.5012 11.6354 16.4566C10.9419 16.3445 10.3117 16.0774 9.72465 15.6995C9.0099 15.2394 8.44266 14.6368 8.01061 13.9075C7.68458 13.3534 7.46437 12.7436 7.36119 12.109C7.31752 11.8415 7.29562 11.5709 7.2957 11.2999C7.2898 9.71459 7.29274 8.12925 7.29286 6.54392C7.29287 6.36568 7.28532 6.19105 7.20725 6.02334C7.0676 5.72334 6.8408 5.53949 6.51613 5.48124C6.41431 5.46351 6.31115 5.45463 6.20779 5.45468C5.58538 5.45231 4.96289 5.4483 4.34054 5.45521C3.88732 5.46024 3.46575 5.12314 3.37474 4.65683C3.28493 4.19666 3.60158 3.69133 4.06957 3.5639C4.12533 3.54872 4.18702 3.55227 4.24596 3.55224C5.49575 3.55165 6.74554 3.5515 7.99533 3.55179Z" fill="#FF5050"/>
<path d="M14.7036 15.0674C14.7036 14.8847 14.7132 14.7013 14.7008 14.5195C14.6891 14.3486 14.6725 14.174 14.6257 14.0103C14.5126 13.6147 14.228 13.3734 13.8564 13.2267C13.7498 13.188 13.641 13.1557 13.5306 13.13C13.2881 13.0667 13.1447 12.9078 13.1163 12.6646C13.0951 12.4834 13.1701 12.3274 13.3209 12.215C13.4197 12.1413 13.5228 12.0725 13.6163 11.9925C13.7886 11.8452 13.9233 11.6641 13.982 11.4459C14.0833 11.0697 14.0296 10.7151 13.7896 10.3951C13.6079 10.1527 13.3709 9.97884 13.1171 9.82355C12.7898 9.62337 12.438 9.48015 12.0604 9.4162C11.8416 9.38243 11.6204 9.36538 11.3989 9.36521C10.9645 9.35877 10.5265 9.08161 10.4222 8.59222C10.2849 7.94768 10.813 7.42828 11.3216 7.43426C11.4154 7.43537 11.5093 7.43613 11.6031 7.43408C11.9253 7.42703 12.2428 7.472 12.5583 7.52668C13.0159 7.60496 13.4622 7.73853 13.8875 7.92444C14.5268 8.20494 15.0857 8.59239 15.5036 9.15989C15.7678 9.51923 15.9417 9.93683 16.0107 10.3775C16.0383 10.5472 16.0732 10.7204 16.0658 10.8903C16.0531 11.1791 16.0512 11.4762 15.913 11.7419C15.8184 11.9239 15.8163 12.115 15.8401 12.3052C15.8602 12.4664 15.9618 12.5938 16.0846 12.6996C16.2196 12.8159 16.3446 12.9392 16.4384 13.0942C16.5635 13.3026 16.6296 13.541 16.6298 13.7841C16.6371 14.3815 16.6373 14.9789 16.6305 15.5765C16.6289 15.8081 16.5459 16.0317 16.396 16.2082C16.246 16.3847 16.0387 16.5028 15.8104 16.5418C15.2444 16.6417 14.6851 16.1675 14.7027 15.6154C14.7086 15.4329 14.7036 15.2501 14.7036 15.0674Z" fill="#FBD600"/>
</g>
<defs>
<clipPath id="clip0_1533_70385">
<rect width="24" height="24" fill="white"/>
</clipPath>
</defs>
</svg>
