<svg width="40" height="40" viewBox="0 0 40 40" fill="none" xmlns="http://www.w3.org/2000/svg">
<path d="M0.858406 19.0704C0.857469 22.4312 1.74224 25.7127 3.42463 28.6051L0.69751 38.4876L10.8874 35.8358C13.7058 37.3586 16.8636 38.1565 20.0726 38.1567H20.081C30.6744 38.1567 39.2977 29.6012 39.3022 19.0854C39.3043 13.9898 37.3067 9.19814 33.6773 5.59318C30.0485 1.98853 25.2224 0.00232558 20.0802 0C9.48559 0 0.862937 8.55504 0.858563 19.0704" fill="url(#paint0_linear_775_26512)"/>
<path d="M0.172272 19.7544C0.171179 23.2361 1.08766 26.635 2.83003 29.631L0.00512695 39.8678L10.5604 37.1209C13.4687 38.6947 16.7432 39.5245 20.0752 39.5257H20.0838C31.0572 39.5257 39.9903 30.6625 39.995 19.7702C39.9968 14.4915 37.9274 9.5276 34.1683 5.79349C30.4088 2.05984 25.4101 0.00217054 20.0838 0C9.10844 0 0.176646 8.86202 0.172272 19.7544ZM6.45818 29.115L6.06406 28.4941C4.40729 25.8795 3.53282 22.8581 3.53407 19.7557C3.53767 10.7022 10.9614 3.33643 20.09 3.33643C24.5108 3.33829 28.6653 5.04868 31.7902 8.15194C34.9149 11.2555 36.6343 15.3811 36.6332 19.769C36.6291 28.8225 29.2052 36.1891 20.0838 36.1891H20.0772C17.1072 36.1876 14.1943 35.396 11.654 33.9L11.0495 33.5442L4.78579 35.1741L6.45818 29.1149V29.115Z" fill="url(#paint1_linear_775_26512)"/>
<path d="M15.1072 10.8647C14.7345 10.0425 14.3422 10.0259 13.9878 10.0115C13.6975 9.99909 13.3658 10 13.0343 10C12.7025 10 12.1634 10.1239 11.7077 10.6177C11.2516 11.112 9.96631 12.3064 9.96631 14.7357C9.96631 17.1651 11.7491 19.5129 11.9977 19.8427C12.2465 20.1718 15.4394 25.3166 20.4963 27.2958C24.699 28.9406 25.5542 28.6135 26.4663 28.531C27.3786 28.4489 29.41 27.3369 29.8244 26.1839C30.2391 25.031 30.2391 24.0428 30.1148 23.8363C29.9904 23.6306 29.6587 23.507 29.1611 23.2602C28.6634 23.0132 26.2175 21.8186 25.7615 21.6538C25.3054 21.4892 24.9737 21.407 24.642 21.9014C24.3102 22.3951 23.3574 23.507 23.067 23.8363C22.777 24.1664 22.4866 24.2075 21.9892 23.9605C21.4914 23.7127 19.8891 23.192 17.9882 21.5099C16.5092 20.2011 15.5107 18.5848 15.2204 18.0904C14.9302 17.5968 15.1894 17.3292 15.4388 17.0831C15.6624 16.8619 15.9365 16.5065 16.1855 16.2183C16.4336 15.9299 16.5164 15.7242 16.6823 15.3949C16.8483 15.0653 16.7652 14.7769 16.641 14.5299C16.5164 14.283 15.5496 11.8409 15.1072 10.8647Z" fill="white"/>
<defs>
<linearGradient id="paint0_linear_775_26512" x1="1930.93" y1="3848.76" x2="1930.93" y2="0" gradientUnits="userSpaceOnUse">
<stop stop-color="#1FAF38"/>
<stop offset="1" stop-color="#60D669"/>
</linearGradient>
<linearGradient id="paint1_linear_775_26512" x1="1999.5" y1="3986.78" x2="1999.5" y2="0" gradientUnits="userSpaceOnUse">
<stop stop-color="#F9F9F9"/>
<stop offset="1" stop-color="white"/>
</linearGradient>
</defs>
</svg>
