<svg width="29" height="37" viewBox="0 0 29 37" fill="none" xmlns="http://www.w3.org/2000/svg">
<path d="M28.6444 4.36573V26.9224C28.6444 27.4616 28.2916 27.9462 27.7524 28.1524C27.2132 28.3586 26.5895 28.2443 26.1745 27.8642L17.2542 19.657L15.1794 17.7487L0 3.76442V0L16.556 15.249V15.2515L18.9439 17.448L23.0089 21.1901L25.7521 23.7096V8.5625L20.2881 15.6963L18.2109 13.7855L26.0155 3.59794C26.3783 3.12584 27.0343 2.92209 27.6331 3.09602C28.2344 3.27244 28.6444 3.7843 28.6444 4.36573Z" fill="url(#paint0_linear_1438_57616)"/>
<path d="M0 32.5483V9.99154C0 9.45234 0.352837 8.96781 0.892031 8.76158C1.43123 8.55534 2.0549 8.66964 2.46986 9.04981L11.3902 17.257L13.4649 19.1653L28.6419 33.1098V36.8742L12.0859 21.6625V21.66L9.69804 19.4635L5.63545 15.7239L2.89227 13.2043V28.3515L8.35627 21.2177L10.4335 23.1285L2.62888 33.316C2.26611 33.7881 1.61013 33.9919 1.0113 33.818C0.409986 33.6415 0 33.1297 0 32.5483Z" fill="url(#paint1_linear_1438_57616)"/>
<defs>
<linearGradient id="paint0_linear_1438_57616" x1="0" y1="14.1268" x2="28.6431" y2="14.1268" gradientUnits="userSpaceOnUse">
<stop stop-color="#4CC3CC"/>
<stop offset="1" stop-color="#3A6DB5"/>
</linearGradient>
<linearGradient id="paint1_linear_1438_57616" x1="0" y1="22.7666" x2="28.6431" y2="22.7666" gradientUnits="userSpaceOnUse">
<stop stop-color="#4CC3CC"/>
<stop offset="1" stop-color="#3A6DB5"/>
</linearGradient>
</defs>
</svg>
