<svg width="360" height="404" viewBox="0 0 360 404" fill="none" xmlns="http://www.w3.org/2000/svg">
<mask id="mask0_2943_43723" style="mask-type:alpha" maskUnits="userSpaceOnUse" x="0" y="0" width="360" height="404">
<rect width="360" height="404" fill="#C4C4C4"/>
</mask>
<g mask="url(#mask0_2943_43723)">
<path d="M36.5 25L32 4.5L34.5 -5H-2V124L2.5 91.5L12.5 66.5L36.5 25Z" fill="white"/>
<path d="M118 -3C118.803 -2.00541 162.842 28.0811 184.761 43L216.886 38.6486L246 -3H118Z" fill="white"/>
<path d="M160 125L103 140L115 194L169 185L201 209L241 152L194 91L160 125Z" fill="white"/>
<path d="M-2 239L57.5 245.5L69.5 259.5L84 263.5L89 288.5H108V312.5L101 317.5L113.5 339L139.5 349L135 365L116.5 355.5L79.5 400L73 388.5L66.5 390.5L35.5 384.5L20.5 355.5L-3 344.5L-2 239Z" fill="white"/>
<path d="M343.5 588L367.5 577L385.5 636.5L368 798L264 789.5L253.5 749.5L238.5 725.5L245 706L265.5 702.5L273.5 722L271.5 740L292 747.5L308 725.5L311 726L317.5 708L313 679H326L325 666.5L330 669L331.5 659L336 662L332 649.5L347.5 637.5L342 636.5L337.5 629.5L343.5 600V588Z" fill="white"/>
<path d="M309.5 435L300 448L320.5 462L315.5 500.5L302.5 516L283 517L262 505.5L237.5 502.5L233.5 495.5H246.5L255.5 481.5L252 467.5H257.5L259.5 479.5H270L276 495.5H281V473L278.5 462L281 435L297 418.5L311 420L309.5 435Z" fill="white"/>
<path d="M23.5 493.5L-9 479L-11 510L39 530.5L73 522L75 530.5L88 526.5L85 515.5L103 504.5L73 487L51 485L46.5 490L51 492.5L49 495.5L55 498L53 504.5L56.5 506.5L51 512L39 502.5L37 504.5L41.5 508.5L31 512L19 501L23.5 493.5Z" fill="white"/>
<path d="M340.5 294.5L332.5 301.5V318L326.5 330L337 339L349.5 334.5L356 320L354 304L340.5 294.5Z" fill="white"/>
<path d="M158.5 291.5L152 278.5L163.5 275.5L172 280.5L177.5 303.5L158.5 291.5Z" fill="white"/>
<path d="M180 334.5L192.5 335.5L190 348.5L185 352L180 347V334.5Z" fill="white"/>
<path d="M244.5 341.5V360.5H238L240 369.5L252 364.5L249.5 353L257.5 348.5L276 363L278.5 351.5L287 347V340H278.5L274 344.5H265.5L263 340L244.5 341.5Z" fill="white"/>
<path d="M286.5 220.5L268 236.5V247.5H277.5L275.5 236.5L289.5 227.5L294.5 218H289.5V223L286.5 220.5Z" fill="white"/>
<path d="M173.5 269L176.5 257.5H184L187.5 261L182.5 271L173.5 269Z" fill="white"/>
<path d="M148.375 785L158 773L114.688 746.6L117.094 730.5L92 734.5L77.5 710.6H52.125L59.3438 681.8L52.125 653H20.8438L35.2812 701L16.0312 684.2L4 697L11.9375 720.4L-1.5 727.4L-28.5 752.5V776L13.2812 799L89.5 794H110.5L117.094 768.2L148.375 785Z" fill="white"/>
<path d="M95 566.8L102.219 552.4L118.094 537L133.094 569.5L151.594 552.4L180.094 566.8L188.594 598L221.594 585L230.594 634L196.062 650.8L176.812 634L142.594 638.5L126.281 605.2L104.625 607.6L95 598L97.4062 588.4L95 566.8Z" fill="white"/>
<path d="M47 69V116.552L80.7895 126L95 96.3978L80.7895 69H47Z" fill="white"/>
<path fill-rule="evenodd" clip-rule="evenodd" d="M242.977 532.151L224.96 589.205L224.931 589.254C222.181 593.92 218.007 601.043 214.42 607.25C212.627 610.354 210.981 613.227 209.734 615.448C208.476 617.689 207.649 619.225 207.464 619.686C207.349 619.974 206.935 621.273 206.287 623.376C205.644 625.462 204.779 628.309 203.768 631.66C201.745 638.362 199.135 647.081 196.542 655.768C194.613 662.226 192.693 668.671 191.028 674.257C188.216 683.692 186.133 690.681 185.974 691.158C185.891 691.408 185.516 692.231 184.959 693.414C184.393 694.618 183.619 696.237 182.715 698.113C180.907 701.867 178.578 706.654 176.347 711.219C174.542 714.916 172.801 718.467 171.456 721.206L160.5 747.6V790H159.5V747.4L170.544 720.794L170.551 720.78C171.837 718.163 173.484 714.803 175.204 711.282L154.981 704.024L146.034 706.51L128.297 704.046L124.939 711.241L111.411 732.5H118.818L122.423 740.223L137.375 757.169L136.625 757.831L121.577 740.777L118.182 733.5H109.589L124.061 710.759L127.286 703.847L105.613 698.79L98.9793 703.766L96.5062 732.948L110.979 781.858L110.021 782.142L95.4938 733.052L98.0207 703.234L104.342 698.493L83.2604 693.574L75.4194 708.276L61.6598 725.476L74.4401 739.239L79.0677 753.122L67.021 766.173L68.9973 784.948L68.0027 785.052L65.979 765.827L77.9323 752.878L73.5599 739.761L60.3402 725.524L74.5806 707.724L82.0043 693.805L76.1374 695.481L75.8626 694.519L82.9873 692.484L128.091 703.008L145.966 705.49L155.019 702.976L175.645 710.378C177.815 705.936 180.061 701.32 181.814 697.679C182.718 695.804 183.49 694.188 184.054 692.989C184.628 691.768 184.967 691.019 185.026 690.842C185.18 690.38 187.233 683.489 190.017 674.147C191.693 668.524 193.633 662.014 195.583 655.482C198.177 646.794 200.787 638.075 202.81 631.371C203.822 628.019 204.688 625.171 205.332 623.081C205.971 621.008 206.401 619.651 206.536 619.314C206.751 618.775 207.624 617.165 208.862 614.958C210.112 612.732 211.76 609.855 213.555 606.75C217.13 600.562 221.29 593.463 224.04 588.795L242.023 531.849L242.977 532.151Z" fill="#98A2B3"/>
<path fill-rule="evenodd" clip-rule="evenodd" d="M127.991 470.904L134.024 501.571L130.047 509.524L137.39 528.126L142.263 530.292L139.602 534.017L145.587 543.493L141.383 550.5H158.846L162.032 558.996L159.71 565.5H163.346L168.047 578.035L165.916 582.061L172.733 586.057L195.215 596.549L227.319 611.86L238.021 595.321L240.545 577.646L249.524 573.95L265.034 581.963L264.073 590.855L276.669 587.948L289.866 602.16L289.134 602.84L276.331 589.052L262.927 592.145L263.966 582.537L249.476 575.051L241.455 578.354L238.979 595.679L228.282 612.212L233 613.628V620.293L241.252 628.545L254.112 631.513L253.888 632.487L240.748 629.455L237.25 625.957V636H236.25V624.957L232 620.707V614.372L227.319 612.968L194.789 597.453L194.785 597.451L172.267 586.943L165.448 582.945L163.361 586.887L158.963 588.841L156.925 606.169L152.298 604.626L145.582 622.375L148.593 625.386L147.217 628.597L167.601 631.509L201.092 640.507L219.716 642.52L225.166 647.475L241.037 645.492L261.133 651.018L260.867 651.982L240.963 646.508L224.834 648.525L219.284 643.48L200.908 641.493L167.399 632.491L147.478 629.645L211.371 734.648L229.747 747.221L232.067 740.726L240.08 732.713L224.961 727.515L213.595 729.582L210.508 712.087L211.492 711.913L214.405 728.418L225.039 726.485L240.999 731.971L250.58 728.617L253.452 717.129L250.144 713.27L260.315 709.71L257.451 703.504L272.043 670.796L272.957 671.204L258.549 703.496L261.685 710.29L251.856 713.73L254.548 716.871L251.42 729.383L241.273 732.934L239.436 734.771L247.861 737.432L250.793 734.5H257.714L266.149 720.111L289.292 709.545L289.708 710.455L266.851 720.889L258.286 735.5H251.207L248.139 738.568L238.639 735.568L232.933 741.274L230.253 748.779L210.629 735.352L203.371 723.425L188.208 718.935L184.11 713.812L184.89 713.188L188.792 718.065L202.597 722.153L146.139 629.368L140.737 626.217L139.281 629.614L128.21 626.091L116.967 643.2L115.443 649.802L107.377 655.347L105.253 659.064L88.7548 655.596L86.4805 669.158L75.8617 690.064L76.9869 694.886L76.0131 695.114L72.5423 680.239L59.6413 665.904L55.3542 675.431L48.7199 676.962L44.6948 680.093L49.1003 685.967L42.5429 697.064L44.5557 703.606L26.5621 726.098L32.3835 743.077L51.2618 747.548L58.8648 755.658L58.1352 756.342L50.7382 748.452L31.6165 743.923L25.8888 727.217L21.953 734.214L14.0546 754.454L26.4296 775.244L25.5704 775.756L12.9454 754.546L21.047 733.786L25.5842 725.719L34.2304 714.912L13.4685 704.048L0.679489 708.967L0.320511 708.033L13.5315 702.952L34.8669 714.116L43.4443 703.394L41.4571 696.936L47.8997 686.033L43.6559 680.375L35.9626 675.566L30.5559 678.024L18.8675 675.483L7.5 671.694V682.5H6.5V671.5H0.348612L-2.77735 669.416L-2.22265 668.584L0.651398 670.5H7.08114L19.1325 674.517L30.4441 676.976L36.0374 674.434L43.9688 679.391L48.2801 676.038L54.6458 674.569L58.9505 665.003L56.1367 658.906L52.8496 657.81L54.4357 653.581L51.75 650H48.199L43.5456 641.21L41.5827 636.303L38.6184 633.833L21 605.643V601.393L-1.5 595.893V590.667L-4.4 586.8L-3.6 586.2L-0.5 590.333V595.108L21.3126 600.439L25.9629 594.756L27.5 596.293L31.8039 591.989L50.9514 592.997L54.9384 592H76.6046L92.3922 598.907L98.1954 593.256L99.0151 588.368L103.024 577.846L106.46 565.084L97.4698 551.1L98.2116 547.423L62.2824 542.475L-9.83072 478.875L-9.16928 478.125L1.56324 487.591L4.01682 478.371L4.98318 478.629L2.40133 488.33L62.7176 541.525L98.4098 546.441L109.01 493.901L109.99 494.099L98.5302 550.9L107.052 564.156L111.526 558.788L114.528 538.272L122 530.302V523.382L127.407 512.569L125 509.681V506.29L114.5 500.29V493H115.5V499.71L126 505.71V509.319L127.895 511.593L132.976 501.429L127.009 471.097L127.991 470.904ZM107.182 566.247L103.976 578.154L100.109 588.305L130 608.232V612.382L134.117 620.615L128.978 625.287L138.719 628.386L140.263 624.783L145.024 627.56L107.182 566.247ZM146.42 627.918L147.407 625.614L144.418 622.625L151.702 603.374L156.075 604.831L158.037 588.159L162.639 586.113L166.953 577.965L162.653 566.5H158.29L160.968 559.004L158.153 551.5H139.617L144.413 543.507L138.398 533.983L140.737 530.708L136.61 528.874L129.446 510.726L123 523.618V530.698L115.472 538.728L112.474 559.212L107.614 565.044L146.42 627.918ZM99.8654 589.344L129 608.768V612.618L132.883 620.385L127.617 625.173L116.033 642.8L114.557 649.198L106.623 654.653L104.747 657.936L88.9203 654.609L99.8654 589.344ZM97.9157 594.924L92.6078 600.093L76.3954 593H55.0615L51.0486 594.003L32.1961 593.011L27.5 597.707L26.0371 596.244L22 601.178V605.357L39.3816 633.167L42.4173 635.697L44.4543 640.79L48.801 649H52.25L55.5643 653.419L54.1503 657.19L56.8633 658.094L59.9223 664.722L73.4577 679.761L75.5086 688.551L85.5195 668.842L97.9157 594.924Z" fill="#98A2B3"/>
<path fill-rule="evenodd" clip-rule="evenodd" d="M363.142 601.151L363.858 601.849L346.413 619.793L337.5 637.618V654.5H346.279L350.341 661.1L358.69 664.538L358.31 665.462L349.659 661.901L345.721 655.5H337.5V672.5H336.5V637.382L345.587 619.207L363.142 601.151Z" fill="#98A2B3"/>
<path fill-rule="evenodd" clip-rule="evenodd" d="M39.0176 466.368L43.5176 449.868L44.4824 450.132L39.9824 466.632L39.0176 466.368Z" fill="#98A2B3"/>
<path fill-rule="evenodd" clip-rule="evenodd" d="M-7.56831 248.248L14.9726 286.818L16.9637 296.275L24.4277 305.232L42.8804 346.127L47.734 348.439L65.7224 338.582L99.6963 311.603L133.704 286.597L134.296 287.403L100.304 312.397L66.2776 339.418L45.8291 350.623L59.8891 373.179L95.3404 406.134L94.6596 406.866L59.1768 373.882L35.9541 356.034L29.6813 359.471L19.2815 361.947L10.9457 372.244L9.5 376.581V381.172L6.111 385.529L9.47972 390.823L10.9549 401.149L29.6787 409.033L73.1809 424.033L95.1982 433.541L94.8018 434.459L72.8191 424.967L29.3213 409.967L10.0451 401.851L8.52028 391.177L4.889 385.471L8.5 380.828V376.419L10.0543 371.756L18.118 361.795L8.93845 359.5H-8V358.5H9.06155L19.0029 360.985L29.3188 358.529L41.836 351.67L34.627 337.371L-8.22774 315.445L-7.77226 314.555L35.373 336.629L42.7135 351.19L46.6526 349.031L42.1196 346.873L23.5723 305.768L16.0363 296.725L14.0274 287.182L-8.43169 248.752L-7.56831 248.248ZM36.9121 355.509L57.6144 371.42L44.9507 351.104L36.9121 355.509Z" fill="#98A2B3"/>
<path fill-rule="evenodd" clip-rule="evenodd" d="M338.97 699.943L341.537 745.639L325.925 741.996L305.464 740.499L305.536 739.501L326.076 741.004L340.463 744.361L338.031 701.057L303.557 704.997L303.443 704.003L338.97 699.943Z" fill="#98A2B3"/>
<path fill-rule="evenodd" clip-rule="evenodd" d="M87.1755 27.0767L61.749 -1.83966L63.251 -3.16034L88.8245 25.9233L118.62 80.5253L153.896 55.0635L147.543 22.4527L154.25 -0.5H189.868L220.599 25.6965L284.49 67.126L344.143 95.72L362.664 67.452L364.336 68.548L344.857 98.28L283.51 68.874L219.401 27.3035L189.132 1.5H155.75L149.599 22.5473L156.104 55.9365L119.586 82.2949L196.429 223.114L204.006 248.688L219.432 234.664L244.601 222.337L261.402 234.556L275.016 236.987L291.476 234.566L296.452 228.596L308.173 226.048L333.195 214.037L363.336 209.014L363.664 210.986L333.805 215.963L308.827 227.952L297.548 230.404L292.524 236.434L274.984 239.013L260.598 236.444L244.399 224.663L220.568 236.336L204.806 250.664L220.768 274.849L241.377 293.949L251.478 326.779L256.474 360.748L269.192 394.5H283.5V409.76L297.738 437.744L368.432 471.598L367.568 473.402L296.262 439.256L281.5 410.24V396.5H269.724L276 427.399V472.587L269.545 509.331L283.472 535.197L290.482 598.044L296.215 584.285L312.713 575.52L343.102 573.029L367.358 552.733L368.642 554.267L343.898 574.971L313.287 577.48L297.785 585.715L290.939 602.146L312.994 799.889L311.006 800.111L281.528 535.803L267.455 509.669L274 472.413V451.658L184.703 498.76L136.551 575H-24V573H135.449L183.297 497.24L274 449.397V427.6L267.614 396.163L250.228 386.987L203.12 384.481L176.232 362.482L171.167 370.31L153.535 377.363L116.23 410.688L85.7464 449.168L-12.2965 546.211L-13.7035 544.789L84.2536 447.832L114.77 409.312L152.465 375.637L169.833 368.69L174.553 361.395L163.235 355.736L118.691 257.138L80.8486 227.76L71.9568 219.363L33.0438 204.396L-11.0436 175.839L-9.95635 174.161L33.9562 202.604L72.3705 217.379L84.2435 209.305L102.192 177.397L118.772 160.315L118.782 160.304L134.894 143.184L147.196 137.067L87.1755 27.0767ZM148.154 138.824L136.106 144.816L120.223 161.691L103.808 178.603L85.948 210.354L83.9064 220.271L115.712 228.522L164.219 237.023L184.302 242.546L201.981 248.892L194.571 223.886L148.154 138.824ZM202.849 251.329L183.698 244.454L163.781 238.977L115.288 230.478L83.5026 222.232L82.605 226.592L120.309 255.862L164.765 354.264L176.307 360.035L195.425 362.977L214.65 357.061L227.29 351.5H240.764L254.213 359.121L249.522 327.221L239.623 295.051L219.232 276.151L202.849 251.329ZM254.692 361.691L240.236 353.5H227.71L215.35 358.939L195.575 365.023L179.468 362.545L203.88 382.519L250.772 385.013L266.634 393.385L254.692 361.691ZM80.8823 225.041L74.0912 218.627L83.5233 212.213L80.8823 225.041Z" fill="#98A2B3"/>
<path fill-rule="evenodd" clip-rule="evenodd" d="M257.447 523.658L269.857 513.234L271.143 514.766L258.553 525.342L242.447 533.394L241.553 531.606L257.447 523.658Z" fill="#98A2B3"/>
<path fill-rule="evenodd" clip-rule="evenodd" d="M348 521.207L342.146 515.354L342.854 514.646L349 520.793V541H348V521.207Z" fill="#98A2B3"/>
<path fill-rule="evenodd" clip-rule="evenodd" d="M318.972 140.186L313.536 166.129L318.953 173.269L327 199.926V217.5H326V200.074L318.047 173.731L313.264 167.426L307.987 192.613L300.437 222.309L294.464 226.291L290.068 257.798L309.424 259.491L341.708 246.376L345.149 252.11L337.369 258.593L325.393 275.31L319.064 282.612L322.694 293.5H304.886L299.029 315.953L314.701 349.746L322.46 344.269L320.731 332.659L326.076 322.732L344.136 298.15L373.688 274.609L374.312 275.391L344.864 298.85L327.064 323.076L337.344 350H349.367L358.008 377.45L353.525 418.303L384.839 447.132L384.161 447.868L352.475 418.697L356.992 377.55L348.633 351H336.656L326.422 324.199L321.769 332.841L323.54 344.731L315.109 350.682L330.547 390.026L313.67 423.285L387.231 461.556L386.769 462.444L312.33 423.715L329.453 389.974L314.04 350.697L298.632 317.474L292.957 339.228L285.513 348.658L287.003 369.52L282.994 395.576L282.006 395.424L285.997 369.48L284.53 348.944L260.721 345.871L264.549 357.062L249.982 380.67L245.935 412.544L213.968 409.499L184.047 408.518L186.523 436.74L156.128 458.523L145.638 457.025L116.935 479.182L87.1248 445.33L87.8752 444.67L117.066 477.818L145.362 455.975L155.872 457.477L185.477 436.26L182.953 407.482L214.016 408.5L214.032 408.501L214.047 408.502L245.065 411.456L249.018 380.33L263.451 356.938L259.616 345.729L253.968 345H231.274L212.591 323.792L206.54 313.132L195.846 323.361L195.84 323.367L182.455 335.76L176.988 360.607L176.012 360.393L181.545 335.24L194.806 322.961L176.044 301.237L172.556 287.286L155.701 273.901L155.689 273.892L120.176 247.382L106.445 234.159L108.015 227.879L108.985 228.121L107.555 233.841L120.824 246.618L156.171 273.003L229.104 274.502L237.599 278H249.664L274.04 295.909L284.54 290.182L293.536 225.709L299.563 221.691L307.013 192.387L318.028 139.814L344.072 96.7413L344.998 97.0428L339.517 160.82L362.864 185.658L362.136 186.342L338.483 161.18L343.818 99.0939L318.972 140.186ZM273.562 296.799L249.336 279H237.401L228.896 275.498L157.472 274.03L173.287 286.589L202.871 304.641L206.777 311.522L218.283 300.516L249.531 297.996L275.308 303.346L273.562 296.799ZM275.239 304.353L249.469 299.004L218.717 301.484L207.286 312.419L213.409 323.208L231.726 344H253.701L257.061 337.761L275.239 304.353ZM254.785 344.097L259.255 344.674L257.397 339.245L254.785 344.097ZM260.36 344.817L284.783 347.968L292.043 338.772L304.114 292.5H321.306L317.936 282.388L324.607 274.69L336.631 257.907L343.851 251.89L341.292 247.624L309.577 260.509L289.93 258.789L285.46 290.818L274.584 296.751L276.534 304.064L258.044 338.046L260.36 344.817ZM206.031 312.235L202.129 305.359L173.781 288.062L176.956 300.763L195.535 322.275L206.031 312.235Z" fill="#98A2B3"/>
<path fill-rule="evenodd" clip-rule="evenodd" d="M-7.89835 92.3022L-7.10165 91.6978L14.8788 120.672L48.3685 154.662L83.8759 196.17L97.3522 211.144L109.689 222H119.106L146.203 234.043L145.797 234.957L118.894 223H109.311L96.6478 211.856L83.1199 196.825L47.6315 155.338L14.1212 121.328L-7.89835 92.3022Z" fill="#98A2B3"/>
<path fill-rule="evenodd" clip-rule="evenodd" d="M190.49 -1.59806L192.539 8.6437L185.055 17.1966L182.199 14.8165L174.508 33.0828L176.479 59.2006L238.09 95.1814L240.486 74.0909L235.191 63.5H239.155L244.5 49.4084V41.2169L249.098 38.4583L242.025 33.272L240.51 18.6245L235.538 6.69231L236.462 6.30769L241.49 18.3755L242.975 32.7279L250.902 38.5417L245.5 41.7831V49.5916L239.845 64.5H236.809L241.514 73.9091L239 96.0283V121.444L242.995 138.92L245.495 164.919L250.508 186.477L245.495 223.068L244.505 222.932L249.492 186.523L244.505 165.081L242.005 139.08L238 121.556V96.287L175.521 59.7994L173.492 32.9172L181.801 13.1835L184.945 15.8034L191.461 8.3563L189.51 -1.40194L190.49 -1.59806Z" fill="#98A2B3"/>
<path fill-rule="evenodd" clip-rule="evenodd" d="M113.27 -4.42059L148.606 18.2954L146.35 24.5H140.849L132.019 48.5379L136.694 70.8745L105.828 56.5061L117.916 50.7251L114.924 38.7593L125.831 32.3143L112.56 7.73757L113.44 7.26243L127.169 32.6857L116.076 39.2407L119.084 51.2749L108.172 56.4939L135.306 69.1255L130.981 48.4621L140.151 23.5H145.65L147.394 18.7046L112.73 -3.57941L113.27 -4.42059Z" fill="#98A2B3"/>
<path fill-rule="evenodd" clip-rule="evenodd" d="M183.576 115.265C172.405 97.4246 149.879 61.4694 149.084 60.2774L149.916 59.7226C150.717 60.9236 173.002 96.4946 184.229 114.424L213.353 106.892L222.983 142.369L222.017 142.631L212.647 108.108L183.771 115.576L183.576 115.265Z" fill="#98A2B3"/>
<path fill-rule="evenodd" clip-rule="evenodd" d="M240.067 81.2506L240.933 80.7494L271.75 133.95L286.571 131.481L302.712 139.047L302.288 139.953L286.429 132.519L272.286 134.875L288.596 163.031L275.091 181.538L283.438 196.76L282.562 197.24L273.909 181.462L287.404 162.969L240.067 81.2506Z" fill="#98A2B3"/>
<path fill-rule="evenodd" clip-rule="evenodd" d="M248.5 10.9345V-4.5H247.5V11.0655L249.558 18.7838L276.328 40.8569L275.129 42.6551L270.693 46.1053L271.307 46.8947L274.35 44.5275L269.036 57.8143L269.964 58.1857L275.945 43.234L277.103 41.4964L278.265 42.4539L309.183 50.9314L329.761 83.0536L354.5 78.415V68.3958L343.803 70.4333L336.898 54.1567L283.691 21.7259L280.039 35.2909L276.885 40.0206L250.442 18.2162L248.5 10.9345ZM277.661 40.66L278.735 41.5461L309.817 50.0686L330.239 81.9464L353.5 77.585V69.6042L343.197 71.5667L336.103 54.8433L284.309 23.2741L280.961 35.7091L277.661 40.66Z" fill="#98A2B3"/>
<path fill-rule="evenodd" clip-rule="evenodd" d="M339.845 23.6166L326.916 4.22265L326.084 4.77735L339.094 24.2926L332.79 29.9665L344.5 42.695V54H345.5V42.305L334.21 30.0335L346.081 19.3496L353.117 22.8676L362.044 42.7052L362.956 42.2948L353.883 22.1324L346.88 18.6309L358.835 7.87165L358.166 7.12835L339.845 23.6166Z" fill="#98A2B3"/>
<path fill-rule="evenodd" clip-rule="evenodd" d="M125.146 231.854L125.854 231.146L131.753 237.046L176.663 247.525L188.949 253.156L193.469 279.777L203.788 291.57L224.031 298.482L250.007 292.987L279.163 300.025L300.206 309.544L299.794 310.456L278.837 300.975L249.993 294.013L223.969 299.518L203.212 292.43L192.531 280.223L188.051 253.844L176.337 248.475L131.247 237.954L125.146 231.854Z" fill="#98A2B3"/>
<path fill-rule="evenodd" clip-rule="evenodd" d="M72.5 16.7427V-4.5H73.5V17.2573L62.9072 24.8236L56.962 39.1912L56.038 38.8088L62.0928 24.1764L72.5 16.7427Z" fill="#98A2B3"/>
<path fill-rule="evenodd" clip-rule="evenodd" d="M11.3781 38.9916L-6.54152 37.4983L-6.45848 36.5017L11.6219 38.0084L42.7319 51.2684L27.2313 76.2694L36.8679 80.3994L45.6952 70.5912L65.7855 61.0484L66.2145 61.9516L56.7472 66.4486L60.1386 71.3237L63.735 69.076L64.265 69.924L59.8614 72.6763L55.8316 66.8835L46.3048 71.4088L42.1727 76L46.2607 80.5422L56.0981 82.5097L55.9019 83.4903L45.7393 81.4578L41.5 76.7474L37.406 81.2963L34.1695 86.8447L217.277 208.584L216.723 209.416L33.2574 87.4391L13.2468 78.4343L-9.29568 61.9032L-8.70432 61.0968L13.7532 77.5657L33.2948 86.3594L36.2831 81.2367L25.7687 76.7306L41.2681 51.7316L11.3781 38.9916Z" fill="#98A2B3"/>
<path fill-rule="evenodd" clip-rule="evenodd" d="M141.137 119.595C142.454 117.981 148 111.181 148 105.206C148 100.122 143.523 96 138 96C132.477 96 128 100.122 128 105.206C128 110.257 130.972 114.576 133.159 117.754C133.663 118.486 134.125 119.158 134.5 119.764C135.444 121.291 136.276 123.1 136.892 124.584C137.265 125.482 138.654 125.455 138.972 124.536C139.623 122.647 140.458 120.433 141 119.764C141.039 119.716 141.085 119.66 141.137 119.595ZM138 109C139.657 109 141 107.657 141 106C141 104.343 139.657 103 138 103C136.343 103 135 104.343 135 106C135 107.657 136.343 109 138 109Z" fill="#1050AE"/>
<path fill-rule="evenodd" clip-rule="evenodd" d="M103.137 56.5949C104.454 54.9806 110 48.1808 110 42.2063C110 37.1218 105.523 33 100 33C94.4772 33 90 37.1218 90 42.2063C90 47.2569 92.9724 51.5762 95.1594 54.7541C95.6633 55.4863 96.1255 56.1579 96.5 56.7639C97.4438 58.291 98.2762 60.0995 98.8922 61.5838C99.2652 62.4824 100.654 62.4554 100.972 61.5357C101.623 59.647 102.458 57.4334 103 56.7639C103.039 56.7162 103.085 56.6597 103.137 56.5949ZM100 46C101.657 46 103 44.6569 103 43C103 41.3431 101.657 40 100 40C98.3431 40 97 41.3431 97 43C97 44.6569 98.3431 46 100 46Z" fill="#1050AE"/>
<path fill-rule="evenodd" clip-rule="evenodd" d="M45.1375 199.595C46.4542 197.981 52 191.181 52 185.206C52 180.122 47.5228 176 42 176C36.4772 176 32 180.122 32 185.206C32 190.257 34.9724 194.576 37.1594 197.754C37.6633 198.486 38.1255 199.158 38.5 199.764C39.4438 201.291 40.2762 203.1 40.8922 204.584C41.2652 205.482 42.6545 205.455 42.9718 204.536C43.6234 202.647 44.4584 200.433 45 199.764C45.0386 199.716 45.0846 199.66 45.1375 199.595ZM42 189C43.6569 189 45 187.657 45 186C45 184.343 43.6569 183 42 183C40.3431 183 39 184.343 39 186C39 187.657 40.3431 189 42 189Z" fill="#1050AE"/>
</g>
</svg>
