<svg width="24" height="24" viewBox="0 0 24 24" fill="none" xmlns="http://www.w3.org/2000/svg">
<g clip-path="url(#clip0_2491_21018)">
<path d="M4.95621 1.74258C4.43814 1.69668 4.03168 1.7409 3.57621 1.79286C2.90077 1.86992 2.87007 1.93569 2.33923 1.97612C1.51475 2.03891 1.37022 1.89688 1.23523 2.01634C0.640087 2.54307 2.10606 6.49341 4.23783 6.78678C4.94565 6.88419 6.56212 6.72569 7.2731 6.56974C7.58005 6.50241 7.90576 6.43843 8.20296 6.54051C8.61502 6.68204 8.98873 7.13077 9.39131 6.96417C9.53568 6.90443 9.64055 6.77261 9.78417 6.71102C10.0771 6.58541 10.4094 6.78724 10.7268 6.75848C10.9398 6.7392 11.128 6.61789 11.3065 6.50012C11.9081 6.10318 12.5098 5.70624 13.1114 5.3093C13.2333 5.22891 13.3581 5.14563 13.4415 5.02585C13.6425 4.73727 13.5408 4.33341 13.3566 4.03385C13.1724 3.7343 12.9136 3.47769 12.7849 3.15043C12.5943 2.66561 12.7203 2.10816 12.5729 1.60851C12.3609 0.889887 11.5247 0.421991 10.8013 0.617314C10.1292 0.798822 9.66301 1.43414 9.00429 1.65963C8.69303 1.76617 8.35233 1.77571 8.05006 1.90561C7.93179 1.95643 7.85432 2.04703 7.68947 2.0958C7.42553 2.17388 7.19994 2.11691 7.04129 2.08116C6.65785 1.99699 6.26895 1.93996 5.87749 1.91049C5.57619 1.8264 5.2678 1.7702 4.95621 1.74258Z" fill="url(#paint0_linear_2491_21018)"/>
<path d="M4.9562 1.57578C4.60121 1.54819 4.24443 1.55357 3.89044 1.59186C3.58072 1.62258 3.2708 1.65834 2.96494 1.71675C2.86935 1.73501 2.77407 1.75498 2.67804 1.77086C2.65356 1.77491 2.62904 1.77871 2.60448 1.78227C2.59727 1.78331 2.55327 1.78892 2.59603 1.78355C2.58202 1.78531 2.56801 1.78711 2.55399 1.78877C2.48879 1.79652 2.42342 1.80268 2.35797 1.80786C2.09304 1.8299 1.82679 1.8309 1.5617 1.81085C1.43487 1.80077 1.29874 1.78166 1.18304 1.84897C1.07968 1.90911 1.017 2.01658 0.980448 2.12704C0.89503 2.38522 0.937981 2.68757 0.985509 2.94807C1.05223 3.31377 1.17091 3.67031 1.31277 4.01325C1.4809 4.42428 1.68696 4.81875 1.92827 5.19155C2.39199 5.90183 3.02302 6.59805 3.85207 6.86825C4.27796 7.00706 4.74491 6.99264 5.1869 6.97476C5.74582 6.95161 6.30304 6.8977 6.85603 6.81327C7.10792 6.77502 7.35506 6.71335 7.60641 6.67358C7.77494 6.64691 7.95186 6.64013 8.116 6.68761C8.17956 6.70519 8.24066 6.73068 8.29787 6.76347C8.36313 6.79778 8.42627 6.83593 8.48904 6.87455C8.74699 7.03326 9.02229 7.21304 9.3395 7.15339C9.50757 7.12178 9.6311 7.00638 9.75503 6.91992C9.87396 6.83696 9.98816 6.82307 10.1226 6.84475C10.2971 6.87291 10.4692 6.92468 10.6471 6.92771C10.829 6.93081 11.0013 6.87143 11.1598 6.78614C11.3245 6.69747 11.478 6.58624 11.6339 6.48333C11.7962 6.37629 11.9584 6.26925 12.1207 6.16221C12.4519 5.94367 12.7832 5.72514 13.1144 5.5066C13.2624 5.40897 13.4221 5.31426 13.5356 5.17535C13.645 5.04047 13.7085 4.8742 13.7168 4.70074C13.7379 4.36474 13.577 4.04628 13.3874 3.78073C13.1968 3.51375 12.9755 3.26162 12.8936 2.94414C12.8088 2.61537 12.8403 2.26325 12.8009 1.92256C12.7631 1.59566 12.6624 1.30266 12.4572 1.04308C12.1111 0.605229 11.519 0.346687 10.9624 0.418015C10.3334 0.498624 9.88774 0.962306 9.37659 1.28805C9.31492 1.32736 9.25192 1.36465 9.18724 1.3988C9.12504 1.43238 9.06064 1.46169 8.99447 1.48654C8.83143 1.54642 8.66016 1.57744 8.49028 1.61088C8.30678 1.64701 8.12119 1.68705 7.95135 1.76811C7.89553 1.79773 7.84142 1.83048 7.78928 1.86619C7.73141 1.90476 7.66688 1.93228 7.59898 1.94735C7.33498 2.01155 7.09062 1.91606 6.82293 1.86652C6.66848 1.83793 6.51316 1.81477 6.35743 1.7944C6.27415 1.78351 6.19073 1.77372 6.10718 1.76502C6.02909 1.75689 5.93725 1.75366 5.88253 1.73885C5.57905 1.65778 5.26911 1.60322 4.9562 1.57578C4.86643 1.56761 4.78953 1.65822 4.78953 1.74244C4.78953 1.83938 4.86617 1.90092 4.9562 1.90911C5.24933 1.93577 5.53281 1.99744 5.82034 2.0675C5.91198 2.08983 6.01326 2.08857 6.10718 2.09836C6.19071 2.10706 6.27413 2.11685 6.35743 2.12773C6.46817 2.14237 6.62251 2.16699 6.74965 2.1908C7.03254 2.24378 7.30702 2.32956 7.59778 2.28595C7.76372 2.26107 7.89836 2.19031 8.03792 2.10198C8.16071 2.02426 8.31694 1.98698 8.47118 1.95417C8.64305 1.9176 8.81741 1.89099 8.98597 1.84028C9.13706 1.79375 9.28246 1.73044 9.41947 1.65155C9.67127 1.50846 9.89647 1.32485 10.1312 1.15647C10.3682 0.986457 10.6054 0.835618 10.8776 0.769701C10.9096 0.761945 10.9419 0.756151 10.9743 0.750221C11.0264 0.740685 10.9423 0.752335 10.9949 0.747346C11.0112 0.745802 11.0275 0.744057 11.0438 0.742864C11.109 0.738144 11.1745 0.738091 11.2397 0.742703C11.256 0.743843 11.2723 0.745267 11.2886 0.746972C11.291 0.747227 11.3441 0.754714 11.3092 0.749305C11.3416 0.754319 11.3738 0.76015 11.4058 0.767166C11.47 0.781264 11.5332 0.799466 11.595 0.82166C11.649 0.840121 11.7012 0.863147 11.7512 0.890488C11.8097 0.920882 11.8663 0.95487 11.9206 0.992259C11.9342 1.0016 11.9474 1.01137 11.9609 1.0209C12.0042 1.05165 11.9382 1.00136 11.9793 1.03494C12.0005 1.05227 12.0216 1.06978 12.042 1.08804C12.0951 1.13536 12.1447 1.18638 12.1905 1.24071C12.2236 1.27979 12.2536 1.3214 12.2802 1.36518C12.2976 1.39283 12.3141 1.42109 12.3295 1.44994C12.3371 1.46437 12.3446 1.47894 12.3517 1.49365C12.3542 1.49874 12.3797 1.55527 12.3685 1.52855C12.4242 1.66823 12.4592 1.81535 12.4722 1.9652C12.5072 2.31386 12.4835 2.66916 12.567 3.01221C12.6468 3.33977 12.843 3.60072 13.0396 3.8666C13.134 3.99436 13.227 4.1248 13.2942 4.26943C13.3527 4.39281 13.3836 4.52745 13.3848 4.664C13.3861 4.72825 13.3739 4.79206 13.349 4.85131C13.3586 4.82672 13.3349 4.88042 13.3361 4.87807C13.3304 4.88896 13.3244 4.89972 13.318 4.91024C13.2983 4.94261 13.2745 4.97225 13.2471 4.9984C13.1346 5.11075 12.9826 5.19474 12.8448 5.28567C12.5203 5.49975 12.1958 5.71383 11.8713 5.92791C11.7091 6.03495 11.5468 6.14199 11.3846 6.24903C11.2384 6.34548 11.0942 6.45028 10.9361 6.52674C10.8102 6.58692 10.6688 6.60714 10.5311 6.58468C10.3643 6.55719 10.1996 6.50884 10.0297 6.50312C9.86561 6.49695 9.70419 6.54622 9.5715 6.64301C9.50364 6.69198 9.46143 6.73185 9.38969 6.77676C9.37383 6.78669 9.3576 6.79565 9.34111 6.80447C9.29534 6.82896 9.36055 6.80011 9.31484 6.81535C9.29901 6.82063 9.28273 6.82383 9.26684 6.82871C9.23399 6.83878 9.28414 6.83034 9.2475 6.83235C9.12794 6.83893 9.03705 6.80501 8.92384 6.7451C8.79423 6.67651 8.67308 6.59332 8.5462 6.52002C8.40646 6.43928 8.25676 6.36865 8.0965 6.3417C7.90201 6.30898 7.71162 6.32157 7.5178 6.35215C7.27132 6.39104 7.02896 6.45178 6.78205 6.48961C6.72695 6.49805 6.67179 6.50609 6.61658 6.51375C6.601 6.51592 6.58542 6.51805 6.56984 6.52017C6.60649 6.5152 6.55395 6.52223 6.55086 6.52264C6.51316 6.52757 6.47544 6.53236 6.43771 6.537C6.30283 6.55359 6.16775 6.56847 6.03248 6.58163C5.52145 6.63155 5.00232 6.66971 4.48874 6.64249C4.43868 6.63984 4.38865 6.63636 4.33874 6.63159C4.31589 6.62941 4.29312 6.62642 4.27028 6.62418C4.26029 6.62321 4.23794 6.61887 4.28213 6.62593C4.26674 6.62347 4.25128 6.62148 4.23589 6.61898C4.14352 6.6038 4.05234 6.58208 3.96305 6.55398C3.91811 6.53989 3.87366 6.52431 3.82972 6.50724C3.81132 6.5001 3.79304 6.49266 3.7748 6.4851C3.81662 6.50243 3.77863 6.48661 3.77096 6.48311C3.75649 6.47651 3.74196 6.47008 3.72755 6.46335C3.64001 6.4223 3.55486 6.37634 3.4725 6.3257C3.38797 6.27391 3.30622 6.21762 3.2272 6.15778C3.22145 6.15342 3.18791 6.12692 3.22105 6.15315C3.21115 6.14531 3.20119 6.13755 3.19133 6.12966C3.17482 6.11646 3.15843 6.10311 3.14216 6.08961C3.09947 6.0542 3.05759 6.01782 3.01654 5.98049C2.86113 5.83838 2.7159 5.68552 2.58193 5.52304C2.55048 5.48516 2.51957 5.44684 2.48919 5.40809C2.48555 5.40344 2.45792 5.36758 2.4822 5.39925C2.47399 5.38854 2.46581 5.37781 2.45764 5.36706C2.4386 5.34191 2.41977 5.31661 2.40114 5.29115C2.33974 5.20721 2.28053 5.12172 2.22354 5.03467C2.10496 4.85389 1.99536 4.66761 1.89475 4.47585C1.84537 4.38211 1.79811 4.28729 1.75295 4.1914C1.73078 4.14433 1.70913 4.09701 1.688 4.04945C1.67929 4.02984 1.67067 4.01019 1.66214 3.9905C1.65705 3.97875 1.65204 3.96696 1.64697 3.9552C1.63966 3.93801 1.64029 3.93954 1.64885 3.95979C1.64557 3.95198 1.6423 3.94417 1.63905 3.93635C1.56442 3.75688 1.49724 3.57422 1.43956 3.38859C1.38781 3.22441 1.34535 3.05744 1.31236 2.88849C1.30569 2.8536 1.29956 2.81861 1.29397 2.78352C1.29104 2.76506 1.28848 2.74655 1.28568 2.72806C1.28047 2.69359 1.29066 2.77049 1.2868 2.73613C1.28547 2.72425 1.28387 2.71239 1.28253 2.70051C1.27502 2.63408 1.26997 2.56732 1.26875 2.50046C1.26781 2.44237 1.27017 2.38427 1.27583 2.32645C1.28001 2.28278 1.27171 2.34832 1.27498 2.33172C1.27741 2.31941 1.27901 2.30692 1.28145 2.2946C1.28594 2.27153 1.29163 2.24872 1.2985 2.22626C1.30174 2.21577 1.30564 2.20555 1.3091 2.19515C1.32272 2.15419 1.29022 2.23086 1.30644 2.20136C1.31581 2.1843 1.32546 2.16756 1.33516 2.15071C1.3547 2.11673 1.30605 2.17996 1.3285 2.15909C1.33477 2.15325 1.34088 2.14625 1.34669 2.13991C1.34975 2.13658 1.35418 2.13413 1.35701 2.13065C1.37159 2.11269 1.31805 2.15159 1.33915 2.14451C1.34797 2.14093 1.35625 2.13612 1.36374 2.13022C1.38006 2.11597 1.3196 2.14088 1.34118 2.13992C1.34579 2.13882 1.35032 2.13743 1.35475 2.13575C1.35956 2.135 1.36431 2.13391 1.36897 2.1325C1.38881 2.12557 1.38339 2.14734 1.34479 2.13543C1.36235 2.14085 1.39654 2.1331 1.41547 2.13374C1.4852 2.13609 1.55477 2.14404 1.62435 2.1489C1.89811 2.16627 2.17282 2.16115 2.44574 2.1336C2.65934 2.11339 2.86808 2.07298 3.07859 2.03343C3.3722 1.97827 3.64906 1.94746 3.95245 1.91922C4.28606 1.88586 4.62198 1.88247 4.9562 1.90911C5.04599 1.91685 5.12286 1.82697 5.12286 1.74244C5.12286 1.64584 5.04625 1.58354 4.9562 1.57578Z" fill="url(#paint1_linear_2491_21018)"/>
<path d="M5.79306 5.33515C5.96865 5.20985 6.03832 4.97512 6.02138 4.76007C6.00442 4.54502 5.91481 4.34331 5.82648 4.1465C5.80622 4.10136 5.78385 4.05369 5.7422 4.02696C5.68965 3.99324 5.62157 4.0019 5.55992 4.0118C5.19144 4.07093 2.01323 3.90811 1.88118 4.60218C1.84476 4.7936 2.05139 5.0104 2.46462 5.44402C2.62023 5.60731 2.72017 5.67944 2.83953 5.72834C3.0293 5.80607 3.24357 5.78331 3.44663 5.75475C3.78038 5.70779 4.65613 5.49158 5.85357 5.19156" fill="url(#paint2_linear_2491_21018)"/>
<path d="M5.87717 5.47871C5.99144 5.39855 6.07892 5.28583 6.12822 5.15524C6.17225 5.04503 6.1934 4.92702 6.19037 4.80839C6.18557 4.66782 6.15834 4.52892 6.1097 4.39694C6.08381 4.32336 6.05342 4.25142 6.02253 4.17983C5.99967 4.12174 5.97372 4.06492 5.94477 4.0096C5.92231 3.9669 5.89052 3.9298 5.85176 3.90105C5.813 3.87231 5.76827 3.85265 5.72089 3.84354C5.64592 3.83205 5.58108 3.8419 5.50627 3.85211L5.55058 3.84615C5.41524 3.86418 5.27517 3.85954 5.139 3.86123C4.90202 3.86415 4.66504 3.86581 4.42809 3.87077C4.14595 3.87668 3.8638 3.88645 3.58219 3.90506C3.29638 3.92206 3.01161 3.95342 2.72895 3.99905C2.50279 4.0371 2.27678 4.08911 2.06831 4.18714C1.91152 4.26086 1.74627 4.38933 1.7182 4.57176C1.7053 4.64531 1.7114 4.72093 1.7359 4.79147C1.76114 4.86011 1.79536 4.92511 1.83768 4.98477C1.95471 5.15133 2.0976 5.29916 2.23731 5.4465C2.38408 5.60129 2.53327 5.77326 2.73215 5.86197C2.85991 5.91883 2.99824 5.94805 3.13808 5.94773C3.26152 5.94544 3.3846 5.93379 3.50628 5.91289C3.75956 5.87528 4.01001 5.81312 4.25907 5.75472C4.68105 5.65578 5.10164 5.55088 5.52216 5.44592C5.64741 5.41465 5.77265 5.38332 5.89787 5.35193C5.94049 5.34018 5.9767 5.31198 5.99853 5.27353C6.02036 5.23508 6.02602 5.18954 6.01427 5.14691C6.00252 5.10429 5.97432 5.06808 5.93587 5.04625C5.89742 5.02442 5.85188 5.01876 5.80925 5.03051C5.39106 5.13528 4.97284 5.24004 4.55387 5.34167C4.26394 5.412 3.97372 5.48216 3.68155 5.54265C3.57584 5.56454 3.46988 5.58465 3.36288 5.59912L3.40718 5.59317C3.27562 5.61068 3.14241 5.62316 3.01012 5.60593L3.05443 5.61189C2.99386 5.6037 2.93458 5.58789 2.87797 5.56486L2.91778 5.58166C2.88447 5.5677 2.85217 5.55144 2.82112 5.53298C2.80466 5.52313 2.7886 5.51268 2.77291 5.50162C2.7651 5.49614 2.75751 5.49037 2.74977 5.48481C2.73306 5.4728 2.78556 5.51337 2.76288 5.49496C2.75788 5.49091 2.75284 5.48693 2.74787 5.48285C2.66327 5.40954 2.58326 5.33109 2.5083 5.24796C2.43559 5.1715 2.36297 5.09492 2.2922 5.01665C2.26284 4.98418 2.23381 4.95138 2.20548 4.918C2.19341 4.90377 2.18148 4.88943 2.1697 4.87496C2.16341 4.86723 2.15718 4.85946 2.151 4.85164C2.14833 4.84826 2.14569 4.84485 2.14302 4.84147C2.13121 4.82651 2.17017 4.87713 2.1556 4.85767C2.1131 4.80394 2.07713 4.74536 2.04846 4.68314L2.06526 4.72295C2.05295 4.69443 2.04442 4.66441 2.03989 4.63367L2.04585 4.67797C2.04327 4.65742 2.04318 4.63664 2.04558 4.61606L2.03963 4.66037C2.04252 4.63889 2.04818 4.61787 2.05648 4.59785L2.03968 4.63766C2.04814 4.61838 2.05855 4.60001 2.07075 4.58284C2.08773 4.55828 2.04517 4.61416 2.05567 4.60224C2.05944 4.59795 2.06297 4.59345 2.06678 4.58919C2.07435 4.58073 2.08232 4.57262 2.09058 4.56483C2.09925 4.55666 2.10833 4.54901 2.11749 4.5414C2.14193 4.52108 2.07828 4.5704 2.10136 4.55384C2.10672 4.54999 2.11203 4.54606 2.11746 4.5423C2.13973 4.527 2.1628 4.51293 2.1866 4.50014C2.21702 4.48366 2.24839 4.46901 2.28024 4.45551L2.24042 4.47231C2.42157 4.39616 2.6169 4.35455 2.80993 4.32176C2.87433 4.31083 2.93894 4.30118 3.00368 4.29244L2.95937 4.29839C3.16517 4.27078 3.37212 4.25234 3.57927 4.23859C3.79215 4.22447 4.00535 4.21547 4.21859 4.2093C4.41347 4.20366 4.60841 4.20049 4.80336 4.19822C4.95842 4.19641 5.1135 4.19547 5.26855 4.19264C5.36152 4.19318 5.45445 4.18895 5.54698 4.17996C5.5751 4.17653 5.60295 4.17214 5.63097 4.16812L5.58666 4.17407C5.61641 4.16954 5.64659 4.16848 5.67658 4.17092L5.63228 4.16497C5.64667 4.16695 5.66081 4.17043 5.67447 4.17535L5.63466 4.15855C5.64001 4.16087 5.64513 4.16369 5.65046 4.166C5.67647 4.17728 5.63117 4.14685 5.64058 4.1568C5.64614 4.16267 5.67058 4.19043 5.65204 4.16702C5.63384 4.14404 5.64917 4.16461 5.65278 4.17065C5.65563 4.17541 5.65834 4.18027 5.66096 4.18516C5.66687 4.19621 5.67221 4.20756 5.67743 4.21895C5.70206 4.2727 5.72588 4.32682 5.7489 4.38131L5.73209 4.3415C5.79097 4.47272 5.83239 4.61109 5.85528 4.75308L5.84933 4.70877C5.85907 4.78245 5.85922 4.85709 5.84979 4.93081L5.85574 4.8865C5.84715 4.94838 5.8307 5.00891 5.8068 5.06663L5.8236 5.02681C5.81464 5.0477 5.80457 5.0681 5.79344 5.08791C5.7882 5.09716 5.78269 5.10626 5.77693 5.1152C5.76911 5.12424 5.76229 5.13411 5.75658 5.14462C5.75744 5.14193 5.78241 5.11267 5.768 5.12967C5.76457 5.13371 5.76123 5.13782 5.75775 5.14181C5.7508 5.14979 5.74358 5.15755 5.73612 5.16509C5.72769 5.17358 5.71896 5.18175 5.70991 5.18959C5.70587 5.19309 5.70166 5.19638 5.69763 5.19988C5.68386 5.21183 5.73359 5.17297 5.70893 5.19089C5.6723 5.21386 5.64513 5.2492 5.63234 5.2905C5.62081 5.33385 5.62685 5.38 5.64914 5.41892C5.69407 5.48862 5.80175 5.53353 5.87717 5.47871Z" fill="#263863"/>
<path d="M1.88229 4.68131C1.35796 3.93897 1.19984 3.28935 1.14446 2.90013C1.0661 2.34945 1.1733 2.17895 1.25557 2.10013C1.4435 1.92009 1.72414 2.00497 2.16668 2.03346C2.85228 2.0776 2.76556 1.91167 3.85932 1.85335C3.85932 1.85335 5.07713 1.7783 5.55556 2.15112C5.65091 2.22542 5.7389 2.31614 5.7798 2.42989C5.81807 2.53632 5.81186 2.65287 5.80517 2.76576C5.78414 3.12036 5.76311 3.47495 5.74207 3.82955C5.73893 3.88247 5.73337 3.94084 5.69478 3.97718C5.66394 4.00623 5.61929 4.01391 5.57742 4.0203C4.61636 4.1668 3.65531 4.3133 2.69426 4.4598C2.48627 4.4915 2.19116 4.46672 1.83979 4.45472" fill="url(#paint3_linear_2491_21018)"/>
<path d="M2.02617 4.59709C1.83797 4.3321 1.67854 4.0478 1.55059 3.74902L1.56739 3.78884C1.46163 3.53993 1.38256 3.28051 1.3315 3.01493C1.32016 2.95494 1.31038 2.89469 1.30215 2.83418L1.3081 2.87848C1.28674 2.71948 1.27298 2.55622 1.29354 2.39635L1.28759 2.44066C1.29457 2.38174 1.30934 2.324 1.33149 2.26897L1.31469 2.30878C1.32273 2.28987 1.33215 2.27157 1.34286 2.25403C1.34756 2.24641 1.35266 2.2391 1.35777 2.23176C1.3738 2.20873 1.33475 2.26022 1.34178 2.25229C1.3444 2.24935 1.34678 2.24618 1.34935 2.24319C1.36153 2.22909 1.37475 2.21593 1.3889 2.20381C1.39187 2.20125 1.39497 2.19884 1.39794 2.19628C1.41203 2.18416 1.36093 2.22328 1.38037 2.21001C1.38746 2.20518 1.39447 2.20026 1.40179 2.19576C1.41707 2.18644 1.43299 2.17819 1.44941 2.17108L1.4096 2.18788C1.44922 2.17166 1.49082 2.16074 1.5333 2.1554L1.48899 2.16135C1.6428 2.14189 1.8009 2.16703 1.95402 2.18212C2.10462 2.19892 2.25605 2.20729 2.40759 2.20719C2.59672 2.20462 2.78006 2.16877 2.96429 2.12953C3.08795 2.10319 3.21225 2.08086 3.33757 2.06399L3.29327 2.06994C3.49771 2.04271 3.70409 2.02561 3.91018 2.01751C4.06756 2.01132 4.22537 2.01254 4.38267 2.02002C4.51182 2.02617 4.64077 2.03696 4.76894 2.05408L4.72463 2.04812C4.91874 2.0744 5.114 2.11387 5.29544 2.18956L5.25563 2.17275C5.32574 2.20172 5.39241 2.23839 5.45442 2.2821C5.45731 2.28417 5.46006 2.28646 5.46299 2.28847C5.41206 2.2536 5.44008 2.27062 5.45157 2.27985C5.46313 2.28914 5.47449 2.29865 5.48567 2.30839C5.5069 2.32694 5.52734 2.34641 5.54662 2.36699C5.55672 2.37777 5.56646 2.38886 5.57586 2.40026C5.59557 2.42425 5.57386 2.39199 5.56882 2.39087C5.57162 2.39149 5.57943 2.40571 5.58154 2.40881C5.59881 2.43424 5.61374 2.46118 5.62614 2.48931L5.60934 2.44949C5.62652 2.49132 5.63808 2.53524 5.64372 2.5801L5.63777 2.5358C5.65027 2.64149 5.63948 2.74854 5.63321 2.85431C5.62631 2.97066 5.61941 3.08701 5.61251 3.20336L5.59213 3.54688C5.58558 3.65744 5.58525 3.77053 5.57071 3.88035L5.57667 3.83604C5.57389 3.85542 5.56886 3.87441 5.56168 3.89262L5.57848 3.8528C5.57615 3.85774 5.57354 3.86247 5.5711 3.86733C5.55929 3.89085 5.59368 3.84379 5.57981 3.85627C5.5662 3.86852 5.61074 3.83807 5.59409 3.84594C5.5879 3.84888 5.58203 3.85285 5.5758 3.85584L5.61561 3.83904C5.57652 3.85266 5.53592 3.86149 5.49471 3.86533L5.34671 3.88789L5.05072 3.93301L4.46422 4.02241L3.28575 4.20206C3.06732 4.23535 2.84911 4.27211 2.63016 4.30179L2.67447 4.29584C2.55252 4.30896 2.42974 4.31253 2.30723 4.30651C2.15134 4.30214 1.99561 4.29334 1.83976 4.28795C1.79566 4.2883 1.75348 4.30597 1.7223 4.33715C1.69111 4.36833 1.67344 4.41052 1.67309 4.45461C1.67397 4.49854 1.69181 4.54043 1.72287 4.5715C1.75394 4.60257 1.79583 4.62041 1.83976 4.62128C2.02066 4.62754 2.20146 4.63892 2.38247 4.64147C2.45665 4.64252 2.53101 4.64198 2.60501 4.63631C2.6994 4.62907 2.79301 4.6121 2.88652 4.59785L4.09241 4.41403L5.30377 4.22937L5.60525 4.18341C5.65759 4.1776 5.70842 4.16222 5.7552 4.13803C5.81749 4.10109 5.86409 4.0426 5.88619 3.97362C5.90119 3.92322 5.90899 3.87095 5.90937 3.81837C5.91235 3.7685 5.91531 3.71864 5.91824 3.66877C5.92426 3.56719 5.93029 3.46562 5.93631 3.36404C5.94844 3.15959 5.96056 2.95515 5.97268 2.7507C5.98154 2.64779 5.97621 2.54415 5.95683 2.4427C5.93128 2.33973 5.88147 2.24436 5.81157 2.16456C5.64113 1.9571 5.3809 1.84776 5.12662 1.78492C4.88142 1.72796 4.63126 1.69502 4.37967 1.68655C4.22005 1.67905 4.05986 1.67788 3.90017 1.68458C3.66682 1.69432 3.43411 1.7158 3.20293 1.74895C3.03 1.77379 2.86088 1.8147 2.68941 1.847C2.65468 1.85354 2.61981 1.85931 2.58478 1.86407L2.62909 1.85811C2.37557 1.89195 2.11912 1.86529 1.86615 1.83998C1.71041 1.8244 1.55209 1.80801 1.39745 1.84219C1.26846 1.8721 1.15457 1.94751 1.07666 2.05458C1.02403 2.12872 0.988904 2.21382 0.973919 2.30349C0.946824 2.46306 0.943342 2.62575 0.963586 2.78633C0.992826 3.06592 1.05306 3.34139 1.14319 3.60766C1.2669 3.9686 1.43602 4.31234 1.64646 4.63061C1.67634 4.67602 1.70697 4.72093 1.73835 4.76533C1.76122 4.80204 1.7966 4.82925 1.83795 4.84192C1.8813 4.85345 1.92745 4.84741 1.96638 4.82512C2.03698 4.7796 2.07988 4.6733 2.02617 4.59709Z" fill="#263863"/>
<path d="M7.09761 6.49335C6.90533 6.45376 6.72335 6.37473 6.56317 6.26123C6.40299 6.14774 6.26809 6.00225 6.167 5.83397C6.08671 5.69849 6.01719 5.53776 5.87198 5.47681C5.80007 5.44664 5.71951 5.44634 5.6416 5.44962C5.1247 5.47137 4.62465 5.62839 4.11892 5.73744C3.61318 5.84649 3.07557 5.90611 2.58649 5.73743C3.036 6.39489 3.8651 6.70391 4.66063 6.74203C5.45616 6.78015 6.242 6.58889 7.02498 6.44306" fill="#FBBD4D"/>
<path d="M7.14195 6.3323C7.05021 6.3136 6.96056 6.28581 6.87434 6.24934L6.91415 6.26615C6.81758 6.22485 6.72579 6.17317 6.64039 6.11204C6.63002 6.1046 6.61983 6.09692 6.60958 6.0893C6.59215 6.07633 6.6441 6.11683 6.61977 6.09712C6.61536 6.09355 6.61089 6.09006 6.60649 6.08648C6.58556 6.06951 6.56512 6.05196 6.54518 6.03382C6.50635 5.99854 6.46951 5.96113 6.43483 5.92176C6.41714 5.90334 6.40078 5.88369 6.38586 5.86296C6.38644 5.86385 6.412 5.89744 6.39633 5.8765C6.39294 5.87197 6.38952 5.86745 6.38615 5.86289C6.37773 5.85148 6.36949 5.83995 6.36143 5.82829C6.33137 5.78479 6.30463 5.73934 6.27866 5.69332C6.22528 5.59873 6.17015 5.5002 6.09019 5.42506C5.98082 5.32228 5.84394 5.28083 5.69548 5.28125C5.55654 5.28411 5.41795 5.29622 5.28063 5.31752C5.02068 5.35323 4.76508 5.41334 4.51022 5.47473C4.22968 5.5423 3.94903 5.61101 3.66275 5.64996L3.70706 5.64401C3.45589 5.68127 3.20089 5.68506 2.94872 5.65527L2.99303 5.66123C2.86985 5.64464 2.74856 5.61622 2.63083 5.57637C2.56807 5.55493 2.49399 5.58646 2.45564 5.6361C2.41731 5.68572 2.40499 5.76645 2.44261 5.82121C2.6127 6.06683 2.82989 6.27623 3.08157 6.43723C3.32732 6.593 3.59532 6.71052 3.87638 6.78578C4.53055 6.96628 5.21225 6.92656 5.87581 6.82438C6.2758 6.76279 6.6716 6.67761 7.06932 6.60343C7.15521 6.58741 7.21182 6.47905 7.18572 6.39841C7.15599 6.30654 7.07274 6.26484 6.9807 6.28201C6.52635 6.36675 6.07431 6.46566 5.61603 6.52772L5.66033 6.52177C5.30878 6.56891 4.95255 6.59476 4.59801 6.57146C4.51825 6.56622 4.43874 6.55826 4.35948 6.54759L4.40379 6.55355C4.12735 6.51729 3.85691 6.44474 3.59945 6.33776L3.63926 6.35456C3.49106 6.29221 3.34912 6.21591 3.21536 6.12668C3.18231 6.10445 3.14987 6.08136 3.11803 6.05739C3.11365 6.05409 3.1093 6.05074 3.10492 6.04744C3.09082 6.03681 3.125 6.06273 3.12238 6.06093C3.11451 6.05555 3.10725 6.04904 3.0998 6.04307C3.08377 6.03022 3.06793 6.01713 3.05227 6.00382C2.99168 5.95234 2.93419 5.89733 2.88009 5.83907C2.85015 5.8068 2.82134 5.77352 2.79365 5.73925C2.78907 5.73357 2.76184 5.69876 2.78103 5.72359C2.8001 5.74826 2.77537 5.71587 2.77151 5.71066C2.75745 5.69169 2.74376 5.67246 2.73043 5.65297L2.54221 5.8978C2.89212 6.01734 3.27152 6.02882 3.63604 5.98628C4.01526 5.94203 4.38344 5.84618 4.75433 5.75906C4.96114 5.71048 5.16909 5.66594 5.37974 5.63753L5.33544 5.64348C5.41075 5.63353 5.48631 5.62552 5.56211 5.62035C5.63402 5.61327 5.70644 5.61284 5.77844 5.61908L5.73413 5.61312C5.76619 5.61728 5.79762 5.62536 5.8277 5.63718L5.78789 5.62038C5.81056 5.6305 5.83219 5.64279 5.8525 5.65708C5.86961 5.66883 5.81841 5.62782 5.84005 5.6478C5.84384 5.65131 5.84785 5.6546 5.85166 5.6581C5.8622 5.6678 5.87218 5.67809 5.88173 5.68876C5.88965 5.69761 5.89698 5.70689 5.90456 5.71603C5.86749 5.67135 5.89938 5.71023 5.90685 5.72116C5.92218 5.74362 5.93641 5.76681 5.95019 5.79025C6.00079 5.883 6.05712 5.9725 6.11886 6.05823C6.26489 6.25131 6.4529 6.40864 6.66869 6.51834C6.79045 6.58007 6.91976 6.62559 7.05333 6.65373C7.09673 6.66448 7.14259 6.65848 7.18176 6.63692C7.21908 6.61473 7.24649 6.57909 7.25835 6.53732C7.27727 6.45426 7.23331 6.35084 7.14195 6.3323Z" fill="#263863"/>
<path d="M17.0962 11.4374C18.1256 9.00215 18.0429 6.02684 16.9144 4.02674C15.5652 1.6354 13.3842 1.81383 13.057 1.84835C12.7873 1.87682 10.3571 2.19408 9.24911 5.29161C8.17021 8.30794 9.32227 11.2289 9.40787 11.4374C8.93628 8.12615 10.0671 5.02134 11.8702 4.02674C13.1137 3.34077 14.5487 3.72937 15.5792 4.79972C16.9678 6.24204 17.5862 8.88532 17.0962 11.4374Z" fill="#317FF2" stroke="url(#paint4_linear_2491_21018)" stroke-width="0.5" stroke-linecap="round" stroke-linejoin="round"/>
<path d="M12.533 1.54966C12.4678 1.71273 12.3154 2.02546 11.9856 2.2606C11.9296 2.3005 11.346 2.71664 11.0286 2.49187C10.7696 2.3085 10.8514 1.81438 10.8808 1.63643C10.9621 1.14469 11.2502 0.817529 11.3955 0.673828" fill="url(#paint5_linear_2491_21018)"/>
<path d="M12.3723 1.50526C12.3678 1.51652 12.3632 1.52774 12.3584 1.53892L12.3752 1.4991C12.3434 1.57436 12.3062 1.64725 12.264 1.71722C12.2369 1.76197 12.2077 1.80536 12.1764 1.84739C12.1733 1.85163 12.17 1.85581 12.1669 1.86008C12.1966 1.8197 12.1832 1.83913 12.1757 1.84861C12.168 1.85827 12.1603 1.86783 12.1525 1.87731C12.1326 1.90128 12.112 1.92464 12.0907 1.94738C12.0484 1.99262 12.0033 2.03519 11.9557 2.07485C11.9448 2.08389 11.9325 2.09201 11.9224 2.1018C11.956 2.06937 11.9353 2.09182 11.9253 2.09925C11.9201 2.10315 11.9148 2.10701 11.9095 2.11084C11.9026 2.11582 11.8957 2.12075 11.8887 2.12562C11.8476 2.15447 11.8055 2.18179 11.7624 2.20759C11.6849 2.25452 11.6043 2.29592 11.521 2.33148L11.5608 2.31468C11.4756 2.35184 11.386 2.37774 11.2941 2.39172L11.3384 2.38577C11.2899 2.39242 11.2407 2.39289 11.192 2.38717L11.2363 2.39312C11.2014 2.3884 11.1672 2.37917 11.1347 2.36566L11.1745 2.38246C11.1546 2.37383 11.1356 2.3634 11.1176 2.35129C11.0898 2.33133 11.0553 2.32298 11.0214 2.328C10.9875 2.33302 10.9568 2.35101 10.936 2.37818C10.9151 2.40535 10.9056 2.43957 10.9094 2.47361C10.9133 2.50766 10.9302 2.53888 10.9567 2.56067C10.9831 2.58245 11.017 2.59312 11.0512 2.5904C11.0853 2.58768 11.1171 2.5718 11.1398 2.5461C11.1624 2.52041 11.1742 2.48691 11.1727 2.45267C11.1711 2.41844 11.1563 2.38616 11.1314 2.36263C11.127 2.35829 11.1222 2.35428 11.1172 2.35063C11.1087 2.34313 11.1007 2.33521 11.093 2.32689C11.0815 2.31432 11.0612 2.28037 11.0938 2.3299C11.0876 2.32046 11.0808 2.31146 11.0749 2.30182C11.0625 2.28135 11.0517 2.25997 11.0425 2.23787L11.0593 2.27768C11.0377 2.22311 11.0229 2.16605 11.0154 2.10783L11.0214 2.15213C11.0066 2.01937 11.0094 1.88523 11.0296 1.75318L11.0237 1.79749C11.0435 1.63208 11.085 1.47001 11.1471 1.31542L11.1303 1.35523C11.1853 1.22546 11.2554 1.1026 11.3391 0.989175C11.3437 0.98297 11.3483 0.976792 11.3529 0.970641C11.3555 0.967185 11.3581 0.963737 11.3608 0.960299L11.3425 0.983868C11.3519 0.972798 11.3605 0.960982 11.3697 0.949714C11.3867 0.928799 11.4042 0.908244 11.422 0.888049C11.4514 0.854884 11.4818 0.822729 11.5133 0.791586C11.5754 0.730129 11.5795 0.616583 11.5133 0.555883C11.4817 0.525359 11.4395 0.508301 11.3955 0.508301C11.3515 0.508301 11.3093 0.525359 11.2776 0.555883C11.0628 0.767228 10.8977 1.02382 10.7944 1.30698C10.7441 1.45697 10.7105 1.61205 10.6942 1.76941C10.6744 1.91441 10.6748 2.06146 10.6954 2.20634C10.7207 2.37428 10.7981 2.52888 10.9369 2.63012C11.0725 2.72906 11.2451 2.73573 11.4046 2.70992C11.5468 2.6869 11.6841 2.62764 11.8114 2.562C11.8942 2.51926 11.9741 2.47111 12.0506 2.41788C12.3123 2.23673 12.5196 1.98755 12.6501 1.69723C12.6653 1.66308 12.6798 1.62863 12.6937 1.59388C12.6996 1.57243 12.7011 1.55002 12.6983 1.52797C12.6954 1.50592 12.6881 1.48466 12.6769 1.46545C12.6659 1.44655 12.6512 1.43001 12.6338 1.41677C12.6163 1.40353 12.5965 1.39386 12.5753 1.38831C12.5541 1.38276 12.532 1.38143 12.5104 1.38441C12.4887 1.38738 12.4678 1.3946 12.4489 1.40566C12.413 1.42943 12.3861 1.46448 12.3723 1.50526Z" fill="url(#paint6_linear_2491_21018)"/>
<path d="M9.99097 2.88154C9.99097 2.88154 10.4855 4.01897 11.0295 4.51351C11.0955 4.58262 11.1415 4.66839 11.1626 4.76163C11.2334 5.06092 11.0486 5.47677 10.7822 5.55203C10.524 5.62498 10.2536 5.35975 9.7437 4.85968C9.55469 4.67431 9.47353 4.56775 9.34807 4.4146C9.30095 4.35707 8.84386 3.78256 9.05135 3.22771C9.08931 3.12621 9.1862 2.86665 9.44698 2.78263C9.71593 2.69598 9.95671 2.85773 9.99097 2.88154Z" fill="url(#paint7_linear_2491_21018)"/>
<path d="M10.7327 2.14014C10.9286 2.35402 11.1274 2.58454 11.3262 2.83249C11.7042 3.30398 12.0511 3.79957 12.3647 4.3161C12.101 4.46446 11.8372 4.61282 11.5735 4.76118C11.349 4.45594 10.1811 2.85489 10.1888 2.33795C10.1896 2.27961 10.1918 2.13526 10.2863 2.0677C10.4314 1.96397 10.6909 2.11511 10.7327 2.14014Z" fill="url(#paint8_linear_2491_21018)"/>
<path d="M22.898 8.17334V23.3556H20.3463V23.3343V8.1929V8.17334H22.898Z" fill="#1D6ECE"/>
<path d="M20.3463 23.3343V23.3556H17.9619V23.3343V8.1929V8.17334H20.3463V8.1929V23.3343Z" fill="#317FF2"/>
<path d="M17.9619 23.3343V23.3556H15.2924V23.3343V8.1929V8.17334H17.9619V8.1929V23.3343Z" fill="#1D6ECE"/>
<path d="M15.2924 23.3343V23.3556H3.46301V8.17334H15.2924V8.1929V23.3343Z" fill="#317FF2"/>
<path d="M17.9619 8.17334H20.3464" stroke="url(#paint9_linear_2491_21018)" stroke-width="0.5" stroke-linecap="round" stroke-linejoin="round"/>
<path d="M15.2924 8.17334H17.9619" stroke="url(#paint10_linear_2491_21018)" stroke-width="0.5" stroke-linecap="round" stroke-linejoin="round"/>
<path d="M15.2924 23.3556H3.46301V8.17334H15.2924" stroke="url(#paint11_linear_2491_21018)" stroke-width="0.5" stroke-linecap="round" stroke-linejoin="round"/>
<path d="M17.9619 23.3555H15.2924" stroke="url(#paint12_linear_2491_21018)" stroke-width="0.5" stroke-linecap="round" stroke-linejoin="round"/>
<path d="M20.3464 23.3555H17.9619" stroke="url(#paint13_linear_2491_21018)" stroke-width="0.5" stroke-linecap="round" stroke-linejoin="round"/>
<path d="M20.3463 8.17334H22.898V23.3556H20.3463" stroke="url(#paint14_linear_2491_21018)" stroke-width="0.5" stroke-linecap="round" stroke-linejoin="round"/>
<path d="M15.2924 8.19287V23.3343" stroke="url(#paint15_linear_2491_21018)" stroke-width="0.5" stroke-linecap="round" stroke-linejoin="round"/>
<path d="M17.9619 8.19287V23.3343" stroke="url(#paint16_linear_2491_21018)" stroke-width="0.5" stroke-linecap="round" stroke-linejoin="round"/>
<path d="M20.3463 8.19287V23.3343" stroke="url(#paint17_linear_2491_21018)" stroke-width="0.5" stroke-linecap="round" stroke-linejoin="round"/>
<path d="M11.0935 20.3847C10.5238 20.3847 9.9541 20.3879 9.38446 20.3827C9.20541 20.3811 9.02649 20.3575 8.84764 20.3424C8.59058 20.3187 8.33663 20.2688 8.08976 20.1933C7.9275 20.1451 7.76796 20.0859 7.6109 20.0225C7.36599 19.9241 7.13117 19.8022 6.90973 19.6585C6.3114 19.275 5.80906 18.7593 5.4414 18.1511C5.26185 17.8536 5.11736 17.5363 5.01081 17.2056C4.93996 16.9929 4.88639 16.7749 4.85061 16.5535C4.82216 16.3607 4.80679 16.1652 4.79704 15.9704C4.76507 15.3309 4.78952 14.6909 4.78395 14.0512C4.7825 13.8856 4.83281 13.7362 4.96252 13.6244C5.02483 13.5701 5.09935 13.5317 5.17973 13.5124C5.26011 13.4932 5.34395 13.4937 5.42408 13.5139C5.50422 13.5342 5.57826 13.5735 5.63989 13.6286C5.70151 13.6836 5.74889 13.7528 5.77796 13.8302C5.79854 13.8921 5.80763 13.9573 5.80477 14.0224C5.80671 14.626 5.80567 15.2295 5.80615 15.833C5.80934 16.0597 5.83484 16.2855 5.88229 16.5071C6.0128 17.1494 6.31821 17.7432 6.76482 18.2228C7.21143 18.7025 7.78188 19.0495 8.41322 19.2255C8.70228 19.3078 9.00133 19.3499 9.30188 19.3504C10.1642 19.3461 11.0266 19.3488 11.889 19.3489C12.2224 19.349 12.4817 19.2025 12.6796 18.9423C12.8109 18.7709 12.8799 18.56 12.8754 18.3441C12.872 17.7197 12.8729 17.0953 12.8747 16.4709C12.8753 16.1578 12.8369 15.8459 12.7603 15.5423C12.6477 15.0878 12.4573 14.6562 12.1975 14.2667C11.9625 13.9107 11.6707 13.5956 11.3336 13.334C11.2902 13.3006 11.2452 13.2686 11.2054 13.2312C11.1524 13.183 11.1098 13.1245 11.0802 13.0592C11.0507 12.994 11.0347 12.9234 11.0334 12.8518C11.022 12.6126 11.2212 12.3886 11.4433 12.3491C11.5128 12.3352 11.5844 12.3362 11.6535 12.3519C11.7226 12.3676 11.7875 12.3977 11.8441 12.4403C12.0396 12.5846 12.2243 12.743 12.3968 12.9141C12.9949 13.5069 13.4368 14.2386 13.6832 15.0438C13.7641 15.3136 13.8234 15.5895 13.8606 15.8687C13.8876 16.0755 13.9 16.284 13.8977 16.4925C13.8962 17.4435 13.8984 18.3945 13.8965 19.3455C13.8956 19.7835 13.687 20.0948 13.2971 20.2849C13.1947 20.331 13.0855 20.3601 12.9737 20.371C12.7885 20.3948 12.6034 20.3827 12.4184 20.3838C11.9768 20.3865 11.5351 20.3847 11.0935 20.3847Z" fill="#B4F2DA"/>
<path d="M7.20888 11.4478C7.84908 11.4478 8.48929 11.4458 9.12947 11.4494C9.25962 11.4517 9.38941 11.4638 9.51771 11.4857C9.69782 11.5145 9.87645 11.5529 10.0551 11.5901C10.292 11.6393 10.4445 11.7922 10.4863 12.0296C10.5113 12.1715 10.4659 12.3002 10.3762 12.4092C10.234 12.5819 10.054 12.65 9.83231 12.5875C9.63587 12.5356 9.43549 12.5 9.2332 12.4811C8.94755 12.4531 8.66033 12.4447 8.37353 12.4557C8.09485 12.4628 7.92595 12.6147 7.86528 12.8787C7.86074 12.9044 7.85908 12.9305 7.86033 12.9566C7.86009 13.837 7.8577 14.7174 7.86195 15.5978C7.86639 15.8017 7.90998 16.0029 7.99034 16.1904C8.07827 16.4092 8.20939 16.6081 8.37588 16.7751C8.57365 16.9781 8.81831 17.1294 9.08831 17.2156C9.16781 17.2404 9.24969 17.2575 9.33053 17.2779C9.54588 17.3323 9.67503 17.475 9.71591 17.6865C9.75413 17.8843 9.68251 18.0523 9.52345 18.1776C9.46948 18.221 9.40673 18.252 9.33955 18.2687C9.27236 18.2854 9.20236 18.2872 9.1344 18.2741C8.76752 18.2148 8.43419 18.0735 8.12364 17.8736C7.75102 17.6334 7.44037 17.3086 7.21696 16.9257C7.0445 16.6326 6.92802 16.31 6.87344 15.9743C6.85034 15.8328 6.83875 15.6897 6.8388 15.5463C6.83568 14.7077 6.83723 13.8691 6.83729 13.0306C6.8373 12.9363 6.8333 12.8439 6.79201 12.7552C6.71814 12.5965 6.59817 12.4992 6.42643 12.4684C6.37256 12.459 6.31799 12.4543 6.26332 12.4544C5.93408 12.4531 5.6048 12.451 5.2756 12.4547C5.15486 12.4538 5.03813 12.4113 4.94507 12.3343C4.85201 12.2574 4.78831 12.1507 4.76472 12.0323C4.71721 11.7889 4.88471 11.5216 5.13226 11.4542C5.16296 11.4481 5.19433 11.446 5.22557 11.448C5.88667 11.4477 6.54778 11.4476 7.20888 11.4478Z" fill="#FF5050"/>
<path d="M10.7574 17.5388C10.7574 17.4421 10.7625 17.3451 10.7559 17.249C10.752 17.158 10.7387 17.0678 10.7162 16.9796C10.6563 16.7703 10.5058 16.6427 10.3092 16.5651C10.2528 16.5446 10.1953 16.5276 10.1369 16.514C10.0086 16.4805 9.93276 16.3964 9.91772 16.2678C9.91216 16.222 9.91932 16.1756 9.93841 16.1337C9.95751 16.0917 9.98779 16.0558 10.0259 16.0299C10.0782 15.9909 10.1328 15.9546 10.1822 15.9123C10.2746 15.8378 10.3421 15.7369 10.3757 15.6231C10.4293 15.4241 10.4009 15.2366 10.2739 15.0672C10.1777 14.9391 10.0524 14.8471 9.91815 14.7649C9.74737 14.6579 9.55761 14.5848 9.35921 14.5495C9.24342 14.5316 9.12644 14.5226 9.00929 14.5225C8.77946 14.5191 8.54782 14.3725 8.49264 14.1136C8.41997 13.7727 8.69934 13.4979 8.96839 13.5011C9.01802 13.5017 9.06769 13.5021 9.1173 13.501C9.28692 13.5009 9.45613 13.5173 9.62258 13.55C9.8646 13.5914 10.1007 13.662 10.3257 13.7604C10.6638 13.9087 10.9595 14.1137 11.1806 14.4139C11.3203 14.604 11.4123 14.8249 11.4488 15.0579C11.4634 15.1478 11.4818 15.2393 11.4779 15.3292C11.4712 15.482 11.4702 15.6391 11.3971 15.7797C11.3471 15.876 11.3459 15.9771 11.3585 16.0777C11.3692 16.1629 11.4229 16.2303 11.4879 16.2863C11.561 16.3455 11.6242 16.4159 11.675 16.495C11.7412 16.6053 11.7762 16.7314 11.7763 16.8599C11.7801 17.1759 11.7802 17.492 11.7766 17.8081C11.7758 17.9306 11.7319 18.0489 11.6526 18.1423C11.5733 18.2356 11.4636 18.2981 11.3428 18.3187C11.0434 18.3716 10.7476 18.1207 10.7569 17.8287C10.76 17.7321 10.7574 17.6354 10.7574 17.5388Z" fill="#FBD600"/>
<path d="M10.0462 2.64907C9.88638 2.61498 9.72661 2.58088 9.56684 2.54678C9.52408 2.53441 9.47914 2.53147 9.43513 2.53817C9.37489 2.55198 9.32942 2.6 9.2878 2.64569C9.09838 2.85367 8.89903 3.08356 8.8762 3.36394C8.86261 3.53091 8.89513 3.71161 9.02794 3.95535C9.44911 4.72831 10.5026 5.49437 10.7575 5.67581" fill="url(#paint18_linear_2491_21018)"/>
<path d="M10.0905 2.48865L9.77092 2.42046C9.64912 2.39446 9.51531 2.34806 9.39083 2.37775C9.28019 2.40414 9.20292 2.49116 9.13016 2.57207C9.061 2.64898 8.99467 2.7281 8.93301 2.8112C8.81184 2.97452 8.7265 3.15993 8.70954 3.36423C8.69894 3.52977 8.72774 3.69546 8.79358 3.84771C8.92977 4.17615 9.15384 4.4621 9.39338 4.72174C9.61003 4.95348 9.84208 5.17032 10.088 5.3708C10.266 5.51787 10.4489 5.65886 10.6367 5.79376C10.6489 5.80254 10.6611 5.81129 10.6734 5.82001C10.6923 5.83107 10.7132 5.83829 10.7349 5.84126C10.7565 5.84424 10.7786 5.84291 10.7998 5.83736C10.821 5.83181 10.8408 5.82214 10.8583 5.8089C10.8757 5.79567 10.8904 5.77912 10.9014 5.76022C10.9468 5.67436 10.9177 5.58633 10.8416 5.53219C10.7595 5.47375 10.6784 5.41406 10.5981 5.3531C10.586 5.34392 10.574 5.33471 10.5619 5.32548C10.5549 5.3201 10.5479 5.31471 10.5409 5.30931C10.5255 5.29751 10.5785 5.33846 10.558 5.32251C10.554 5.31939 10.5499 5.31627 10.5459 5.31316C10.5156 5.28962 10.4855 5.26591 10.4555 5.24202C10.3903 5.19007 10.3257 5.13725 10.2618 5.08356C9.96526 4.83403 9.68043 4.56559 9.43641 4.26366C9.42784 4.25305 9.41933 4.2424 9.41087 4.2317C9.40749 4.22743 9.40413 4.22316 9.40077 4.21888C9.39674 4.21373 9.37736 4.18873 9.39634 4.21326C9.41329 4.23518 9.40121 4.21953 9.39703 4.21403C9.39213 4.2076 9.38725 4.20115 9.38239 4.19469C9.37434 4.18396 9.36635 4.17318 9.35842 4.16235C9.32723 4.11975 9.29716 4.07635 9.26822 4.03217C9.20324 3.93444 9.14697 3.83121 9.10003 3.72365L9.11683 3.76347C9.08063 3.67942 9.05537 3.59106 9.04167 3.50058L9.04762 3.54488C9.03794 3.47304 9.03766 3.40024 9.04679 3.32833L9.04083 3.37264C9.05039 3.308 9.06804 3.24482 9.09338 3.18459L9.07658 3.22441C9.10152 3.16655 9.13141 3.11096 9.16592 3.05826C9.18252 3.03268 9.19999 3.00767 9.2181 2.98313C9.22265 2.97696 9.22731 2.97088 9.23188 2.96472C9.24398 2.9484 9.20778 2.99535 9.22551 2.9729C9.236 2.95961 9.2466 2.94641 9.2573 2.93329C9.29722 2.88462 9.33895 2.83747 9.38118 2.79079C9.40128 2.76857 9.42112 2.74595 9.44253 2.72495C9.44893 2.71867 9.45556 2.71275 9.46215 2.70668C9.4827 2.68774 9.43603 2.72412 9.45266 2.71357C9.46591 2.70472 9.47983 2.69693 9.49431 2.69028L9.4545 2.70708C9.46585 2.70281 9.47754 2.69951 9.48945 2.69722L9.44515 2.70317C9.46878 2.70033 9.49268 2.70065 9.51623 2.70415L9.47192 2.69819C9.56036 2.71213 9.64801 2.73457 9.73556 2.75325L10.0018 2.81008C10.0869 2.82823 10.1861 2.78495 10.2069 2.69367C10.226 2.60988 10.1816 2.50811 10.0905 2.48865Z" fill="url(#paint19_linear_2491_21018)"/>
<path d="M11.4498 4.88462C10.6114 3.65406 10.081 2.71191 10.0702 2.6205C10.0613 2.53943 10.0587 2.45779 10.0624 2.37631L10.0625 2.37621C10.0638 2.29343 10.0674 2.2073 10.1063 2.13424C10.1801 1.99588 10.3655 1.97274 10.4377 1.96203C10.5416 1.94726 10.6475 1.95789 10.7464 1.99302C10.9065 2.14111 11.0587 2.29745 11.2026 2.4614C11.6295 2.94958 11.9797 3.49986 12.2411 4.09337" fill="url(#paint20_linear_2491_21018)"/>
<path d="M11.5938 4.80041C11.3288 4.41136 11.0717 4.01702 10.8226 3.61742C10.6585 3.35299 10.4969 3.08639 10.3476 2.81327C10.3056 2.73664 10.2628 2.65948 10.2286 2.57899L10.2454 2.6188C10.2389 2.60544 10.2341 2.59134 10.231 2.5768L10.237 2.62111C10.2221 2.50155 10.2217 2.38064 10.2357 2.26097L10.2297 2.30528C10.234 2.27071 10.2425 2.23678 10.2549 2.20424L10.2381 2.24406C10.2472 2.22441 10.2578 2.20548 10.2698 2.18745C10.245 2.22737 10.2513 2.21084 10.262 2.19946C10.2684 2.19264 10.2753 2.18655 10.2821 2.18016C10.3018 2.16172 10.2432 2.2074 10.2758 2.18529C10.2814 2.18144 10.2872 2.17778 10.2931 2.1743C10.3086 2.16523 10.3248 2.15718 10.3414 2.15021L10.3015 2.16701C10.363 2.14376 10.4272 2.12836 10.4926 2.12118L10.4483 2.12714C10.5028 2.12047 10.558 2.1206 10.6125 2.12752L10.5682 2.12157C10.6137 2.12795 10.6586 2.13868 10.7021 2.15364L10.6285 2.11077C10.7605 2.23304 10.8871 2.36071 11.0084 2.49377C11.0718 2.56342 11.1336 2.63448 11.1938 2.70694C11.2244 2.74372 11.2545 2.78084 11.2842 2.81831C11.2972 2.83474 11.3102 2.85123 11.323 2.86778C11.3419 2.89197 11.3039 2.84271 11.3224 2.86701C11.3307 2.87799 11.3391 2.88897 11.3474 2.89995C11.5484 3.1662 11.7282 3.44778 11.8851 3.74213C11.9611 3.88456 12.0318 4.02964 12.0972 4.1774C12.1192 4.21493 12.1549 4.24241 12.1968 4.25399C12.2401 4.26552 12.2863 4.25948 12.3252 4.23719C12.3627 4.21512 12.3901 4.17943 12.4018 4.13758C12.4112 4.09412 12.4053 4.04874 12.385 4.00916C12.1835 3.55287 11.9298 3.12145 11.629 2.72348C11.4456 2.48003 11.2454 2.24966 11.0299 2.03403C10.9814 1.98579 10.9321 1.93835 10.8821 1.8917C10.8554 1.86486 10.8231 1.8442 10.7876 1.83116C10.7768 1.82736 10.7659 1.82399 10.7549 1.82082C10.7283 1.81312 10.7013 1.80705 10.6739 1.80265C10.5497 1.78309 10.4228 1.78823 10.3005 1.8178C10.1733 1.84376 10.06 1.91541 9.98198 2.01921C9.90454 2.12668 9.90014 2.26257 9.89517 2.38956C9.89318 2.44197 9.89382 2.49444 9.89708 2.54678C9.8974 2.58997 9.90235 2.633 9.91185 2.67513C9.92396 2.71196 9.93889 2.7478 9.95651 2.78233C10.0012 2.87761 10.0527 2.96988 10.1041 3.06166C10.1889 3.2129 10.2769 3.36225 10.3665 3.51069C10.6275 3.9434 10.9014 4.36833 11.1834 4.78764C11.2241 4.8481 11.2649 4.90844 11.3059 4.96865C11.3287 5.00546 11.3641 5.0327 11.4055 5.04525C11.4489 5.05678 11.495 5.05074 11.534 5.02845C11.6056 4.98229 11.6462 4.87748 11.5938 4.80041Z" fill="url(#paint21_linear_2491_21018)"/>
</g>
<defs>
<linearGradient id="paint0_linear_2491_21018" x1="4.4311" y1="7.29358" x2="10.3668" y2="-0.415514" gradientUnits="userSpaceOnUse">
<stop stop-color="white"/>
<stop offset="0.04818" stop-color="#FDFDFD"/>
<stop offset="0.41722" stop-color="#F5F5F5"/>
<stop offset="1" stop-color="#F2F2F2"/>
</linearGradient>
<linearGradient id="paint1_linear_2491_21018" x1="1.04624" y1="3.78567" x2="13.6071" y2="3.78567" gradientUnits="userSpaceOnUse">
<stop stop-color="#263863"/>
<stop offset="0.39659" stop-color="#23355E"/>
<stop offset="0.88167" stop-color="#1C2D4F"/>
<stop offset="1" stop-color="#1A2A4A"/>
</linearGradient>
<linearGradient id="paint2_linear_2491_21018" x1="2.94968" y1="5.90149" x2="5.1806" y2="3.50184" gradientUnits="userSpaceOnUse">
<stop stop-color="#F16E6F"/>
<stop offset="0.26355" stop-color="#F27374"/>
<stop offset="0.58642" stop-color="#F38283"/>
<stop offset="0.939" stop-color="#F59B9C"/>
<stop offset="1" stop-color="#F6A0A1"/>
</linearGradient>
<linearGradient id="paint3_linear_2491_21018" x1="1.91748" y1="4.71397" x2="4.88504" y2="1.52196" gradientUnits="userSpaceOnUse">
<stop stop-color="#B0DABB"/>
<stop offset="0.37093" stop-color="#ABD8BA"/>
<stop offset="0.82455" stop-color="#9CD2B9"/>
<stop offset="1" stop-color="#94CFB8"/>
</linearGradient>
<linearGradient id="paint4_linear_2491_21018" x1="8.62392" y1="6.63446" x2="17.9842" y2="6.63446" gradientUnits="userSpaceOnUse">
<stop stop-color="#263863"/>
<stop offset="0.39659" stop-color="#23355E"/>
<stop offset="0.88167" stop-color="#1C2D4F"/>
<stop offset="1" stop-color="#1A2A4A"/>
</linearGradient>
<linearGradient id="paint5_linear_2491_21018" x1="10.9671" y1="2.44482" x2="11.9826" y2="1.12587" gradientUnits="userSpaceOnUse">
<stop stop-color="white"/>
<stop offset="0.04818" stop-color="#FDFDFD"/>
<stop offset="0.41722" stop-color="#F5F5F5"/>
<stop offset="1" stop-color="#F2F2F2"/>
</linearGradient>
<linearGradient id="paint6_linear_2491_21018" x1="10.7895" y1="1.61553" x2="12.5846" y2="1.61553" gradientUnits="userSpaceOnUse">
<stop stop-color="#263863"/>
<stop offset="0.39659" stop-color="#23355E"/>
<stop offset="0.88167" stop-color="#1C2D4F"/>
<stop offset="1" stop-color="#1A2A4A"/>
</linearGradient>
<linearGradient id="paint7_linear_2491_21018" x1="8.99762" y1="4.16064" x2="11.1778" y2="4.16064" gradientUnits="userSpaceOnUse">
<stop stop-color="white"/>
<stop offset="0.04818" stop-color="#FDFDFD"/>
<stop offset="0.41722" stop-color="#F5F5F5"/>
<stop offset="1" stop-color="#F2F2F2"/>
</linearGradient>
<linearGradient id="paint8_linear_2491_21018" x1="10.1887" y1="3.39646" x2="12.3647" y2="3.39646" gradientUnits="userSpaceOnUse">
<stop stop-color="white"/>
<stop offset="0.04818" stop-color="#FDFDFD"/>
<stop offset="0.41722" stop-color="#F5F5F5"/>
<stop offset="1" stop-color="#F2F2F2"/>
</linearGradient>
<linearGradient id="paint9_linear_2491_21018" x1="-nan" y1="-nan" x2="-nan" y2="-nan" gradientUnits="userSpaceOnUse">
<stop stop-color="#263863"/>
<stop offset="0.39659" stop-color="#23355E"/>
<stop offset="0.88167" stop-color="#1C2D4F"/>
<stop offset="1" stop-color="#1A2A4A"/>
</linearGradient>
<linearGradient id="paint10_linear_2491_21018" x1="-nan" y1="-nan" x2="-nan" y2="-nan" gradientUnits="userSpaceOnUse">
<stop stop-color="#263863"/>
<stop offset="0.39659" stop-color="#23355E"/>
<stop offset="0.88167" stop-color="#1C2D4F"/>
<stop offset="1" stop-color="#1A2A4A"/>
</linearGradient>
<linearGradient id="paint11_linear_2491_21018" x1="1.54594" y1="11.0101" x2="17.2095" y2="20.5188" gradientUnits="userSpaceOnUse">
<stop stop-color="#263863"/>
<stop offset="0.39659" stop-color="#23355E"/>
<stop offset="0.88167" stop-color="#1C2D4F"/>
<stop offset="1" stop-color="#1A2A4A"/>
</linearGradient>
<linearGradient id="paint12_linear_2491_21018" x1="-nan" y1="-nan" x2="-nan" y2="-nan" gradientUnits="userSpaceOnUse">
<stop stop-color="#263863"/>
<stop offset="0.39659" stop-color="#23355E"/>
<stop offset="0.88167" stop-color="#1C2D4F"/>
<stop offset="1" stop-color="#1A2A4A"/>
</linearGradient>
<linearGradient id="paint13_linear_2491_21018" x1="-nan" y1="-nan" x2="-nan" y2="-nan" gradientUnits="userSpaceOnUse">
<stop stop-color="#263863"/>
<stop offset="0.39659" stop-color="#23355E"/>
<stop offset="0.88167" stop-color="#1C2D4F"/>
<stop offset="1" stop-color="#1A2A4A"/>
</linearGradient>
<linearGradient id="paint14_linear_2491_21018" x1="17.1801" y1="13.0678" x2="26.0642" y2="18.4611" gradientUnits="userSpaceOnUse">
<stop stop-color="#263863"/>
<stop offset="0.39659" stop-color="#23355E"/>
<stop offset="0.88167" stop-color="#1C2D4F"/>
<stop offset="1" stop-color="#1A2A4A"/>
</linearGradient>
<linearGradient id="paint15_linear_2491_21018" x1="-nan" y1="-nan" x2="-nan" y2="-nan" gradientUnits="userSpaceOnUse">
<stop stop-color="#263863"/>
<stop offset="0.39659" stop-color="#23355E"/>
<stop offset="0.88167" stop-color="#1C2D4F"/>
<stop offset="1" stop-color="#1A2A4A"/>
</linearGradient>
<linearGradient id="paint16_linear_2491_21018" x1="-nan" y1="-nan" x2="-nan" y2="-nan" gradientUnits="userSpaceOnUse">
<stop stop-color="#263863"/>
<stop offset="0.39659" stop-color="#23355E"/>
<stop offset="0.88167" stop-color="#1C2D4F"/>
<stop offset="1" stop-color="#1A2A4A"/>
</linearGradient>
<linearGradient id="paint17_linear_2491_21018" x1="-nan" y1="-nan" x2="-nan" y2="-nan" gradientUnits="userSpaceOnUse">
<stop stop-color="#263863"/>
<stop offset="0.39659" stop-color="#23355E"/>
<stop offset="0.88167" stop-color="#1C2D4F"/>
<stop offset="1" stop-color="#1A2A4A"/>
</linearGradient>
<linearGradient id="paint18_linear_2491_21018" x1="9.55347" y1="4.75737" x2="10.756" y2="3.19557" gradientUnits="userSpaceOnUse">
<stop stop-color="white"/>
<stop offset="0.04818" stop-color="#FDFDFD"/>
<stop offset="0.41722" stop-color="#F5F5F5"/>
<stop offset="1" stop-color="#F2F2F2"/>
</linearGradient>
<linearGradient id="paint19_linear_2491_21018" x1="8.8178" y1="4.10528" x2="10.7897" y2="4.10528" gradientUnits="userSpaceOnUse">
<stop stop-color="#263863"/>
<stop offset="0.39659" stop-color="#23355E"/>
<stop offset="0.88167" stop-color="#1C2D4F"/>
<stop offset="1" stop-color="#1A2A4A"/>
</linearGradient>
<linearGradient id="paint20_linear_2491_21018" x1="10.4191" y1="4.09093" x2="11.555" y2="2.61561" gradientUnits="userSpaceOnUse">
<stop stop-color="white"/>
<stop offset="0.04818" stop-color="#FDFDFD"/>
<stop offset="0.41722" stop-color="#F5F5F5"/>
<stop offset="1" stop-color="#F2F2F2"/>
</linearGradient>
<linearGradient id="paint21_linear_2491_21018" x1="10.0052" y1="3.42089" x2="12.2919" y2="3.42089" gradientUnits="userSpaceOnUse">
<stop stop-color="#263863"/>
<stop offset="0.39659" stop-color="#23355E"/>
<stop offset="0.88167" stop-color="#1C2D4F"/>
<stop offset="1" stop-color="#1A2A4A"/>
</linearGradient>
<clipPath id="clip0_2491_21018">
<rect width="24" height="24" fill="white"/>
</clipPath>
</defs>
</svg>
