<svg width="66" height="66" viewBox="0 0 66 66" fill="none" xmlns="http://www.w3.org/2000/svg">
<rect x="0.5" y="0.5" width="65" height="65" rx="8.5" fill="#E4F3FF"/>
<path d="M26 42C25.45 42 24.979 41.804 24.587 41.412C24.195 41.02 23.9993 40.5493 24 40V26C24 25.45 24.196 24.979 24.588 24.587C24.98 24.195 25.4507 23.9993 26 24H40C40.55 24 41.021 24.196 41.413 24.588C41.805 24.98 42.0007 25.4507 42 26V40C42 40.55 41.804 41.021 41.412 41.413C41.02 41.805 40.5493 42.0007 40 42H26ZM28 38H38C38.2 38 38.35 37.9083 38.45 37.725C38.55 37.5417 38.5333 37.3667 38.4 37.2L35.65 33.525C35.55 33.3917 35.4167 33.325 35.25 33.325C35.0833 33.325 34.95 33.3917 34.85 33.525L32.25 37L30.4 34.525C30.3 34.3917 30.1667 34.325 30 34.325C29.8333 34.325 29.7 34.3917 29.6 34.525L27.6 37.2C27.4667 37.3667 27.45 37.5417 27.55 37.725C27.65 37.9083 27.8 38 28 38ZM29.5 31C29.9167 31 30.271 30.854 30.563 30.562C30.855 30.27 31.0007 29.916 31 29.5C31 29.0833 30.854 28.729 30.562 28.437C30.27 28.145 29.916 27.9993 29.5 28C29.0833 28 28.729 28.146 28.437 28.438C28.145 28.73 27.9993 29.084 28 29.5C28 29.9167 28.146 30.271 28.438 30.563C28.73 30.855 29.084 31.0007 29.5 31Z" fill="#61A1FF"/>
<rect x="0.5" y="0.5" width="65" height="65" rx="8.5" stroke="#317FF2" stroke-dasharray="4 4"/>
</svg>
