<svg width="24" height="24" viewBox="0 0 24 24" fill="none" xmlns="http://www.w3.org/2000/svg">
<rect x="6" y="6" width="12" height="12" fill="white"/>
<path d="M16.0848 9.03138L16.085 9.03121L16.077 9.0232C15.8332 8.77944 15.5354 8.64799 15.1945 8.63808C14.8485 8.62803 14.5451 8.75149 14.2984 8.9982L10.9487 12.348L9.67697 11.0982C9.6767 11.0979 9.67643 11.0977 9.67616 11.0974C9.44295 10.8646 9.14889 10.75 8.8122 10.75C8.46867 10.75 8.16826 10.8777 7.92342 11.1232C7.68862 11.358 7.5752 11.6571 7.5752 12C7.5752 12.3428 7.68862 12.642 7.92342 12.8768L10.0734 15.0268C10.3171 15.2705 10.6129 15.4 10.9502 15.4C11.2875 15.4 11.5832 15.2705 11.827 15.0268L16.077 10.7768C16.3226 10.5312 16.4481 10.2321 16.4371 9.89186C16.4264 9.56464 16.307 9.27465 16.0848 9.03138ZM6.91534 19.1726L6.85988 19.0789L6.75349 19.0557L4.00349 18.4557L4.00349 18.4557L3.99922 18.4548C3.8118 18.4174 3.6666 18.3238 3.55319 18.1661C3.43952 18.0079 3.39831 17.8427 3.42299 17.6581L3.42315 17.6581L3.42402 17.6492L3.69902 14.8242L3.70946 14.7169L3.63861 14.6357L1.76361 12.4857L1.76365 12.4856L1.76018 12.4818C1.63576 12.345 1.5752 12.1884 1.5752 12C1.5752 11.8115 1.63576 11.655 1.76018 11.5181L1.76022 11.5182L1.76361 11.5143L3.63861 9.36429L3.70946 9.28305L3.69902 9.17576L3.42402 6.35076L3.42418 6.35074L3.423 6.34194C3.39827 6.15644 3.43961 5.9909 3.55319 5.8329C3.66649 5.67529 3.81146 5.58218 3.9986 5.54525L3.99861 5.5453L4.00349 5.54423L6.75349 4.94423L6.85988 4.92102L6.91534 4.82731L8.36418 2.37926C8.46746 2.21222 8.6032 2.106 8.77701 2.04989C8.95039 1.99391 9.12127 2.00192 9.30116 2.07953L9.30116 2.07953L9.30278 2.08022L11.9028 3.18022L12.0002 3.22143L12.0976 3.18022L14.6976 2.08022L14.6987 2.07976C14.8789 2.00254 15.0502 1.99448 15.224 2.05008C15.3973 2.10553 15.5328 2.21146 15.6361 2.37911L17.0851 4.82731L17.1405 4.92102L17.2469 4.94423L19.9969 5.54423L19.9969 5.54427L20.0012 5.54512C20.1886 5.58261 20.3338 5.67614 20.4472 5.8339C20.5609 5.99203 20.6021 6.15723 20.5774 6.34185L20.5772 6.34183L20.5764 6.35076L20.3014 9.17576L20.2909 9.28305L20.3618 9.36429L22.2368 11.5143L22.2367 11.5143L22.2402 11.5181C22.3646 11.655 22.4252 11.8115 22.4252 12C22.4252 12.1884 22.3646 12.345 22.2402 12.4818L22.2402 12.4818L22.2368 12.4857L20.3618 14.6357L20.2909 14.7169L20.3014 14.8242L20.5764 17.6492L20.5762 17.6492L20.5774 17.658C20.6021 17.8435 20.5608 18.0091 20.4472 18.1671C20.3339 18.3247 20.1889 18.4178 20.0018 18.4547L20.0018 18.4547L19.9969 18.4557L17.2469 19.0557L17.1405 19.0789L17.0851 19.1726L15.6362 21.6207C15.5329 21.7878 15.3972 21.894 15.2234 21.9501C15.05 22.006 14.8791 21.998 14.6992 21.9204L14.6976 21.9197L12.0976 20.8197L12.0002 20.7785L11.9028 20.8197L9.30278 21.9197L9.30171 21.9202C9.12152 21.9974 8.95017 22.0055 8.77639 21.9499C8.60311 21.8944 8.46756 21.7885 8.36427 21.6208L6.91534 19.1726Z" fill="url(#paint0_linear_2359_74609)" stroke="white" stroke-width="0.5"/>
<defs>
<linearGradient id="paint0_linear_2359_74609" x1="12.0002" y1="1.76361" x2="12.0002" y2="22.2363" gradientUnits="userSpaceOnUse">
<stop stop-color="#317FF2"/>
<stop offset="1" stop-color="#1861CD"/>
</linearGradient>
</defs>
</svg>
