<svg width="361" height="801" viewBox="0 0 361 801" fill="none" xmlns="http://www.w3.org/2000/svg">
<g clip-path="url(#clip0_1687_114841)">
<rect x="-154.984" y="0.273926" width="642" height="1297" fill="#D5ECFE"/>
<mask id="mask0_1687_114841" style="mask-type:alpha" maskUnits="userSpaceOnUse" x="-155" y="0" width="643" height="1555">
<rect x="-154.984" y="0.273926" width="642" height="1554" fill="#C4C4C4"/>
</mask>
<g mask="url(#mask0_1687_114841)">
<path d="M-74.209 30.2277L-81.7742 5.66562L-77.5713 -5.7168H-138.934V148.845L-131.368 109.905L-114.557 79.9509L-74.209 30.2277Z" fill="white"/>
<path d="M62.8055 -3.3205C64.1557 -2.12882 138.192 33.9193 175.041 51.7944L229.049 46.5808L277.994 -3.3205H62.8055Z" fill="white"/>
<path d="M133.414 150.043L37.5881 168.015L57.762 232.715L148.545 221.932L202.342 250.687L269.588 182.393L190.574 109.306L133.414 150.043Z" fill="white"/>
<path d="M-138.934 286.632L-38.9047 294.42L-18.7308 311.194L5.64606 315.986L14.0518 345.94H45.9939V374.696L34.2258 380.686L55.2402 406.447L98.9504 418.428L91.3852 437.599L60.2837 426.216L-1.91916 479.534L-12.8467 465.755L-23.7742 468.151L-75.8902 460.962L-101.108 426.216L-140.615 413.037L-138.934 286.632Z" fill="white"/>
<path d="M441.907 704.786L482.255 691.606L512.516 762.896L483.095 956.397L308.255 946.213L290.603 898.287L265.385 869.532L276.313 846.168L310.776 841.974L324.226 865.338L320.863 886.905L355.327 895.891L382.226 869.532L387.269 870.131L398.197 848.564L390.632 813.818H412.487L410.805 798.841L419.211 801.836L421.733 789.855L429.298 793.449L422.574 778.472L448.632 764.094L439.385 762.896L431.82 754.509L441.907 719.164V704.786Z" fill="white"/>
<path d="M384.747 521.469L368.776 537.045L403.24 553.819L394.834 599.948L372.979 618.519L340.197 619.717L304.892 605.939L263.704 602.344L256.979 593.957H278.834L293.965 577.183L288.081 560.409H297.327L300.69 574.787H318.342L328.429 593.957H336.834V566.999L332.632 553.819L336.834 521.469L363.733 501.7L387.269 503.497L384.747 521.469Z" fill="white"/>
<path d="M-96.0641 591.561L-150.702 574.188L-154.064 611.33L-70.0061 635.892L-12.8467 625.708L-9.48438 635.892L12.3707 631.1L7.32721 617.92L37.5881 604.74L-12.8467 583.773L-49.8322 581.377L-57.3974 587.367L-49.8322 590.363L-53.1945 593.957L-43.1076 596.953L-46.4699 604.74L-40.5858 607.137L-49.8322 613.727L-70.0061 602.344L-73.3684 604.74L-65.8032 609.533L-83.4554 613.727L-103.629 600.547L-96.0641 591.561Z" fill="white"/>
<path d="M436.863 353.129L423.414 361.516V381.286L413.327 395.663L430.979 406.447L451.994 401.055L462.921 383.682L459.559 364.511L436.863 353.129Z" fill="white"/>
<path d="M130.892 349.535L119.965 333.959L139.298 330.364L153.588 336.355L162.834 363.912L130.892 349.535Z" fill="white"/>
<path d="M167.037 401.055L188.052 402.253L183.849 417.829L175.443 422.023L167.037 416.032V401.055Z" fill="white"/>
<path d="M275.472 409.442V432.207H264.545L267.907 442.99L288.081 437L283.878 423.221L297.327 417.829L328.429 435.202L332.632 421.424L346.921 416.032V407.645H332.632L325.066 413.037H310.776L306.574 407.645L275.472 409.442Z" fill="white"/>
<path d="M346.081 264.466L314.979 283.636V296.816H330.95L327.588 283.636L351.124 272.853L359.53 261.471H351.124V267.461L346.081 264.466Z" fill="white"/>
<path d="M156.11 322.576L161.153 308.797H173.762L179.646 312.991L171.24 324.973L156.11 322.576Z" fill="white"/>
<path d="M113.871 940.821L130.052 926.444L57.2366 894.812L61.2819 875.522L19.0953 880.315L-5.28148 851.679H-47.9409L-35.805 817.172L-47.9409 782.666H-100.53L-76.2579 840.177L-108.62 820.048L-128.847 835.384L-115.502 863.421L-138.093 871.808L-183.484 901.882V930.038L-113.243 957.596L14.8924 951.605H50.1968L61.2819 920.693L113.871 940.821Z" fill="white"/>
<path d="M24.1388 679.385L36.2747 662.132L62.9631 643.68L88.1805 682.62L119.282 662.132L167.195 679.385L181.485 716.767L236.963 701.192L252.094 759.901L194.041 780.03L161.679 759.901L104.151 765.293L76.7276 725.394L40.32 728.27L24.1388 716.767L28.1841 705.265L24.1388 679.385Z" fill="white"/>
<path d="M-56.5568 82.9463V139.921L0.248657 151.241L24.1388 115.773L0.248657 82.9463H-56.5568Z" fill="white"/>
<path fill-rule="evenodd" clip-rule="evenodd" d="M270.921 726.939L240.559 804.726L240.51 804.793C235.877 811.155 228.842 820.867 222.798 829.329C219.776 833.56 217.003 837.477 214.901 840.506C212.781 843.562 211.387 845.655 211.076 846.284C210.882 846.676 210.185 848.448 209.092 851.315C208.009 854.159 206.551 858.04 204.846 862.609C201.437 871.747 197.04 883.634 192.669 895.478C189.42 904.283 186.183 913.069 183.378 920.686C178.639 933.55 175.129 943.078 174.861 943.729C174.721 944.069 174.088 945.191 173.151 946.804C172.197 948.446 170.892 950.653 169.369 953.211C166.322 958.328 162.396 964.856 158.638 971.08C155.595 976.12 152.662 980.961 150.395 984.696L131.932 1020.68V1078.49H130.247V1020.41L148.859 984.133L148.87 984.114C151.037 980.547 153.812 975.965 156.711 971.165L122.631 961.27L107.554 964.659L77.6642 961.3L72.0059 971.109L49.2079 1000.09H61.6911L67.7648 1010.62L92.9622 1033.73L91.6986 1034.63L66.3405 1011.38L60.6179 1001.46H46.1381L70.5253 970.452L75.9611 961.028L39.4383 954.134L28.2585 960.917L24.0908 1000.71L48.481 1067.39L46.8651 1067.78L22.3849 1000.85L26.6431 960.193L37.2961 953.729L1.7693 947.023L-11.4443 967.067L-34.6318 990.517L-13.0946 1009.28L-5.29614 1028.21L-25.5972 1046L-22.2668 1071.6L-23.9427 1071.74L-27.353 1045.53L-7.20966 1027.88L-14.5779 1009.99L-36.8554 990.583L-12.8578 966.314L-0.347549 947.337L-10.2344 949.622L-10.6973 948.311L1.30908 945.536L77.318 959.885L107.44 963.269L122.696 959.841L157.455 969.933C161.111 963.876 164.896 957.583 167.851 952.62C169.373 950.062 170.675 947.86 171.626 946.224C172.593 944.56 173.163 943.539 173.263 943.297C173.522 942.668 176.983 933.273 181.675 920.535C184.498 912.87 187.768 903.993 191.054 895.088C195.425 883.243 199.823 871.355 203.233 862.215C204.938 857.646 206.397 853.762 207.482 850.913C208.559 848.086 209.284 846.237 209.511 845.777C209.874 845.043 211.345 842.847 213.432 839.839C215.538 836.803 218.316 832.88 221.339 828.647C227.365 820.21 234.374 810.532 239.01 804.168L269.314 726.528L270.921 726.939Z" fill="#98A2B3"/>
<path fill-rule="evenodd" clip-rule="evenodd" d="M77.1479 643.435L87.3145 685.247L80.6134 696.09L92.9876 721.452L101.2 724.405L96.7156 729.484L106.801 742.404L99.7167 751.956H129.146L134.515 763.54L130.6 772.407H136.729L144.651 789.498L141.059 794.986L152.547 800.434L190.434 814.739L244.534 835.614L262.569 813.065L266.824 788.968L281.954 783.927L308.091 794.853L306.471 806.976L327.699 803.012L349.939 822.389L348.704 823.317L327.128 804.518L304.541 808.735L306.292 795.635L281.874 785.428L268.356 789.932L264.185 813.554L246.157 836.095L254.108 838.025V847.112L268.015 858.362L289.687 862.409L289.308 863.737L267.165 859.603L261.27 854.834V868.526H259.585V853.471L252.423 847.676V839.039L244.535 837.125L189.715 815.972L189.708 815.969L151.762 801.643L140.27 796.192L136.754 801.566L129.343 804.231L125.907 827.855L118.11 825.752L106.793 849.95L111.867 854.055L109.547 858.434L143.898 862.404L200.338 874.671L231.722 877.416L240.907 884.172L267.651 881.467L301.517 889.002L301.07 890.316L267.528 882.854L240.347 885.602L230.995 878.724L200.027 876.016L143.559 863.742L109.987 859.862L217.66 1003.02L248.627 1020.16L252.536 1011.31L266.04 1000.38L240.561 993.298L221.407 996.115L216.204 972.263L217.864 972.026L222.772 994.529L240.693 991.893L267.587 999.372L283.734 994.8L288.574 979.138L282.999 973.876L300.14 969.022L295.313 960.56L319.904 915.967L321.442 916.523L297.163 960.551L302.447 969.813L285.884 974.503L290.42 978.785L285.149 995.844L268.049 1000.69L264.954 1003.19L279.152 1006.82L284.093 1002.82H295.755L309.97 983.203L348.971 968.797L349.671 970.038L311.154 984.264L296.721 1004.18H284.791L279.62 1008.37L263.611 1004.28L253.995 1012.06L249.479 1022.29L216.409 1003.98L204.178 987.721L178.625 981.599L171.719 974.615L173.035 973.763L179.61 980.413L202.874 985.986L107.731 859.485L98.6275 855.188L96.174 859.82L77.5171 855.017L58.5712 878.343L56.0037 887.344L42.4109 894.904L38.8317 899.972L11.0283 895.244L7.19565 913.734L-10.699 942.237L-8.8027 948.812L-10.4438 949.122L-16.2927 928.841L-38.0333 909.298L-45.2579 922.287L-56.4379 924.374L-63.221 928.643L-55.7969 936.651L-66.8473 951.781L-63.4554 960.7L-93.7779 991.365L-83.9677 1014.51L-52.1544 1020.61L-39.3419 1031.67L-40.5713 1032.6L-53.0366 1021.84L-85.2604 1015.67L-94.9124 992.892L-101.545 1002.43L-114.855 1030.03L-94.0011 1058.37L-95.4492 1059.07L-116.725 1030.15L-103.072 1001.85L-95.4259 990.849L-80.8554 976.114L-115.843 961.302L-137.395 968.009L-138 966.736L-115.737 959.809L-79.7828 975.029L-65.3282 960.411L-68.677 951.606L-57.82 936.741L-64.9716 929.026L-77.9363 922.471L-87.0476 925.821L-106.745 922.357L-125.901 917.191V931.924H-127.586V916.927H-137.952L-143.22 914.086L-142.286 912.951L-137.442 915.564H-126.607L-106.298 921.04L-87.236 924.393L-77.8102 920.927L-64.4444 927.685L-57.179 923.113L-46.4516 921.111L-39.1974 908.068L-43.9393 899.756L-49.4785 898.262L-46.8058 892.496L-51.3316 887.614H-57.3158L-65.1575 875.63L-68.4653 868.94L-73.4608 865.572L-103.151 827.139V821.343L-141.068 813.844V806.719L-145.955 801.448L-144.607 800.63L-139.383 806.265V812.774L-102.624 820.043L-94.7877 812.294L-92.1973 814.39L-84.9445 808.522L-52.6773 809.896L-45.9585 808.537H-9.44701L17.158 817.954L26.9376 810.25L28.3188 803.586L35.0742 789.239L40.8642 771.84L25.7147 752.774L26.9649 747.761L-33.5826 741.015L-155.107 654.303L-153.992 653.281L-135.906 666.186L-131.771 653.617L-130.142 653.968L-134.493 667.194L-32.8491 739.72L27.2988 746.422L45.1619 674.79L46.8138 675.06L27.5017 752.502L41.8627 770.576L49.4015 763.257L54.4609 735.286L67.0527 724.419V714.984L76.1637 700.242L72.1082 696.304V691.681L54.4138 683.501V673.561H56.099V682.71L73.7934 690.89V695.811L76.9863 698.91L85.55 685.053L75.4944 643.698L77.1479 643.435ZM42.0817 773.426L36.6793 789.66L30.1627 803.5L80.5341 830.668V836.326L87.4714 847.551L78.8121 853.92L95.2275 858.146L97.8297 853.233L105.852 857.019L42.0817 773.426ZM108.204 857.508L109.868 854.367L104.831 850.291L117.107 824.044L124.476 826.031L127.781 803.3L135.537 800.511L142.806 789.402L135.561 773.771H128.209L132.72 763.551L127.978 753.32H96.7404L104.823 742.422L94.686 729.437L98.6279 724.972L91.6732 722.472L79.601 697.728L68.7378 715.306V724.958L56.0518 735.906L51.0002 763.834L42.8104 771.785L108.204 857.508ZM29.7517 804.917L78.8489 831.398V836.648L85.3932 847.237L76.5181 853.764L56.9971 877.798L54.509 886.521L41.1388 893.957L37.9774 898.434L11.3073 893.898L29.7517 804.917ZM26.4661 812.524L17.5214 819.571L-9.79951 809.901H-45.751L-52.5137 811.268L-84.2835 809.916L-92.1973 816.318L-94.6626 814.324L-101.466 821.051V826.748L-72.1747 864.664L-67.059 868.113L-63.6261 875.057L-56.3011 886.251H-50.489L-44.9037 892.276L-47.2866 897.416L-42.7147 898.649L-37.5598 907.686L-14.7501 928.19L-11.2939 940.174L5.57634 913.303L26.4661 812.524Z" fill="#98A2B3"/>
<path fill-rule="evenodd" clip-rule="evenodd" d="M473.421 821.014L474.629 821.965L445.229 846.43L430.21 870.732V893.749H445.005L451.849 902.747L465.92 907.435L465.278 908.695L450.701 903.839L444.063 895.113H430.21V918.29H428.525V870.411L443.839 845.631L473.421 821.014Z" fill="#98A2B3"/>
<path fill-rule="evenodd" clip-rule="evenodd" d="M-72.788 637.252L-65.2047 614.756L-63.5789 615.115L-71.1622 637.611L-72.788 637.252Z" fill="#98A2B3"/>
<path fill-rule="evenodd" clip-rule="evenodd" d="M-151.294 339.868L-113.308 392.454L-109.953 405.349L-97.3747 417.56L-66.2785 473.316L-58.0992 476.468L-27.7856 463.029L29.4668 426.246L86.7758 392.153L87.774 393.252L30.4904 427.329L-26.8499 464.169L-61.3094 479.445L-37.6157 510.199L22.1263 555.129L20.979 556.127L-38.8161 511.157L-77.9507 486.823L-88.5215 491.509L-106.047 494.885L-120.094 508.924L-122.531 514.837V521.095L-128.242 527.036L-122.565 534.253L-120.079 548.333L-88.5259 559.081L-15.2166 579.533L21.8867 592.495L21.2186 593.747L-15.8262 580.805L-89.1281 560.355L-121.612 549.29L-124.182 534.737L-130.301 526.957L-124.216 520.628V514.616L-121.597 508.258L-108.008 494.677L-123.477 491.549H-152.021V490.185H-123.27L-106.517 493.574L-89.1324 490.225L-68.0385 480.874L-80.187 461.378L-152.405 431.485L-151.638 430.271L-78.9299 460.367L-66.5597 480.218L-59.9217 477.276L-67.5606 474.333L-98.8163 418.29L-111.516 405.961L-114.901 392.951L-152.749 340.556L-151.294 339.868ZM-76.3363 486.107L-41.4491 507.8L-62.7896 480.102L-76.3363 486.107Z" fill="#98A2B3"/>
<path fill-rule="evenodd" clip-rule="evenodd" d="M432.686 955.706L437.013 1018.01L410.703 1013.04L376.223 1011L376.346 1009.64L410.958 1011.69L435.204 1016.27L431.104 957.225L373.009 962.596L372.818 961.242L432.686 955.706Z" fill="#98A2B3"/>
<path fill-rule="evenodd" clip-rule="evenodd" d="M8.36696 38.3254L-34.4814 -1.09899L-31.9503 -2.89959L11.1458 36.7528L61.3567 111.197L120.804 76.4823L110.097 32.0211L121.401 0.727494H181.423L233.21 36.4436L340.879 92.9282L441.405 131.913L472.615 93.3727L475.434 94.867L442.608 135.403L339.227 95.3114L231.191 38.6345L180.182 3.45428H123.927L113.562 32.1499L124.524 77.6726L62.984 113.609L192.479 305.601L205.248 340.469L231.244 321.349L273.658 304.542L301.971 321.201L324.912 324.515L352.652 321.215L361.036 313.075L380.789 309.601L422.956 293.225L473.748 286.377L474.302 289.066L423.983 295.851L381.891 312.197L362.884 315.54L354.416 323.761L324.86 327.278L300.616 323.775L273.318 307.713L233.157 323.627L206.597 343.162L233.495 376.135L268.225 402.177L285.247 446.937L293.666 493.25L315.098 539.267H339.21V560.073L363.203 598.226L482.336 644.382L480.88 646.842L360.717 600.287L335.84 560.727V541.994H315.994L326.571 584.122V645.731L315.693 695.827L339.164 731.092L350.976 816.778L360.637 798.018L388.439 786.069L439.65 782.673L480.527 755.001L482.69 757.092L440.992 785.32L389.407 788.74L363.284 799.969L351.747 822.37L388.913 1091.97L385.563 1092.27L335.886 731.919L312.171 696.287L323.201 645.493V617.196L172.719 681.414L91.574 785.36H-178.984V782.633H89.7164L170.35 679.342L323.201 614.113V584.396L312.44 541.535L283.14 529.024L203.755 525.608L158.444 495.614L149.908 506.287L120.195 515.903L57.3299 561.338L5.95857 613.802L-159.262 746.108L-161.633 744.171L3.44299 611.979L54.8681 559.461L118.392 513.55L147.66 504.078L155.615 494.132L136.541 486.416L61.4761 351.989L-2.29514 311.936L-17.2793 300.486L-82.855 280.081L-157.151 241.147L-155.318 238.858L-81.3175 277.638L-16.5822 297.782L3.42599 286.774L33.6726 243.27L61.6125 219.981L61.6304 219.966L88.7822 196.626L109.512 188.285L8.36696 38.3254ZM111.128 190.681L90.823 198.85L64.058 221.857L36.3957 244.916L6.29839 288.205L2.85789 301.725L56.4566 312.974L138.2 324.565L172.043 332.094L201.835 340.747L189.349 306.653L111.128 190.681ZM203.298 344.069L171.025 334.696L137.461 327.228L55.7413 315.641L2.17737 304.399L0.66478 310.343L64.2033 350.25L139.12 484.41L158.57 492.279L190.788 496.289L223.186 488.224L244.485 480.641H267.191L289.856 491.032L281.95 447.54L265.27 403.679L230.906 377.912L203.298 344.069ZM290.663 494.536L266.303 483.368H245.194L224.364 490.783L191.04 499.079L163.897 495.701L205.035 522.932L284.058 526.333L310.788 537.747L290.663 494.536ZM-2.23825 308.228L-13.6826 299.484L2.21233 290.739L-2.23825 308.228Z" fill="#98A2B3"/>
<path fill-rule="evenodd" clip-rule="evenodd" d="M295.306 715.361L316.219 701.149L318.387 703.237L297.169 717.656L270.029 728.635L268.521 726.196L295.306 715.361Z" fill="#98A2B3"/>
<path fill-rule="evenodd" clip-rule="evenodd" d="M447.904 712.019L438.04 704.038L439.232 703.074L449.59 711.454V739.004H447.904V712.019Z" fill="#98A2B3"/>
<path fill-rule="evenodd" clip-rule="evenodd" d="M398.987 192.537L389.826 227.909L398.954 237.643L412.516 273.987V297.947H410.83V274.188L397.429 238.272L389.369 229.676L380.475 264.016L367.753 304.504L357.687 309.933L350.278 352.889L382.896 355.198L437.302 337.316L443.1 345.134L429.99 353.973L409.807 376.765L399.143 386.72L405.259 401.565H375.25L365.38 432.176L391.79 478.25L404.865 470.783L401.951 454.954L410.959 441.42L441.394 407.905L491.194 375.809L492.244 376.875L442.619 408.858L412.624 441.889L429.948 478.596H450.208L464.771 516.022L457.214 571.721L509.984 611.026L508.843 612.029L455.446 572.257L463.057 516.158L448.972 479.96H428.787L411.542 443.419L403.7 455.202L406.685 471.413L392.477 479.527L418.494 533.168L390.052 578.512L514.016 630.691L513.238 631.901L387.794 579.099L416.649 533.096L390.676 479.546L364.711 434.25L355.147 463.909L342.602 476.766L345.113 505.21L338.358 540.734L336.692 540.527L343.418 505.155L340.946 477.156L300.824 472.967L307.275 488.224L282.727 520.412L275.906 563.868L222.036 559.717L171.614 558.38L175.786 596.857L124.565 626.556L106.888 624.513L58.5164 654.722L8.28142 608.569L9.54611 607.668L58.7371 652.862L106.421 623.082L124.133 625.129L174.023 596.202L169.769 556.967L222.117 558.355L222.143 558.356L222.17 558.358L274.44 562.385L281.101 519.948L305.423 488.056L298.96 472.773L289.443 471.779H251.2L219.715 442.864L209.519 428.33L191.496 442.277L191.486 442.285L168.93 459.182L159.718 493.058L158.072 492.766L167.398 458.472L189.744 441.732L158.126 412.113L152.249 393.093L123.845 374.843L123.825 374.831L63.9785 338.688L40.8392 320.66L43.4852 312.097L45.1201 312.428L42.7106 320.226L65.0712 337.646L124.636 373.62L247.542 375.663L261.858 380.432H282.19L323.268 404.849L340.962 397.04L356.122 309.138L366.279 303.66L378.833 263.708L397.396 192.031L441.285 133.305L442.846 133.717L433.609 220.67L472.954 254.533L471.726 255.467L431.866 221.16L440.857 136.513L398.987 192.537ZM322.463 406.062L281.637 381.796H261.525L247.192 377.021L126.829 375.02L153.48 392.143L203.335 416.754L209.917 426.136L229.307 411.13L281.967 407.694L325.405 414.988L322.463 406.062ZM325.289 416.361L281.861 409.069L230.039 412.45L210.775 427.358L221.094 442.069L251.961 470.416H288.994L294.655 461.91L325.289 416.361ZM290.82 470.548L298.352 471.335L295.222 463.933L290.82 470.548ZM300.216 471.529L341.372 475.826L353.606 463.289L373.948 400.201H402.921L397.24 386.414L408.483 375.919L428.745 353.037L440.912 344.834L436.599 339.018L383.154 356.585L350.045 354.241L342.514 397.909L324.186 405.997L327.472 415.967L296.312 462.298L300.216 471.529ZM208.661 427.107L202.085 417.734L154.313 394.151L159.664 411.467L190.972 440.796L208.661 427.107Z" fill="#98A2B3"/>
<path fill-rule="evenodd" clip-rule="evenodd" d="M-151.85 127.253L-150.508 126.429L-113.466 165.933L-57.03 212.274L2.80641 268.866L25.5165 289.281L46.3058 304.082H62.1759L107.839 320.502L107.155 321.748L61.8183 305.446H45.6699L24.3296 290.252L1.53253 269.759L-58.2721 213.196L-114.743 166.827L-151.85 127.253Z" fill="#98A2B3"/>
<path fill-rule="evenodd" clip-rule="evenodd" d="M182.471 -0.76959L185.923 13.1939L173.312 24.8549L168.499 21.6098L155.538 46.514L158.86 82.1228L262.685 131.179L266.724 102.424L257.8 87.9846H264.48L273.488 68.7721V57.604L281.236 53.8429L269.318 46.772L266.764 26.8017L258.386 10.5334L259.942 10.009L268.415 26.4622L270.917 46.0302L284.277 53.9566L275.173 58.3759V69.022L265.643 89.348H260.527L268.455 102.176L264.219 132.333V166.984L270.951 190.812L275.164 226.259L283.612 255.65L275.165 305.538L273.496 305.353L281.9 255.714L273.497 226.479L269.284 191.03L262.534 167.138V132.686L157.246 82.9392L153.827 46.2883L167.829 19.3835L173.127 22.9554L184.108 12.8021L180.819 -0.502206L182.471 -0.76959Z" fill="#98A2B3"/>
<path fill-rule="evenodd" clip-rule="evenodd" d="M52.3416 -4.61781L111.889 26.353L108.087 34.8123H98.8167L83.9362 67.5853L91.8146 98.039L39.8005 78.4492L60.1702 70.5674L55.1291 54.2533L73.5094 45.4662L51.1446 11.9585L52.6274 11.3107L75.7626 45.9726L57.0689 54.9096L62.1388 71.317L43.7493 78.4325L89.4759 95.6543L82.1877 67.4821L97.6404 33.4489H106.907L109.846 26.9108L51.4304 -3.47095L52.3416 -4.61781Z" fill="#98A2B3"/>
<path fill-rule="evenodd" clip-rule="evenodd" d="M170.82 158.561C151.994 134.237 114.033 85.2161 112.694 83.5908L114.096 82.8346C115.445 84.4719 153.001 132.969 171.921 157.414L221 147.145L237.227 195.514L235.601 195.871L219.809 148.802L171.148 158.984L170.82 158.561Z" fill="#98A2B3"/>
<path fill-rule="evenodd" clip-rule="evenodd" d="M266.018 112.186L267.476 111.502L319.409 184.035L344.386 180.67L371.586 190.985L370.871 192.22L344.145 182.084L320.312 185.296L347.798 223.685L325.04 248.917L339.106 269.67L337.629 270.325L323.047 248.813L345.789 223.599L266.018 112.186Z" fill="#98A2B3"/>
<path fill-rule="evenodd" clip-rule="evenodd" d="M280.229 16.3172V-4.72607H278.543V16.4958L282.012 27.0188L327.124 57.1132L325.103 59.5649L317.628 64.2688L318.663 65.345L323.791 62.1176L314.835 80.2327L316.4 80.7391L326.478 60.3541L328.43 57.9851L330.387 59.2905L382.49 70.8487L417.168 114.644L458.858 108.32V94.6594L440.831 97.4374L429.195 75.246L339.531 31.0301L333.377 49.5245L328.063 55.9729L283.501 26.2451L280.229 16.3172ZM329.37 56.8448L331.181 58.0528L383.56 69.6723L417.974 113.134L457.173 107.188V96.307L439.811 98.9826L427.855 76.1821L340.574 33.141L334.932 50.0947L329.37 56.8448Z" fill="#98A2B3"/>
<path fill-rule="evenodd" clip-rule="evenodd" d="M434.162 33.6078L412.374 7.16632L410.972 7.92259L432.896 34.5295L422.272 42.2653L442.006 59.6192V75.0324H443.692V59.0875L424.666 42.3566L444.671 27.7903L456.528 32.5867L471.571 59.6331L473.108 59.0736L457.818 31.5844L446.017 26.8104L466.163 12.1413L465.035 11.1279L434.162 33.6078Z" fill="#98A2B3"/>
<path fill-rule="evenodd" clip-rule="evenodd" d="M72.355 317.516L73.5466 316.552L83.4876 324.595L159.169 338.882L179.874 346.56L187.492 382.855L204.881 398.934L238.994 408.358L282.769 400.866L331.902 410.461L367.363 423.44L366.668 424.682L331.352 411.756L282.744 402.264L238.889 409.769L203.91 400.106L185.91 383.463L178.361 347.499L158.621 340.179L82.6362 325.834L72.355 317.516Z" fill="#98A2B3"/>
<path fill-rule="evenodd" clip-rule="evenodd" d="M-16.364 24.236V-4.72607H-14.6788V24.9377L-32.5296 35.2535L-42.5484 54.8421L-44.1055 54.3208L-33.9021 34.3711L-16.364 24.236Z" fill="#98A2B3"/>
<path fill-rule="evenodd" clip-rule="evenodd" d="M-119.366 54.57L-149.564 52.534L-149.424 51.1754L-118.955 53.2296L-66.5288 71.3082L-92.6502 105.394L-76.4108 111.025L-61.535 97.6527L-27.6792 84.642L-26.9562 85.8736L-42.9103 92.0047L-37.1952 98.6514L-31.1347 95.5869L-30.2415 96.743L-37.6625 100.495L-44.4533 92.5976L-60.5078 98.7673L-67.4712 105.027L-60.5821 111.22L-44.0043 113.902L-44.3348 115.239L-61.4607 112.468L-68.6048 106.046L-75.5039 112.248L-80.9581 119.813L227.612 285.79L226.679 286.926L-82.4951 120.623L-116.217 108.346L-154.205 85.8075L-153.208 84.7081L-115.363 107.162L-82.432 119.151L-77.3963 112.167L-95.1148 106.023L-68.9955 71.9396L-119.366 54.57Z" fill="#98A2B3"/>
</g>
</g>
<defs>
<clipPath id="clip0_1687_114841">
<rect x="-154.984" y="0.273926" width="642" height="1297" rx="16" fill="white"/>
</clipPath>
</defs>
</svg>
