<svg width="18" height="18" viewBox="0 0 18 18" fill="none" xmlns="http://www.w3.org/2000/svg">
<g clip-path="url(#clip0_2469_7772)">
<path d="M8.822 2.25244C8.49664 1.65272 7.73281 1.2114 8.47268 0.61599C8.64801 0.474893 9.15393 0.493448 9.32727 0.644906C9.99562 1.22891 9.27343 1.64804 8.94733 2.23683C12.4878 2.75075 14.5951 4.63236 14.9689 8.31261H2.8656C2.83068 6.62646 3.47953 5.26182 4.62501 4.09767C5.75033 2.95399 7.19163 2.46769 8.822 2.25244ZM3.73129 7.49377C3.96688 7.39384 4.38293 7.32862 4.4099 7.18857C4.6546 5.91771 5.24172 4.83036 6.06794 3.84612C4.78083 4.64801 4.02667 5.81478 3.73129 7.49377Z" fill="#317FF2" stroke="#263863" stroke-width="0.5" stroke-linecap="round" stroke-linejoin="round"/>
<path d="M1.26462 9.11816H16.7472C16.7608 9.1998 16.7743 9.28144 16.7879 9.36308C16.331 9.42356 15.8753 9.51818 15.4169 9.53417C15.0206 9.548 14.7455 9.58663 14.5315 10.016C14.4024 10.275 13.9698 10.5311 13.6707 10.5345C10.473 10.5707 7.2746 10.5657 4.07668 10.5383C3.80691 10.536 3.37508 10.3505 3.30154 10.1476C3.08629 9.55371 2.68685 9.52841 2.1766 9.53114C1.85557 9.53285 1.53383 9.40149 1.2124 9.32983C1.22981 9.25928 1.24721 9.18872 1.26462 9.11816Z" fill="#317FF2" stroke="#263863" stroke-width="0.5" stroke-linecap="round" stroke-linejoin="round"/>
<path d="M3.73145 7.49384C4.02683 5.81485 4.78099 4.64808 6.0681 3.84619C5.24188 4.83042 4.65476 5.91778 4.41005 7.18863C4.38309 7.32869 3.96704 7.39391 3.73145 7.49384Z" fill="white" stroke="#263863" stroke-width="0.5" stroke-linecap="round" stroke-linejoin="round"/>
<path d="M11.1095 12.3806L9.97461 12.1885L9.7688 13.4045L10.9037 13.5966L11.1095 12.3806Z" fill="url(#paint0_linear_2469_7772)"/>
<path d="M12.4029 13.04C12.7319 12.9189 13.0789 12.8538 13.4294 12.8474C13.722 12.8427 14.4313 12.8313 14.6166 13.1927C14.6683 13.2935 14.7186 13.5003 14.6318 13.5834C14.5943 13.6192 14.5423 13.6216 14.5187 13.6223C14.2469 13.6311 13.5163 13.6287 13.4597 13.6288C13.2873 13.629 13.0357 13.6606 12.7266 13.8157C13.3292 13.6063 13.829 13.5918 14.1391 13.6085C14.4219 13.6238 15.0151 13.6626 15.2402 13.9999C15.2721 14.0478 15.3794 14.2086 15.3245 14.3475C15.2903 14.434 15.2075 14.476 15.174 14.493C14.8454 14.6597 13.557 14.7277 13.4219 14.7345C13.7198 14.7287 14.3992 14.7186 15.0618 14.7389C15.1628 14.742 15.3227 14.7623 15.4199 14.8669C15.5727 15.0314 15.4706 15.3197 15.2815 15.4407C15.0924 15.5617 14.8549 15.5669 14.631 15.5827C13.3497 15.6726 12.1524 16.2184 10.9611 16.6984C9.76971 17.1785 8.49923 17.6068 7.22497 17.4455C5.9779 17.2877 4.84519 16.5616 4.03888 15.5973C3.24474 14.6476 2.74519 13.4808 2.43177 12.2825C2.42696 12.2642 2.4222 12.2458 2.41748 12.2274C2.9386 12.422 3.53209 12.6406 4.18768 12.877C6.13058 13.5776 6.55547 13.6902 7.14598 13.6279C8.01976 13.5356 8.68896 13.1203 8.74949 13.0818C8.82387 13.036 8.89491 12.985 8.96207 12.9291C9.03249 12.8692 9.08331 12.8221 9.10233 12.8035C9.57556 12.3415 9.90057 12.0242 10.0158 11.9455C10.2804 11.7647 10.8888 11.8514 12.4029 13.04Z" fill="url(#paint1_linear_2469_7772)"/>
<path d="M12.4493 13.2085C12.7832 13.0859 13.1359 13.0225 13.4916 13.0212C13.6228 13.0187 13.754 13.023 13.8847 13.034C13.9028 13.0357 13.9208 13.0375 13.9389 13.0396C13.9508 13.041 13.9855 13.0459 13.9546 13.0413C13.9934 13.0471 14.0321 13.0535 14.0705 13.0616C14.1426 13.0761 14.2133 13.097 14.2817 13.1241C14.2505 13.1114 14.2882 13.1277 14.2993 13.1332C14.314 13.1406 14.3286 13.1484 14.3428 13.1568C14.3547 13.1638 14.3659 13.1719 14.3778 13.179C14.4043 13.1948 14.3805 13.18 14.3751 13.1757C14.3821 13.1813 14.389 13.187 14.3956 13.1929C14.4072 13.2032 14.4175 13.2147 14.4287 13.2252C14.4569 13.2518 14.423 13.2111 14.4384 13.2357C14.4466 13.2487 14.4546 13.2616 14.4623 13.2749C14.4657 13.2807 14.4683 13.2869 14.4714 13.2928C14.4595 13.2701 14.4683 13.2839 14.4738 13.2997C14.486 13.3345 14.4956 13.3701 14.5024 13.4064C14.4972 13.3781 14.5032 13.428 14.5037 13.437C14.5039 13.442 14.5024 13.4769 14.5046 13.4544C14.5065 13.4348 14.5016 13.4654 14.5008 13.4693C14.4957 13.4935 14.5159 13.4486 14.5018 13.4674C14.4893 13.4843 14.5077 13.4595 14.5079 13.4593C14.5108 13.4577 14.5224 13.4477 14.5234 13.447C14.5268 13.4444 14.5512 13.4489 14.5348 13.4462C14.5081 13.4447 14.4812 13.4456 14.4546 13.4487C14.1763 13.4548 13.8977 13.4539 13.6194 13.4537C13.5208 13.4536 13.4218 13.4506 13.3236 13.4602C13.0817 13.4838 12.8558 13.5568 12.6382 13.6643C12.4619 13.7515 12.5851 14.0489 12.7731 13.9842C13.1878 13.8415 13.585 13.7706 14.0176 13.7788C14.1616 13.7812 14.3053 13.7914 14.4482 13.8093C14.414 13.805 14.461 13.8114 14.472 13.8131C14.4933 13.8164 14.5146 13.82 14.5358 13.8239C14.5818 13.8324 14.6275 13.8422 14.6727 13.854C14.7129 13.8644 14.7526 13.8762 14.7918 13.8898C14.8099 13.8961 14.8279 13.9029 14.8457 13.9099C14.8181 13.899 14.844 13.9091 14.849 13.9114C14.8612 13.9172 14.8735 13.9228 14.8855 13.9288C14.9212 13.9465 14.9555 13.9666 14.9884 13.989C14.9969 13.9948 15.0056 14.0009 15.0138 14.0072C14.9889 13.988 15.0103 14.0049 15.0146 14.009C15.0313 14.0251 15.0485 14.0401 15.0642 14.0572C15.0711 14.0647 15.0778 14.0724 15.0843 14.0803C15.1014 14.1008 15.0702 14.0591 15.0846 14.0816C15.0912 14.0919 15.0983 14.1018 15.1048 14.1121C15.1145 14.1275 15.1238 14.1432 15.1324 14.1592C15.1375 14.1687 15.1423 14.1783 15.1469 14.1879C15.1363 14.1656 15.1489 14.1933 15.152 14.2027C15.1558 14.2142 15.1588 14.2259 15.162 14.2376C15.1697 14.2661 15.162 14.2161 15.1641 14.2457C15.1649 14.2549 15.165 14.2642 15.1646 14.2735C15.1659 14.2495 15.163 14.2779 15.162 14.2825C15.1658 14.266 15.1583 14.2896 15.156 14.2933C15.168 14.2744 15.1513 14.2978 15.1499 14.3C15.1476 14.3038 15.1235 14.3238 15.1482 14.3044C15.1387 14.3115 15.1288 14.3179 15.1186 14.3237C15.1078 14.3301 15.0967 14.3357 15.0857 14.3416C15.0813 14.3439 15.0763 14.3456 15.072 14.3482C15.0508 14.3606 15.0892 14.3401 15.0915 14.3403C15.0722 14.3388 15.0359 14.3607 15.0169 14.3666C14.89 14.4032 14.7605 14.4305 14.6296 14.4483C14.5907 14.4544 14.5518 14.4599 14.5129 14.4653C14.552 14.4599 14.4947 14.4676 14.4844 14.4689C14.4642 14.4715 14.444 14.474 14.4238 14.4765C14.3426 14.4862 14.2613 14.4951 14.1799 14.5029C13.9277 14.5277 13.675 14.5465 13.4218 14.5592C13.3274 14.564 13.2468 14.6362 13.2468 14.7342C13.2473 14.7805 13.266 14.8247 13.2987 14.8574C13.3314 14.8901 13.3756 14.9087 13.4218 14.9092C13.6606 14.9046 13.8994 14.9021 14.1382 14.9016C14.4545 14.9011 14.7736 14.8959 15.0894 14.9149C15.0993 14.9155 15.1092 14.9165 15.1192 14.9172C15.1689 14.9204 15.0856 14.9082 15.1369 14.9197C15.1623 14.9254 15.1877 14.9305 15.2126 14.9385C15.2189 14.9406 15.2528 14.9553 15.2288 14.9438C15.2397 14.949 15.2497 14.9553 15.2605 14.9608C15.276 14.9682 15.2893 14.9796 15.2988 14.9939C15.2982 14.9928 15.3208 15.0384 15.3116 15.0156C15.3023 14.9925 15.3179 15.0412 15.3174 15.0397C15.3269 15.0711 15.3184 15.0489 15.318 15.0402C15.3188 15.0565 15.3185 15.0723 15.318 15.0885C15.3178 15.0964 15.3113 15.1203 15.3178 15.0908C15.3148 15.1045 15.3109 15.1178 15.3077 15.1314C15.306 15.1383 15.2936 15.1726 15.3047 15.1452C15.298 15.161 15.2902 15.1763 15.2814 15.1911C15.2729 15.2061 15.2635 15.2206 15.2532 15.2345C15.2586 15.2274 15.2707 15.2166 15.2481 15.2393C15.238 15.2494 15.2281 15.2598 15.2179 15.2698C15.2127 15.275 15.1838 15.2961 15.2071 15.2799C15.1562 15.3155 15.0992 15.3416 15.0389 15.3568C14.9002 15.3955 14.766 15.3975 14.619 15.4082C13.3137 15.503 12.1122 16.0469 10.9145 16.5294C10.308 16.7737 9.69174 17.0013 9.05374 17.1489C8.44117 17.2907 7.77558 17.3547 7.1689 17.2622C6.07372 17.0953 5.09962 16.4981 4.35432 15.6914C3.5521 14.8231 3.03597 13.7266 2.70271 12.6027C2.66121 12.4627 2.62236 12.322 2.58616 12.1806L2.37089 12.3958C3.39363 12.7777 4.41728 13.1634 5.45427 13.5052C5.93553 13.6637 6.44333 13.8335 6.9569 13.8162C7.36525 13.8024 7.77372 13.7062 8.15452 13.5612C8.43918 13.4529 8.72566 13.3229 8.9723 13.1414C9.17668 12.991 9.35135 12.8042 9.53279 12.6279C9.68232 12.4826 9.83147 12.3365 9.98623 12.1967C10.0105 12.1748 10.0349 12.1531 10.0598 12.1319C10.07 12.1232 10.0803 12.1147 10.0906 12.1062C10.0946 12.1028 10.0989 12.0997 10.1029 12.0962C10.1256 12.0764 10.0664 12.121 10.0896 12.1066C10.114 12.0914 10.1404 12.0781 10.1644 12.0628C10.1191 12.0917 10.1371 12.0732 10.165 12.0644C10.1812 12.0593 10.1977 12.0551 10.2144 12.0518C10.2214 12.0504 10.2287 12.0497 10.2356 12.0481C10.2545 12.0437 10.1786 12.0526 10.2225 12.0503C10.2405 12.0493 10.2583 12.0479 10.2764 12.0478C10.2959 12.0476 10.3155 12.0484 10.335 12.0498C10.3454 12.0506 10.3557 12.0518 10.3661 12.0527C10.4144 12.0569 10.3248 12.0452 10.3667 12.0528C10.4156 12.0617 10.4638 12.0718 10.5117 12.0854C10.5701 12.1018 10.6276 12.1217 10.6842 12.1437C10.6995 12.1497 10.7146 12.1561 10.7299 12.1621C10.7578 12.1731 10.7229 12.1591 10.7195 12.1576C10.7284 12.1615 10.7373 12.1653 10.7462 12.1692C10.7817 12.1848 10.817 12.2012 10.852 12.2181C11.2406 12.4063 11.6003 12.6547 11.9468 12.9105C12.0588 12.9932 12.1696 13.0775 12.279 13.1635C12.3533 13.2217 12.454 13.236 12.5265 13.1635C12.5871 13.1029 12.6013 12.9746 12.5265 12.916C12.1254 12.6015 11.7136 12.2938 11.2691 12.0426C11.0246 11.9044 10.7578 11.7682 10.4786 11.7185C10.2996 11.6867 10.1066 11.6856 9.94571 11.7823C9.83878 11.8466 9.7455 11.9419 9.65482 12.0264C9.48002 12.1893 9.30935 12.3567 9.13828 12.5235C9.0515 12.6082 8.9661 12.6941 8.87465 12.7737C8.85281 12.7928 8.83072 12.8114 8.80836 12.8297C8.80328 12.8339 8.78308 12.8485 8.80869 12.8295C8.79976 12.8361 8.79086 12.8428 8.78186 12.8492C8.74056 12.879 8.6981 12.9073 8.65492 12.9343C8.56644 12.9888 8.47526 13.0387 8.38174 13.084C8.34344 13.1028 8.30485 13.121 8.26598 13.1387C8.24707 13.1473 8.22811 13.1557 8.20908 13.164C8.21147 13.163 8.16303 13.1838 8.18511 13.1745C8.19993 13.1682 8.15733 13.1859 8.15164 13.1882C8.04517 13.2315 7.93705 13.2705 7.82729 13.3051C7.59617 13.3797 7.35793 13.4301 7.11639 13.4556C7.02726 13.4645 6.9377 13.4683 6.84813 13.4671C6.80064 13.4663 6.75321 13.4639 6.70585 13.4599C6.68365 13.4581 6.66148 13.4559 6.63934 13.4533C6.62728 13.452 6.61525 13.4503 6.60319 13.449C6.57588 13.446 6.62568 13.4519 6.6252 13.452C6.61682 13.4516 6.60849 13.4504 6.60034 13.4484C6.33283 13.4071 6.0717 13.3331 5.81354 13.253C5.37301 13.1163 4.93836 12.9606 4.50421 12.8051C3.94229 12.6038 3.38154 12.3993 2.82195 12.1916C2.70256 12.1473 2.58322 12.1029 2.46393 12.0583C2.33398 12.0098 2.21786 12.154 2.24866 12.2736C2.56346 13.4966 3.06776 14.6855 3.87229 15.6691C4.6129 16.5744 5.64077 17.2891 6.79179 17.5464C8.14126 17.8479 9.50351 17.4568 10.7576 16.9662C11.9864 16.4854 13.214 15.8782 14.5475 15.7639C14.8619 15.7369 15.2178 15.7461 15.4654 15.5173C15.6765 15.3223 15.7555 14.956 15.537 14.7363C15.4277 14.6263 15.2771 14.5828 15.1269 14.568C14.9729 14.5528 14.8151 14.557 14.6604 14.5547C14.3512 14.5503 14.042 14.5501 13.7328 14.5543C13.6291 14.5556 13.5255 14.5572 13.4218 14.5592V14.9092C13.6598 14.8972 13.8974 14.8799 14.1347 14.8573C14.4597 14.8265 14.8017 14.8008 15.1148 14.7026C15.2932 14.6466 15.4723 14.5388 15.5069 14.3386C15.5439 14.125 15.4157 13.8929 15.2562 13.7566C14.9598 13.5033 14.5414 13.456 14.1668 13.4348C13.6621 13.4085 13.1572 13.4804 12.68 13.6467L12.8149 13.9665C12.914 13.9171 13.0177 13.8777 13.1247 13.8488C13.1702 13.8367 13.2162 13.8266 13.2626 13.8185C13.2712 13.817 13.2798 13.8157 13.2884 13.8143C13.3175 13.8095 13.2635 13.817 13.2917 13.8137C13.3151 13.811 13.3385 13.8086 13.3619 13.807C13.4533 13.8005 13.5456 13.8036 13.6372 13.8037C13.929 13.8039 14.2221 13.8097 14.5137 13.7972C14.6333 13.7921 14.7466 13.7471 14.8076 13.6381C14.8628 13.5392 14.8594 13.4213 14.8399 13.3134C14.8244 13.225 14.7911 13.1408 14.742 13.0657C14.6929 12.9907 14.6291 12.9264 14.5544 12.8768C14.2897 12.696 13.9251 12.6744 13.6148 12.671C13.185 12.6663 12.7621 12.7253 12.3563 12.871C12.2673 12.9029 12.2076 12.9902 12.234 13.0863C12.2576 13.1722 12.3599 13.2406 12.4493 13.2085Z" fill="url(#paint2_linear_2469_7772)"/>
<path d="M10.6094 12.3945C10.6513 12.5135 10.8339 12.9887 11.3065 13.1864C11.3917 13.222 11.6508 13.3304 11.931 13.2363C11.9585 13.227 12.2556 13.1238 12.2682 12.949C12.2769 12.8265 12.1393 12.7626 11.9809 12.6118C11.5311 12.1838 11.6642 11.7705 11.2169 11.4615C11.147 11.4133 11.0502 11.3464 10.9157 11.3163C10.305 11.1796 9.65034 11.9655 8.81675 12.9892C8.57872 13.2815 8.25582 13.6978 7.90039 14.2239" fill="url(#paint3_linear_2469_7772)"/>
<path d="M10.4408 12.4409C10.4878 12.5768 10.5514 12.7064 10.6302 12.8266C10.762 13.0242 10.9363 13.1983 11.15 13.3059C11.3863 13.425 11.6557 13.4851 11.9175 13.4222C11.9971 13.4018 12.0738 13.3717 12.1461 13.3327C12.2437 13.2817 12.3413 13.2091 12.3962 13.1115C12.4376 13.0382 12.4517 12.9526 12.4359 12.8699C12.4243 12.8011 12.3797 12.7384 12.3329 12.6888C12.2903 12.6468 12.2453 12.6074 12.1981 12.5706C12.1402 12.5228 12.0855 12.4712 12.0345 12.4161C12.0101 12.3893 11.9868 12.3615 11.9646 12.3328L11.992 12.3682C11.9125 12.261 11.8469 12.1441 11.7969 12.0204L11.8145 12.0622C11.7455 11.8978 11.6891 11.7237 11.5824 11.5786C11.5494 11.5324 11.5129 11.4886 11.4734 11.4478C11.4296 11.405 11.3826 11.3656 11.3329 11.33C11.2527 11.2702 11.1654 11.2208 11.0729 11.1827C10.9213 11.1203 10.7552 11.1143 10.5957 11.145C10.457 11.1717 10.3232 11.2339 10.203 11.307C10.0587 11.3977 9.92339 11.5019 9.79896 11.6184C9.65948 11.7455 9.52907 11.8823 9.40272 12.0224C9.11915 12.3367 8.85116 12.6661 8.58721 12.9969C8.3306 13.3185 8.08514 13.6486 7.85082 13.9872C7.8168 14.0365 7.78304 14.0859 7.74952 14.1355C7.73792 14.1554 7.73034 14.1773 7.72721 14.2001C7.72409 14.2228 7.72548 14.246 7.73131 14.2682C7.73714 14.2905 7.74729 14.3113 7.76119 14.3296C7.77509 14.348 7.79245 14.3633 7.8123 14.3749C7.90076 14.4217 7.99689 14.3933 8.05174 14.3122C8.21793 14.0663 8.39027 13.8247 8.56875 13.5874C8.61206 13.5299 8.65573 13.4726 8.69975 13.4156L8.67239 13.4511C8.85957 13.2089 9.05371 12.9722 9.24913 12.7367C9.45691 12.4863 9.66814 12.2375 9.89852 12.0074C10.0044 11.9 10.117 11.7995 10.2355 11.7063L10.2001 11.7336C10.3075 11.6481 10.4253 11.5765 10.5507 11.5207L10.5089 11.5383C10.5796 11.5079 10.6539 11.4869 10.7301 11.4757L10.6836 11.482C10.7432 11.4739 10.8037 11.4738 10.8633 11.4817L10.8168 11.4754C10.874 11.4836 10.9299 11.4991 10.9831 11.5215L10.9413 11.5039C11.0233 11.5407 11.1004 11.5875 11.1709 11.6432L11.1354 11.6158C11.1949 11.6616 11.2484 11.7146 11.2947 11.7736L11.2674 11.7382C11.329 11.8219 11.3796 11.9132 11.4181 12.0097L11.4004 11.9679C11.4587 12.1063 11.5092 12.2486 11.5822 12.3803C11.6722 12.5402 11.7901 12.6827 11.9304 12.801C11.9904 12.8522 12.0582 12.8992 12.1073 12.9617L12.0799 12.9263C12.0905 12.9399 12.0993 12.9547 12.1063 12.9704L12.0887 12.9286C12.0938 12.9411 12.0972 12.9541 12.099 12.9674L12.0928 12.9209C12.094 12.9331 12.0939 12.9454 12.0925 12.9576L12.0988 12.9111C12.0965 12.9269 12.0922 12.9423 12.0861 12.9571L12.1037 12.9153C12.0958 12.9328 12.0859 12.9494 12.0741 12.9646L12.1015 12.9292C12.0818 12.9536 12.0594 12.9755 12.0345 12.9945L12.07 12.9671C12.0176 13.0062 11.9604 13.0385 11.8999 13.0632L11.9417 13.0456C11.8803 13.0716 11.8157 13.0894 11.7497 13.0985L11.7962 13.0923C11.726 13.1009 11.6551 13.1005 11.585 13.091L11.6316 13.0973C11.5336 13.0824 11.4379 13.0548 11.3472 13.015L11.389 13.0326C11.3041 12.9961 11.2241 12.9491 11.1508 12.8928L11.1862 12.9201C11.1033 12.8553 11.0288 12.7804 10.9644 12.6971L10.9918 12.7325C10.9113 12.6276 10.8446 12.5128 10.7935 12.3909L10.8111 12.4327C10.7994 12.4048 10.7885 12.3765 10.7783 12.3479C10.7651 12.3044 10.7366 12.2672 10.6979 12.2433C10.6781 12.2317 10.6561 12.2241 10.6334 12.221C10.6106 12.2179 10.5874 12.2193 10.5652 12.2251C10.543 12.2309 10.5221 12.2411 10.5038 12.255C10.4855 12.2689 10.4701 12.2863 10.4585 12.3061C10.4374 12.3461 10.4252 12.3968 10.4408 12.4409Z" fill="url(#paint4_linear_2469_7772)"/>
<path d="M8.53197 13.1423C8.51341 13.1504 8.49482 13.1584 8.47618 13.1663L8.51798 13.1486C8.25347 13.2611 7.97872 13.3477 7.69755 13.4072C7.60291 13.427 7.50766 13.4434 7.41181 13.4564L7.45833 13.4501C7.11779 13.4961 6.77265 13.4964 6.43203 13.451L6.47855 13.4573C6.10361 13.4059 5.74087 13.2972 5.38866 13.1608C5.2917 13.1232 5.1955 13.0838 5.09968 13.0434L5.14148 13.061C4.89294 12.9561 4.64643 12.8468 4.39639 12.7454C4.14256 12.6424 3.8876 12.5423 3.63368 12.4395C3.47181 12.3741 3.31039 12.3075 3.14943 12.2398L3.19123 12.2574C3.06475 12.204 2.93869 12.1496 2.81305 12.0943C2.76849 12.0746 2.72712 12.0632 2.6782 12.0766C2.63435 12.0891 2.59693 12.1179 2.57362 12.1571C2.56191 12.1773 2.55433 12.1996 2.5513 12.2227C2.54827 12.2459 2.54986 12.2694 2.55597 12.2919C2.56908 12.3324 2.59567 12.3785 2.6364 12.3965C3.15613 12.6257 3.68448 12.8337 4.21135 13.0457C4.3289 13.093 4.44628 13.1408 4.56303 13.19L4.52123 13.1724C5.05194 13.3967 5.5759 13.6406 6.14444 13.7543C6.7459 13.8736 7.36641 13.8569 7.96059 13.7055C8.21666 13.6391 8.46684 13.5518 8.70862 13.4445C8.74609 13.4282 8.77871 13.3774 8.78904 13.3399C8.80115 13.2944 8.79481 13.2459 8.7714 13.2051C8.74823 13.1658 8.71075 13.1369 8.66681 13.1247C8.62117 13.1149 8.57357 13.1211 8.53197 13.1423Z" fill="url(#paint5_linear_2469_7772)"/>
<path d="M6.03413 16.0337C6.19183 15.9679 6.26098 15.7763 6.25383 15.5795C6.24667 15.3827 6.17562 15.1786 6.10552 14.9793C6.08944 14.9336 6.07161 14.8851 6.0362 14.8502C5.99154 14.8062 5.93181 14.796 5.87766 14.7886C5.55395 14.7443 2.78584 13.7609 2.64594 14.347C2.60735 14.5086 2.77999 14.757 3.12525 15.2537C3.25527 15.4408 3.33994 15.5317 3.44238 15.6069C3.60524 15.7264 3.79306 15.7626 3.9713 15.7905C4.26427 15.8365 5.03628 15.874 6.09205 15.9212" fill="url(#paint6_linear_2469_7772)"/>
<path d="M6.12246 16.185C6.17654 16.1609 6.22491 16.1256 6.2644 16.0815C6.31371 16.0256 6.35259 15.9613 6.37919 15.8917C6.4 15.838 6.41375 15.7817 6.4201 15.7244C6.42889 15.6627 6.43099 15.6002 6.42638 15.5379C6.41264 15.3923 6.38193 15.2487 6.33487 15.1102C6.3143 15.0466 6.29245 14.9833 6.26983 14.9204C6.24257 14.8446 6.20887 14.7654 6.14453 14.7131C6.10317 14.6785 6.05542 14.6523 6.00398 14.6361C5.97886 14.6287 5.95318 14.6235 5.9272 14.6204C5.91736 14.619 5.90758 14.6174 5.89782 14.6154C5.87179 14.6103 5.846 14.6039 5.8203 14.5973C5.74126 14.5771 5.66284 14.5545 5.58447 14.5319C5.47686 14.5009 5.36941 14.4693 5.26186 14.4382C5.13426 14.4012 5.00649 14.3648 4.87855 14.329C4.73891 14.2902 4.5989 14.2528 4.45851 14.2168C4.31693 14.1808 4.17485 14.1466 4.03209 14.1156C3.89655 14.0862 3.76037 14.0594 3.62337 14.0378C3.48818 14.0164 3.35194 13.9981 3.21523 13.9901C3.10179 13.983 2.98791 13.9874 2.87533 14.003C2.83639 14.0081 2.79799 14.0167 2.76063 14.0288C2.71543 14.0424 2.67243 14.0625 2.63297 14.0884C2.58544 14.1197 2.54522 14.1609 2.51503 14.2092C2.48425 14.2625 2.46734 14.3226 2.46585 14.3842C2.46545 14.4206 2.46921 14.4569 2.47705 14.4924C2.48199 14.5173 2.48899 14.5418 2.49799 14.5656C2.52668 14.6418 2.5619 14.7153 2.60326 14.7853C2.71101 14.9709 2.83765 15.1458 2.95999 15.3219C3.09039 15.5095 3.23069 15.6962 3.43426 15.8096C3.62332 15.9149 3.83872 15.9508 4.05078 15.9766C4.17856 15.9921 4.30708 16.0018 4.43546 16.0109C4.62088 16.0239 4.80649 16.0344 4.99211 16.0442C5.22776 16.0566 5.46346 16.0681 5.6992 16.0786C5.83015 16.0846 5.9611 16.0906 6.09205 16.0964C6.18363 16.1005 6.27115 16.013 6.26705 15.9214C6.26609 15.8753 6.24734 15.8313 6.21473 15.7987C6.18212 15.7661 6.13816 15.7474 6.09205 15.7464C5.74131 15.7307 5.39057 15.7149 5.03995 15.6967C4.78955 15.6837 4.53906 15.6701 4.28913 15.6498C4.19795 15.6424 4.10672 15.6343 4.01602 15.6222L4.06254 15.6284C3.92337 15.6097 3.78249 15.5843 3.6523 15.5301L3.69411 15.5478C3.62932 15.5204 3.56826 15.4849 3.51237 15.4422L3.54779 15.4695C3.46975 15.4071 3.39993 15.335 3.34 15.255L3.36736 15.2904C3.26949 15.1636 3.18069 15.029 3.09061 14.8966C3.02299 14.7972 2.95565 14.6971 2.89616 14.5925C2.87128 14.5496 2.84894 14.5052 2.82926 14.4597L2.84691 14.5015C2.83026 14.4637 2.8185 14.4239 2.81191 14.3832L2.81816 14.4297C2.81513 14.4083 2.81492 14.3867 2.81755 14.3653L2.8113 14.4118C2.81354 14.3957 2.81784 14.38 2.82409 14.3651L2.80645 14.4069C2.8123 14.3934 2.8198 14.3807 2.82878 14.369L2.80141 14.4044C2.81186 14.3912 2.8239 14.3793 2.83726 14.369L2.80184 14.3964C2.82177 14.3814 2.8435 14.369 2.86653 14.3595L2.82473 14.3772C2.87205 14.3584 2.92161 14.3459 2.97216 14.34L2.92564 14.3463C3.05898 14.3285 3.19545 14.336 3.32885 14.3491C3.374 14.3536 3.41905 14.359 3.46402 14.365L3.41749 14.3587C3.60971 14.3846 3.80028 14.4221 3.98954 14.4642C4.18967 14.5088 4.38851 14.559 4.58653 14.6121C4.77226 14.662 4.95727 14.7144 5.14198 14.7679C5.28831 14.8102 5.43437 14.8535 5.58096 14.895C5.66294 14.9182 5.74618 14.9449 5.83068 14.9574C5.86634 14.9613 5.90137 14.9698 5.93491 14.9825L5.8931 14.9649C5.90701 14.9712 5.9202 14.9789 5.93246 14.988L5.89704 14.9606C5.90936 14.9705 5.92046 14.9819 5.93012 14.9944L5.90276 14.959C5.91575 14.9773 5.9267 14.9969 5.93542 15.0176L5.91778 14.9758C5.95431 15.0632 5.9829 15.1554 6.01083 15.2458C6.04033 15.3377 6.06228 15.4318 6.07648 15.5272L6.07023 15.4807C6.08073 15.5538 6.08174 15.6279 6.07322 15.7012L6.07947 15.6547C6.0729 15.705 6.05981 15.7544 6.04056 15.8014L6.0582 15.7596C6.0448 15.791 6.02769 15.8208 6.00722 15.8482L6.03458 15.8128C6.01778 15.8346 5.99842 15.8542 5.97694 15.8713L6.01235 15.8439C5.99187 15.8596 5.96952 15.8726 5.94581 15.8828C5.90838 15.8988 5.87565 15.9501 5.86539 15.9874C5.85328 16.0329 5.85962 16.0813 5.88303 16.1222C5.9062 16.1615 5.94368 16.1903 5.98762 16.2026L6.03414 16.2089C6.06518 16.2089 6.09568 16.2007 6.12246 16.185Z" fill="#263863"/>
<path d="M2.64399 14.4183C2.38536 14.2601 2.36265 13.7011 2.31723 12.5831C2.31297 12.4783 2.31329 12.3241 2.41338 12.2403C2.57935 12.1015 2.91156 12.2509 3.18856 12.3743C4.73895 13.0648 4.58916 12.9528 4.74129 13.054C5.84256 13.7864 6.04643 14.5709 6.043 14.6738C6.04001 14.7636 5.99648 14.7934 5.99648 14.7934C5.95874 14.8192 5.90773 14.805 5.89251 14.801C5.74408 14.762 4.23801 14.4397 3.36053 14.4342C2.8835 14.4312 2.81544 14.5232 2.64399 14.4183Z" fill="url(#paint7_linear_2469_7772)"/>
<path d="M2.73227 14.2672C2.72289 14.2614 2.71381 14.2551 2.70507 14.2484L2.74049 14.2758C2.71763 14.2577 2.69711 14.2369 2.67941 14.2137L2.70678 14.2492C2.67997 14.2131 2.65777 14.1739 2.6407 14.1323L2.65835 14.1741C2.60515 14.0478 2.58197 13.9095 2.56381 13.7744L2.57006 13.8209C2.52318 13.4687 2.51391 13.1112 2.49927 12.7566C2.49487 12.6502 2.483 12.5408 2.49618 12.4346L2.48993 12.4811C2.49428 12.4456 2.50324 12.4107 2.51658 12.3775L2.49894 12.4193C2.5078 12.3987 2.51914 12.3793 2.53269 12.3615L2.50532 12.3969C2.51691 12.3824 2.53013 12.3694 2.54473 12.358L2.50931 12.3853C2.52361 12.3747 2.53904 12.3657 2.55532 12.3585L2.51352 12.3761C2.53667 12.3666 2.56097 12.36 2.5858 12.3566L2.53928 12.3629C2.57991 12.3582 2.62097 12.3588 2.66146 12.3645L2.61494 12.3583C2.74396 12.3759 2.86747 12.4247 2.98676 12.475L2.94495 12.4574C3.14021 12.5401 3.33294 12.629 3.52712 12.7142C3.67223 12.7779 3.81761 12.841 3.96325 12.9035C4.13115 12.9753 4.29945 13.0462 4.46882 13.1145C4.50553 13.1293 4.54239 13.1437 4.57887 13.1591L4.53706 13.1415C4.57515 13.1577 4.61164 13.1775 4.64604 13.2006C4.73912 13.2621 4.82986 13.327 4.91826 13.3953L4.88285 13.3679C5.07744 13.517 5.25687 13.685 5.41855 13.8692C5.45634 13.9128 5.4929 13.9573 5.52823 14.0029L5.50087 13.9675C5.60382 14.0991 5.69337 14.2406 5.76818 14.39C5.78421 14.4225 5.79931 14.4555 5.8135 14.4889L5.79585 14.4471C5.82894 14.5255 5.86076 14.6088 5.87232 14.6937L5.86607 14.6472C5.86833 14.6653 5.86816 14.6836 5.86557 14.7016L5.87182 14.6551C5.86942 14.6713 5.86514 14.6873 5.85907 14.7025L5.87671 14.6607C5.87229 14.671 5.86673 14.6808 5.86013 14.6898L5.8875 14.6544C5.88344 14.6598 5.87876 14.6647 5.87355 14.669L5.90897 14.6417C5.90348 14.6455 5.89753 14.6487 5.89126 14.6511L5.93307 14.6334C5.92543 14.636 5.91756 14.6379 5.90957 14.639L5.95609 14.6328C5.94498 14.6337 5.9338 14.6336 5.92273 14.6323L5.96925 14.6385C5.9279 14.6327 5.88652 14.6195 5.84576 14.6105C5.77924 14.5956 5.71256 14.5816 5.64582 14.5678C5.4403 14.5255 5.23416 14.4863 5.0274 14.4503C4.75817 14.4032 4.48801 14.3622 4.2169 14.3271C3.96995 14.2955 3.72162 14.2697 3.47267 14.2615C3.33713 14.2563 3.2014 14.2594 3.06622 14.2706C2.98273 14.278 2.89857 14.2938 2.8146 14.2937C2.79933 14.2937 2.78408 14.2927 2.76894 14.2908L2.81546 14.297C2.79055 14.2935 2.7662 14.2868 2.74302 14.277L2.78483 14.2946C2.76669 14.2867 2.74912 14.2776 2.73227 14.2672C2.65394 14.2196 2.53647 14.2474 2.49284 14.33C2.47031 14.3703 2.46426 14.4177 2.47597 14.4623C2.48767 14.507 2.51622 14.5454 2.55562 14.5694C2.63549 14.6188 2.72774 14.6445 2.82164 14.6436C2.91032 14.6424 2.9989 14.626 3.08721 14.6189C3.34511 14.598 3.60483 14.6133 3.86197 14.6374C4.0097 14.6512 4.15706 14.6688 4.30412 14.6885L4.25759 14.6823C4.50782 14.716 4.75716 14.7561 5.00571 14.8004C5.20201 14.8354 5.3978 14.8732 5.59308 14.9137C5.65355 14.9263 5.71397 14.9392 5.77422 14.9528C5.79256 14.9569 5.81089 14.9611 5.82916 14.9656C5.88741 14.9824 5.94872 14.9859 6.0085 14.9757C6.10472 14.9563 6.16281 14.8817 6.19656 14.7956C6.21108 14.7561 6.21834 14.7143 6.21799 14.6722C6.21802 14.6677 6.21775 14.6632 6.21737 14.6587C6.21314 14.6104 6.20437 14.5626 6.19116 14.516C6.14875 14.3737 6.08965 14.237 6.0151 14.1086C5.90004 13.9083 5.76233 13.7219 5.60469 13.5531C5.38886 13.3181 5.1397 13.114 4.8765 12.9345C4.83824 12.9066 4.79816 12.8813 4.75653 12.8587C4.70796 12.8343 4.65671 12.8151 4.60634 12.7949C4.5191 12.7597 4.43206 12.7242 4.34521 12.6881C4.31143 12.674 4.27767 12.6598 4.24395 12.6456L4.28575 12.6632C4.02029 12.5512 3.75631 12.4356 3.49282 12.319C3.30296 12.235 3.1146 12.1428 2.91833 12.0746C2.74164 12.0131 2.52389 11.9674 2.35278 12.0695C2.30477 12.0994 2.26316 12.1385 2.23035 12.1846C2.19754 12.2307 2.17417 12.2828 2.16159 12.3379C2.14347 12.4211 2.13705 12.5063 2.14251 12.5912C2.15039 12.7863 2.15817 12.9814 2.16817 13.1763C2.1829 13.4634 2.19746 13.7549 2.25415 14.0374C2.27359 14.1373 2.3046 14.2346 2.34657 14.3274C2.36087 14.3593 2.37835 14.3897 2.39875 14.4181C2.42382 14.4551 2.45344 14.4888 2.48692 14.5184C2.50864 14.5369 2.5316 14.554 2.55562 14.5694C2.63363 14.6175 2.75163 14.5888 2.79505 14.5066C2.81756 14.4663 2.82359 14.4189 2.81188 14.3743C2.80018 14.3296 2.77165 14.2912 2.73227 14.2672Z" fill="#263863"/>
<path d="M7.13158 17.4136C6.79917 17.2438 6.50504 16.9324 6.34278 16.5785C6.27751 16.4361 6.22254 16.274 6.09797 16.1813C6.03629 16.1353 5.96598 16.1138 5.89787 16.0962C5.44595 15.9794 5.00394 15.9881 4.55867 15.9523C4.1134 15.9165 3.64207 15.8281 3.22119 15.5483C3.59017 16.2549 4.30282 16.7499 4.99579 16.9937C5.68876 17.2375 6.38143 17.2735 7.06997 17.3495" fill="#FBBD4D"/>
<path d="M7.21996 17.2628C7.13299 17.2179 7.05024 17.1652 6.97272 17.1054L7.00814 17.1328C6.88387 17.0364 6.77234 16.9246 6.67621 16.8001L6.70357 16.8355C6.60494 16.7046 6.52273 16.5621 6.45877 16.4111C6.38529 16.2433 6.29177 16.0715 6.11792 15.9899C6.02259 15.9481 5.92273 15.9175 5.82035 15.8987C5.71149 15.8757 5.60149 15.8593 5.49114 15.8454C5.29826 15.821 5.10405 15.8103 4.91003 15.7997C4.70628 15.7886 4.5024 15.7774 4.30002 15.7502L4.34655 15.7565C4.09607 15.7224 3.84855 15.6645 3.61513 15.5661L3.65693 15.5838C3.53571 15.5324 3.41944 15.4701 3.30958 15.3976L3.26777 15.3799C3.24521 15.3726 3.22111 15.3716 3.19799 15.3768C3.15996 15.3808 3.12447 15.3978 3.09751 15.4249C3.07112 15.4528 3.05426 15.4884 3.04935 15.5265C3.04443 15.5646 3.05171 15.6033 3.07014 15.637C3.20305 15.8864 3.37283 16.1144 3.57376 16.3132C3.77384 16.5115 3.9972 16.6849 4.23894 16.8297C4.47452 16.9709 4.7245 17.0867 4.98463 17.175C5.29759 17.2819 5.62206 17.3501 5.94892 17.3979C6.28242 17.4467 6.61797 17.4771 6.95307 17.5122C6.99207 17.5163 7.03105 17.5205 7.07003 17.5248C7.11173 17.5294 7.16536 17.5019 7.19378 17.4735C7.22659 17.4407 7.24503 17.3962 7.24503 17.3498C7.24503 17.3034 7.22659 17.2589 7.19378 17.226L7.15836 17.1987C7.13157 17.183 7.10108 17.1747 7.07003 17.1748C6.7471 17.1392 6.42322 17.1121 6.10115 17.069L6.14767 17.0753C5.78366 17.0262 5.42177 16.9555 5.07375 16.8361C4.99523 16.8092 4.9177 16.7797 4.84115 16.7475L4.88295 16.7651C4.66278 16.6725 4.45229 16.5583 4.25457 16.4243C4.19705 16.3852 4.14076 16.3443 4.0857 16.3018L4.12112 16.3291C3.91991 16.1746 3.73906 15.9952 3.58289 15.7952L3.61025 15.8307C3.52039 15.7143 3.4408 15.5904 3.37236 15.4603L3.13293 15.6998C3.39704 15.8746 3.70016 15.9887 4.00948 16.0527C4.32294 16.1175 4.64253 16.135 4.96132 16.1525C5.14892 16.1628 5.33657 16.1747 5.5229 16.1995L5.47638 16.1933C5.56184 16.2049 5.64694 16.2191 5.7313 16.237C5.8105 16.2515 5.88826 16.2729 5.96366 16.3011L5.92185 16.2835C5.95488 16.2973 5.98608 16.315 6.01472 16.3365L5.9793 16.3091C6.00865 16.3324 6.03502 16.3593 6.05783 16.389L6.03047 16.3536C6.08967 16.4316 6.12788 16.5224 6.16693 16.6115C6.20682 16.7043 6.25391 16.7939 6.30779 16.8793C6.42306 17.0615 6.56719 17.2238 6.73453 17.3598C6.8303 17.4384 6.93375 17.5072 7.04331 17.565C7.0844 17.5878 7.1326 17.5941 7.17816 17.5827C7.22201 17.5702 7.25943 17.5414 7.28274 17.5022C7.29435 17.4824 7.30193 17.4605 7.30505 17.4377C7.30818 17.4149 7.30679 17.3918 7.30096 17.3695C7.29513 17.3473 7.28497 17.3264 7.27108 17.3081C7.25718 17.2898 7.23981 17.2744 7.21996 17.2628Z" fill="#263863"/>
</g>
<defs>
<linearGradient id="paint0_linear_2469_7772" x1="10.1527" y1="13.5674" x2="10.7257" y2="12.2176" gradientUnits="userSpaceOnUse">
<stop stop-color="white"/>
<stop offset="0.04818" stop-color="#FDFDFD"/>
<stop offset="0.41722" stop-color="#F5F5F5"/>
<stop offset="1" stop-color="#F2F2F2"/>
</linearGradient>
<linearGradient id="paint1_linear_2469_7772" x1="7.27645" y1="17.6422" x2="10.0389" y2="11.1344" gradientUnits="userSpaceOnUse">
<stop stop-color="white"/>
<stop offset="0.04818" stop-color="#FDFDFD"/>
<stop offset="0.41722" stop-color="#F5F5F5"/>
<stop offset="1" stop-color="#F2F2F2"/>
</linearGradient>
<linearGradient id="paint2_linear_2469_7772" x1="2.33313" y1="14.6756" x2="15.5522" y2="14.6756" gradientUnits="userSpaceOnUse">
<stop stop-color="#263863"/>
<stop offset="0.39659" stop-color="#23355E"/>
<stop offset="0.88167" stop-color="#1C2D4F"/>
<stop offset="1" stop-color="#1A2A4A"/>
</linearGradient>
<linearGradient id="paint3_linear_2469_7772" x1="9.52584" y1="14.9136" x2="11.0362" y2="11.3555" gradientUnits="userSpaceOnUse">
<stop stop-color="white"/>
<stop offset="0.04818" stop-color="#FDFDFD"/>
<stop offset="0.41722" stop-color="#F5F5F5"/>
<stop offset="1" stop-color="#F2F2F2"/>
</linearGradient>
<linearGradient id="paint4_linear_2469_7772" x1="7.85229" y1="12.7622" x2="12.3271" y2="12.7622" gradientUnits="userSpaceOnUse">
<stop stop-color="#263863"/>
<stop offset="0.39659" stop-color="#23355E"/>
<stop offset="0.88167" stop-color="#1C2D4F"/>
<stop offset="1" stop-color="#1A2A4A"/>
</linearGradient>
<linearGradient id="paint5_linear_2469_7772" x1="2.70117" y1="12.9519" x2="8.64366" y2="12.9519" gradientUnits="userSpaceOnUse">
<stop stop-color="#263863"/>
<stop offset="0.39659" stop-color="#23355E"/>
<stop offset="0.88167" stop-color="#1C2D4F"/>
<stop offset="1" stop-color="#1A2A4A"/>
</linearGradient>
<linearGradient id="paint6_linear_2469_7772" x1="3.53223" y1="15.7908" x2="5.56456" y2="14.2324" gradientUnits="userSpaceOnUse">
<stop stop-color="#F16E6F"/>
<stop offset="0.26355" stop-color="#F27374"/>
<stop offset="0.58642" stop-color="#F38283"/>
<stop offset="0.939" stop-color="#F59B9C"/>
<stop offset="1" stop-color="#F6A0A1"/>
</linearGradient>
<linearGradient id="paint7_linear_2469_7772" x1="2.76999" y1="14.617" x2="4.94117" y2="12.9522" gradientUnits="userSpaceOnUse">
<stop stop-color="#B0DABB"/>
<stop offset="0.37093" stop-color="#ABD8BA"/>
<stop offset="0.82455" stop-color="#9CD2B9"/>
<stop offset="1" stop-color="#94CFB8"/>
</linearGradient>
<clipPath id="clip0_2469_7772">
<rect width="18" height="18" fill="white"/>
</clipPath>
</defs>
</svg>
