<svg width="18" height="18" viewBox="0 0 18 18" fill="none" xmlns="http://www.w3.org/2000/svg">
<g clip-path="url(#clip0_2469_7733)">
<path d="M3.71697 1.30657C3.32842 1.27214 3.02358 1.30531 2.68197 1.34428C2.17539 1.40208 2.15237 1.4514 1.75424 1.48172C1.13588 1.52881 1.02748 1.42229 0.926242 1.51189C0.479882 1.90694 1.57936 4.86969 3.17819 5.08972C3.70906 5.16278 4.92141 5.0439 5.45464 4.92694C5.68485 4.87644 5.92914 4.82845 6.15204 4.90501C6.46108 5.01116 6.74136 5.34771 7.0433 5.22276C7.15158 5.17796 7.23023 5.07909 7.33794 5.0329C7.55762 4.93869 7.80684 5.09006 8.0449 5.06849C8.20463 5.05403 8.3458 4.96305 8.47967 4.87472C8.93091 4.57702 9.38215 4.27932 9.83338 3.98161C9.92477 3.92132 10.0184 3.85886 10.081 3.76902C10.2317 3.55259 10.1554 3.24969 10.0173 3.02502C9.87912 2.80036 9.68499 2.6079 9.58851 2.36245C9.44557 1.99884 9.54004 1.58075 9.4295 1.20602C9.27052 0.667049 8.64332 0.316127 8.10082 0.462619C7.59669 0.59875 7.24707 1.07524 6.75304 1.24436C6.51959 1.32426 6.26406 1.33141 6.03736 1.42884C5.94866 1.46696 5.89056 1.53491 5.76692 1.57148C5.56897 1.63005 5.39977 1.58731 5.28078 1.5605C4.9932 1.49738 4.70153 1.45461 4.40794 1.4325C4.18196 1.36944 3.95067 1.32728 3.71697 1.30657Z" fill="url(#paint0_linear_2469_7733)"/>
<path d="M3.71719 1.18183C3.45095 1.16114 3.18337 1.16518 2.91788 1.1939C2.68559 1.21694 2.45315 1.24376 2.22375 1.28756C2.15206 1.30126 2.0806 1.31623 2.00857 1.32815C1.99021 1.33118 1.97182 1.33403 1.95341 1.3367C1.948 1.33748 1.915 1.34169 1.94707 1.33766C1.93656 1.33898 1.92606 1.34033 1.91554 1.34158C1.86664 1.34739 1.81761 1.35201 1.76852 1.35589C1.56983 1.37242 1.37014 1.37317 1.17132 1.35813C1.0762 1.35058 0.9741 1.33624 0.887328 1.38673C0.809803 1.43183 0.762793 1.51243 0.735382 1.59528C0.671319 1.78892 0.703532 2.01567 0.739177 2.21105C0.789216 2.48532 0.87823 2.75273 0.984621 3.00994C1.11072 3.31821 1.26527 3.61406 1.44625 3.89366C1.79404 4.42638 2.26731 4.94854 2.8891 5.15119C3.20851 5.25529 3.55873 5.24448 3.89022 5.23107C4.30941 5.21371 4.72733 5.17327 5.14207 5.10995C5.33098 5.08127 5.51634 5.03501 5.70485 5.00518C5.83125 4.98518 5.96394 4.9801 6.08704 5.01571C6.13471 5.02889 6.18054 5.04801 6.22345 5.0726C6.27239 5.09834 6.31975 5.12695 6.36683 5.15591C6.56029 5.27495 6.76676 5.40978 7.00467 5.36504C7.13073 5.34133 7.22337 5.25478 7.31632 5.18994C7.40552 5.12772 7.49116 5.1173 7.59197 5.13357C7.72285 5.15468 7.85197 5.19351 7.98539 5.19579C8.12182 5.19811 8.25102 5.15357 8.36988 5.0896C8.49344 5.0231 8.60852 4.93968 8.72551 4.8625C8.84719 4.78222 8.96887 4.70194 9.09055 4.62166C9.33899 4.45776 9.58742 4.29385 9.83585 4.12995C9.94683 4.05673 10.0666 3.98569 10.1518 3.88151C10.2338 3.78035 10.2814 3.65565 10.2876 3.52556C10.3035 3.27355 10.1828 3.03471 10.0406 2.83555C9.89762 2.63531 9.73167 2.44621 9.67025 2.20811C9.60663 1.96153 9.63028 1.69744 9.60073 1.44192C9.57239 1.19675 9.49685 0.976995 9.34296 0.782306C9.0834 0.453922 8.63933 0.260016 8.22186 0.313511C7.75007 0.373968 7.41585 0.72173 7.03249 0.966041C6.98623 0.995518 6.93899 1.02349 6.89048 1.0491C6.84383 1.07428 6.79553 1.09627 6.7459 1.1149C6.62362 1.15982 6.49516 1.18308 6.36776 1.20816C6.23013 1.23526 6.09094 1.26529 5.96356 1.32608C5.92169 1.3483 5.88111 1.37286 5.84201 1.39964C5.7986 1.42857 5.75021 1.44921 5.69928 1.46052C5.50128 1.50866 5.31801 1.43705 5.11724 1.39989C5.00141 1.37845 4.88492 1.36107 4.76812 1.3458C4.70566 1.33763 4.64309 1.33029 4.58043 1.32377C4.52186 1.31766 4.45298 1.31524 4.41194 1.30414C4.18434 1.24333 3.95188 1.20241 3.71719 1.18183C3.64987 1.17571 3.59219 1.24367 3.59219 1.30683C3.59219 1.37954 3.64968 1.42569 3.71719 1.43183C3.93704 1.45182 4.14965 1.49808 4.3653 1.55063C4.43403 1.56738 4.50999 1.56643 4.58043 1.57377C4.64308 1.58029 4.70565 1.58764 4.76812 1.5958C4.85118 1.60678 4.96693 1.62524 5.06229 1.6431C5.27445 1.68284 5.48031 1.74717 5.69838 1.71446C5.82284 1.6958 5.92382 1.64273 6.02848 1.57649C6.12058 1.51819 6.23775 1.49024 6.35343 1.46563C6.48233 1.4382 6.6131 1.41825 6.73952 1.38021C6.85284 1.34531 6.9619 1.29783 7.06465 1.23866C7.2535 1.13134 7.4224 0.993637 7.59844 0.867354C7.7762 0.739843 7.9541 0.626713 8.15826 0.577276C8.18228 0.571459 8.20648 0.567113 8.23077 0.562666C8.26983 0.555514 8.20676 0.564252 8.24624 0.56051C8.25846 0.559351 8.27065 0.558043 8.28289 0.557148C8.33181 0.553608 8.38091 0.553568 8.42984 0.557027C8.44207 0.557883 8.45428 0.55895 8.46648 0.560229C8.4683 0.56042 8.50814 0.566035 8.48193 0.561979C8.50622 0.565739 8.53039 0.570112 8.5544 0.575375C8.60254 0.585948 8.64994 0.5996 8.69633 0.616245C8.73678 0.630091 8.77597 0.647361 8.81348 0.667866C8.85736 0.690661 8.89978 0.716153 8.94051 0.744194C8.95068 0.751202 8.96061 0.758529 8.97069 0.765677C9.00318 0.788739 8.95368 0.751022 8.98453 0.776206C9.00045 0.789204 9.01624 0.802335 9.03157 0.816029C9.07135 0.851519 9.10857 0.889783 9.14295 0.930534C9.16778 0.95984 9.19028 0.991053 9.21022 1.02388C9.22328 1.04462 9.23559 1.06582 9.24714 1.08746C9.25291 1.09828 9.25848 1.10921 9.26385 1.12024C9.26571 1.12405 9.28484 1.16645 9.27639 1.14641C9.31823 1.25117 9.34444 1.36151 9.35418 1.4739C9.38047 1.73539 9.36265 2.00187 9.42533 2.25916C9.48517 2.50483 9.63229 2.70054 9.77971 2.89995C9.85055 2.99577 9.92032 3.0936 9.97066 3.20207C10.0146 3.29461 10.0378 3.39559 10.0387 3.498C10.0396 3.54619 10.0305 3.59404 10.0118 3.63848C10.019 3.62004 10.0012 3.66031 10.0021 3.65855C9.99785 3.66672 9.99332 3.67479 9.98854 3.68268C9.97379 3.70696 9.95591 3.72919 9.93536 3.7488C9.851 3.83306 9.73699 3.89606 9.63362 3.96425C9.39026 4.12481 9.1469 4.28537 8.90353 4.44593C8.78185 4.52621 8.66017 4.60649 8.53849 4.68677C8.42884 4.75911 8.32069 4.83771 8.20214 4.89505C8.10768 4.94019 8.00167 4.95536 7.89835 4.93851C7.77325 4.91789 7.64973 4.88163 7.52234 4.87734C7.39925 4.87271 7.27819 4.90967 7.17867 4.98226C7.12778 5.01899 7.09612 5.04889 7.04231 5.08257C7.03042 5.09002 7.01824 5.09674 7.00588 5.10335C6.97155 5.12172 7.02046 5.10008 6.98618 5.11151C6.9743 5.11547 6.9621 5.11787 6.95018 5.12153C6.92554 5.12909 6.96315 5.12275 6.93567 5.12426C6.846 5.12919 6.77783 5.10375 6.69292 5.05882C6.59572 5.00738 6.50486 4.94499 6.4097 4.89002C6.30489 4.82946 6.19262 4.77649 6.07242 4.75627C5.92656 4.73174 5.78376 4.74118 5.63839 4.76411C5.45354 4.79328 5.27177 4.83884 5.08658 4.86721C5.04526 4.87354 5.00389 4.87957 4.96248 4.88531C4.9508 4.88694 4.93911 4.88854 4.92742 4.89012C4.95491 4.8864 4.91551 4.89168 4.91319 4.89198C4.88492 4.89568 4.85663 4.89927 4.82833 4.90275C4.72717 4.91519 4.62586 4.92635 4.5244 4.93622C4.14113 4.97367 3.75178 5.00229 3.3666 4.98187C3.32905 4.97988 3.29153 4.97727 3.2541 4.97369C3.23696 4.97206 3.21989 4.96982 3.20276 4.96814C3.19527 4.9674 3.1785 4.96415 3.21164 4.96945C3.2001 4.9676 3.18851 4.96611 3.17697 4.96423C3.10769 4.95285 3.0393 4.93656 2.97234 4.91548C2.93863 4.90492 2.90529 4.89323 2.87234 4.88043C2.85853 4.87507 2.84483 4.86949 2.83115 4.86383C2.86251 4.87682 2.83402 4.86495 2.82826 4.86233C2.81741 4.85738 2.80651 4.85256 2.79571 4.84752C2.73006 4.81672 2.66619 4.78226 2.60442 4.74428C2.54102 4.70543 2.47971 4.66322 2.42045 4.61833C2.41613 4.61507 2.39098 4.59519 2.41583 4.61486C2.40841 4.60899 2.40094 4.60316 2.39354 4.59725C2.38116 4.58735 2.36887 4.57733 2.35667 4.56721C2.32465 4.54065 2.29324 4.51337 2.26245 4.48537C2.14589 4.37879 2.03697 4.26414 1.93649 4.14228C1.91291 4.11387 1.88972 4.08513 1.86694 4.05607C1.86421 4.05258 1.84349 4.02568 1.8617 4.04944C1.85554 4.0414 1.8494 4.03336 1.84328 4.0253C1.829 4.00643 1.81487 3.98746 1.8009 3.96836C1.75485 3.90541 1.71045 3.84129 1.6677 3.776C1.57876 3.64042 1.49657 3.50071 1.42111 3.35689C1.38407 3.28658 1.34863 3.21547 1.31476 3.14355C1.29813 3.10824 1.28189 3.07276 1.26605 3.03709C1.25951 3.02238 1.25305 3.00764 1.24665 2.99287C1.24283 2.98406 1.23907 2.97522 1.23527 2.9664C1.22979 2.95351 1.23026 2.95466 1.23668 2.96984C1.23422 2.96399 1.23177 2.95813 1.22933 2.95226C1.17336 2.81766 1.12298 2.68066 1.07971 2.54144C1.04091 2.4183 1.00906 2.29308 0.984315 2.16637C0.979317 2.1402 0.974719 2.11396 0.970522 2.08764C0.968325 2.07379 0.966403 2.05991 0.964307 2.04605C0.960398 2.02019 0.968041 2.07787 0.965148 2.0521C0.964148 2.04319 0.962949 2.03429 0.961941 2.02538C0.956308 1.97556 0.952523 1.92549 0.951609 1.87535C0.9509 1.83178 0.952672 1.7882 0.956917 1.74483C0.96005 1.71208 0.953828 1.76124 0.956284 1.74879C0.958105 1.73956 0.9593 1.73019 0.961134 1.72095C0.964503 1.70365 0.96877 1.68654 0.973918 1.66969C0.976349 1.66183 0.979276 1.65416 0.98187 1.64636C0.992085 1.61564 0.967712 1.67315 0.979873 1.65102C0.986905 1.63823 0.994144 1.62567 1.00141 1.61303C1.01607 1.58755 0.979584 1.63497 0.996417 1.61932C1.00113 1.61494 1.0057 1.60969 1.01006 1.60494C1.01236 1.60243 1.01568 1.6006 1.0178 1.59799C1.02874 1.58452 0.98858 1.61369 1.00441 1.60838C1.01103 1.6057 1.01723 1.60209 1.02285 1.59766C1.03509 1.58698 0.989749 1.60566 1.00593 1.60494C1.00939 1.60411 1.01279 1.60307 1.01611 1.60181C1.01972 1.60125 1.02328 1.60043 1.02677 1.59938C1.04165 1.59418 1.03759 1.61051 1.00864 1.60157C1.02181 1.60564 1.04745 1.59983 1.06165 1.6003C1.11395 1.60207 1.16612 1.60803 1.21831 1.61168C1.42363 1.6247 1.62966 1.62087 1.83435 1.6002C1.99455 1.58504 2.1511 1.55473 2.30899 1.52507C2.52919 1.4837 2.73684 1.4606 2.96438 1.43941C3.21459 1.41439 3.46653 1.41186 3.71719 1.43183C3.78454 1.43764 3.84219 1.37023 3.84219 1.30683C3.84219 1.23438 3.78473 1.18765 3.71719 1.18183Z" fill="url(#paint1_linear_2469_7733)"/>
<path d="M4.34471 4.00112C4.47639 3.90714 4.52865 3.73109 4.51594 3.56981C4.50323 3.40852 4.43602 3.25724 4.36977 3.10963C4.35457 3.07578 4.33779 3.04003 4.30656 3.01998C4.26715 2.99468 4.21608 3.00118 4.16985 3.0086C3.89349 3.05295 1.50983 2.93084 1.4108 3.45139C1.38348 3.59495 1.53845 3.75756 1.84837 4.08277C1.96508 4.20524 2.04004 4.25934 2.12956 4.29601C2.27188 4.35431 2.43259 4.33724 2.58488 4.31582C2.8352 4.2806 3.49201 4.11844 4.39009 3.89343" fill="url(#paint2_linear_2469_7733)"/>
<path d="M4.40786 4.10916C4.49356 4.04903 4.55918 3.96449 4.59615 3.86655C4.62917 3.7839 4.64503 3.69539 4.64276 3.60641C4.63916 3.50098 4.61874 3.39681 4.58226 3.29783C4.56284 3.24264 4.54005 3.18869 4.51688 3.13499C4.49974 3.09143 4.48027 3.04881 4.45856 3.00733C4.44171 2.9753 4.41787 2.94747 4.3888 2.92591C4.35974 2.90435 4.32619 2.88961 4.29065 2.88278C4.23443 2.87416 4.18579 2.88155 4.12969 2.8892L4.16292 2.88474C4.06141 2.89826 3.95636 2.89478 3.85423 2.89604C3.6765 2.89823 3.49876 2.89948 3.32105 2.9032C3.10944 2.90763 2.89784 2.91496 2.68662 2.92892C2.47227 2.94166 2.25869 2.96519 2.0467 2.99941C1.87708 3.02795 1.70757 3.06695 1.55121 3.14048C1.43363 3.19577 1.30969 3.29212 1.28864 3.42894C1.27896 3.4841 1.28353 3.54082 1.30191 3.59373C1.32084 3.64521 1.34651 3.69396 1.37824 3.7387C1.46602 3.86362 1.57319 3.97449 1.67797 4.085C1.78804 4.20109 1.89994 4.33007 2.0491 4.3966C2.14491 4.43924 2.24866 4.46116 2.35355 4.46092C2.44612 4.4592 2.53844 4.45047 2.62969 4.43479C2.81966 4.40659 3.00749 4.35996 3.19429 4.31616C3.51077 4.24195 3.82622 4.16328 4.1416 4.08456C4.23554 4.06111 4.32947 4.03761 4.42338 4.01407C4.45535 4.00526 4.48251 3.98411 4.49888 3.95527C4.51526 3.92643 4.5195 3.89227 4.51069 3.86031C4.50188 3.82834 4.48072 3.80118 4.45189 3.78481C4.42305 3.76844 4.38889 3.76419 4.35692 3.773C4.04328 3.85158 3.72962 3.93015 3.41539 4.00637C3.19794 4.05912 2.98028 4.11174 2.76115 4.15711C2.68186 4.17352 2.6024 4.18861 2.52214 4.19946L2.55537 4.195C2.4567 4.20813 2.35679 4.21749 2.25757 4.20457L2.2908 4.20904C2.24538 4.20289 2.20092 4.19104 2.15846 4.17376L2.18832 4.18636C2.16334 4.1759 2.13911 4.1637 2.11582 4.14986C2.10348 4.14247 2.09143 4.13463 2.07967 4.12634C2.07381 4.12223 2.06812 4.1179 2.06231 4.11373C2.04978 4.10473 2.08916 4.13515 2.07214 4.12134C2.0684 4.11831 2.06461 4.11532 2.06089 4.11226C1.99744 4.05728 1.93743 3.99844 1.88121 3.93609C1.82668 3.87875 1.77221 3.82131 1.71913 3.76261C1.69711 3.73825 1.67534 3.71366 1.6541 3.68862C1.64504 3.67795 1.6361 3.66719 1.62726 3.65635C1.62254 3.65055 1.61787 3.64472 1.61323 3.63885C1.61123 3.63631 1.60925 3.63376 1.60725 3.63122C1.59839 3.62001 1.62761 3.65797 1.61668 3.64337C1.58481 3.60308 1.55783 3.55914 1.53633 3.51248L1.54893 3.54234C1.5397 3.52094 1.5333 3.49843 1.5299 3.47537L1.53437 3.5086C1.53244 3.49319 1.53237 3.4776 1.53417 3.46217L1.52971 3.4954C1.53187 3.47929 1.53612 3.46353 1.54235 3.44851L1.52975 3.47837C1.53609 3.46391 1.5439 3.45013 1.55305 3.43725C1.56578 3.41883 1.53386 3.46075 1.54174 3.4518C1.54457 3.44858 1.54721 3.44521 1.55007 3.44202C1.55575 3.43567 1.56172 3.42959 1.56792 3.42375C1.57442 3.41762 1.58123 3.41188 1.5881 3.40617C1.60644 3.39093 1.55869 3.42792 1.576 3.4155C1.58003 3.41261 1.58401 3.40967 1.58808 3.40685C1.60478 3.39537 1.62209 3.38482 1.63993 3.37523C1.66275 3.36287 1.68628 3.35188 1.71016 3.34176L1.6803 3.35436C1.81616 3.29724 1.96266 3.26604 2.10743 3.24145C2.15573 3.23324 2.20419 3.22601 2.25274 3.21945L2.21951 3.22392C2.37386 3.20321 2.52907 3.18937 2.68444 3.17907C2.84409 3.16848 3.00399 3.16173 3.16393 3.1571C3.31009 3.15287 3.45629 3.15049 3.6025 3.14878C3.7188 3.14743 3.83511 3.14673 3.9514 3.1446C4.02112 3.14501 4.09082 3.14184 4.16022 3.13509C4.18131 3.13252 4.2022 3.12922 4.22321 3.12621L4.18998 3.13068C4.21229 3.12728 4.23493 3.12648 4.25742 3.12831L4.22419 3.12385C4.23498 3.12533 4.24559 3.12794 4.25584 3.13164L4.22598 3.11904C4.22999 3.12077 4.23383 3.12289 4.23783 3.12462C4.25734 3.13308 4.22336 3.11026 4.23042 3.11772C4.23459 3.12213 4.25292 3.14294 4.23902 3.12539C4.22536 3.10815 4.23686 3.12358 4.23957 3.12811C4.24171 3.13168 4.24374 3.13533 4.2457 3.13899C4.25014 3.14728 4.25415 3.15579 4.25806 3.16434C4.27653 3.20465 4.29439 3.24524 4.31166 3.28611L4.29906 3.25625C4.34321 3.35466 4.37427 3.45844 4.39144 3.56493L4.38698 3.5317C4.39428 3.58696 4.3944 3.64294 4.38733 3.69823L4.39179 3.665C4.38534 3.71141 4.37301 3.7568 4.35508 3.80009L4.36768 3.77023C4.36097 3.7859 4.35342 3.8012 4.34506 3.81606C4.34113 3.82299 4.337 3.82982 4.33269 3.83652C4.32682 3.84331 4.3217 3.8507 4.31742 3.85859C4.31806 3.85657 4.33679 3.83463 4.32598 3.84738C4.32341 3.85041 4.32091 3.85348 4.3183 3.85648C4.31308 3.86247 4.30767 3.86829 4.30207 3.87394C4.29575 3.88031 4.2892 3.88643 4.28241 3.89231C4.27939 3.89494 4.27623 3.89741 4.2732 3.90003C4.26288 3.909 4.30018 3.87985 4.28168 3.89329C4.25421 3.91052 4.23383 3.93702 4.22424 3.96799C4.21559 4.00051 4.22012 4.03512 4.23684 4.06431C4.27054 4.11659 4.35129 4.15027 4.40786 4.10916Z" fill="#263863"/>
<path d="M1.41172 3.51086C1.01847 2.95411 0.899883 2.46689 0.858346 2.17497C0.799578 1.76197 0.879977 1.63409 0.94168 1.57497C1.08262 1.43994 1.2931 1.5036 1.62501 1.52497C2.13921 1.55808 2.07417 1.43363 2.89449 1.38989C2.89449 1.38989 3.80785 1.3336 4.16667 1.61321C4.23818 1.66894 4.30418 1.73698 4.33485 1.8223C4.36355 1.90212 4.3589 1.98953 4.35387 2.0742C4.3381 2.34015 4.32233 2.60609 4.30656 2.87204C4.3042 2.91173 4.30003 2.95551 4.27108 2.98277C4.24795 3.00455 4.21447 3.01031 4.18306 3.0151C3.46227 3.12498 2.74148 3.23485 2.02069 3.34473C1.8647 3.3685 1.64337 3.34992 1.37984 3.34092" fill="url(#paint3_linear_2469_7733)"/>
<path d="M1.51955 3.44794C1.3784 3.2492 1.25883 3.03598 1.16287 2.81189L1.17547 2.84175C1.09614 2.65507 1.03684 2.46051 0.99855 2.26132C0.990047 2.21633 0.982708 2.17114 0.976534 2.12575L0.980999 2.15898C0.964977 2.03973 0.954659 1.91728 0.970082 1.79738L0.965617 1.83061C0.970854 1.78642 0.981926 1.74313 0.998544 1.70185L0.985943 1.73171C0.991972 1.71752 0.999033 1.7038 1.00707 1.69064C1.0106 1.68493 1.01442 1.67945 1.01825 1.67394C1.03028 1.65667 1.00098 1.69528 1.00626 1.68934C1.00822 1.68714 1.01001 1.68475 1.01194 1.68251C1.02107 1.67194 1.03098 1.66207 1.0416 1.65298C1.04383 1.65106 1.04615 1.64925 1.04838 1.64733C1.05895 1.63824 1.02062 1.66758 1.0352 1.65763C1.04052 1.654 1.04578 1.65032 1.05127 1.64694C1.06273 1.63995 1.07466 1.63377 1.08698 1.62843L1.05712 1.64103C1.08684 1.62887 1.11804 1.62068 1.1499 1.61667L1.11667 1.62113C1.23203 1.60654 1.3506 1.6254 1.46544 1.63671C1.57839 1.64931 1.69196 1.65559 1.80561 1.65551C1.94747 1.65358 2.08497 1.6267 2.22314 1.59727C2.31588 1.57751 2.40911 1.56076 2.5031 1.54811L2.46987 1.55258C2.62321 1.53215 2.77799 1.51933 2.93256 1.51325C3.05059 1.50861 3.16895 1.50953 3.28693 1.51514C3.38379 1.51975 3.4805 1.52784 3.57663 1.54068L3.5434 1.53621C3.68898 1.55592 3.83543 1.58553 3.97151 1.64229L3.94165 1.62969C3.99423 1.65141 4.04423 1.67892 4.09074 1.7117C4.0929 1.71325 4.09497 1.71497 4.09716 1.71647C4.05897 1.69032 4.07998 1.70309 4.0886 1.71001C4.09727 1.71697 4.10579 1.72411 4.11418 1.73141C4.1301 1.74533 4.14543 1.75993 4.15989 1.77536C4.16746 1.78345 4.17477 1.79177 4.18182 1.80032C4.1966 1.81831 4.18032 1.79412 4.17654 1.79327C4.17864 1.79374 4.1845 1.80441 4.18608 1.80673C4.19903 1.8258 4.21023 1.84601 4.21953 1.8671L4.20693 1.83724C4.21981 1.86861 4.22849 1.90155 4.23271 1.9352L4.22825 1.90197C4.23763 1.98124 4.22954 2.06152 4.22483 2.14085C4.21966 2.22812 4.21448 2.31538 4.2093 2.40265L4.19402 2.66028C4.18911 2.7432 4.18886 2.82802 4.17796 2.91038L4.18242 2.87715C4.18034 2.89169 4.17657 2.90593 4.17118 2.91959L4.18378 2.88973C4.18204 2.89343 4.18008 2.89697 4.17825 2.90062C4.16939 2.91826 4.19518 2.88296 4.18478 2.89233C4.17457 2.90151 4.20798 2.87867 4.19549 2.88458C4.19085 2.88678 4.18645 2.88976 4.18177 2.892L4.21163 2.8794C4.18231 2.88961 4.15187 2.89624 4.12095 2.89912L4.00996 2.91604L3.78796 2.94988L3.34809 3.01693L2.46423 3.15167C2.30041 3.17664 2.13675 3.2042 1.97255 3.22647L2.00578 3.222C1.91432 3.23184 1.82223 3.23452 1.73035 3.23001C1.61343 3.22673 1.49663 3.22013 1.37974 3.21608C1.34667 3.21635 1.31503 3.2296 1.29165 3.25299C1.26826 3.27637 1.25501 3.30801 1.25474 3.34108C1.2554 3.37403 1.26878 3.40544 1.29208 3.42875C1.31538 3.45205 1.3468 3.46543 1.37974 3.46608C1.51542 3.47078 1.65102 3.47931 1.78678 3.48123C1.84241 3.48201 1.89818 3.48161 1.95368 3.47735C2.02448 3.47193 2.09468 3.4592 2.16482 3.44851L3.06923 3.31064L3.97775 3.17215L4.20386 3.13768C4.24311 3.13332 4.28123 3.12178 4.31632 3.10365C4.36304 3.07594 4.39799 3.03207 4.41457 2.98034C4.42582 2.94254 4.43167 2.90333 4.43195 2.8639C4.43419 2.8265 4.4364 2.7891 4.4386 2.7517C4.44312 2.67552 4.44764 2.59933 4.45216 2.52315C4.46125 2.36982 4.47034 2.21648 4.47943 2.06315C4.48608 1.98596 4.48208 1.90824 4.46754 1.83215C4.44838 1.75492 4.41103 1.68339 4.3586 1.62354C4.23077 1.46795 4.0356 1.38595 3.84489 1.33881C3.66099 1.29609 3.47337 1.27138 3.28468 1.26503C3.16496 1.25941 3.04482 1.25853 2.92505 1.26356C2.75004 1.27086 2.57551 1.28697 2.40212 1.31183C2.27242 1.33047 2.14558 1.36115 2.01698 1.38537C1.99093 1.39027 1.96478 1.3946 1.93851 1.39817L1.97174 1.39371C1.7816 1.41909 1.58926 1.39909 1.39954 1.38011C1.28273 1.36842 1.16399 1.35613 1.04801 1.38177C0.951267 1.4042 0.865849 1.46075 0.807418 1.54106C0.767948 1.59666 0.741602 1.66049 0.730363 1.72774C0.710042 1.84742 0.70743 1.96943 0.722613 2.08987C0.744543 2.29956 0.789722 2.50616 0.857316 2.70587C0.950101 2.97657 1.07694 3.23438 1.23477 3.47308C1.25718 3.50714 1.28015 3.54082 1.30368 3.57412C1.32084 3.60165 1.34737 3.62206 1.37839 3.63156C1.4109 3.64021 1.44551 3.63568 1.47471 3.61896C1.52766 3.58482 1.55983 3.5051 1.51955 3.44794Z" fill="#263863"/>
<path d="M5.32328 4.86977C5.17907 4.84008 5.04259 4.7808 4.92245 4.69568C4.80232 4.61056 4.70115 4.50145 4.62533 4.37523C4.56511 4.27363 4.51297 4.15307 4.40406 4.10737C4.35013 4.08473 4.28971 4.08451 4.23128 4.08697C3.8436 4.10329 3.46856 4.22105 3.08926 4.30283C2.70996 4.38462 2.30676 4.42934 1.93994 4.30283C2.27708 4.79592 2.8989 5.02769 3.49555 5.05628C4.09219 5.08487 4.68158 4.94142 5.26881 4.83205" fill="#FBBD4D"/>
<path d="M5.35651 4.74922C5.2877 4.7352 5.22047 4.71436 5.1558 4.68701L5.18566 4.69961C5.11323 4.66864 5.04439 4.62988 4.98034 4.58403C4.97256 4.57845 4.96492 4.57269 4.95723 4.56698C4.94416 4.55725 4.98312 4.58762 4.96487 4.57284C4.96157 4.57016 4.95822 4.56754 4.95491 4.56486C4.93922 4.55213 4.92389 4.53897 4.90893 4.52537C4.87981 4.49891 4.85218 4.47085 4.82617 4.44132C4.8129 4.42751 4.80063 4.41277 4.78944 4.39722C4.78988 4.39789 4.80905 4.42308 4.7973 4.40738C4.79475 4.40397 4.79218 4.40058 4.78966 4.39716C4.78334 4.38861 4.77716 4.37996 4.77112 4.37122C4.74857 4.33859 4.72852 4.30451 4.70904 4.26999C4.66901 4.19904 4.62766 4.12515 4.56769 4.0688C4.48566 3.99171 4.383 3.96062 4.27165 3.96094C4.16745 3.96308 4.06351 3.97217 3.96052 3.98814C3.76555 4.01492 3.57385 4.06001 3.38271 4.10604C3.1723 4.15672 2.96182 4.20825 2.74711 4.23747L2.78034 4.23301C2.59196 4.26095 2.40071 4.26379 2.21159 4.24145L2.24482 4.24592C2.15243 4.23348 2.06146 4.21217 1.97317 4.18228C1.9261 4.1662 1.87054 4.18984 1.84177 4.22708C1.81302 4.26429 1.80379 4.32483 1.832 4.36591C1.95957 4.55013 2.12247 4.70717 2.31123 4.82792C2.49554 4.94475 2.69653 5.03289 2.90733 5.08933C3.39796 5.22471 3.90924 5.19492 4.40691 5.11828C4.70689 5.07209 5.00374 5.00821 5.30203 4.95257C5.36646 4.94056 5.40891 4.85929 5.38934 4.79881C5.36704 4.7299 5.3046 4.69863 5.23557 4.7115C4.89481 4.77506 4.55578 4.84925 4.21207 4.89579L4.2453 4.89132C3.98163 4.92668 3.71446 4.94607 3.44856 4.92859C3.38873 4.92466 3.3291 4.9187 3.26966 4.9107L3.30289 4.91516C3.09556 4.88797 2.89273 4.83355 2.69963 4.75332L2.72949 4.76592C2.61834 4.71916 2.51188 4.66193 2.41156 4.59501C2.38678 4.57834 2.36245 4.56102 2.33857 4.54305C2.33528 4.54057 2.33202 4.53806 2.32874 4.53558C2.31816 4.52761 2.3438 4.54705 2.34183 4.5457C2.33593 4.54166 2.33048 4.53678 2.3249 4.53231C2.31287 4.52266 2.30099 4.51285 2.28925 4.50286C2.24381 4.46425 2.20069 4.42299 2.16011 4.3793C2.13766 4.3551 2.11605 4.33014 2.09529 4.30444C2.09185 4.30018 2.07142 4.27407 2.08582 4.29269C2.10012 4.3112 2.08157 4.2869 2.07868 4.283C2.06814 4.26877 2.05787 4.25434 2.04787 4.23972L1.90671 4.42335C2.16914 4.513 2.45368 4.52161 2.72707 4.48971C3.01149 4.45652 3.28763 4.38464 3.56579 4.31929C3.7209 4.28286 3.87686 4.24946 4.03485 4.22815L4.00162 4.23261C4.05811 4.22514 4.11478 4.21914 4.17163 4.21526C4.22556 4.20995 4.27988 4.20963 4.33388 4.21431L4.30065 4.20984C4.32469 4.21296 4.34826 4.21902 4.37082 4.22789L4.34096 4.21529C4.35796 4.22288 4.37419 4.23209 4.38942 4.24281C4.40225 4.25162 4.36386 4.22086 4.38008 4.23585C4.38293 4.23848 4.38593 4.24095 4.38879 4.24358C4.39669 4.25085 4.40418 4.25857 4.41134 4.26657C4.41729 4.27321 4.42278 4.28017 4.42846 4.28702C4.40066 4.25351 4.42458 4.28268 4.43018 4.29087C4.44168 4.30772 4.45236 4.32511 4.46269 4.34269C4.50064 4.41225 4.54289 4.47937 4.58919 4.54368C4.69871 4.68848 4.83972 4.80648 5.00157 4.88876C5.09288 4.93505 5.18987 4.96919 5.29005 4.99029C5.32259 4.99836 5.35699 4.99386 5.38637 4.97769C5.41436 4.96105 5.43491 4.93432 5.44381 4.90299C5.458 4.8407 5.42503 4.76313 5.35651 4.74922Z" fill="#263863"/>
<path d="M12.822 8.57791C13.594 6.75149 13.532 4.52001 12.6856 3.01993C11.6737 1.22643 10.038 1.36025 9.79261 1.38614C9.59029 1.40749 7.76763 1.64544 6.93667 3.96859C6.12749 6.23083 6.99154 8.42156 7.05573 8.57791C6.70205 6.09449 7.55016 3.76588 8.90245 3.01993C9.83511 2.50546 10.9114 2.79691 11.6842 3.59967C12.7256 4.68141 13.1895 6.66387 12.822 8.57791Z" fill="#317FF2" stroke="url(#paint4_linear_2469_7733)" stroke-width="0.5" stroke-linecap="round" stroke-linejoin="round"/>
<path d="M9.39974 1.16225C9.35089 1.28455 9.23654 1.5191 8.9892 1.69545C8.94722 1.72538 8.50949 2.03748 8.27143 1.8689C8.07723 1.73138 8.13853 1.36078 8.1606 1.22732C8.2216 0.85852 8.43764 0.613146 8.54662 0.505371" fill="url(#paint5_linear_2469_7733)"/>
<path d="M9.27926 1.12907C9.27587 1.13751 9.27241 1.14593 9.26888 1.15431L9.28148 1.12445C9.25757 1.18089 9.22968 1.23556 9.19802 1.28804C9.17771 1.3216 9.15583 1.35414 9.13237 1.38566C9.13 1.38885 9.12755 1.39198 9.1252 1.39518C9.14747 1.3649 9.13741 1.37947 9.13179 1.38658C9.12607 1.39382 9.12027 1.401 9.11439 1.4081C9.09949 1.42608 9.08406 1.4436 9.06809 1.46066C9.03633 1.49458 9.0025 1.52651 8.9668 1.55626C8.95866 1.56304 8.94942 1.56913 8.94181 1.57647C8.96704 1.55215 8.95153 1.56898 8.94402 1.57456C8.94009 1.57748 8.93613 1.58038 8.93216 1.58325C8.927 1.58699 8.92181 1.59068 8.91659 1.59434C8.88577 1.61598 8.85418 1.63647 8.82182 1.65581C8.76374 1.69101 8.70326 1.72206 8.64081 1.74873L8.67067 1.73613C8.60677 1.764 8.53952 1.78342 8.47061 1.79391L8.50384 1.78945C8.46744 1.79444 8.43054 1.79479 8.39405 1.7905L8.42728 1.79496C8.40108 1.79142 8.37545 1.7845 8.35104 1.77436L8.3809 1.78696C8.36601 1.7805 8.35174 1.77267 8.33827 1.76359C8.31738 1.74862 8.29149 1.74236 8.26607 1.74612C8.24064 1.74989 8.21767 1.76338 8.20201 1.78376C8.18635 1.80413 8.17922 1.8298 8.18212 1.85533C8.18502 1.88087 8.19773 1.90428 8.21757 1.92062C8.2374 1.93696 8.26281 1.94496 8.28843 1.94292C8.31405 1.94088 8.33788 1.92897 8.35488 1.9097C8.37188 1.89043 8.38073 1.8653 8.37956 1.83963C8.37839 1.81395 8.36729 1.78974 8.3486 1.7721C8.34526 1.76884 8.34169 1.76583 8.33792 1.7631C8.33159 1.75747 8.32556 1.75153 8.31983 1.74529C8.31114 1.73586 8.29592 1.7104 8.32036 1.74754C8.31571 1.74047 8.31065 1.73372 8.30621 1.72649C8.29691 1.71113 8.28878 1.6951 8.28189 1.67852L8.29449 1.70838C8.27828 1.66745 8.26725 1.62466 8.26163 1.58099L8.26609 1.61422C8.255 1.51465 8.25708 1.41404 8.27227 1.31501L8.2678 1.34824C8.28269 1.22419 8.31381 1.10263 8.36037 0.986687L8.34777 1.01655C8.38904 0.919217 8.4416 0.827071 8.50437 0.742004C8.50779 0.737349 8.51125 0.732716 8.51473 0.728103C8.51668 0.725511 8.51865 0.722925 8.52063 0.720346L8.50696 0.738023C8.514 0.729721 8.52044 0.720858 8.52732 0.712408C8.54008 0.696721 8.55317 0.681305 8.56657 0.666159C8.58859 0.641285 8.61142 0.617169 8.63506 0.593811C8.68158 0.547719 8.68465 0.46256 8.63506 0.417035C8.61133 0.394141 8.57964 0.381348 8.54667 0.381348C8.5137 0.381348 8.48201 0.394141 8.45828 0.417035C8.29712 0.575543 8.17331 0.767985 8.09587 0.980359C8.05814 1.09285 8.03292 1.20916 8.02068 1.32718C8.00582 1.43593 8.00613 1.54622 8.02162 1.65488C8.04054 1.78083 8.09861 1.89678 8.20269 1.97271C8.30441 2.04692 8.43389 2.05192 8.55351 2.03256C8.66016 2.0153 8.76316 1.97085 8.8586 1.92162C8.92071 1.88957 8.98065 1.85346 9.03802 1.81353C9.2343 1.67767 9.38976 1.49079 9.48761 1.27305C9.49902 1.24743 9.50993 1.22159 9.52033 1.19553C9.52474 1.17944 9.5259 1.16264 9.52373 1.1461C9.52157 1.12956 9.51613 1.11362 9.50773 1.09921C9.49945 1.08503 9.48845 1.07263 9.47537 1.0627C9.4623 1.05277 9.44739 1.04552 9.43151 1.04136C9.41563 1.03719 9.39908 1.0362 9.38281 1.03843C9.36655 1.04066 9.35088 1.04607 9.3367 1.05436C9.3098 1.0722 9.28959 1.09848 9.27926 1.12907Z" fill="url(#paint6_linear_2469_7733)"/>
<path d="M7.49306 2.16152C7.49306 2.16152 7.86396 3.01459 8.27195 3.3855C8.32148 3.43733 8.35599 3.50166 8.37179 3.57159C8.4249 3.79606 8.28632 4.10795 8.0865 4.16439C7.89283 4.2191 7.69001 4.02018 7.30761 3.64513C7.16585 3.5061 7.10498 3.42618 7.01089 3.31132C6.97554 3.26817 6.63272 2.83729 6.78835 2.42115C6.81681 2.34503 6.88948 2.15035 7.08507 2.08734C7.28678 2.02235 7.46737 2.14366 7.49306 2.16152Z" fill="url(#paint7_linear_2469_7733)"/>
<path d="M8.04962 1.60474C8.1965 1.76515 8.3456 1.93804 8.49471 2.124C8.77819 2.47762 9.03837 2.84931 9.2736 3.23671C9.07578 3.34798 8.87797 3.45925 8.68016 3.57052C8.51183 3.34159 7.63587 2.1408 7.64163 1.7531C7.64228 1.70934 7.64389 1.60108 7.71477 1.55041C7.82358 1.47261 8.0182 1.58597 8.04962 1.60474Z" fill="url(#paint8_linear_2469_7733)"/>
<path d="M17.1735 6.12988V17.5166H15.2598V17.5006V6.14455V6.12988H17.1735Z" fill="#1D6ECE"/>
<path d="M15.2596 17.5006V17.5166H13.4712V17.5006V6.14455V6.12988H15.2596V6.14455V17.5006Z" fill="#317FF2"/>
<path d="M13.4713 17.5006V17.5166H11.4692V17.5006V6.14455V6.12988H13.4713V6.14455V17.5006Z" fill="#1D6ECE"/>
<path d="M11.4692 17.5006V17.5166H2.59717V6.12988H11.4692V6.14455V17.5006Z" fill="#317FF2"/>
<path d="M13.4712 6.12988H15.2596" stroke="url(#paint9_linear_2469_7733)" stroke-width="0.5" stroke-linecap="round" stroke-linejoin="round"/>
<path d="M11.4692 6.12988H13.4713" stroke="url(#paint10_linear_2469_7733)" stroke-width="0.5" stroke-linecap="round" stroke-linejoin="round"/>
<path d="M11.4692 17.5166H2.59717V6.12988H11.4692" stroke="url(#paint11_linear_2469_7733)" stroke-width="0.5" stroke-linecap="round" stroke-linejoin="round"/>
<path d="M13.4713 17.5166H11.4692" stroke="url(#paint12_linear_2469_7733)" stroke-width="0.5" stroke-linecap="round" stroke-linejoin="round"/>
<path d="M15.2596 17.5166H13.4712" stroke="url(#paint13_linear_2469_7733)" stroke-width="0.5" stroke-linecap="round" stroke-linejoin="round"/>
<path d="M15.2598 6.12988H17.1735V17.5166H15.2598" stroke="url(#paint14_linear_2469_7733)" stroke-width="0.5" stroke-linecap="round" stroke-linejoin="round"/>
<path d="M11.4692 6.14453V17.5006" stroke="url(#paint15_linear_2469_7733)" stroke-width="0.5" stroke-linecap="round" stroke-linejoin="round"/>
<path d="M13.4712 6.14453V17.5006" stroke="url(#paint16_linear_2469_7733)" stroke-width="0.5" stroke-linecap="round" stroke-linejoin="round"/>
<path d="M15.2598 6.14453V17.5006" stroke="url(#paint17_linear_2469_7733)" stroke-width="0.5" stroke-linecap="round" stroke-linejoin="round"/>
<path d="M8.31993 15.2884C7.89267 15.2884 7.46538 15.2908 7.03815 15.2869C6.90386 15.2857 6.76967 15.268 6.63553 15.2567C6.44274 15.2389 6.25227 15.2015 6.06712 15.1448C5.94542 15.1087 5.82577 15.0643 5.70797 15.0168C5.52429 14.9429 5.34818 14.8515 5.1821 14.7437C4.73335 14.4561 4.3566 14.0693 4.08085 13.6132C3.94619 13.3901 3.83782 13.1521 3.75791 12.9041C3.70477 12.7446 3.66459 12.581 3.63776 12.415C3.61642 12.2704 3.60489 12.1238 3.59758 11.9776C3.57361 11.4981 3.59194 11.0181 3.58776 10.5383C3.58668 10.4141 3.62441 10.302 3.72169 10.2182C3.76842 10.1774 3.82432 10.1486 3.8846 10.1342C3.94488 10.1198 4.00776 10.1202 4.06786 10.1353C4.12797 10.1505 4.1835 10.18 4.22972 10.2213C4.27594 10.2626 4.31147 10.3145 4.33327 10.3725C4.34871 10.4189 4.35552 10.4678 4.35338 10.5167C4.35484 10.9693 4.35405 11.422 4.35441 11.8746C4.35681 12.0446 4.37593 12.214 4.41152 12.3802C4.5094 12.8619 4.73846 13.3072 5.07342 13.667C5.40838 14.0268 5.83621 14.287 6.30972 14.419C6.52651 14.4807 6.7508 14.5123 6.97621 14.5127C7.62297 14.5094 8.26976 14.5115 8.91654 14.5116C9.16659 14.5116 9.36108 14.4018 9.50953 14.2066C9.60797 14.0781 9.65974 13.9199 9.65633 13.758C9.65383 13.2897 9.65451 12.8214 9.65586 12.3531C9.65631 12.1182 9.62748 11.8843 9.57001 11.6566C9.48561 11.3157 9.3428 10.9921 9.14792 10.6999C8.97168 10.4329 8.75279 10.1966 8.49999 10.0004C8.46745 9.9753 8.43371 9.95131 8.40382 9.9233C8.36408 9.88714 8.33215 9.84325 8.30997 9.79432C8.2878 9.74538 8.27585 9.69243 8.27486 9.63872C8.26627 9.45936 8.41572 9.2913 8.58231 9.26174C8.6344 9.2513 8.68811 9.252 8.73992 9.26378C8.79172 9.27557 8.84044 9.29818 8.88288 9.33013C9.0295 9.43834 9.16803 9.55711 9.29737 9.68548C9.74595 10.1301 10.0774 10.6788 10.2622 11.2827C10.3229 11.4851 10.3674 11.692 10.3953 11.9014C10.4155 12.0565 10.4248 12.2128 10.4231 12.3693C10.4219 13.0825 10.4236 13.7958 10.4221 14.509C10.4215 14.8375 10.265 15.071 9.97264 15.2135C9.89584 15.2481 9.8139 15.2699 9.73007 15.2781C9.59119 15.296 9.45237 15.2869 9.31361 15.2877C8.98239 15.2897 8.65116 15.2884 8.31993 15.2884Z" fill="#B4F2DA"/>
<path d="M5.40655 8.58585C5.8867 8.58585 6.36686 8.58437 6.847 8.58708C6.94461 8.58874 7.04195 8.59783 7.13818 8.61427C7.27326 8.63585 7.40723 8.6647 7.54124 8.69255C7.71893 8.72947 7.83327 8.84418 7.86461 9.02223C7.88334 9.12862 7.84934 9.22512 7.78205 9.30686C7.67541 9.43642 7.54036 9.4875 7.37413 9.44059C7.22679 9.40171 7.07651 9.37504 6.92479 9.36085C6.71056 9.33986 6.49514 9.3335 6.28004 9.34181C6.07103 9.34711 5.94436 9.46102 5.89885 9.659C5.89545 9.67828 5.8942 9.69789 5.89514 9.71746C5.89496 10.3778 5.89317 11.0381 5.89635 11.6983C5.89969 11.8513 5.93238 12.0022 5.99265 12.1428C6.05859 12.3069 6.15693 12.4561 6.2818 12.5813C6.43013 12.7336 6.61363 12.8471 6.81612 12.9117C6.87575 12.9303 6.93716 12.9431 6.99779 12.9584C7.1593 12.9992 7.25617 13.1062 7.28683 13.2649C7.31549 13.4133 7.26177 13.5393 7.14248 13.6332C7.102 13.6657 7.05494 13.689 7.00455 13.7015C6.95417 13.714 6.90166 13.7154 6.85069 13.7056C6.57553 13.6611 6.32554 13.5551 6.09263 13.4052C5.81316 13.225 5.58017 12.9815 5.41262 12.6943C5.28327 12.4744 5.19591 12.2325 5.15497 11.9807C5.13765 11.8746 5.12896 11.7673 5.12899 11.6597C5.12665 11.0308 5.12781 10.4019 5.12786 9.77292C5.12787 9.7022 5.12487 9.63292 5.0939 9.56638C5.03849 9.44736 4.94852 9.37443 4.81971 9.35132C4.77932 9.34428 4.73839 9.34076 4.69738 9.34078C4.45045 9.33984 4.20349 9.33825 3.95659 9.34099C3.86604 9.34031 3.77849 9.30844 3.70869 9.25075C3.6389 9.19305 3.59113 9.11306 3.57343 9.02425C3.5378 8.84169 3.66343 8.64121 3.84909 8.59065C3.87212 8.58608 3.89564 8.58453 3.91907 8.58603C4.4149 8.58579 4.91073 8.58574 5.40655 8.58585Z" fill="#FF5050"/>
<path d="M8.06815 13.1543C8.06814 13.0818 8.07196 13.0091 8.06703 12.937C8.06416 12.8688 8.05418 12.8011 8.03726 12.735C7.99238 12.578 7.87944 12.4823 7.73203 12.4241C7.68975 12.4087 7.64658 12.3959 7.60276 12.3857C7.50656 12.3606 7.44969 12.2975 7.43841 12.2011C7.43424 12.1668 7.43961 12.132 7.45393 12.1005C7.46825 12.069 7.49097 12.0421 7.51958 12.0227C7.5588 11.9935 7.59969 11.9662 7.63678 11.9344C7.70608 11.8786 7.75669 11.8029 7.78188 11.7176C7.82207 11.5683 7.80077 11.4277 7.70554 11.3007C7.63343 11.2045 7.53944 11.1356 7.43873 11.074C7.31065 10.9937 7.16833 10.9388 7.01953 10.9123C6.93269 10.8989 6.84495 10.8922 6.75709 10.8921C6.58472 10.8896 6.41098 10.7796 6.3696 10.5854C6.3151 10.3297 6.52462 10.1237 6.72641 10.126C6.76364 10.1265 6.80089 10.1268 6.8381 10.126C6.96531 10.1259 7.09222 10.1382 7.21706 10.1627C7.39857 10.1938 7.57564 10.2468 7.74438 10.3205C7.998 10.4318 8.21972 10.5855 8.38555 10.8107C8.49036 10.9532 8.55935 11.1189 8.5867 11.2937C8.59767 11.3611 8.61151 11.4298 8.60856 11.4972C8.60354 11.6117 8.60276 11.7296 8.54796 11.835C8.51042 11.9072 8.50958 11.9831 8.51901 12.0585C8.52701 12.1224 8.56732 12.173 8.61605 12.215C8.67088 12.2593 8.71826 12.3122 8.75641 12.3715C8.80601 12.4542 8.83225 12.5488 8.83232 12.6452C8.83522 12.8822 8.83531 13.1192 8.83259 13.3563C8.83198 13.4482 8.79904 13.5369 8.73956 13.6069C8.68007 13.677 8.59783 13.7238 8.50726 13.7393C8.28269 13.7789 8.06079 13.5908 8.0678 13.3718C8.07011 13.2994 8.06816 13.2268 8.06815 13.1543Z" fill="#FBD600"/>
<path d="M7.53438 1.98668C7.41456 1.96111 7.29473 1.93554 7.1749 1.90997C7.14283 1.90068 7.10913 1.89848 7.07612 1.90351C7.03094 1.91386 6.99683 1.94988 6.96562 1.98415C6.82356 2.14013 6.67404 2.31255 6.65692 2.52283C6.64673 2.64806 6.67112 2.78359 6.77073 2.96639C7.08661 3.54611 7.87669 4.12066 8.06789 4.25674" fill="url(#paint18_linear_2469_7733)"/>
<path d="M7.56806 1.86624L7.3284 1.8151C7.23705 1.7956 7.1367 1.7608 7.04334 1.78307C6.96036 1.80286 6.9024 1.86812 6.84783 1.92881C6.79597 1.98649 6.74622 2.04583 6.69997 2.10816C6.60909 2.23064 6.54509 2.3697 6.53237 2.52293C6.52442 2.64708 6.54602 2.77135 6.5954 2.88554C6.69754 3.13187 6.86559 3.34633 7.04525 3.54106C7.20774 3.71487 7.38178 3.8775 7.56618 4.02785C7.69969 4.13816 7.83686 4.2439 7.97771 4.34508C7.98687 4.35166 7.99605 4.35822 8.00524 4.36477C8.01942 4.37305 8.03508 4.37847 8.05135 4.3807C8.06762 4.38293 8.08416 4.38194 8.10005 4.37778C8.11593 4.37361 8.13083 4.36636 8.14391 4.35643C8.15699 4.3465 8.16799 4.3341 8.17627 4.31992C8.21029 4.25552 8.18846 4.1895 8.13142 4.1489C8.06986 4.10507 8.00898 4.0603 7.94879 4.01458C7.93973 4.0077 7.93068 4.00079 7.92164 3.99386C7.91639 3.98983 7.91113 3.98579 7.90588 3.98174C7.89437 3.97289 7.93411 4.0036 7.9187 3.99164C7.91569 3.9893 7.91267 3.98696 7.90966 3.98462C7.88695 3.96697 7.86434 3.94919 7.84184 3.93127C7.7929 3.89231 7.74449 3.85269 7.6966 3.81243C7.47416 3.62528 7.26053 3.42394 7.07752 3.1975C7.07109 3.18954 7.06471 3.18155 7.05836 3.17353C7.05583 3.17033 7.05331 3.16713 7.05079 3.16391C7.04777 3.16005 7.03323 3.1413 7.04747 3.1597C7.06018 3.17614 7.05112 3.1644 7.04798 3.16028C7.04431 3.15546 7.04065 3.15062 7.03701 3.14577C7.03097 3.13772 7.02497 3.12964 7.01903 3.12152C6.99564 3.08957 6.97309 3.05702 6.95137 3.02388C6.90265 2.95059 6.86044 2.87316 6.82523 2.7925L6.83784 2.82236C6.81068 2.75932 6.79174 2.69305 6.78146 2.62519L6.78593 2.65842C6.77867 2.60454 6.77846 2.54994 6.7853 2.496L6.78084 2.52923C6.78801 2.48075 6.80125 2.43337 6.82025 2.3882L6.80765 2.41806C6.82635 2.37467 6.84877 2.33298 6.87465 2.29345C6.8871 2.27426 6.90021 2.25551 6.91379 2.23711C6.9172 2.23248 6.9207 2.22791 6.92412 2.2233C6.9332 2.21106 6.90605 2.24627 6.91934 2.22943C6.92721 2.21947 6.93516 2.20956 6.94319 2.19972C6.97313 2.16322 7.00443 2.12786 7.0361 2.09285C7.05117 2.07618 7.06606 2.05922 7.08211 2.04347C7.08691 2.03876 7.09188 2.03432 7.09682 2.02977C7.11224 2.01556 7.07724 2.04285 7.08971 2.03493C7.09964 2.02829 7.11009 2.02245 7.12095 2.01747L7.09109 2.03007C7.0996 2.02686 7.10837 2.02439 7.1173 2.02267L7.08407 2.02714C7.1018 2.025 7.11973 2.02525 7.13738 2.02787L7.10415 2.0234C7.17048 2.03385 7.23622 2.05068 7.30189 2.06469L7.5016 2.10731C7.56538 2.12093 7.63977 2.08847 7.65536 2.02001C7.66968 1.95717 7.63645 1.88084 7.56806 1.86624Z" fill="url(#paint19_linear_2469_7733)"/>
<path d="M8.5872 3.66359C7.9584 2.74066 7.56055 2.03406 7.55249 1.9655C7.5458 1.90469 7.54385 1.84346 7.54665 1.78236L7.54665 1.78228C7.54763 1.7202 7.55036 1.65559 7.57956 1.6008C7.63488 1.49703 7.77397 1.47968 7.8281 1.47165C7.906 1.46057 7.98543 1.46854 8.05958 1.49488C8.17967 1.60595 8.29388 1.72321 8.40175 1.84617C8.72194 2.21231 8.98458 2.62502 9.18064 3.07015" fill="url(#paint20_linear_2469_7733)"/>
<path d="M8.6952 3.60031C8.49646 3.30852 8.30368 3.01277 8.11686 2.71307C7.99376 2.51474 7.87258 2.31479 7.76054 2.10995C7.72911 2.05248 7.69695 1.99461 7.6713 1.93424L7.6839 1.9641C7.67904 1.95408 7.67543 1.9435 7.67315 1.9326L7.67762 1.96583C7.66645 1.87616 7.66612 1.78548 7.67662 1.69573L7.67216 1.72896C7.67538 1.70303 7.68173 1.67758 7.69107 1.65318L7.67847 1.68304C7.68529 1.66831 7.69324 1.65411 7.70223 1.64059C7.68364 1.67052 7.68834 1.65813 7.69636 1.64959C7.70116 1.64448 7.70637 1.63991 7.71147 1.63512C7.72623 1.62129 7.6823 1.65555 7.70671 1.63896C7.71095 1.63608 7.71528 1.63334 7.71971 1.63073C7.73136 1.62392 7.74345 1.61789 7.7559 1.61266L7.72604 1.62526C7.77216 1.60782 7.8203 1.59627 7.86931 1.59089L7.83608 1.59535C7.87699 1.59035 7.91837 1.59045 7.95925 1.59564L7.92602 1.59118C7.96018 1.59596 7.9938 1.60401 8.02642 1.61523L7.97126 1.58308C8.07023 1.67478 8.16521 1.77053 8.25621 1.87033C8.30374 1.92257 8.35009 1.97586 8.39524 2.0302C8.41815 2.05779 8.44075 2.08563 8.46303 2.11373C8.4728 2.12605 8.4825 2.13842 8.49214 2.15084C8.50628 2.16898 8.47777 2.13203 8.49166 2.15026C8.49794 2.15849 8.5042 2.16672 8.51046 2.17497C8.66118 2.37465 8.79602 2.58584 8.91372 2.8066C8.97073 2.91342 9.02375 3.02223 9.07277 3.13305C9.08924 3.16119 9.11604 3.1818 9.14748 3.19049C9.17999 3.19914 9.2146 3.19461 9.2438 3.17789C9.27187 3.16134 9.29246 3.13457 9.30124 3.10319C9.30828 3.07059 9.30383 3.03656 9.28864 3.00687C9.13747 2.66465 8.94721 2.34108 8.72165 2.04261C8.58405 1.86002 8.4339 1.68724 8.27228 1.52552C8.23593 1.48934 8.19898 1.45376 8.16146 1.41878C8.14143 1.39865 8.11724 1.38315 8.09057 1.37337C8.08248 1.37052 8.07427 1.36799 8.06603 1.36561C8.04609 1.35984 8.02582 1.35529 8.00533 1.35199C7.91213 1.33731 7.81695 1.34117 7.72524 1.36335C7.62983 1.38282 7.54485 1.43656 7.48636 1.51441C7.42828 1.59501 7.42498 1.69693 7.42126 1.79217C7.41977 1.83147 7.42024 1.87083 7.42269 1.91008C7.42293 1.94248 7.42664 1.97475 7.43377 2.00635C7.44285 2.03397 7.45405 2.06085 7.46726 2.08675C7.50081 2.15821 7.53941 2.22741 7.57797 2.29624C7.64152 2.40967 7.70759 2.52169 7.77474 2.63302C7.97049 2.95755 8.17596 3.27625 8.38744 3.59073C8.41793 3.63608 8.44856 3.68133 8.47933 3.72649C8.49641 3.7541 8.52297 3.77452 8.55403 3.78394C8.58655 3.79258 8.62116 3.78805 8.65035 3.77133C8.70405 3.73672 8.73456 3.65811 8.6952 3.60031Z" fill="url(#paint21_linear_2469_7733)"/>
</g>
<defs>
<linearGradient id="paint0_linear_2469_7733" x1="3.32314" y1="5.46982" x2="7.77491" y2="-0.312002" gradientUnits="userSpaceOnUse">
<stop stop-color="white"/>
<stop offset="0.04818" stop-color="#FDFDFD"/>
<stop offset="0.41722" stop-color="#F5F5F5"/>
<stop offset="1" stop-color="#F2F2F2"/>
</linearGradient>
<linearGradient id="paint1_linear_2469_7733" x1="0.784727" y1="2.83926" x2="10.2054" y2="2.83926" gradientUnits="userSpaceOnUse">
<stop stop-color="#263863"/>
<stop offset="0.39659" stop-color="#23355E"/>
<stop offset="0.88167" stop-color="#1C2D4F"/>
<stop offset="1" stop-color="#1A2A4A"/>
</linearGradient>
<linearGradient id="paint2_linear_2469_7733" x1="2.21217" y1="4.42588" x2="3.88536" y2="2.62613" gradientUnits="userSpaceOnUse">
<stop stop-color="#F16E6F"/>
<stop offset="0.26355" stop-color="#F27374"/>
<stop offset="0.58642" stop-color="#F38283"/>
<stop offset="0.939" stop-color="#F59B9C"/>
<stop offset="1" stop-color="#F6A0A1"/>
</linearGradient>
<linearGradient id="paint3_linear_2469_7733" x1="1.43811" y1="3.53536" x2="3.66378" y2="1.14135" gradientUnits="userSpaceOnUse">
<stop stop-color="#B0DABB"/>
<stop offset="0.37093" stop-color="#ABD8BA"/>
<stop offset="0.82455" stop-color="#9CD2B9"/>
<stop offset="1" stop-color="#94CFB8"/>
</linearGradient>
<linearGradient id="paint4_linear_2469_7733" x1="6.46777" y1="4.97572" x2="13.488" y2="4.97572" gradientUnits="userSpaceOnUse">
<stop stop-color="#263863"/>
<stop offset="0.39659" stop-color="#23355E"/>
<stop offset="0.88167" stop-color="#1C2D4F"/>
<stop offset="1" stop-color="#1A2A4A"/>
</linearGradient>
<linearGradient id="paint5_linear_2469_7733" x1="8.22532" y1="1.83362" x2="8.98697" y2="0.844406" gradientUnits="userSpaceOnUse">
<stop stop-color="white"/>
<stop offset="0.04818" stop-color="#FDFDFD"/>
<stop offset="0.41722" stop-color="#F5F5F5"/>
<stop offset="1" stop-color="#F2F2F2"/>
</linearGradient>
<linearGradient id="paint6_linear_2469_7733" x1="8.09217" y1="1.21177" x2="9.43849" y2="1.21177" gradientUnits="userSpaceOnUse">
<stop stop-color="#263863"/>
<stop offset="0.39659" stop-color="#23355E"/>
<stop offset="0.88167" stop-color="#1C2D4F"/>
<stop offset="1" stop-color="#1A2A4A"/>
</linearGradient>
<linearGradient id="paint7_linear_2469_7733" x1="6.74805" y1="3.12085" x2="8.3832" y2="3.12085" gradientUnits="userSpaceOnUse">
<stop stop-color="white"/>
<stop offset="0.04818" stop-color="#FDFDFD"/>
<stop offset="0.41722" stop-color="#F5F5F5"/>
<stop offset="1" stop-color="#F2F2F2"/>
</linearGradient>
<linearGradient id="paint8_linear_2469_7733" x1="7.6416" y1="2.54698" x2="9.2736" y2="2.54698" gradientUnits="userSpaceOnUse">
<stop stop-color="white"/>
<stop offset="0.04818" stop-color="#FDFDFD"/>
<stop offset="0.41722" stop-color="#F5F5F5"/>
<stop offset="1" stop-color="#F2F2F2"/>
</linearGradient>
<linearGradient id="paint9_linear_2469_7733" x1="-nan" y1="-nan" x2="-nan" y2="-nan" gradientUnits="userSpaceOnUse">
<stop stop-color="#263863"/>
<stop offset="0.39659" stop-color="#23355E"/>
<stop offset="0.88167" stop-color="#1C2D4F"/>
<stop offset="1" stop-color="#1A2A4A"/>
</linearGradient>
<linearGradient id="paint10_linear_2469_7733" x1="-nan" y1="-nan" x2="-nan" y2="-nan" gradientUnits="userSpaceOnUse">
<stop stop-color="#263863"/>
<stop offset="0.39659" stop-color="#23355E"/>
<stop offset="0.88167" stop-color="#1C2D4F"/>
<stop offset="1" stop-color="#1A2A4A"/>
</linearGradient>
<linearGradient id="paint11_linear_2469_7733" x1="1.15937" y1="8.25744" x2="12.907" y2="15.389" gradientUnits="userSpaceOnUse">
<stop stop-color="#263863"/>
<stop offset="0.39659" stop-color="#23355E"/>
<stop offset="0.88167" stop-color="#1C2D4F"/>
<stop offset="1" stop-color="#1A2A4A"/>
</linearGradient>
<linearGradient id="paint12_linear_2469_7733" x1="-nan" y1="-nan" x2="-nan" y2="-nan" gradientUnits="userSpaceOnUse">
<stop stop-color="#263863"/>
<stop offset="0.39659" stop-color="#23355E"/>
<stop offset="0.88167" stop-color="#1C2D4F"/>
<stop offset="1" stop-color="#1A2A4A"/>
</linearGradient>
<linearGradient id="paint13_linear_2469_7733" x1="-nan" y1="-nan" x2="-nan" y2="-nan" gradientUnits="userSpaceOnUse">
<stop stop-color="#263863"/>
<stop offset="0.39659" stop-color="#23355E"/>
<stop offset="0.88167" stop-color="#1C2D4F"/>
<stop offset="1" stop-color="#1A2A4A"/>
</linearGradient>
<linearGradient id="paint14_linear_2469_7733" x1="12.8851" y1="9.80076" x2="19.5482" y2="13.8457" gradientUnits="userSpaceOnUse">
<stop stop-color="#263863"/>
<stop offset="0.39659" stop-color="#23355E"/>
<stop offset="0.88167" stop-color="#1C2D4F"/>
<stop offset="1" stop-color="#1A2A4A"/>
</linearGradient>
<linearGradient id="paint15_linear_2469_7733" x1="-nan" y1="-nan" x2="-nan" y2="-nan" gradientUnits="userSpaceOnUse">
<stop stop-color="#263863"/>
<stop offset="0.39659" stop-color="#23355E"/>
<stop offset="0.88167" stop-color="#1C2D4F"/>
<stop offset="1" stop-color="#1A2A4A"/>
</linearGradient>
<linearGradient id="paint16_linear_2469_7733" x1="-nan" y1="-nan" x2="-nan" y2="-nan" gradientUnits="userSpaceOnUse">
<stop stop-color="#263863"/>
<stop offset="0.39659" stop-color="#23355E"/>
<stop offset="0.88167" stop-color="#1C2D4F"/>
<stop offset="1" stop-color="#1A2A4A"/>
</linearGradient>
<linearGradient id="paint17_linear_2469_7733" x1="-nan" y1="-nan" x2="-nan" y2="-nan" gradientUnits="userSpaceOnUse">
<stop stop-color="#263863"/>
<stop offset="0.39659" stop-color="#23355E"/>
<stop offset="0.88167" stop-color="#1C2D4F"/>
<stop offset="1" stop-color="#1A2A4A"/>
</linearGradient>
<linearGradient id="paint18_linear_2469_7733" x1="7.16487" y1="3.5679" x2="8.06676" y2="2.39656" gradientUnits="userSpaceOnUse">
<stop stop-color="white"/>
<stop offset="0.04818" stop-color="#FDFDFD"/>
<stop offset="0.41722" stop-color="#F5F5F5"/>
<stop offset="1" stop-color="#F2F2F2"/>
</linearGradient>
<linearGradient id="paint19_linear_2469_7733" x1="6.61357" y1="3.07872" x2="8.0925" y2="3.07872" gradientUnits="userSpaceOnUse">
<stop stop-color="#263863"/>
<stop offset="0.39659" stop-color="#23355E"/>
<stop offset="0.88167" stop-color="#1C2D4F"/>
<stop offset="1" stop-color="#1A2A4A"/>
</linearGradient>
<linearGradient id="paint20_linear_2469_7733" x1="7.81413" y1="3.06832" x2="8.66608" y2="1.96183" gradientUnits="userSpaceOnUse">
<stop stop-color="white"/>
<stop offset="0.04818" stop-color="#FDFDFD"/>
<stop offset="0.41722" stop-color="#F5F5F5"/>
<stop offset="1" stop-color="#F2F2F2"/>
</linearGradient>
<linearGradient id="paint21_linear_2469_7733" x1="7.50381" y1="2.56566" x2="9.21881" y2="2.56566" gradientUnits="userSpaceOnUse">
<stop stop-color="#263863"/>
<stop offset="0.39659" stop-color="#23355E"/>
<stop offset="0.88167" stop-color="#1C2D4F"/>
<stop offset="1" stop-color="#1A2A4A"/>
</linearGradient>
<clipPath id="clip0_2469_7733">
<rect width="18" height="18" fill="white"/>
</clipPath>
</defs>
</svg>
