<svg width="23" height="23" viewBox="0 0 23 23" fill="none" xmlns="http://www.w3.org/2000/svg">
<g filter="url(#filter0_iii_2521_8378)">
<path d="M4.96263 14.158C6.06303 13.0576 7.84701 13.0575 8.94727 14.1577C10.0475 15.258 10.0474 17.042 8.947 18.1424L6.4571 20.6323C5.3567 21.7327 3.57272 21.7328 2.47247 20.6325C1.37222 19.5323 1.37233 17.7483 2.47273 16.6479L4.96263 14.158Z" fill="url(#paint0_linear_2521_8378)"/>
<path d="M4.96263 14.158C6.06303 13.0576 7.84701 13.0575 8.94727 14.1577C10.0475 15.258 10.0474 17.042 8.947 18.1424L6.4571 20.6323C5.3567 21.7327 3.57272 21.7328 2.47247 20.6325C1.37222 19.5323 1.37233 17.7483 2.47273 16.6479L4.96263 14.158Z" fill="url(#paint1_linear_2521_8378)"/>
<path d="M4.96263 14.158C6.06303 13.0576 7.84701 13.0575 8.94727 14.1577C10.0475 15.258 10.0474 17.042 8.947 18.1424L6.4571 20.6323C5.3567 21.7327 3.57272 21.7328 2.47247 20.6325C1.37222 19.5323 1.37233 17.7483 2.47273 16.6479L4.96263 14.158Z" fill="url(#paint2_linear_2521_8378)"/>
</g>
<path d="M4.96263 14.158C6.06303 13.0576 7.84701 13.0575 8.94727 14.1577C10.0475 15.258 10.0474 17.042 8.947 18.1424L6.4571 20.6323C5.3567 21.7327 3.57272 21.7328 2.47247 20.6325C1.37222 19.5323 1.37233 17.7483 2.47273 16.6479L4.96263 14.158Z" fill="url(#paint3_radial_2521_8378)"/>
<path fill-rule="evenodd" clip-rule="evenodd" d="M14.3207 16.8477C9.84169 16.8477 6.21094 13.2169 6.21094 8.73791C6.21094 4.25966 9.84169 0.628906 14.3207 0.628906C18.7989 0.628906 22.4297 4.25891 22.4297 8.73791C22.4297 13.2169 18.7997 16.8477 14.3207 16.8477ZM14.3207 15.5352C13.4221 15.5446 12.5306 15.3758 11.6976 15.0384C10.8647 14.7011 10.107 14.2019 9.46822 13.5698C8.82946 12.9378 8.32237 12.1853 7.9763 11.356C7.63023 10.5266 7.45204 9.63692 7.45204 8.73828C7.45204 7.83965 7.63023 6.94993 7.9763 6.1206C8.32237 5.29128 8.82946 4.53881 9.46822 3.90672C10.107 3.27464 10.8647 2.77549 11.6976 2.43814C12.5306 2.1008 13.4221 1.93197 14.3207 1.94141C16.111 1.96021 17.8215 2.68459 19.0808 3.95721C20.3402 5.22983 21.0465 6.94791 21.0465 8.73828C21.0465 10.5287 20.3402 12.2467 19.0808 13.5194C17.8215 14.792 16.111 15.5163 14.3207 15.5352Z" fill="url(#paint4_linear_2521_8378)"/>
<g filter="url(#filter1_f_2521_8378)">
<path fill-rule="evenodd" clip-rule="evenodd" d="M14.3205 16.664C9.94278 16.664 6.39453 13.1158 6.39453 8.73801C6.39453 4.36101 9.94278 0.812012 14.3205 0.812012C18.6975 0.812012 22.2465 4.36101 22.2465 8.73801C22.2465 13.1158 18.6975 16.664 14.3205 16.664ZM14.3205 15.3815C13.4422 15.3908 12.5707 15.2259 11.7566 14.8962C10.9424 14.5666 10.2017 14.0787 9.5773 13.4609C8.95291 12.8431 8.45722 12.1077 8.11893 11.297C7.78063 10.4864 7.60644 9.61676 7.60644 8.73839C7.60644 7.86001 7.78063 6.99035 8.11893 6.17973C8.45722 5.36912 8.95291 4.63363 9.5773 4.01583C10.2017 3.39804 10.9424 2.91019 11.7566 2.58053C12.5707 2.25087 13.4422 2.08593 14.3205 2.09526C16.0702 2.11385 17.7418 2.82194 18.9725 4.06575C20.2032 5.30955 20.8934 6.98865 20.8934 8.73839C20.8934 10.4881 20.2032 12.1672 18.9725 13.411C17.7418 14.6548 16.0702 15.3629 14.3205 15.3815Z" fill="url(#paint5_linear_2521_8378)"/>
<path fill-rule="evenodd" clip-rule="evenodd" d="M14.3205 16.664C9.94278 16.664 6.39453 13.1158 6.39453 8.73801C6.39453 4.36101 9.94278 0.812012 14.3205 0.812012C18.6975 0.812012 22.2465 4.36101 22.2465 8.73801C22.2465 13.1158 18.6975 16.664 14.3205 16.664ZM14.3205 15.3815C13.4422 15.3908 12.5707 15.2259 11.7566 14.8962C10.9424 14.5666 10.2017 14.0787 9.5773 13.4609C8.95291 12.8431 8.45722 12.1077 8.11893 11.297C7.78063 10.4864 7.60644 9.61676 7.60644 8.73839C7.60644 7.86001 7.78063 6.99035 8.11893 6.17973C8.45722 5.36912 8.95291 4.63363 9.5773 4.01583C10.2017 3.39804 10.9424 2.91019 11.7566 2.58053C12.5707 2.25087 13.4422 2.08593 14.3205 2.09526C16.0702 2.11385 17.7418 2.82194 18.9725 4.06575C20.2032 5.30955 20.8934 6.98865 20.8934 8.73839C20.8934 10.4881 20.2032 12.1672 18.9725 13.411C17.7418 14.6548 16.0702 15.3629 14.3205 15.3815Z" fill="url(#paint6_radial_2521_8378)"/>
</g>
<g filter="url(#filter2_f_2521_8378)">
<path d="M14.3205 15.7091C10.4704 15.7091 7.34925 12.588 7.34925 8.73785C7.34925 4.88774 10.4704 1.7666 14.3205 1.7666C18.1706 1.7666 21.2917 4.88774 21.2917 8.73785C21.2917 12.588 18.1706 15.7091 14.3205 15.7091Z" fill="url(#paint7_linear_2521_8378)"/>
</g>
<g filter="url(#filter3_ii_2521_8378)">
<path d="M14.3207 15.5349C10.5667 15.5349 7.52342 12.4917 7.52342 8.73768C7.52342 4.98366 10.5667 1.94043 14.3207 1.94043C18.0747 1.94043 21.1179 4.98366 21.1179 8.73768C21.1179 12.4917 18.0747 15.5349 14.3207 15.5349Z" fill="#64D0EA"/>
</g>
<path d="M18.4498 7.03387C18.9821 6.60446 18.9849 5.72506 18.4561 5.06967C17.9274 4.41427 17.0672 4.23107 16.535 4.66048C16.0028 5.08989 15.9999 5.96929 16.5287 6.62468C17.0575 7.28007 17.9176 7.46327 18.4498 7.03387Z" fill="url(#paint8_linear_2521_8378)"/>
<defs>
<filter id="filter0_iii_2521_8378" x="0.897461" y="13.145" width="8.875" height="9.0625" filterUnits="userSpaceOnUse" color-interpolation-filters="sRGB">
<feFlood flood-opacity="0" result="BackgroundImageFix"/>
<feBlend mode="normal" in="SourceGraphic" in2="BackgroundImageFix" result="shape"/>
<feColorMatrix in="SourceAlpha" type="matrix" values="0 0 0 0 0 0 0 0 0 0 0 0 0 0 0 0 0 0 127 0" result="hardAlpha"/>
<feOffset dx="-0.75" dy="0.75"/>
<feGaussianBlur stdDeviation="1.125"/>
<feComposite in2="hardAlpha" operator="arithmetic" k2="-1" k3="1"/>
<feColorMatrix type="matrix" values="0 0 0 0 0.4 0 0 0 0 0.239216 0 0 0 0 0.439216 0 0 0 1 0"/>
<feBlend mode="normal" in2="shape" result="effect1_innerShadow_2521_8378"/>
<feColorMatrix in="SourceAlpha" type="matrix" values="0 0 0 0 0 0 0 0 0 0 0 0 0 0 0 0 0 0 127 0" result="hardAlpha"/>
<feOffset dy="-0.1875"/>
<feGaussianBlur stdDeviation="0.28125"/>
<feComposite in2="hardAlpha" operator="arithmetic" k2="-1" k3="1"/>
<feColorMatrix type="matrix" values="0 0 0 0 0.639216 0 0 0 0 0.490196 0 0 0 0 0.643137 0 0 0 1 0"/>
<feBlend mode="normal" in2="effect1_innerShadow_2521_8378" result="effect2_innerShadow_2521_8378"/>
<feColorMatrix in="SourceAlpha" type="matrix" values="0 0 0 0 0 0 0 0 0 0 0 0 0 0 0 0 0 0 127 0" result="hardAlpha"/>
<feOffset dy="0.75"/>
<feGaussianBlur stdDeviation="0.5625"/>
<feComposite in2="hardAlpha" operator="arithmetic" k2="-1" k3="1"/>
<feColorMatrix type="matrix" values="0 0 0 0 0.333333 0 0 0 0 0.27451 0 0 0 0 0.380392 0 0 0 1 0"/>
<feBlend mode="normal" in2="effect2_innerShadow_2521_8378" result="effect3_innerShadow_2521_8378"/>
</filter>
<filter id="filter1_f_2521_8378" x="6.16953" y="0.587012" width="16.3021" height="16.3021" filterUnits="userSpaceOnUse" color-interpolation-filters="sRGB">
<feFlood flood-opacity="0" result="BackgroundImageFix"/>
<feBlend mode="normal" in="SourceGraphic" in2="BackgroundImageFix" result="shape"/>
<feGaussianBlur stdDeviation="0.1125" result="effect1_foregroundBlur_2521_8378"/>
</filter>
<filter id="filter2_f_2521_8378" x="7.19937" y="1.6166" width="14.2424" height="14.2424" filterUnits="userSpaceOnUse" color-interpolation-filters="sRGB">
<feFlood flood-opacity="0" result="BackgroundImageFix"/>
<feBlend mode="normal" in="SourceGraphic" in2="BackgroundImageFix" result="shape"/>
<feGaussianBlur stdDeviation="0.075" result="effect1_foregroundBlur_2521_8378"/>
</filter>
<filter id="filter3_ii_2521_8378" x="7.52344" y="1.82793" width="13.5945" height="14.4572" filterUnits="userSpaceOnUse" color-interpolation-filters="sRGB">
<feFlood flood-opacity="0" result="BackgroundImageFix"/>
<feBlend mode="normal" in="SourceGraphic" in2="BackgroundImageFix" result="shape"/>
<feColorMatrix in="SourceAlpha" type="matrix" values="0 0 0 0 0 0 0 0 0 0 0 0 0 0 0 0 0 0 127 0" result="hardAlpha"/>
<feOffset dy="0.75"/>
<feGaussianBlur stdDeviation="0.75"/>
<feComposite in2="hardAlpha" operator="arithmetic" k2="-1" k3="1"/>
<feColorMatrix type="matrix" values="0 0 0 0 0.168627 0 0 0 0 0.603922 0 0 0 0 0.956863 0 0 0 1 0"/>
<feBlend mode="normal" in2="shape" result="effect1_innerShadow_2521_8378"/>
<feColorMatrix in="SourceAlpha" type="matrix" values="0 0 0 0 0 0 0 0 0 0 0 0 0 0 0 0 0 0 127 0" result="hardAlpha"/>
<feOffset dy="-0.1125"/>
<feGaussianBlur stdDeviation="0.1125"/>
<feComposite in2="hardAlpha" operator="arithmetic" k2="-1" k3="1"/>
<feColorMatrix type="matrix" values="0 0 0 0 0.137255 0 0 0 0 0.607843 0 0 0 0 0.984314 0 0 0 1 0"/>
<feBlend mode="normal" in2="effect1_innerShadow_2521_8378" result="effect2_innerShadow_2521_8378"/>
</filter>
<linearGradient id="paint0_linear_2521_8378" x1="5.109" y1="21.3121" x2="7.33586" y2="14.4916" gradientUnits="userSpaceOnUse">
<stop stop-color="#A0659C"/>
<stop offset="1" stop-color="#895792"/>
</linearGradient>
<linearGradient id="paint1_linear_2521_8378" x1="8.67229" y1="14.4449" x2="6.3924" y2="16.7121" gradientUnits="userSpaceOnUse">
<stop stop-color="#6C3B74"/>
<stop offset="1" stop-color="#845590" stop-opacity="0"/>
</linearGradient>
<linearGradient id="paint2_linear_2521_8378" x1="2.4844" y1="16.5312" x2="5.29674" y2="19.1791" gradientUnits="userSpaceOnUse">
<stop offset="0.115" stop-color="#703D7A"/>
<stop offset="1" stop-color="#703D7A" stop-opacity="0"/>
</linearGradient>
<radialGradient id="paint3_radial_2521_8378" cx="0" cy="0" r="1" gradientUnits="userSpaceOnUse" gradientTransform="translate(9.02358 14.035) rotate(132.558) scale(1.75002 4.06714)">
<stop stop-color="#2F1A3D"/>
<stop offset="1" stop-color="#532D64" stop-opacity="0"/>
</radialGradient>
<linearGradient id="paint4_linear_2521_8378" x1="14.3207" y1="0.628906" x2="14.3207" y2="16.8477" gradientUnits="userSpaceOnUse">
<stop offset="0.379" stop-color="#344A7D"/>
<stop offset="0.633" stop-color="#785790"/>
<stop offset="0.837" stop-color="#785790"/>
<stop offset="1" stop-color="#9872A2"/>
</linearGradient>
<linearGradient id="paint5_linear_2521_8378" x1="14.3205" y1="0.812012" x2="14.3205" y2="16.664" gradientUnits="userSpaceOnUse">
<stop stop-color="#475890"/>
<stop offset="1" stop-color="#7A4D87"/>
</linearGradient>
<radialGradient id="paint6_radial_2521_8378" cx="0" cy="0" r="1" gradientUnits="userSpaceOnUse" gradientTransform="translate(14.3205 4.55451) rotate(-90) scale(3.84375 7.14842)">
<stop offset="0.704" stop-color="#566298"/>
<stop offset="0.787" stop-color="#566298" stop-opacity="0"/>
</radialGradient>
<linearGradient id="paint7_linear_2521_8378" x1="7.34925" y1="8.73785" x2="7.34925" y2="22.6804" gradientUnits="userSpaceOnUse">
<stop stop-color="#204083"/>
<stop offset="1" stop-color="#523573"/>
</linearGradient>
<linearGradient id="paint8_linear_2521_8378" x1="16.535" y1="4.66048" x2="18.4498" y2="7.03387" gradientUnits="userSpaceOnUse">
<stop stop-color="#DCDBF2"/>
<stop offset="0.209" stop-color="#DCDBF2" stop-opacity="0.848"/>
<stop offset="1" stop-color="#DCDBF2" stop-opacity="0"/>
</linearGradient>
</defs>
</svg>
