<svg width="40" height="40" viewBox="0 0 40 40" fill="none" xmlns="http://www.w3.org/2000/svg">
<path d="M19.8927 24.1681C18.4141 21.7593 16.8956 19.4756 15.5813 17.0799C14.644 15.3713 14.904 13.5868 16.1068 12.0401C17.359 10.4299 19.0626 9.81996 21.0416 10.2811C22.9991 10.7372 24.2333 12.0252 24.6896 13.9921C24.9673 15.1891 24.8004 16.3538 24.1516 17.409C22.8158 19.5814 21.4563 21.7393 20.1054 23.9024C20.0666 23.9645 20.0138 24.0179 19.8927 24.1681ZM19.9516 17.1445C21.1221 17.1394 22.0833 16.1747 22.0827 15.0058C22.0821 13.8356 21.1217 12.868 19.9537 12.8609C18.7676 12.8537 17.7888 13.8379 17.7993 15.0271C17.8096 16.1954 18.7797 17.1497 19.9516 17.1445Z" fill="#FBD600"/>
<path d="M8.75555 14.6888C8.40208 14.9719 8.13811 15.1727 7.8861 15.3875C7.4024 15.7998 6.86075 16.1096 6.35408 15.5217C5.80122 14.8802 6.25755 14.3985 6.76836 13.9813C8.28301 12.7443 9.79709 11.5065 11.3106 10.2681C13.6909 8.32406 16.072 6.38095 18.4537 4.43873C19.5201 3.57074 20.4085 3.56552 21.4669 4.42701C25.4751 7.68952 29.483 10.9524 33.4907 14.2155C33.9604 14.5961 34.0128 15.0141 33.7034 15.446C33.3721 15.9086 32.8832 15.891 32.4399 15.5903C32.0566 15.3303 31.7112 15.0144 31.2432 14.6381C30.9135 16.5994 30.6034 18.4306 30.2981 20.2625C29.8305 23.0688 29.3868 25.8793 28.8933 28.6809C28.5728 30.5002 27.3349 31.4965 25.4966 31.5044C24.5812 31.5083 23.6658 31.5051 22.6616 31.5051C22.6616 32.7032 22.6686 33.814 22.6596 34.9246C22.651 35.9906 22.4312 36.2078 21.3866 36.2117C20.4363 36.2152 19.4859 36.219 18.5356 36.2103C17.6551 36.2022 17.3754 35.9356 17.3651 35.068C17.3514 33.926 17.3617 32.7837 17.3617 31.5198C16.4496 31.5198 15.5945 31.5211 14.7394 31.5195C12.6041 31.5155 11.47 30.5915 11.1126 28.4917C10.3777 24.1743 9.66938 19.8525 8.94707 15.533C8.90583 15.2864 8.83706 15.0444 8.75555 14.6888ZM19.9956 29.6795C21.8127 29.6795 23.63 29.6947 25.4469 29.6736C26.4763 29.6616 26.8972 29.2724 27.075 28.2507C27.2759 27.096 27.4698 25.9401 27.6566 24.7829C28.2368 21.2299 28.8273 17.6783 29.3697 14.1195C29.4215 13.7794 29.2797 13.2553 29.0332 13.048C26.1883 10.6557 23.3011 8.31385 20.439 5.94192C20.0611 5.62872 19.7944 5.64393 19.4255 5.94929C16.5405 8.33745 13.6375 10.7039 10.7592 13.1C10.572 13.2559 10.4201 13.6216 10.4583 13.8561C11.2335 18.6211 12.0279 23.383 12.8414 28.1418C13.0432 29.3324 13.4381 29.6688 14.6282 29.6776C16.4172 29.6909 18.2064 29.6811 19.9956 29.6795Z" fill="#317FF2"/>
<path d="M19.9271 28.024C18.8402 28.024 17.7532 28.0156 16.6664 28.0272C16.0203 28.034 15.5314 27.7961 15.5113 27.1118C15.491 26.4194 15.9848 26.1462 16.6205 26.1439C18.85 26.1361 21.0795 26.1359 23.3091 26.1436C23.9442 26.1456 24.4408 26.4148 24.4223 27.1073C24.4041 27.7888 23.9203 28.0343 23.2714 28.0273C22.1567 28.0152 21.0418 28.024 19.9271 28.024Z" fill="#317FF2"/>
</svg>
