<svg width="40" height="40" viewBox="0 0 40 40" fill="none" xmlns="http://www.w3.org/2000/svg">
<path d="M18.5949 14.1773C18.5949 13.6914 18.5908 13.2263 18.5961 12.7613C18.6013 12.3045 18.7376 12.1611 19.1957 12.1564C19.8285 12.1499 20.4614 12.1586 21.0942 12.1633C21.501 12.1663 21.6431 12.3003 21.6566 12.712C21.6671 13.0316 21.6597 13.3518 21.6601 13.6718C21.6603 13.8458 21.6601 14.0198 21.6601 14.1425C22.1587 14.3505 22.6541 14.5028 23.0949 14.7515C24.3148 15.4399 24.638 16.5266 24.5038 17.7792C24.4802 17.9992 24.3363 18.1008 24.1341 18.103C23.4647 18.1103 22.7951 18.1103 22.1256 18.103C21.9034 18.1006 21.7611 17.9398 21.7492 17.7061C21.7414 17.5537 21.7449 17.4007 21.7454 17.248C21.7469 16.7635 21.5445 16.4534 21.0814 16.3281C20.4052 16.1451 19.7173 16.1302 19.0389 16.3219C18.5684 16.4548 18.3918 16.6991 18.3587 17.1865C18.3267 17.6572 18.4804 17.9593 18.929 18.1297C19.7996 18.4606 20.6872 18.7466 21.5602 19.0714C22.1886 19.3052 22.8242 19.5331 23.4211 19.8339C24.0585 20.1552 24.5425 20.6659 24.6464 21.4037C24.7138 21.8819 24.6723 22.3752 24.6823 22.8616C24.6901 23.2359 24.6364 23.5979 24.4771 23.9397C24.1005 24.7472 23.4349 25.2221 22.627 25.5231C22.3173 25.6384 21.9956 25.7214 21.6601 25.825C21.6601 26.2574 21.6634 26.7074 21.6581 27.1573C21.6571 27.2877 21.6419 27.4175 21.6129 27.5446C21.5703 27.7261 21.4448 27.8363 21.2561 27.8379C20.5216 27.8442 19.787 27.8511 19.0527 27.8405C18.7545 27.8363 18.6076 27.6693 18.6032 27.3648C18.5959 26.8646 18.6012 26.3643 18.6012 25.8551C17.9558 25.7461 17.3473 25.5942 16.7902 25.289C16.0491 24.883 15.5007 24.3097 15.3586 23.4513C15.2943 23.0627 15.3152 22.6572 15.3263 22.2602C15.3327 22.0307 15.482 21.9079 15.7154 21.9055C16.3703 21.8989 17.0253 21.8988 17.6803 21.905C17.9154 21.9071 18.047 22.0224 18.0792 22.2524C18.1036 22.4319 18.114 22.613 18.1101 22.7941C18.1034 23.1495 18.2689 23.4021 18.584 23.5295C18.8432 23.6391 19.116 23.7132 19.395 23.75C20.0104 23.819 20.6288 23.8197 21.2235 23.6028C21.7995 23.3927 22.0779 22.7456 21.7977 22.195C21.7107 22.0241 21.52 21.8692 21.3401 21.7891C20.8456 21.5688 20.3335 21.3871 19.8249 21.1993C19.0319 20.9064 18.2282 20.6408 17.4435 20.3276C16.4816 19.9436 15.7741 19.2672 15.6267 18.2227C15.4846 17.2149 15.4859 16.185 16.2487 15.345C16.7766 14.7637 17.4541 14.4582 18.1963 14.267C18.3219 14.2347 18.4495 14.2098 18.5949 14.1773Z" fill="#FBD600" stroke="#21409A" stroke-width="0.5" stroke-miterlimit="10"/>
<path d="M33.1226 18.2526C33.3955 17.9143 33.6118 17.4862 33.9597 17.2666C34.2295 17.0963 34.6636 17.1865 35.0247 17.161C35.0337 17.5245 35.1995 18.0203 35.0241 18.2282C34.3349 19.0451 33.5671 19.8034 32.7718 20.5205C32.2078 21.0291 31.6401 20.7224 31.4997 19.9358C31.2617 18.6025 31.1577 17.2147 30.7031 15.956C29.0463 11.3691 24.4109 8.28396 19.7222 8.50351C14.5212 8.74704 10.3433 11.9886 8.95079 16.8586C8.87925 17.1087 8.85912 17.4283 8.69216 17.5824C8.49036 17.7687 8.12049 17.9448 7.8917 17.8809C7.66796 17.8183 7.45388 17.4701 7.37822 17.2064C7.31481 16.9853 7.44007 16.7004 7.51072 16.4521C9.19985 10.5141 14.5304 6.7378 20.8059 7.02917C26.6783 7.30182 31.7331 11.8337 32.8023 17.7847C32.8212 17.8897 32.8369 17.9953 32.8541 18.1005C32.9436 18.1512 33.0331 18.2019 33.1226 18.2526Z" fill="#317FF2" stroke="#21409A" stroke-width="0.5" stroke-miterlimit="10"/>
<path d="M6.87131 21.7429C6.59974 22.0821 6.38529 22.5114 6.03819 22.7315C5.76939 22.902 5.33466 22.8108 4.9737 22.8359C4.96547 22.4732 4.80124 21.979 4.97655 21.7711C5.66541 20.954 6.43201 20.1947 7.22719 19.4776C7.79 18.97 8.35658 19.2808 8.49799 20.0665C8.74297 21.4275 8.852 22.8453 9.32224 24.1277C10.9819 28.6541 15.6515 31.7308 20.275 31.4956C25.5065 31.2295 29.655 28.0098 31.0459 23.1389C31.1173 22.8888 31.1385 22.5694 31.3057 22.4158C31.5079 22.2301 31.8783 22.055 32.1069 22.1196C32.3306 22.1827 32.5437 22.5313 32.6189 22.7952C32.682 23.0164 32.5567 23.3011 32.4858 23.5494C30.789 29.4915 25.4645 33.2628 19.1902 32.9708C13.3189 32.6975 8.26354 28.1654 7.19449 22.217C7.17551 22.1114 7.1548 22.006 7.13489 21.9005C7.04703 21.848 6.95917 21.7955 6.87131 21.7429Z" fill="#317FF2" stroke="#21409A" stroke-width="0.5" stroke-miterlimit="10"/>
</svg>
