<svg width="40" height="40" viewBox="0 0 40 40" fill="none" xmlns="http://www.w3.org/2000/svg">
<path d="M8.61523 16.1692C9.88251 15.3085 10.791 13.9767 11.2841 12.5263C11.7773 11.076 11.8739 9.51151 11.7269 7.98669L13.6103 8.58929C13.977 8.70659 14.3499 8.82694 14.6651 9.04778C15.1253 9.37006 15.4211 9.87772 15.639 10.3955C16.1543 11.6269 16.3053 12.9803 16.0739 14.295" fill="url(#paint0_linear_2359_69383)"/>
<path d="M8.86657 16.5997C9.35905 16.2662 9.80627 15.8703 10.1971 15.4219C10.5868 14.9736 10.9248 14.4829 11.2046 13.9588C11.4947 13.4114 11.7263 12.8348 11.8956 12.2388C12.0807 11.572 12.1997 10.8886 12.2511 10.1984C12.3018 9.54247 12.3002 8.88353 12.2463 8.22783C12.2399 8.14742 12.2329 8.06706 12.2251 7.98677L11.5941 8.46744C12.2556 8.67906 12.9176 8.88883 13.5784 9.1024C13.7465 9.15675 13.9139 9.21366 14.0768 9.28224L13.9577 9.23199C14.1454 9.30927 14.3226 9.40978 14.4852 9.53116L14.3843 9.45321C14.5358 9.57234 14.6718 9.70982 14.7894 9.86249L14.7115 9.7616C14.9144 10.0342 15.0814 10.3319 15.2083 10.6472L15.1581 10.5281C15.3948 11.0942 15.5559 11.6891 15.6372 12.2973L15.6194 12.1648C15.7009 12.7786 15.7008 13.4005 15.6191 14.0143L15.6369 13.8818C15.6241 13.9757 15.6095 14.0692 15.593 14.1625C15.5723 14.2268 15.5692 14.2954 15.5841 14.3613C15.587 14.4272 15.6074 14.4912 15.6432 14.5466C15.7096 14.6583 15.8162 14.7402 15.9411 14.7757C16.0688 14.8048 16.212 14.7985 16.3253 14.7255C16.4285 14.6589 16.5321 14.5535 16.5543 14.4275C16.7788 13.1991 16.6921 11.934 16.3019 10.7478C16.2025 10.448 16.0835 10.1551 15.9457 9.87098C15.8145 9.60439 15.6539 9.35335 15.4668 9.12256C15.277 8.88749 15.0468 8.68817 14.787 8.53396C14.5129 8.37122 14.2074 8.26023 13.9055 8.16125C13.301 7.96308 12.6938 7.77313 12.088 7.57931L11.8592 7.50609C11.7849 7.485 11.7066 7.48209 11.631 7.49762C11.5554 7.51315 11.4846 7.54666 11.4246 7.59531C11.3103 7.68362 11.2136 7.83434 11.2282 7.98677C11.3 8.70745 11.3098 9.43298 11.2575 10.1553C11.2419 10.3591 11.2205 10.5623 11.1934 10.765L11.2112 10.6325C11.1281 11.2655 10.9801 11.8883 10.7695 12.491C10.7171 12.6389 10.6605 12.7852 10.5996 12.9298L10.6499 12.8108C10.4513 13.2838 10.2064 13.7361 9.91874 14.1609C9.83754 14.2803 9.75285 14.3972 9.66465 14.5115L9.74259 14.4107C9.4002 14.8562 9.00257 15.2564 8.55926 15.6017L8.66015 15.5237C8.56332 15.5983 8.46439 15.67 8.36338 15.7388C8.25329 15.8069 8.17184 15.9128 8.1343 16.0367C8.09982 16.1664 8.11788 16.3044 8.18455 16.4208C8.25054 16.5328 8.3573 16.6149 8.48246 16.6499C8.60812 16.6785 8.75621 16.6748 8.86657 16.5997Z" fill="url(#paint1_linear_2359_69383)"/>
<path d="M19.0939 22.5661C18.8592 23.7678 18.4578 23.9314 18.5634 24.4067C18.6544 24.8162 19.0245 24.9381 20.657 25.7209C23.145 26.914 22.8922 26.9218 23.5688 27.1264C24.647 27.4526 25.1446 27.389 25.5317 27.8944C25.8919 28.3649 25.8683 28.9287 25.843 29.4808C25.6499 33.7016 25.8708 34.0061 25.3722 34.5C24.6582 35.2071 23.5948 35.1873 22.3813 35.1646C21.5417 35.149 20.8469 35.002 18.3935 34.1677C16.2554 33.4405 15.1863 33.0769 14.738 32.8384C12.9874 31.907 11.9357 30.7824 10.7678 29.5336C10.0818 28.8 10.2385 29.5557 7.77498 25.372C7.41098 24.7539 7.05087 24.1084 6.96041 23.3968C6.86995 22.6851 7.11081 21.8848 7.72184 21.5089C7.50953 21.4374 7.32157 21.3077 7.17934 21.1346C7.03712 20.9615 6.94633 20.7519 6.91731 20.5297C6.88829 20.3076 6.92221 20.0818 7.0152 19.8779C7.10819 19.6741 7.25653 19.5004 7.44333 19.3768C7.65949 19.2336 7.92581 19.1574 8.09686 18.9626C8.60724 18.3814 7.85212 17.419 8.17894 16.7179C8.35683 16.3363 8.79543 16.1646 9.19357 16.0278C10.7686 15.4867 12.3435 14.9457 13.9185 14.4046C14.4297 14.2291 14.9588 14.051 15.4975 14.0942C16.7039 14.1909 17.5275 15.3161 18.1813 16.3346C18.5615 16.9266 18.9453 17.5262 19.1716 18.1924C19.398 18.8585 19.4546 19.6088 19.1793 20.2563C19.148 20.3301 19.1026 20.4104 19.0243 20.4277C18.9494 20.4444 18.877 20.3961 18.8154 20.3504C17.9921 19.7394 17.1688 19.1285 16.3455 18.5175C17.1141 19.0541 17.8239 19.6702 18.4631 20.3558C18.7014 20.6114 18.9342 20.8838 19.0585 21.2104C19.2214 21.6385 19.1817 22.1165 19.0939 22.5661Z" fill="url(#paint2_linear_2359_69383)"/>
<path d="M18.6134 22.4335C18.564 22.6916 18.4944 22.9453 18.4053 23.1925C18.3908 23.2318 18.3757 23.2709 18.36 23.3098C18.3462 23.3442 18.307 23.4289 18.3747 23.2767C18.3658 23.2966 18.3574 23.3168 18.3486 23.3369C18.3174 23.4076 18.2844 23.4775 18.252 23.5477C18.1002 23.8764 17.9984 24.1835 18.0851 24.5486C18.2188 25.1119 18.7938 25.3765 19.2664 25.6073C20.1565 26.0421 21.0566 26.4553 21.9378 26.9083C22.2693 27.0788 22.5934 27.2728 22.9352 27.4223C23.5039 27.6711 24.118 27.7569 24.7093 27.9333C24.7506 27.9456 24.7916 27.9587 24.8321 27.9732C24.8515 27.9802 24.8706 27.9883 24.8901 27.995C24.9594 28.019 24.8217 27.9671 24.8268 27.9681C24.8808 27.979 25.0148 28.0478 25.0468 28.0935C25.0505 28.0988 24.9395 28.0022 24.9923 28.0515C25.0068 28.065 25.0227 28.0771 25.0374 28.0906C25.0678 28.1185 25.0967 28.1481 25.1239 28.1792C25.1382 28.1954 25.1509 28.2137 25.1657 28.2293C25.1548 28.2178 25.0957 28.1265 25.1445 28.2053C25.1633 28.2358 25.1839 28.2649 25.2019 28.2959C25.216 28.3201 25.2699 28.3919 25.2661 28.4198L25.243 28.3638C25.2514 28.3849 25.2595 28.4062 25.267 28.4276C25.2764 28.4543 25.2849 28.4812 25.2929 28.5084C25.3102 28.5679 25.3245 28.6282 25.3356 28.6892L25.3414 28.7225C25.3498 28.7777 25.3486 28.767 25.3378 28.6906C25.3468 28.696 25.3469 28.7805 25.3478 28.7921C25.3531 28.8604 25.3559 28.9289 25.3569 28.9973C25.3614 29.2934 25.3393 29.5903 25.3269 29.886C25.289 30.7867 25.2657 31.6876 25.2468 32.5888C25.2413 32.8486 25.2365 33.1085 25.2248 33.3681C25.2206 33.4603 25.2155 33.5526 25.2078 33.6446C25.2047 33.6821 25.2012 33.7196 25.1971 33.757C25.195 33.7758 25.1923 33.7946 25.1903 33.8135C25.213 33.6011 25.207 33.6934 25.1993 33.7429C25.1901 33.8049 25.1773 33.8662 25.1609 33.9267C25.1541 33.9509 25.1467 33.975 25.1383 33.9986C25.1343 34.0099 25.1296 34.021 25.1256 34.0322C25.1052 34.0905 25.1976 33.8763 25.1571 33.9568C25.1368 33.9989 25.1136 34.0396 25.0877 34.0785C25.0808 34.0885 25.0732 34.0981 25.0663 34.1082C25.0401 34.1468 25.1745 33.9756 25.1176 34.0413C25.1008 34.0607 25.0844 34.0803 25.067 34.0991C25.0448 34.1229 25.0218 34.146 24.9984 34.1685C24.9591 34.2062 24.9175 34.2408 24.8763 34.2763C24.8246 34.3208 24.9799 34.2031 24.8963 34.2606C24.8645 34.2824 24.8334 34.305 24.8009 34.3258C24.7137 34.3817 24.6062 34.4161 24.5229 34.4749C24.621 34.4056 24.5838 34.4501 24.5354 34.4688C24.5083 34.4792 24.4811 34.4891 24.4536 34.4985C24.3982 34.5177 24.3421 34.5349 24.2855 34.5502C24.169 34.5817 24.0509 34.6067 23.9317 34.6253C23.9114 34.6285 23.8907 34.6307 23.8706 34.6345C24.0197 34.6065 23.9127 34.6288 23.8791 34.6327C23.8052 34.6412 23.731 34.648 23.6567 34.6534C23.3989 34.6723 23.1402 34.6752 22.8818 34.6735C22.5665 34.6714 22.2494 34.6718 21.9352 34.6421C21.8838 34.6372 21.8326 34.6313 21.7814 34.6252C21.6798 34.6131 21.9389 34.6476 21.8128 34.6294C21.783 34.6251 21.7532 34.6206 21.7235 34.6158C21.599 34.5958 21.4753 34.5718 21.3521 34.545C20.535 34.367 19.7373 34.094 18.9456 33.8286C17.9721 33.5023 16.9983 33.1745 16.032 32.8273C15.7577 32.7288 15.4845 32.6276 15.2151 32.5166C15.1593 32.4936 15.36 32.5792 15.2574 32.5343C15.2337 32.5239 15.21 32.5137 15.1864 32.5031C15.1444 32.4842 15.1026 32.4648 15.0612 32.4445C14.863 32.3468 14.671 32.2344 14.4816 32.1209C14.2424 31.9776 14.0089 31.8254 13.781 31.6643C13.6787 31.5919 13.5776 31.5178 13.4778 31.442C13.4551 31.4248 13.3591 31.3643 13.4718 31.4378C13.4442 31.4198 13.4185 31.3962 13.3927 31.3758C13.3406 31.3345 13.2888 31.2927 13.2373 31.2505C12.8452 30.9259 12.4696 30.5818 12.1121 30.2195C11.768 29.8742 11.4386 29.5154 11.1028 29.1623C11.0291 29.0845 10.9513 29.0105 10.8699 28.9407C10.7306 28.8219 10.5849 28.7128 10.4572 28.5808C10.3605 28.4808 10.2725 28.3733 10.1862 28.2642C10.1652 28.2377 10.2847 28.393 10.2143 28.3004C10.2006 28.2823 10.1869 28.2641 10.1733 28.2458C10.1395 28.2005 10.1062 28.1549 10.0733 28.1089C10.0013 28.0086 9.93089 27.9072 9.86195 27.8047C9.39215 27.1102 8.95989 26.3899 8.53086 25.6698C8.37026 25.4002 8.20876 25.131 8.05327 24.8584C7.98423 24.7374 7.91678 24.6154 7.85271 24.4917C7.82073 24.43 7.78966 24.3678 7.75949 24.3051C7.74583 24.2767 7.73239 24.2481 7.71917 24.2195C7.70875 24.1969 7.63863 24.0423 7.69347 24.1657C7.63865 24.0392 7.59166 23.9095 7.55277 23.7772C7.531 23.7055 7.51159 23.6331 7.49454 23.5601C7.48899 23.5362 7.47202 23.3491 7.45175 23.3389L7.45905 23.3968C7.45654 23.377 7.45428 23.3571 7.45228 23.3373C7.44927 23.3074 7.44685 23.2774 7.44501 23.2474C7.44131 23.1871 7.43995 23.1267 7.44093 23.0662C7.44174 23.0157 7.44418 22.9652 7.44826 22.9148C7.45331 22.8849 7.45636 22.8546 7.45737 22.8243C7.4458 22.9066 7.44409 22.9208 7.45223 22.8667C7.45544 22.8468 7.45892 22.8269 7.46266 22.8071C7.48301 22.6985 7.51176 22.5917 7.54866 22.4875C7.56131 22.4604 7.57199 22.4325 7.58059 22.4038C7.56071 22.5103 7.55102 22.4726 7.57228 22.4277C7.59545 22.3787 7.62076 22.3309 7.64819 22.2841C7.67532 22.2381 7.72762 22.1865 7.74531 22.1373C7.71556 22.2201 7.69261 22.2033 7.73099 22.1581C7.74674 22.1395 7.7629 22.1213 7.77948 22.1035C7.81966 22.0605 7.86324 22.0221 7.90672 21.9826C7.98486 21.9116 7.81023 22.0462 7.89914 21.9885C7.9241 21.9723 7.94839 21.9552 7.97359 21.9393C8.05734 21.8887 8.12448 21.8148 8.16676 21.7265C8.20903 21.6383 8.22461 21.5396 8.21158 21.4427C8.18414 21.2385 8.04557 21.0956 7.85452 21.0282C7.83635 21.0192 7.81727 21.0122 7.79761 21.0073C7.85489 21.0046 7.88511 21.048 7.83378 21.0205C7.79815 21.0014 7.76255 20.9829 7.72835 20.9612C7.71127 20.9504 7.69503 20.9384 7.67803 20.9276C7.59098 20.8719 7.74455 20.9872 7.69513 20.9407C7.66193 20.9094 7.62737 20.8804 7.59589 20.8472C7.58198 20.8325 7.56912 20.8169 7.55518 20.8022C7.49914 20.7435 7.5706 20.8216 7.57623 20.8322C7.55759 20.7972 7.52921 20.7657 7.50866 20.7315C7.48776 20.6968 7.47016 20.6607 7.45127 20.6249C7.41136 20.5492 7.46803 20.652 7.46563 20.6605C7.47029 20.6439 7.44219 20.5947 7.43622 20.5747C7.42462 20.5359 7.41698 20.4965 7.40765 20.4571C7.38836 20.3757 7.41368 20.4881 7.41236 20.4989C7.41229 20.4782 7.41076 20.4575 7.40779 20.4371C7.4059 20.3958 7.40623 20.3545 7.40879 20.3133C7.41271 20.2929 7.41454 20.2723 7.41423 20.2516C7.40321 20.3277 7.40108 20.3464 7.40782 20.3075C7.41044 20.2923 7.41345 20.2771 7.41685 20.2619C7.42571 20.2216 7.43662 20.1816 7.44955 20.1424C7.45789 20.1234 7.46484 20.1039 7.47034 20.0839C7.48099 20.1045 7.42482 20.181 7.45662 20.1174C7.47514 20.0803 7.49363 20.0435 7.51497 20.0079C7.52559 19.9902 7.53664 19.9726 7.54813 19.9555C7.55669 19.9425 7.56557 19.9298 7.57477 19.9174C7.59677 19.8872 7.58656 19.9004 7.54413 19.9569C7.55372 19.9582 7.61652 19.8768 7.62779 19.8657C7.66174 19.8323 7.75664 19.7775 7.64433 19.8429C7.72814 19.7941 7.80669 19.7392 7.89342 19.6944C8.08408 19.5959 8.27628 19.4954 8.42763 19.3388C8.702 19.055 8.80783 18.6609 8.77053 18.2737C8.75058 18.0848 8.71998 17.8971 8.67889 17.7116C8.66337 17.6383 8.64742 17.5652 8.63284 17.4917C8.62467 17.4506 8.61682 17.4094 8.60975 17.368C8.60663 17.3498 8.60392 17.3315 8.6008 17.3132C8.58596 17.2266 8.61075 17.4129 8.60558 17.3503C8.59966 17.2786 8.59205 17.2077 8.59244 17.1356C8.59263 17.1005 8.59676 17.0656 8.59715 17.0306C8.59787 16.9646 8.57077 17.1662 8.59094 17.073C8.5955 17.0519 8.59907 17.0307 8.60421 17.0098C8.61248 16.976 8.62516 16.9441 8.63459 16.9108C8.65128 16.8518 8.58352 17.013 8.6161 16.956C8.62591 16.9389 8.63414 16.9207 8.6441 16.9036C8.65395 16.8867 8.66564 16.8708 8.67541 16.8539C8.7069 16.7995 8.60764 16.9313 8.65019 16.8851C8.67994 16.8528 8.70834 16.8203 8.74088 16.7906C8.75699 16.7794 8.77185 16.7666 8.78522 16.7522C8.76237 16.8055 8.70485 16.8111 8.76711 16.768C8.80003 16.7452 8.83388 16.724 8.86848 16.7038C8.93911 16.6628 9.03798 16.6373 9.10118 16.5881C9.03537 16.6394 9.02351 16.6199 9.06769 16.6029C9.08688 16.5955 9.10597 16.5878 9.1252 16.5805C9.16817 16.5642 9.21141 16.5486 9.25477 16.5333C9.35775 16.497 9.46122 16.4621 9.56448 16.4266C10.0145 16.272 10.4645 16.1174 10.9145 15.9628C11.8145 15.6537 12.7144 15.3445 13.6144 15.0353C14.0403 14.889 14.4658 14.7237 14.9076 14.631C14.9591 14.6202 15.0111 14.6128 15.0626 14.6022C15.135 14.5874 14.9734 14.6108 15.0468 14.6037C15.0794 14.6005 15.1118 14.5965 15.1444 14.5938C15.2554 14.5846 15.3669 14.5838 15.478 14.5913C15.4964 14.5926 15.6446 14.6048 15.5527 14.5973C15.4621 14.5899 15.6009 14.6074 15.62 14.6114C15.7072 14.6295 15.7931 14.6531 15.8773 14.6821C15.9146 14.6948 15.951 14.7093 15.9878 14.7233C16.0478 14.7462 15.892 14.6798 15.9499 14.7077C15.9676 14.7162 15.9857 14.724 16.0034 14.7325C16.0833 14.771 16.1612 14.8137 16.2368 14.8603C16.3046 14.9021 16.3707 14.9466 16.4349 14.994C16.5323 15.0657 16.359 14.9319 16.4535 15.0083C16.489 15.0371 16.524 15.0665 16.5584 15.0966C16.6903 15.2127 16.8152 15.3366 16.9325 15.4676C16.9888 15.5301 17.0437 15.5938 17.0973 15.6587C17.1276 15.6954 17.1575 15.7324 17.187 15.7698C17.2053 15.7929 17.2178 15.8405 17.1969 15.782C17.171 15.7482 17.1709 15.7482 17.1967 15.7819L17.216 15.8073C17.4366 16.0999 17.6366 16.4069 17.834 16.7155C18.0686 17.082 18.2997 17.4522 18.4911 17.8435C18.5135 17.8894 18.5354 17.9355 18.5566 17.9819C18.5701 18.0115 18.6353 18.1485 18.5828 18.0382C18.6295 18.1429 18.6696 18.2503 18.7029 18.36C18.7339 18.4542 18.7613 18.5495 18.785 18.646C18.8098 18.7469 18.8519 18.8708 18.8497 18.9752C18.85 18.962 18.8372 18.8598 18.8463 18.9535C18.8487 18.9782 18.8516 19.0028 18.8538 19.0276C18.8582 19.0769 18.8614 19.1263 18.8635 19.1757C18.8679 19.2804 18.8666 19.3852 18.8595 19.4897C18.8578 19.5142 18.8558 19.5387 18.8534 19.5631C18.8498 19.6009 18.8607 19.6749 18.8558 19.5583C18.8527 19.6073 18.8441 19.6558 18.8301 19.7029C18.8088 19.8049 18.7807 19.9052 18.7457 20.0034C18.7375 20.0265 18.7281 20.0493 18.7198 20.0724C18.6959 20.1387 18.7646 19.9934 18.7296 20.0463L18.7226 20.0602C18.7002 20.0958 18.7017 20.0957 18.727 20.0598L18.7472 20.0328C18.8762 19.9226 19.011 19.9033 19.1517 19.9748C19.1141 19.9454 19.0746 19.9187 19.0333 19.8948C18.9825 19.8573 18.9318 19.8196 18.8811 19.7819C18.6894 19.6396 18.4976 19.4973 18.3059 19.355C17.9281 19.0746 17.5503 18.7943 17.1725 18.5139L16.5973 18.0871L16.0941 18.9479C16.2289 19.0423 16.362 19.1389 16.4935 19.2378C16.5234 19.2604 16.5563 19.2817 16.5841 19.3068C16.5725 19.2964 16.5016 19.2423 16.5732 19.2987C16.5881 19.3104 16.6031 19.3221 16.618 19.3338C16.6826 19.3848 16.7467 19.4363 16.8103 19.4885C17.0648 19.697 17.3114 19.9147 17.55 20.1417C17.7861 20.3663 18.0166 20.5984 18.233 20.8421C18.2853 20.901 18.3354 20.9615 18.3852 21.0226C18.4214 21.067 18.3619 20.9943 18.3625 20.9935C18.3616 20.9947 18.3921 21.0341 18.3944 21.0373C18.4224 21.0765 18.4491 21.1164 18.4747 21.1572C18.513 21.2185 18.543 21.2835 18.5786 21.3461C18.6055 21.3935 18.5629 21.3146 18.5647 21.3093C18.5623 21.3166 18.5817 21.353 18.5845 21.3608C18.602 21.4083 18.617 21.4566 18.6298 21.5056C18.641 21.5484 18.6493 21.5916 18.6583 21.6348C18.6609 21.6474 18.6683 21.711 18.6609 21.6433C18.6531 21.5719 18.6618 21.6576 18.663 21.6711C18.6713 21.766 18.6739 21.8614 18.6706 21.9566C18.6678 22.0464 18.6596 22.1355 18.65 22.2247C18.6414 22.3051 18.6585 22.2106 18.6526 22.2067C18.651 22.2324 18.647 22.2578 18.6407 22.2827C18.6324 22.3331 18.623 22.3833 18.6134 22.4335C18.5644 22.6888 18.6849 22.9837 18.9616 23.0467C19.2076 23.1027 19.5222 22.9724 19.5748 22.6985C19.6553 22.2787 19.6934 21.8687 19.6315 21.4445C19.5718 21.0354 19.3737 20.6823 19.1236 20.3605C18.6968 19.8113 18.1636 19.3262 17.6322 18.8804C17.2992 18.6011 16.9542 18.3367 16.5973 18.0871C16.383 17.9371 16.034 18.0412 15.9153 18.2659C15.7775 18.5266 15.8697 18.7814 16.0941 18.9479C16.9169 19.5585 17.73 20.1856 18.564 20.7808C18.9035 21.0231 19.3438 20.9461 19.5677 20.59C19.6931 20.3906 19.7644 20.1268 19.8053 19.8959C19.8929 19.3861 19.8713 18.8636 19.7419 18.3628C19.5146 17.4555 18.9856 16.6464 18.4765 15.8747C18.0273 15.1936 17.5237 14.5259 16.8401 14.0641C16.5142 13.8393 16.1424 13.6899 15.7516 13.6268C15.2235 13.5501 14.7085 13.6297 14.2013 13.7864C13.7214 13.9347 13.2486 14.1086 12.7737 14.2718C12.2906 14.4377 11.8075 14.6037 11.3244 14.7696C10.848 14.9333 10.3715 15.097 9.89503 15.2606C9.44267 15.416 8.97704 15.5524 8.54167 15.7522C8.12821 15.9421 7.77343 16.2706 7.64935 16.7197C7.54112 17.1116 7.62038 17.5199 7.70293 17.908C7.71937 17.9853 7.7361 18.0625 7.75099 18.1401C7.7587 18.1804 7.76603 18.2207 7.77246 18.2611C7.77526 18.2787 7.77721 18.2967 7.78044 18.3143C7.75157 18.1574 7.77148 18.2493 7.77484 18.2868C7.78069 18.3626 7.78174 18.4388 7.77799 18.5148C7.77652 18.5555 7.7528 18.5839 7.78738 18.4552C7.7833 18.4704 7.78197 18.4873 7.77866 18.5028C7.77031 18.542 7.75275 18.5794 7.74476 18.6181C7.76855 18.5028 7.78611 18.532 7.75982 18.5762C7.75146 18.5903 7.74313 18.6046 7.73517 18.6189C7.70517 18.6728 7.68789 18.6376 7.76146 18.5902C7.74732 18.6036 7.73435 18.6182 7.72268 18.6339C7.70771 18.6494 7.69159 18.663 7.67622 18.678C7.6087 18.7438 7.69826 18.6537 7.70155 18.6589C7.70404 18.6629 7.57587 18.7367 7.5642 18.7431C7.35827 18.8568 7.16049 18.9534 6.9799 19.1084C6.62147 19.4161 6.41347 19.9065 6.40967 20.3751C6.41054 20.6084 6.45951 20.8389 6.5535 21.0524C6.64749 21.2658 6.78449 21.4576 6.95594 21.6157C7.13937 21.7823 7.35499 21.9096 7.58949 21.9896L7.47041 21.0785C6.98059 21.3871 6.64995 21.8921 6.51996 22.4533C6.38628 23.0303 6.44439 23.6281 6.6379 24.1849C6.8504 24.7963 7.18325 25.3517 7.51145 25.906C7.78207 26.363 8.05528 26.8185 8.3348 27.2701C8.65725 27.7911 8.98249 28.3152 9.3535 28.8036C9.53175 29.0382 9.71398 29.2698 9.93978 29.4608C10.0911 29.5809 10.2364 29.7086 10.3749 29.8433C11.0455 30.5368 11.6894 31.25 12.4306 31.8712C12.8747 32.246 13.3451 32.5885 13.8381 32.8963C14.1348 33.087 14.4451 33.2555 14.7666 33.4005C15.4489 33.6945 16.1565 33.9289 16.8586 34.17C17.9128 34.532 18.9656 34.9033 20.033 35.2248C20.643 35.4086 21.2586 35.5698 21.8938 35.6349C22.1869 35.665 22.4819 35.6662 22.7762 35.6695C23.3298 35.6757 23.893 35.6657 24.4351 35.5406C24.9213 35.4284 25.3871 35.1953 25.7395 34.8378C25.8386 34.7405 25.924 34.63 25.993 34.5095C26.161 34.2026 26.1938 33.8509 26.2145 33.5078C26.2502 32.9143 26.2481 32.3181 26.2627 31.7239C26.2749 31.2257 26.2907 30.7276 26.3099 30.2296C26.3336 29.6215 26.412 28.9931 26.2905 28.391C26.1892 27.8889 25.8777 27.3964 25.4185 27.1504C25.0384 26.9466 24.6026 26.8823 24.1891 26.7795C23.9293 26.7192 23.6733 26.6436 23.4225 26.553C23.3969 26.5433 23.3718 26.5327 23.3463 26.5227C23.558 26.6057 23.4224 26.5551 23.371 26.5312C23.3126 26.504 23.2553 26.4749 23.1982 26.4452C22.6717 26.1719 22.1479 25.895 21.6154 25.6333C21.0928 25.3764 20.5661 25.128 20.0406 24.8771C19.7435 24.7352 19.4351 24.5994 19.16 24.4167C19.1375 24.4018 19.116 24.3854 19.0936 24.3704C19.0366 24.332 19.2059 24.4623 19.1549 24.418C19.146 24.4103 19.1366 24.4031 19.1276 24.3954C19.0949 24.3674 19.0676 24.3353 19.0372 24.3051C19.0111 24.2792 19.1281 24.4412 19.0749 24.352C19.0669 24.3388 19.0585 24.3259 19.0511 24.3123C19.0233 24.2608 19.0276 24.2036 19.0742 24.3732C19.0685 24.3524 19.0594 24.3323 19.0536 24.3114C19.0487 24.294 19.0452 24.2762 19.041 24.2586C19.0165 24.1563 19.0517 24.4128 19.0455 24.2876C19.0441 24.2598 19.0474 24.2322 19.0469 24.2045C19.0456 24.1348 19.0223 24.3435 19.0348 24.29C19.0384 24.2746 19.0404 24.2588 19.0439 24.2433C19.0578 24.1879 19.0757 24.1336 19.0973 24.0807C19.1175 24.0275 19.0334 24.2266 19.0846 24.1127C19.1012 24.0756 19.1184 24.0389 19.1355 24.0021C19.3337 23.5868 19.4812 23.1491 19.5748 22.6985C19.6254 22.4436 19.5021 22.1481 19.2266 22.0854C18.9791 22.029 18.6677 22.16 18.6134 22.4335Z" fill="url(#paint3_linear_2359_69383)"/>
<path d="M15.3608 21.9773L16.9682 22.639C17.5607 22.8829 18.2104 23.1781 18.4293 23.6887C18.573 24.0239 18.4962 24.3844 18.4005 24.7209C18.2702 25.1786 18.1088 25.6269 17.9174 26.0626C17.8003 26.3292 17.6669 26.5986 17.4301 26.8014C17.1239 27.0638 16.6813 27.1852 16.2556 27.2982C16.0422 27.3548 15.8203 27.4122 15.593 27.3885C15.2997 27.358 15.0459 27.1989 14.8091 27.0458L13.1509 25.9739" fill="url(#paint4_linear_2359_69383)"/>
<path d="M15.2285 22.4579C15.8088 22.6968 16.391 22.9315 16.9693 23.1751L16.8502 23.1249C17.166 23.2584 17.483 23.4035 17.757 23.6124L17.6561 23.5344C17.7638 23.6157 17.8606 23.7105 17.9443 23.8163L17.8663 23.7154C17.9193 23.7849 17.9639 23.8603 17.9991 23.9402L17.9488 23.8212C17.9834 23.9042 18.0069 23.9915 18.0189 24.0806L18.0011 23.9481C18.0141 24.0636 18.0127 24.1803 17.9969 24.2954L18.0147 24.1629C17.977 24.4395 17.8886 24.71 17.802 24.9745C17.7125 25.2483 17.6117 25.518 17.4998 25.7836L17.5501 25.6646C17.45 25.9017 17.3468 26.1412 17.1902 26.3475L17.2682 26.2466C17.1969 26.3393 17.1141 26.4225 17.0218 26.4942L17.1227 26.4163C16.9989 26.5074 16.8643 26.5829 16.7219 26.641L16.841 26.5908C16.6716 26.6591 16.4981 26.7169 16.3216 26.7639C16.1325 26.822 15.9398 26.8677 15.7447 26.9007L15.8772 26.8829C15.7725 26.8976 15.6663 26.8987 15.5613 26.8862L15.6939 26.904C15.5898 26.8881 15.4881 26.8593 15.3913 26.8181L15.5104 26.8683C15.2316 26.7491 14.9812 26.5638 14.7277 26.3999L13.8831 25.854L13.4027 25.5434C13.3462 25.5104 13.2837 25.4888 13.2188 25.4799C13.154 25.471 13.088 25.4749 13.0246 25.4915C12.9613 25.5081 12.9019 25.5371 12.8497 25.5767C12.7975 25.6162 12.7537 25.6657 12.7207 25.7222C12.6595 25.8379 12.6289 25.9781 12.6704 26.1064C12.7087 26.2298 12.79 26.3355 12.8995 26.4043L13.9998 27.1155C14.3698 27.3547 14.7302 27.6199 15.1408 27.7854C15.2283 27.8216 15.3196 27.8476 15.413 27.863C15.5544 27.8894 15.6988 27.8966 15.8421 27.8842C16.0785 27.8538 16.3121 27.8049 16.5408 27.7379C16.7231 27.6906 16.9024 27.6324 17.0777 27.5638C17.1955 27.5182 17.3106 27.4661 17.4226 27.4077C17.5295 27.3468 17.6313 27.277 17.7267 27.1992C18.0468 26.9496 18.2343 26.5818 18.3902 26.2166C18.5721 25.7972 18.7288 25.3672 18.8595 24.9292C18.9293 24.701 18.9768 24.4665 19.0013 24.2291C19.0105 24.1133 19.0064 23.9968 18.9892 23.8819C18.9819 23.8156 18.9704 23.7498 18.9547 23.6849C18.9289 23.598 18.8964 23.5132 18.8574 23.4314C18.7771 23.2614 18.6665 23.1075 18.531 22.9772C18.3886 22.8389 18.2309 22.7173 18.0609 22.6147C17.7306 22.4099 17.365 22.267 17.0069 22.1196L15.7928 21.6197L15.4936 21.4966C15.4293 21.4759 15.3607 21.4728 15.2948 21.4876C15.2288 21.4905 15.1649 21.5109 15.1095 21.5468C14.9978 21.6132 14.9159 21.7198 14.8804 21.8447C14.8513 21.9723 14.8576 22.1155 14.9306 22.2288L15.0086 22.3297C15.0695 22.3908 15.1453 22.4349 15.2285 22.4579Z" fill="url(#paint5_linear_2359_69383)"/>
<path d="M10.9172 15.7538C10.986 16.262 10.9507 16.7788 10.8134 17.2729C10.7658 17.4442 10.7056 17.6162 10.7108 17.7931C10.7159 17.97 10.8025 18.1581 10.9741 18.2329C11.0699 18.2748 11.1794 18.2767 11.2851 18.278C11.5407 18.2809 11.799 18.2836 12.0485 18.2317C12.4287 18.1527 12.8098 17.948 13.1835 18.0508C13.329 18.0908 13.4711 18.1772 13.6199 18.1493C13.8173 18.1123 13.9117 17.8851 13.8762 17.6998C13.8406 17.5146 13.7168 17.3567 13.6232 17.1901C13.485 16.9411 13.411 16.6615 13.4081 16.3768C13.4052 16.092 13.4734 15.811 13.6064 15.5592C13.6862 15.4103 13.7918 15.2567 13.7673 15.0917C13.7411 14.915 13.5646 14.7834 13.3783 14.7442C13.1921 14.705 12.9979 14.7397 12.8123 14.7813C12.3224 14.891 11.8446 15.0491 11.386 15.2533C11.1416 15.3623 10.8648 15.5564 10.9216 15.8038" fill="url(#paint6_linear_2359_69383)"/>
<path d="M10.4188 15.7537C10.4638 16.0916 10.4637 16.434 10.4182 16.7719L10.436 16.6394C10.4184 16.7676 10.3943 16.8948 10.364 17.0206C10.3352 17.139 10.2973 17.2549 10.2678 17.3732C10.189 17.6895 10.1829 18.0391 10.3627 18.3248C10.4486 18.4691 10.5733 18.5863 10.7225 18.6633C10.8466 18.7225 10.9805 18.758 11.1176 18.7681C11.1793 18.7749 11.241 18.7758 11.303 18.7765C11.5948 18.7799 11.885 18.7723 12.1723 18.7141C12.4354 18.6608 12.6842 18.5511 12.9508 18.5135L12.8183 18.5313C12.9079 18.5189 12.9988 18.5182 13.0886 18.5294L12.9561 18.5116C13.031 18.5247 13.1044 18.5454 13.1751 18.5733C13.2616 18.6058 13.3516 18.6285 13.4432 18.6408C13.5658 18.6618 13.6916 18.6522 13.8096 18.6129C13.8726 18.5924 13.9327 18.5641 13.9886 18.5286C14.0436 18.4932 14.0943 18.4514 14.1396 18.4042C14.2918 18.2342 14.3778 18.0151 14.3819 17.7869C14.3858 17.5778 14.306 17.3727 14.2057 17.1931C14.1274 17.0528 14.0365 16.922 13.9729 16.7737L14.0231 16.8928C13.9646 16.7526 13.9245 16.6054 13.9039 16.4549L13.9217 16.5874C13.9023 16.4373 13.9021 16.2853 13.921 16.1351L13.9032 16.2676C13.9234 16.1171 13.9631 15.9698 14.0213 15.8296L13.9711 15.9486C13.9987 15.8847 14.0297 15.8223 14.0638 15.7617C14.1188 15.6631 14.1675 15.5612 14.2097 15.4566C14.2545 15.3408 14.2736 15.2166 14.2658 15.0927C14.258 14.9687 14.2235 14.848 14.1645 14.7387C14.1314 14.6817 14.0927 14.6283 14.0487 14.5792C14.0296 14.5555 14.0084 14.5336 13.9854 14.5138C13.9105 14.4456 13.8259 14.389 13.7344 14.3458C13.6728 14.3165 13.6092 14.2917 13.544 14.2714C13.4699 14.2541 13.3947 14.2421 13.3189 14.2356C13.2417 14.2268 13.1637 14.2265 13.0865 14.2347C12.7321 14.2704 12.3827 14.3648 12.0439 14.4722C11.8956 14.5193 11.7489 14.5708 11.6037 14.6269C11.4273 14.6951 11.2497 14.7649 11.0799 14.8483C10.923 14.9267 10.7804 15.031 10.6581 15.1568C10.5656 15.2591 10.4948 15.3792 10.4501 15.5096C10.4296 15.5782 10.4182 15.6492 10.4162 15.7207C10.4149 15.7933 10.4233 15.8658 10.4409 15.9362C10.4655 16.0542 10.5686 16.1748 10.67 16.2341C10.7265 16.2672 10.789 16.2888 10.8539 16.2977C10.9188 16.3066 10.9847 16.3026 11.0481 16.286C11.1114 16.2694 11.1709 16.2405 11.223 16.2009C11.2752 16.1613 11.319 16.1118 11.352 16.0553C11.415 15.9377 11.4329 15.8011 11.4023 15.6712C11.4004 15.6632 11.3989 15.6551 11.3978 15.647L11.4156 15.7795C11.4121 15.7524 11.4121 15.7249 11.4156 15.6978L11.3978 15.8303C11.4022 15.8038 11.4096 15.7779 11.4199 15.7531L11.3696 15.8722C11.3845 15.8395 11.4031 15.8086 11.4251 15.7801L11.3472 15.881C11.3828 15.8374 11.4233 15.798 11.4679 15.7635L11.367 15.8415C11.4947 15.751 11.6334 15.6772 11.7798 15.622L11.6608 15.6722C11.9024 15.5706 12.1491 15.4816 12.3999 15.4054C12.6506 15.3241 12.9071 15.2621 13.1672 15.22L13.0347 15.2378C13.1317 15.2238 13.2301 15.2224 13.3274 15.2337L13.1949 15.2159C13.2481 15.2235 13.3002 15.2373 13.3503 15.2569L13.2312 15.2066C13.2771 15.2259 13.3205 15.2505 13.3606 15.28L13.2597 15.2021C13.2908 15.2261 13.319 15.2537 13.3438 15.2841L13.2658 15.1833C13.2864 15.2101 13.3035 15.2393 13.3169 15.2703L13.2667 15.1513C13.2758 15.1748 13.2825 15.1992 13.2867 15.2241L13.2689 15.0916C13.2726 15.122 13.273 15.1528 13.2699 15.1832L13.2877 15.0507C13.2802 15.1017 13.2659 15.1515 13.2453 15.1989L13.2956 15.0798C13.2621 15.156 13.2193 15.2273 13.1798 15.3005C13.1253 15.4041 13.0778 15.5112 13.0374 15.6211C12.9719 15.8062 12.9315 15.9994 12.9173 16.1952C12.8801 16.5872 12.9716 16.979 13.1369 17.3326C13.2135 17.4967 13.3269 17.6406 13.4 17.8064L13.3497 17.6873C13.3732 17.741 13.3899 17.7973 13.3992 17.8551L13.3814 17.7226C13.386 17.7616 13.3858 17.8011 13.3808 17.84L13.3987 17.7075C13.3928 17.7465 13.3823 17.7847 13.3673 17.8211L13.4175 17.7021C13.405 17.7304 13.3894 17.7573 13.3711 17.7823L13.4491 17.6815C13.4327 17.7025 13.4141 17.7217 13.3936 17.7388L13.4944 17.6608C13.4732 17.6772 13.4501 17.691 13.4255 17.7018L13.5446 17.6515C13.521 17.6607 13.4965 17.6673 13.4715 17.6711L13.604 17.6533C13.5725 17.6567 13.5408 17.6565 13.5094 17.6527L13.6419 17.6705C13.5045 17.65 13.3817 17.578 13.2449 17.5541C13.1412 17.5333 13.0356 17.5235 12.9299 17.5246C12.821 17.5299 12.7127 17.5435 12.606 17.5653C12.3249 17.6191 12.0606 17.7357 11.7759 17.7746L11.9084 17.7568C11.7727 17.773 11.6362 17.781 11.4995 17.7806C11.3666 17.7859 11.2335 17.782 11.1011 17.7689L11.2336 17.7867C11.1901 17.7802 11.1475 17.7686 11.1066 17.7522L11.2257 17.8024C11.1979 17.7897 11.1716 17.7742 11.147 17.7561L11.2479 17.8341C11.2177 17.8103 11.1907 17.7828 11.1673 17.7524L11.2453 17.8533C11.2226 17.8221 11.2033 17.7887 11.1877 17.7535L11.238 17.8725C11.2181 17.8249 11.2043 17.775 11.1968 17.7239L11.2146 17.8564C11.207 17.7901 11.2078 17.7231 11.217 17.6569L11.1992 17.7895C11.222 17.6292 11.2773 17.4763 11.3168 17.3199C11.3637 17.125 11.3984 16.9274 11.4209 16.7282C11.4609 16.4045 11.4592 16.077 11.4157 15.7537C11.4103 15.6226 11.3586 15.4977 11.2697 15.4012C11.1763 15.3077 11.0495 15.2552 10.9173 15.2552C10.7851 15.2552 10.6583 15.3077 10.5648 15.4012C10.4823 15.4911 10.4018 15.6265 10.4188 15.7537Z" fill="#263863"/>
<path d="M10.3584 20.9512C10.3427 21.7882 9.86685 22.6048 9.1311 23.0576C8.97445 23.1539 8.80194 23.2393 8.69385 23.3844C8.61033 23.4965 8.5738 23.6336 8.53892 23.7672C8.40325 24.2869 8.26677 24.8123 8.25821 25.3479C8.24964 25.8835 8.38051 26.4384 8.72954 26.8573C8.78923 26.9289 8.86128 26.9997 8.95509 27.0181C9.03597 27.0285 9.1181 27.0132 9.18972 26.9741C9.83931 26.6672 9.8707 25.7743 10.3657 25.2681C10.796 24.8281 11.5036 24.7513 11.9949 24.3743C12.6536 23.869 12.773 22.9457 12.6438 22.1474C12.5849 21.7838 12.4714 21.4036 12.1827 21.1607C11.7503 20.7968 11.0969 20.8637 10.5286 20.9523" fill="url(#paint7_linear_2359_69383)"/>
<path d="M9.86009 20.9513C9.85815 21.0391 9.85149 21.1267 9.84016 21.2138L9.85796 21.0813C9.82762 21.3018 9.76827 21.5174 9.68144 21.7224L9.73169 21.6033C9.64327 21.8098 9.52924 22.0043 9.39229 22.1823L9.47023 22.0814C9.33416 22.2568 9.17674 22.4145 9.00163 22.5509L9.10252 22.473C8.88259 22.6422 8.62449 22.7555 8.41984 22.9455C8.16934 23.1781 8.09047 23.5079 8.00883 23.8256C7.93753 24.1031 7.87037 24.3821 7.82678 24.6654C7.77977 24.971 7.74555 25.2796 7.76563 25.589C7.80465 26.1903 7.99358 26.789 8.40492 27.2418C8.55812 27.4105 8.7867 27.5317 9.01921 27.521C9.21035 27.5096 9.39506 27.4477 9.55444 27.3416C9.77089 27.1978 9.95296 27.008 10.0877 26.7857C10.3192 26.4177 10.4276 25.9828 10.6953 25.6358L10.6174 25.7367C10.6882 25.6464 10.7699 25.5651 10.8606 25.4947L10.7597 25.5727C10.939 25.4358 11.144 25.3399 11.3508 25.2524L11.2318 25.3027C11.4653 25.2043 11.7037 25.1151 11.9299 25.0003C12.1513 24.8903 12.3527 24.7438 12.5256 24.5671C12.8504 24.218 13.0627 23.7793 13.1349 23.3081C13.1761 23.0674 13.1932 22.8233 13.186 22.5792C13.1761 22.3328 13.145 22.0876 13.0931 21.8465C12.9803 21.3224 12.6897 20.8004 12.1808 20.5731C12.039 20.5056 11.8891 20.4568 11.7347 20.4279C11.5792 20.4005 11.4217 20.3858 11.2637 20.384C10.973 20.3835 10.6827 20.4272 10.3962 20.4717C10.2809 20.4896 10.1546 20.6046 10.0983 20.7008C10.0652 20.7573 10.0436 20.8198 10.0347 20.8846C10.0258 20.9495 10.0298 21.0155 10.0464 21.0788C10.063 21.1422 10.0919 21.2016 10.1315 21.2537C10.1711 21.3059 10.2206 21.3497 10.2771 21.3828L10.3962 21.433C10.4829 21.4568 10.5745 21.4568 10.6612 21.433C10.7273 21.4228 10.7935 21.413 10.8598 21.404L10.7273 21.4218C10.9985 21.3858 11.2745 21.3635 11.5471 21.3988L11.4146 21.381C11.5416 21.3973 11.6659 21.4301 11.7843 21.4788L11.6652 21.4285C11.7484 21.4644 11.8269 21.5103 11.899 21.5651L11.7981 21.4871C11.8652 21.5399 11.9257 21.6004 11.9784 21.6675L11.9004 21.5666C11.9689 21.657 12.0256 21.7558 12.0692 21.8605L12.0189 21.7414C12.0983 21.9439 12.1514 22.1557 12.1769 22.3716L12.1591 22.2391C12.1997 22.5277 12.2019 22.8204 12.1655 23.1095L12.1833 22.977C12.1571 23.1778 12.105 23.3744 12.0284 23.5618L12.0787 23.4427C12.0201 23.5822 11.9443 23.7138 11.853 23.8344L11.931 23.7335C11.8474 23.8414 11.7505 23.9383 11.6426 24.0219L11.7435 23.9439C11.5621 24.0819 11.3555 24.1791 11.1466 24.2675L11.2657 24.2173C10.825 24.403 10.3625 24.5625 10.0181 24.9108C9.73866 25.1936 9.5856 25.5512 9.42302 25.9061C9.3481 26.082 9.25402 26.2492 9.14246 26.4045L9.22041 26.3036C9.16111 26.3814 9.09234 26.4515 9.01569 26.5123L9.11657 26.4344C9.05255 26.4836 8.98273 26.5248 8.90866 26.557L9.02774 26.5067C8.99263 26.5212 8.95607 26.5319 8.91869 26.5386L9.05121 26.5208C9.02467 26.5243 8.99781 26.5248 8.97116 26.5222L9.10368 26.54C9.07978 26.5362 9.0564 26.5297 9.03399 26.5206L9.15307 26.5708C9.12766 26.5589 9.10359 26.5443 9.08125 26.5273L9.18213 26.6052C9.13054 26.5614 9.08417 26.5118 9.04392 26.4573L9.12186 26.5582C9.02098 26.4263 8.93736 26.282 8.87302 26.1289L8.92327 26.2479C8.84506 26.0569 8.79165 25.8567 8.76434 25.6521L8.78215 25.7846C8.746 25.486 8.7497 25.1839 8.79317 24.8862L8.77536 25.0187C8.80946 24.7826 8.85556 24.5483 8.91346 24.3169C8.94096 24.2036 8.97002 24.0906 8.99939 23.9778C9.02381 23.8715 9.05504 23.7668 9.09291 23.6645L9.04266 23.7836C9.06598 23.7269 9.09645 23.6734 9.13331 23.6244L9.05536 23.7253C9.09247 23.68 9.13453 23.639 9.18077 23.603L9.07988 23.681C9.23913 23.5587 9.42261 23.4725 9.58309 23.3511C10.1435 22.9451 10.5525 22.3637 10.7453 21.699C10.8144 21.4556 10.8519 21.2043 10.8571 20.9513C10.8571 20.8858 10.8442 20.821 10.8191 20.7605C10.7941 20.7001 10.7573 20.6451 10.711 20.5988C10.6648 20.5525 10.6098 20.5158 10.5493 20.4908C10.4889 20.4657 10.424 20.4528 10.3586 20.4528C10.2265 20.4534 10.0999 20.5058 10.0061 20.5988C9.91512 20.694 9.86304 20.8197 9.86009 20.9513Z" fill="#263863"/>
<path d="M10.9253 18.4595C11.0608 19.1211 10.5433 19.7892 10.6878 20.4492C10.6934 20.4905 10.712 20.529 10.7411 20.5589C10.786 20.5981 10.8545 20.5982 10.9159 20.5956C11.234 20.582 11.5999 20.5754 11.8123 20.7971C11.8703 20.8577 11.9119 20.9318 11.9764 20.9864C12.163 21.1444 12.481 21.0758 12.6496 20.901C12.8182 20.7262 12.8724 20.4817 12.9054 20.2484C12.9385 20.0151 12.9595 19.7726 13.0805 19.5662C13.1918 19.3763 13.3775 19.2353 13.5164 19.0621C13.6552 18.8888 13.7451 18.6476 13.6329 18.4582C13.4813 18.2025 13.0915 18.2108 12.7821 18.2536L11.1877 18.4741" fill="url(#paint8_linear_2359_69383)"/>
<path d="M10.4448 18.5919C10.4496 18.6159 10.4537 18.6401 10.4571 18.6643L10.4393 18.5318C10.4537 18.6525 10.4525 18.7744 10.4359 18.8948L10.4537 18.7623C10.4093 19.0899 10.2855 19.3992 10.2203 19.7222C10.1811 19.9161 10.1504 20.1206 10.1693 20.3189C10.1844 20.4775 10.2037 20.6237 10.2784 20.7663C10.392 20.983 10.6244 21.0844 10.8583 21.0945C10.9422 21.0982 11.0271 21.0889 11.1111 21.0884C11.1999 21.0873 11.2886 21.092 11.3768 21.1026L11.2443 21.0848C11.3283 21.0953 11.4106 21.1166 11.4891 21.1482L11.37 21.0979C11.4173 21.1184 11.4619 21.1444 11.5031 21.1753L11.4022 21.0974C11.4637 21.1537 11.5196 21.2158 11.5692 21.2829C11.6721 21.3966 11.803 21.4812 11.9489 21.5284C12.0012 21.5449 12.0552 21.5557 12.1098 21.5606C12.1646 21.5703 12.2202 21.574 12.2758 21.5719C12.3522 21.5672 12.4281 21.5562 12.5027 21.5389C12.5751 21.5181 12.6456 21.4911 12.7134 21.4582C12.8136 21.4113 12.9053 21.348 12.9847 21.2707C13.0708 21.1884 13.1431 21.0927 13.1989 20.9875C13.2937 20.8045 13.3561 20.6065 13.3832 20.4023C13.4132 20.1987 13.4312 19.9916 13.5108 19.7997L13.4605 19.9187C13.4917 19.8475 13.5313 19.7802 13.5785 19.7185L13.5006 19.8194C13.6774 19.5924 13.9205 19.4169 14.0495 19.1531C14.0945 19.0681 14.1292 18.978 14.1529 18.8848C14.1839 18.7481 14.1869 18.6066 14.1617 18.4687C14.1295 18.2879 14.0361 18.1236 13.8972 18.0034C13.7656 17.8877 13.6068 17.8074 13.4357 17.7697C13.2962 17.7407 13.1538 17.7286 13.0114 17.7335C12.8532 17.74 12.6964 17.7664 12.5398 17.788L12.0817 17.8514L11.0554 17.9933C10.9409 18.0091 10.8128 18.1279 10.7575 18.2224C10.7244 18.2789 10.7028 18.3414 10.6939 18.4062C10.685 18.4711 10.689 18.5371 10.7056 18.6004C10.7222 18.6638 10.7511 18.7232 10.7907 18.7754C10.8303 18.8275 10.8798 18.8714 10.9363 18.9044L11.0554 18.9546C11.1421 18.9784 11.2337 18.9784 11.3204 18.9546C11.856 18.8806 12.3914 18.8055 12.9271 18.7325L12.7945 18.7503C12.9427 18.7274 13.0931 18.7235 13.2422 18.7388L13.1097 18.721C13.1734 18.7291 13.2359 18.745 13.2957 18.7683L13.1766 18.718C13.2149 18.7341 13.2511 18.7546 13.2844 18.7793L13.1835 18.7014C13.2099 18.7222 13.2338 18.746 13.2547 18.7724L13.1768 18.6715C13.1945 18.6952 13.2097 18.7206 13.2221 18.7474L13.1719 18.6283C13.186 18.662 13.1956 18.6975 13.2004 18.7337L13.1826 18.6012C13.1861 18.6377 13.1856 18.6745 13.181 18.7109L13.1988 18.5783C13.1908 18.6301 13.1767 18.6807 13.1566 18.729L13.2068 18.61C13.1775 18.6773 13.14 18.7408 13.0951 18.799L13.1731 18.6981C13.0786 18.8179 12.9645 18.9196 12.8632 19.0333C12.787 19.1164 12.7183 19.2062 12.658 19.3016C12.5982 19.4034 12.5506 19.5119 12.5161 19.6248C12.4218 19.9186 12.4421 20.237 12.3248 20.525L12.375 20.4059C12.3472 20.4727 12.3111 20.5358 12.2675 20.5937L12.3455 20.4928C12.315 20.5318 12.2802 20.5672 12.2416 20.5983L12.3425 20.5203C12.3016 20.5512 12.2572 20.5771 12.2102 20.5974L12.3293 20.5471C12.2817 20.5668 12.232 20.5807 12.1811 20.5887L12.3137 20.5709C12.2681 20.5771 12.2218 20.5777 12.1761 20.5726L12.3086 20.5904C12.2723 20.5854 12.2368 20.576 12.2027 20.5625L12.3218 20.6128C12.2919 20.5999 12.2637 20.5834 12.2378 20.5637L12.3387 20.6416C12.2928 20.6005 12.2516 20.5544 12.2158 20.5043C12.1548 20.4318 12.0843 20.368 12.0062 20.3145C11.8893 20.2313 11.7566 20.1729 11.6163 20.1426C11.469 20.1098 11.3185 20.0927 11.1676 20.0917C11.0558 20.0901 10.9407 20.1064 10.8296 20.0953L10.9621 20.1131C10.9437 20.1105 10.9257 20.1059 10.9083 20.0995L11.0274 20.1497C11.0191 20.1462 11.0111 20.1419 11.0037 20.1367L11.1046 20.2147C11.0936 20.2063 11.0838 20.1966 11.0752 20.1858L11.1531 20.2867C11.1457 20.2752 11.1392 20.2631 11.1338 20.2505L11.184 20.3696C11.1691 20.3242 11.1588 20.2773 11.1534 20.2298L11.1712 20.3623C11.157 20.2419 11.1582 20.1201 11.1749 20L11.1571 20.1325C11.1936 19.8645 11.2831 19.6083 11.3502 19.3473C11.393 19.1796 11.4229 19.0089 11.4396 18.8367C11.4534 18.666 11.4422 18.4942 11.4062 18.3268C11.383 18.2094 11.2775 18.0877 11.1771 18.0289C11.1206 17.9959 11.0581 17.9743 10.9932 17.9654C10.9283 17.9565 10.8624 17.9605 10.799 17.9771C10.7357 17.9937 10.6762 18.0226 10.6241 18.0622C10.5719 18.1018 10.5281 18.1512 10.4951 18.2078C10.4325 18.3256 10.4147 18.462 10.4448 18.5919Z" fill="#263863"/>
<path d="M23.6279 6.21094C23.628 6.23559 23.631 6.25947 23.6317 6.28394C24.2937 6.28404 24.9296 6.54202 25.4046 7.00316C25.8795 7.46429 26.1561 8.0923 26.1758 8.75398C26.177 8.75397 26.1782 8.75416 26.1795 8.75416C26.1807 8.75415 26.1819 8.75397 26.1831 8.75396C26.2006 8.09222 26.4752 7.46331 26.9486 7.00064C27.4221 6.53796 28.0571 6.27791 28.7191 6.27565C28.7197 6.25119 28.7227 6.22729 28.7227 6.20265C28.0471 6.20375 27.3987 5.93642 26.9202 5.45947C26.4417 4.98252 26.1723 4.33503 26.1712 3.65942C26.1717 3.99395 26.1064 4.32531 25.9788 4.63458C25.8513 4.94385 25.6641 5.22497 25.428 5.4619C25.1918 5.69883 24.9113 5.88693 24.6025 6.01545C24.2936 6.14397 23.9625 6.21039 23.6279 6.21094Z" fill="#FBBD4D" stroke="#263863" stroke-width="0.5" stroke-miterlimit="10"/>
<path d="M27.9229 10.0712C27.9229 10.1043 27.927 10.1363 27.928 10.1691C28.8156 10.1692 29.6682 10.5151 30.305 11.1334C30.9418 11.7517 31.3128 12.5938 31.3391 13.481C31.3408 13.481 31.3424 13.4813 31.344 13.4813C31.3457 13.4812 31.3473 13.481 31.349 13.481C31.3724 12.5937 31.7406 11.7504 32.3754 11.1301C33.0102 10.5097 33.8617 10.161 34.7493 10.158C34.7502 10.1252 34.7541 10.0931 34.7541 10.0601C33.8482 10.0616 32.9789 9.70311 32.3373 9.0636C31.6957 8.42409 31.3344 7.5559 31.3329 6.65002C31.3336 7.09857 31.246 7.54287 31.075 7.95755C30.9041 8.37223 30.6531 8.74918 30.3364 9.06686C30.0198 9.38455 29.6437 9.63675 29.2295 9.80908C28.8154 9.9814 28.3714 10.0705 27.9229 10.0712Z" fill="url(#paint9_linear_2359_69383)" stroke="#263863" stroke-width="0.5" stroke-miterlimit="10"/>
<path d="M19.9712 13.2982C19.9713 13.3415 19.9766 13.3835 19.9779 13.4264C21.1405 13.4266 22.2573 13.8797 23.0915 14.6896C23.9256 15.4995 24.4115 16.6025 24.4459 17.7646C24.4481 17.7646 24.4502 17.7649 24.4524 17.7649C24.4546 17.7649 24.4567 17.7646 24.4589 17.7645C24.4896 16.6023 24.9718 15.4978 25.8033 14.6852C26.6348 13.8726 27.7502 13.4159 28.9128 13.4119C28.9139 13.3689 28.9191 13.327 28.9191 13.2837C27.7325 13.2856 26.5938 12.8161 25.7534 11.9784C24.913 11.1408 24.4398 10.0036 24.4378 8.81702C24.4388 9.40454 24.324 9.9865 24.1001 10.5297C23.8761 11.0728 23.5474 11.5666 23.1326 11.9827C22.7178 12.3988 22.2252 12.7292 21.6827 12.9549C21.1403 13.1806 20.5587 13.2973 19.9712 13.2982Z" fill="url(#paint10_linear_2359_69383)" stroke="#263863" stroke-width="0.5" stroke-miterlimit="10"/>
<defs>
<linearGradient id="paint0_linear_2359_69383" x1="8.61523" y1="12.0779" x2="16.1797" y2="12.0779" gradientUnits="userSpaceOnUse">
<stop stop-color="white"/>
<stop offset="0.04818" stop-color="#FDFDFD"/>
<stop offset="0.41722" stop-color="#F5F5F5"/>
<stop offset="1" stop-color="#F2F2F2"/>
</linearGradient>
<linearGradient id="paint1_linear_2359_69383" x1="8.52163" y1="12.0764" x2="16.3456" y2="12.0764" gradientUnits="userSpaceOnUse">
<stop stop-color="#263863"/>
<stop offset="0.39659" stop-color="#23355E"/>
<stop offset="0.88167" stop-color="#1C2D4F"/>
<stop offset="1" stop-color="#1A2A4A"/>
</linearGradient>
<linearGradient id="paint2_linear_2359_69383" x1="6.90794" y1="24.63" x2="25.8557" y2="24.63" gradientUnits="userSpaceOnUse">
<stop stop-color="white"/>
<stop offset="0.04818" stop-color="#FDFDFD"/>
<stop offset="0.41722" stop-color="#F5F5F5"/>
<stop offset="1" stop-color="#F2F2F2"/>
</linearGradient>
<linearGradient id="paint3_linear_2359_69383" x1="6.74195" y1="24.6341" x2="26.022" y2="24.6341" gradientUnits="userSpaceOnUse">
<stop stop-color="#263863"/>
<stop offset="0.39659" stop-color="#23355E"/>
<stop offset="0.88167" stop-color="#1C2D4F"/>
<stop offset="1" stop-color="#1A2A4A"/>
</linearGradient>
<linearGradient id="paint4_linear_2359_69383" x1="13.1509" y1="24.6856" x2="18.5088" y2="24.6856" gradientUnits="userSpaceOnUse">
<stop stop-color="white"/>
<stop offset="0.04818" stop-color="#FDFDFD"/>
<stop offset="0.41722" stop-color="#F5F5F5"/>
<stop offset="1" stop-color="#F2F2F2"/>
</linearGradient>
<linearGradient id="paint5_linear_2359_69383" x1="13.0609" y1="24.6847" x2="18.6752" y2="24.6847" gradientUnits="userSpaceOnUse">
<stop stop-color="#263863"/>
<stop offset="0.39659" stop-color="#23355E"/>
<stop offset="0.88167" stop-color="#1C2D4F"/>
<stop offset="1" stop-color="#1A2A4A"/>
</linearGradient>
<linearGradient id="paint6_linear_2359_69383" x1="10.7104" y1="16.5032" x2="13.8835" y2="16.5032" gradientUnits="userSpaceOnUse">
<stop stop-color="#FFCF6D"/>
<stop offset="0.36334" stop-color="#FFCD68"/>
<stop offset="0.8077" stop-color="#FEC759"/>
<stop offset="1" stop-color="#FDC350"/>
</linearGradient>
<linearGradient id="paint7_linear_2359_69383" x1="8.25781" y1="23.9526" x2="12.6899" y2="23.9526" gradientUnits="userSpaceOnUse">
<stop stop-color="#B0DABB"/>
<stop offset="0.37093" stop-color="#ABD8BA"/>
<stop offset="0.82455" stop-color="#9CD2B9"/>
<stop offset="1" stop-color="#94CFB8"/>
</linearGradient>
<linearGradient id="paint8_linear_2359_69383" x1="10.6621" y1="19.6528" x2="13.6836" y2="19.6528" gradientUnits="userSpaceOnUse">
<stop stop-color="#F16E6F"/>
<stop offset="0.26355" stop-color="#F27374"/>
<stop offset="0.58642" stop-color="#F38283"/>
<stop offset="0.939" stop-color="#F59B9C"/>
<stop offset="1" stop-color="#F6A0A1"/>
</linearGradient>
<linearGradient id="paint9_linear_2359_69383" x1="27.9456" y1="10.3673" x2="34.7278" y2="9.76447" gradientUnits="userSpaceOnUse">
<stop stop-color="#B0DABB"/>
<stop offset="0.37093" stop-color="#ABD8BA"/>
<stop offset="0.82455" stop-color="#9CD2B9"/>
<stop offset="1" stop-color="#94CFB8"/>
</linearGradient>
<linearGradient id="paint10_linear_2359_69383" x1="20.001" y1="13.6861" x2="28.8846" y2="12.8965" gradientUnits="userSpaceOnUse">
<stop stop-color="#F16E6F"/>
<stop offset="0.26355" stop-color="#F27374"/>
<stop offset="0.58642" stop-color="#F38283"/>
<stop offset="0.939" stop-color="#F59B9C"/>
<stop offset="1" stop-color="#F6A0A1"/>
</linearGradient>
</defs>
</svg>
