<svg width="40" height="40" viewBox="0 0 40 40" fill="none" xmlns="http://www.w3.org/2000/svg">
<path d="M14.3615 6.66924C14.6165 6.73092 15.0375 6.85338 15.4665 6.93249C16.6223 7.14565 17.5994 6.8128 18.3798 5.92793C18.6065 5.67095 18.8106 5.39195 19.0538 5.15212C19.6136 4.60004 20.4196 4.5964 20.9848 5.14437C21.2144 5.36698 21.4019 5.63253 21.6123 5.87527C22.4635 6.85719 23.5225 7.18911 24.7864 6.89202C25.149 6.80679 25.5142 6.69312 25.8819 6.67729C26.6752 6.64313 27.2416 7.23067 27.2995 8.02535C27.3396 8.57567 27.3639 9.1484 27.538 9.66293C27.8313 10.53 28.445 11.1493 29.332 11.4624C29.5236 11.53 29.7125 11.6056 29.9012 11.6811C30.9051 12.0824 31.1963 13.0072 30.6236 13.9239C30.3756 14.3208 30.0921 14.7154 29.9458 15.1517C29.6354 16.0775 29.7283 16.9808 30.2922 17.8165C30.5643 18.2196 30.8941 18.6013 30.9084 19.1332C30.924 19.7143 30.694 20.1563 30.1795 20.4231C29.8778 20.5796 29.5491 20.6833 29.2364 20.8196C28.1102 21.3103 27.4658 22.1571 27.3516 23.389C27.3269 23.6553 27.3099 23.9226 27.2975 24.1898C27.2526 25.156 26.444 25.7508 25.4927 25.5403C24.9437 25.4189 24.3853 25.2679 23.8301 25.2635C22.9299 25.2564 22.1811 25.6579 21.6101 26.3677C21.4221 26.6013 21.2374 26.8394 21.0304 27.0555C20.471 27.6393 19.6282 27.6556 19.0519 27.0893C18.8389 26.88 18.6595 26.6364 18.467 26.4066C17.6126 25.3867 16.5336 25.0528 15.2462 25.3485C14.9033 25.4273 14.5621 25.5467 14.2153 25.5677C13.3925 25.6175 12.794 25.0257 12.7505 24.2034C12.718 23.588 12.7372 22.9629 12.4448 22.3857C12.0733 21.652 11.5572 21.0823 10.762 20.8015C10.5407 20.7233 10.3236 20.6333 10.104 20.5502C9.20987 20.2117 8.87047 19.2771 9.34717 18.4484C9.47503 18.2261 9.62864 18.0188 9.76281 17.7999C10.44 16.6954 10.4462 15.5864 9.78163 14.4729C9.6554 14.2619 9.51141 14.0616 9.38139 13.8528C8.88266 13.0517 9.13818 12.1561 9.98737 11.7525C10.2378 11.6335 10.5035 11.5472 10.7599 11.4401C11.9464 10.9446 12.5947 10.0563 12.7047 8.77528C12.7349 8.4242 12.7301 8.06468 12.808 7.72429C12.9662 7.03379 13.4806 6.65982 14.3615 6.66924ZM20.0017 22.8603C23.6299 22.8486 26.7751 19.9925 26.7616 16.076C26.7491 12.466 23.8953 9.4116 20.044 9.38916C16.4047 9.36795 13.3756 12.2003 13.2862 15.9715C13.1966 19.757 16.187 22.8091 20.0017 22.8603Z" fill="#317FF2" stroke="#21409A" stroke-width="0.5" stroke-miterlimit="10"/>
<path d="M24.9727 15.3254C24.828 15.5709 24.7201 15.8504 24.531 16.0548C24.1288 16.4896 23.6715 16.8733 23.2655 17.305C23.1468 17.4449 23.0863 17.6249 23.0964 17.8081C23.1483 18.3261 23.2433 18.8405 23.3359 19.3537C23.4253 19.8488 23.3577 20.2845 22.9186 20.5954C22.4737 20.9104 22.0255 20.871 21.5707 20.6052C21.1321 20.3489 20.6722 20.1267 20.2484 19.8487C19.9682 19.665 19.7464 19.6976 19.4767 19.8495C19.0099 20.1125 18.526 20.3449 18.0508 20.5929C17.6419 20.8064 17.2336 20.8318 16.8571 20.5423C16.4983 20.2663 16.3998 19.8894 16.4936 19.4461C16.6103 18.8947 16.7293 18.3417 16.798 17.7834C16.8212 17.5951 16.7485 17.341 16.6252 17.1989C16.2649 16.7839 15.8565 16.4107 15.468 16.0201C15.149 15.6995 14.9748 15.3379 15.133 14.8747C15.2979 14.392 15.6693 14.2255 16.1391 14.1716C16.6993 14.1073 17.26 14.0356 17.8126 13.9269C17.9914 13.8817 18.1462 13.77 18.2454 13.6145C18.536 13.1152 18.7899 12.5942 19.0504 12.0777C19.2592 11.6637 19.5776 11.4107 20.0505 11.4216C20.5034 11.432 20.8093 11.6794 21.0013 12.086C21.2362 12.5834 21.5003 13.0678 21.7161 13.5731C21.8253 13.829 21.9855 13.9374 22.2456 13.9755C22.8313 14.0613 23.4157 14.157 23.9985 14.2625C24.555 14.3627 24.8908 14.754 24.9727 15.3254ZM16.816 15.3943L16.7668 15.5305C17.193 15.9396 17.6132 16.3551 18.048 16.7548C18.2368 16.9283 18.2811 17.1008 18.2234 17.3541C18.0898 17.9392 17.9944 18.5331 17.8655 19.219C18.5055 18.8917 19.061 18.6238 19.5993 18.3248C19.8264 18.1988 19.9978 18.2091 20.216 18.3396C20.7677 18.6696 21.3346 18.9743 21.985 19.3395C21.9268 18.9085 21.9375 18.5601 21.8277 18.2552C21.5091 17.3705 21.7647 16.7196 22.5136 16.1947C22.7765 16.0104 22.9843 15.7475 23.2786 15.4607C22.5979 15.3484 22.0448 15.2353 21.4861 15.173C21.137 15.1341 20.9375 14.9899 20.7989 14.6642C20.5769 14.1423 20.3046 13.6419 20.0146 13.0536C19.6968 13.6673 19.4036 14.1814 19.1623 14.7189C19.0186 15.0391 18.8021 15.1393 18.4785 15.1707C17.9224 15.2247 17.37 15.3177 16.816 15.3943Z" fill="#FBD600" stroke="#21409A" stroke-width="0.5" stroke-miterlimit="10"/>
<path d="M15.9447 26.447C16.1692 26.447 16.3845 26.5362 16.5433 26.695C16.7021 26.8537 16.7912 27.0691 16.7912 27.2936V32.1267C16.7912 32.2766 16.8311 32.4239 16.9067 32.5534C16.9823 32.6829 17.0909 32.79 17.2215 32.8638C17.352 32.9375 17.4998 32.9753 17.6498 32.9731C17.7997 32.971 17.9464 32.9291 18.0748 32.8517L19.6088 31.927C19.7407 31.8475 19.8918 31.8055 20.0457 31.8054C20.1997 31.8054 20.3508 31.8474 20.4826 31.9268L22.0197 32.8525C22.1481 32.9299 22.2948 32.9717 22.4447 32.9738C22.5946 32.9759 22.7424 32.9381 22.8729 32.8644C23.0034 32.7906 23.112 32.6835 23.1876 32.554C23.2632 32.4245 23.303 32.2773 23.303 32.1273V27.2936C23.303 27.0691 23.3922 26.8537 23.5509 26.695C23.7097 26.5362 23.925 26.447 24.1495 26.447H24.1505C24.3751 26.447 24.5904 26.5362 24.7492 26.695C24.9079 26.8537 24.9971 27.0691 24.9971 27.2936V35.7216C24.9971 35.9461 24.9079 36.1614 24.7492 36.3202C24.5904 36.479 24.3751 36.5681 24.1505 36.5681H23.9606C23.7757 36.5681 23.5959 36.5076 23.4487 36.3958L20.6899 34.3013C20.5467 34.1926 20.3725 34.1323 20.1927 34.1291C20.013 34.126 19.8368 34.1802 19.6899 34.2838L16.6721 36.4133C16.5293 36.5141 16.3588 36.5681 16.184 36.5681H15.9447C15.8335 36.5681 15.7234 36.5462 15.6207 36.5037C15.518 36.4612 15.4247 36.3988 15.3461 36.3202C15.2675 36.2416 15.2051 36.1483 15.1626 36.0456C15.12 35.9429 15.0981 35.8328 15.0981 35.7216V27.2936C15.0981 27.1824 15.12 27.0723 15.1626 26.9696C15.2051 26.8669 15.2675 26.7736 15.3461 26.695C15.4247 26.6164 15.518 26.554 15.6207 26.5115C15.7234 26.4689 15.8335 26.447 15.9447 26.447Z" fill="#FBD600" stroke="#21409A" stroke-width="0.5" stroke-miterlimit="10"/>
</svg>
