<svg width="24" height="24" viewBox="0 0 24 24" fill="none" xmlns="http://www.w3.org/2000/svg">
<path d="M16.0848 9.03144L16.085 9.03127L16.077 9.02326C15.8332 8.7795 15.5354 8.64805 15.1945 8.63814C14.8485 8.62809 14.5451 8.75155 14.2984 8.99826L10.9487 12.348L9.67697 11.0983C9.6767 11.098 9.67643 11.0977 9.67616 11.0975C9.44295 10.8647 9.14889 10.75 8.8122 10.75C8.46867 10.75 8.16826 10.8777 7.92342 11.1233C7.68862 11.3581 7.5752 11.6572 7.5752 12C7.5752 12.3429 7.68862 12.642 7.92342 12.8768L10.0734 15.0268C10.3171 15.2705 10.6129 15.4 10.9502 15.4C11.2875 15.4 11.5832 15.2705 11.827 15.0268L16.077 10.7768C16.3226 10.5312 16.4481 10.2322 16.4371 9.89192C16.4264 9.5647 16.307 9.27471 16.0848 9.03144ZM6.91534 19.1727L6.85988 19.079L6.75349 19.0558L4.00349 18.4558L4.00349 18.4557L3.99922 18.4549C3.8118 18.4174 3.6666 18.3239 3.55319 18.1661C3.43952 18.008 3.39831 17.8428 3.42299 17.6582L3.42315 17.6582L3.42402 17.6493L3.69902 14.8243L3.70946 14.717L3.63861 14.6357L1.76361 12.4857L1.76365 12.4857L1.76018 12.4819C1.63576 12.345 1.5752 12.1885 1.5752 12C1.5752 11.8116 1.63576 11.6551 1.76018 11.5182L1.76022 11.5182L1.76361 11.5144L3.63861 9.36435L3.70946 9.28311L3.69902 9.17582L3.42402 6.35082L3.42418 6.3508L3.423 6.342C3.39827 6.1565 3.43961 5.99096 3.55319 5.83296C3.66649 5.67535 3.81146 5.58224 3.9986 5.54531L3.99861 5.54536L4.00349 5.54429L6.75349 4.94429L6.85988 4.92108L6.91534 4.82737L8.36418 2.37933C8.46746 2.21228 8.6032 2.10606 8.77701 2.04995C8.95039 1.99397 9.12127 2.00198 9.30116 2.07959L9.30116 2.07959L9.30278 2.08028L11.9028 3.18028L12.0002 3.22149L12.0976 3.18028L14.6976 2.08028L14.6987 2.07983C14.8789 2.0026 15.0502 1.99454 15.224 2.05015C15.3973 2.10559 15.5328 2.21152 15.6361 2.37917L17.0851 4.82737L17.1405 4.92108L17.2469 4.94429L19.9969 5.54429L19.9969 5.54433L20.0012 5.54518C20.1886 5.58267 20.3338 5.6762 20.4472 5.83396C20.5609 5.99209 20.6021 6.15729 20.5774 6.34191L20.5772 6.34189L20.5764 6.35082L20.3014 9.17582L20.2909 9.28311L20.3618 9.36435L22.2368 11.5144L22.2367 11.5144L22.2402 11.5182C22.3646 11.6551 22.4252 11.8116 22.4252 12C22.4252 12.1885 22.3646 12.345 22.2402 12.4819L22.2402 12.4818L22.2368 12.4857L20.3618 14.6357L20.2909 14.717L20.3014 14.8243L20.5764 17.6493L20.5762 17.6493L20.5774 17.6581C20.6021 17.8436 20.5608 18.0091 20.4472 18.1671C20.3339 18.3247 20.1889 18.4178 20.0018 18.4548L20.0018 18.4547L19.9969 18.4558L17.2469 19.0558L17.1405 19.079L17.0851 19.1727L15.6362 21.6208C15.5329 21.7878 15.3972 21.894 15.2234 21.9501C15.05 22.0061 14.8791 21.9981 14.6992 21.9205L14.6976 21.9198L12.0976 20.8198L12.0002 20.7786L11.9028 20.8198L9.30278 21.9198L9.30171 21.9203C9.12152 21.9975 8.95017 22.0055 8.77639 21.9499C8.60311 21.8945 8.46756 21.7886 8.36427 21.6209L6.91534 19.1727Z" fill="url(#paint0_linear_1533_97202)" stroke="white" stroke-width="0.5"/>
<defs>
<linearGradient id="paint0_linear_1533_97202" x1="12.0002" y1="1.76367" x2="12.0002" y2="22.2364" gradientUnits="userSpaceOnUse">
<stop stop-color="#317FF2"/>
<stop offset="1" stop-color="#1861CD"/>
</linearGradient>
</defs>
</svg>
