<svg width="24" height="24" viewBox="0 0 24 24" fill="none" xmlns="http://www.w3.org/2000/svg">
<rect x="6" y="6" width="12" height="12" fill="white"/>
<rect x="6" y="6" width="12" height="12" fill="white"/>
<path d="M16.0845 9.03144L16.0847 9.03127L16.0767 9.02326C15.833 8.7795 15.5352 8.64805 15.1942 8.63814C14.8483 8.62809 14.5449 8.75155 14.2982 8.99826L10.9484 12.348L9.67673 11.0983C9.67646 11.098 9.67619 11.0977 9.67592 11.0975C9.4427 10.8647 9.14864 10.75 8.81195 10.75C8.46843 10.75 8.16802 10.8777 7.92317 11.1233C7.68838 11.3581 7.57495 11.6572 7.57495 12C7.57495 12.3429 7.68838 12.642 7.92317 12.8768L10.0732 15.0268C10.3169 15.2705 10.6126 15.4 10.95 15.4C11.2873 15.4 11.583 15.2705 11.8267 15.0268L16.0767 10.7768C16.3223 10.5312 16.4479 10.2322 16.4368 9.89192C16.4262 9.5647 16.3067 9.27471 16.0845 9.03144ZM6.9151 19.1727L6.85963 19.079L6.75324 19.0558L4.00324 18.4558L4.00325 18.4557L3.99898 18.4549C3.81156 18.4174 3.66635 18.3239 3.55294 18.1661C3.43928 18.008 3.39806 17.8428 3.42275 17.6582L3.42291 17.6582L3.42377 17.6493L3.69878 14.8243L3.70922 14.717L3.63837 14.6357L1.76337 12.4857L1.76341 12.4857L1.75994 12.4819C1.63552 12.345 1.57495 12.1885 1.57495 12C1.57495 11.8116 1.63552 11.6551 1.75994 11.5182L1.75998 11.5182L1.76337 11.5144L3.63837 9.36435L3.70922 9.28311L3.69878 9.17582L3.42377 6.35082L3.42393 6.3508L3.42276 6.342C3.39803 6.1565 3.43937 5.99096 3.55295 5.83296C3.66625 5.67535 3.81121 5.58224 3.99835 5.54531L3.99836 5.54536L4.00324 5.54429L6.75324 4.94429L6.85963 4.92108L6.9151 4.82737L8.36394 2.37933C8.46722 2.21228 8.60295 2.10606 8.77676 2.04995C8.95015 1.99397 9.12103 2.00198 9.30092 2.07959L9.30091 2.07959L9.30254 2.08028L11.9025 3.18028L12 3.22149L12.0974 3.18028L14.6974 2.08028L14.6984 2.07983C14.8786 2.0026 15.05 1.99454 15.2238 2.05015C15.397 2.10559 15.5326 2.21152 15.6359 2.37917L17.0848 4.82737L17.1403 4.92108L17.2467 4.94429L19.9967 5.54429L19.9966 5.54433L20.0009 5.54518C20.1883 5.58267 20.3335 5.6762 20.447 5.83396C20.5606 5.99209 20.6018 6.15729 20.5772 6.34191L20.577 6.34189L20.5761 6.35082L20.3011 9.17582L20.2907 9.28311L20.3615 9.36435L22.2365 11.5144L22.2365 11.5144L22.24 11.5182C22.3644 11.6551 22.4249 11.8116 22.4249 12C22.4249 12.1885 22.3644 12.345 22.24 12.4819L22.2399 12.4818L22.2365 12.4857L20.3615 14.6357L20.2907 14.717L20.3011 14.8243L20.5761 17.6493L20.576 17.6493L20.5771 17.6581C20.6019 17.8436 20.5605 18.0091 20.447 18.1671C20.3337 18.3247 20.1887 18.4178 20.0015 18.4548L20.0015 18.4547L19.9967 18.4558L17.2467 19.0558L17.1403 19.079L17.0848 19.1727L15.6359 21.6208C15.5327 21.7878 15.3969 21.894 15.2231 21.9501C15.0498 22.0061 14.8789 21.9981 14.699 21.9205L14.6974 21.9198L12.0974 20.8198L12 20.7786L11.9025 20.8198L9.30254 21.9198L9.30147 21.9203C9.12127 21.9975 8.94992 22.0055 8.77615 21.9499C8.60286 21.8945 8.46732 21.7886 8.36402 21.6209L6.9151 19.1727Z" fill="url(#paint0_linear_1533_99885)" stroke="white" stroke-width="0.5"/>
<defs>
<linearGradient id="paint0_linear_1533_99885" x1="12" y1="1.76367" x2="12" y2="22.2364" gradientUnits="userSpaceOnUse">
<stop stop-color="#317FF2"/>
<stop offset="1" stop-color="#1861CD"/>
</linearGradient>
</defs>
</svg>
